<svg version="1.1" id="Layer_1" xmlns="http://www.w3.org/2000/svg" xmlns:xlink="http://www.w3.org/1999/xlink" x="0px" y="0px"
	 width="100%" viewBox="0 0 1921 1501" enable-background="new 0 0 1921 1501" xml:space="preserve">
<path fill="#E7E9EC" opacity="1.000000" stroke="none" 
	d="
M1922.000000,227.000000 
	C1922.000000,246.020889 1922.000000,265.041779 1921.633179,284.412659 
	C1913.588379,281.382599 1905.596680,282.340088 1897.834106,283.779419 
	C1869.448975,289.042419 1848.702148,317.794495 1853.874512,347.435577 
	C1859.315308,378.614594 1891.635132,400.886047 1922.000000,392.000000 
	C1922.000000,410.687561 1922.000000,429.375122 1921.605469,448.718018 
	C1919.730469,449.165314 1918.249390,448.959930 1916.769287,448.748688 
	C1891.528687,445.146393 1867.436646,458.818390 1857.670410,482.287354 
	C1847.913940,505.732788 1855.106934,532.645935 1875.298706,547.967468 
	C1889.282715,558.578491 1905.049805,561.092957 1922.000000,558.000000 
	C1922.000000,576.020874 1922.000000,594.041809 1921.587158,612.598755 
	C1920.351685,613.011475 1919.524048,612.913818 1918.706787,612.760925 
	C1885.152710,606.481445 1853.708862,632.469299 1853.424072,666.542236 
	C1853.299805,681.407532 1858.421753,694.169495 1867.255615,704.392944 
	C1837.627441,735.156677 1808.204224,765.707581 1779.004639,796.026245 
	C1753.150146,777.204224 1723.500366,781.385254 1705.318481,798.534119 
	C1695.911377,807.406921 1690.147949,818.321045 1688.383301,831.105896 
	C1686.268188,846.430542 1690.008789,860.447693 1698.190308,871.625000 
	C1669.164551,901.513672 1640.536499,930.992737 1612.026855,960.350037 
	C1582.520020,940.028320 1549.890747,949.486206 1533.607910,970.887329 
	C1516.530273,993.332825 1519.094116,1025.604370 1539.558838,1044.972656 
	C1560.672729,1064.955200 1593.233643,1065.381348 1615.334595,1045.719360 
	C1625.265137,1036.884766 1631.199097,1025.603027 1632.911987,1012.429993 
	C1635.333008,993.812439 1629.643555,977.714844 1617.576904,965.505920 
	C1646.385254,936.154724 1674.910278,907.092224 1703.430420,878.034729 
	C1727.531372,901.203735 1761.352173,898.718018 1781.636353,879.498047 
	C1791.832764,869.836487 1797.649658,857.875427 1798.801392,843.899780 
	C1800.218750,826.700439 1794.484253,811.895813 1782.801758,799.669678 
	C1812.516724,769.274231 1842.052490,739.061951 1871.656982,708.779419 
	C1880.755127,716.283142 1889.548096,721.094543 1899.737915,722.019897 
	C1907.097290,722.688232 1914.575073,722.053528 1922.000000,722.000000 
	C1922.000000,742.687561 1922.000000,763.375122 1921.604492,784.516724 
	C1899.181396,780.470276 1880.081909,786.313477 1866.210693,803.802917 
	C1847.687500,827.157593 1849.505737,851.601746 1865.375977,874.288513 
	C1836.458862,903.673828 1807.880127,932.715210 1779.321411,961.736267 
	C1750.311523,939.449951 1715.963623,948.993835 1699.433350,970.529663 
	C1681.963257,993.290100 1684.579834,1026.248413 1705.483398,1045.332031 
	C1726.880615,1064.866455 1759.314209,1065.079468 1780.537720,1046.078613 
	C1800.517700,1028.190918 1807.993774,993.993225 1785.037354,967.356384 
	C1813.535767,938.072876 1841.961426,908.864197 1870.489136,879.550659 
	C1885.890137,892.627808 1902.769897,897.497681 1922.000000,893.000000 
	C1922.000000,911.687561 1922.000000,930.375122 1921.592285,949.677368 
	C1920.030396,950.130493 1918.874268,949.982239 1917.722656,949.805359 
	C1893.654785,946.110901 1870.707153,957.589355 1859.732056,978.815552 
	C1848.610718,1000.325256 1852.315918,1026.072632 1869.134521,1043.473145 
	C1870.232910,1044.609497 1871.917725,1045.178833 1873.329712,1046.011963 
	C1872.544189,1046.034180 1871.758667,1046.056519 1870.973022,1046.078735 
	C1842.466309,1075.146118 1813.959473,1104.213501 1785.448120,1133.285522 
	C1761.452881,1107.771729 1725.902466,1110.201294 1705.059570,1129.710083 
	C1684.783447,1148.688354 1682.051270,1181.451904 1699.160522,1203.814819 
	C1716.568359,1226.567993 1748.113525,1232.351807 1772.539551,1217.560791 
	C1794.617432,1204.191895 1809.749268,1171.241455 1790.251709,1139.510132 
	C1819.427368,1109.709839 1848.397827,1080.119019 1877.435425,1050.459717 
	C1891.533569,1059.859131 1906.359009,1061.705811 1922.000000,1059.000000 
	C1922.000000,1077.687622 1922.000000,1096.375122 1921.599854,1115.535889 
	C1897.757812,1110.239380 1872.240967,1121.548828 1860.383423,1142.963623 
	C1846.849976,1167.405640 1852.447876,1192.444458 1875.714478,1215.070312 
	C1846.902466,1244.495850 1818.078003,1273.934082 1789.082764,1303.546631 
	C1787.728516,1301.941162 1786.673828,1300.686523 1785.614502,1299.435791 
	C1768.861328,1279.656860 1740.511719,1274.399414 1717.086182,1286.726440 
	C1694.517456,1298.602539 1682.974976,1325.268677 1689.717651,1349.954102 
	C1698.400879,1381.744385 1731.447510,1398.997803 1762.458740,1387.931519 
	C1792.630371,1377.164795 1807.262085,1342.657593 1794.060547,1312.981812 
	C1792.651367,1309.814331 1793.157715,1308.108398 1795.517822,1305.783936 
	C1823.769531,1277.957275 1851.934937,1250.042603 1880.020996,1222.048706 
	C1882.174683,1219.902100 1883.786255,1219.756836 1886.472168,1220.927246 
	C1897.928711,1225.920044 1909.781982,1227.324097 1922.000000,1224.000000 
	C1922.000000,1242.687622 1922.000000,1261.375122 1921.599976,1280.703003 
	C1919.884766,1281.147583 1918.568848,1280.956055 1917.254395,1280.755615 
	C1878.476074,1274.844238 1845.779663,1309.842529 1855.005981,1347.978149 
	C1857.057007,1356.456177 1861.689331,1364.309814 1864.735229,1371.510376 
	C1836.604736,1400.268188 1808.122437,1429.385498 1779.557495,1458.587158 
	C1778.279663,1457.711914 1777.464111,1457.171265 1776.666992,1456.604736 
	C1741.756348,1431.792480 1695.113525,1451.210205 1688.315796,1493.390747 
	C1687.853882,1496.256714 1687.437500,1499.130127 1687.000000,1502.000000 
	C1669.645752,1502.000000 1652.291504,1502.000000 1634.278564,1501.621094 
	C1633.476929,1499.751953 1633.314331,1498.263184 1633.193726,1496.771118 
	C1629.782104,1454.559814 1582.748169,1431.468140 1547.379761,1454.747437 
	C1530.484131,1465.867920 1522.869019,1482.171265 1522.000000,1502.000000 
	C1502.979126,1502.000000 1483.958130,1502.000000 1464.403809,1501.560059 
	C1463.508179,1466.980835 1434.198975,1441.595459 1400.349121,1446.102661 
	C1372.892334,1449.758545 1351.477661,1475.039429 1353.000000,1502.000000 
	C1335.312378,1502.000000 1317.624878,1502.000000 1299.130249,1501.708984 
	C1298.280884,1500.588867 1298.227295,1499.760132 1298.197876,1498.930664 
	C1296.988525,1464.788330 1265.236206,1439.824219 1231.806152,1446.733765 
	C1205.250244,1452.222656 1188.317871,1473.107910 1187.000000,1502.000000 
	C791.709412,1502.000000 396.418762,1502.000000 1.064082,1502.000000 
	C1.064082,1001.763489 1.064082,501.526917 1.064082,1.000000 
	C451.354218,1.000000 901.708496,1.000000 1352.515625,1.467824 
	C1352.917603,3.432560 1352.828247,4.929296 1352.821411,6.426411 
	C1352.692749,34.520020 1372.945190,58.607941 1399.551514,62.018555 
	C1429.530151,65.861481 1455.494751,48.574696 1462.260498,19.799446 
	C1463.687134,13.732054 1463.463379,7.276627 1464.000000,1.000001 
	C1481.687622,1.000000 1499.375122,1.000000 1517.662476,1.449573 
	C1518.224365,3.561118 1518.158325,5.222997 1518.152954,6.885073 
	C1518.034546,43.335579 1552.527344,70.114609 1587.816528,60.955051 
	C1611.757202,54.741077 1632.046143,31.895859 1629.000000,1.000000 
	C1648.354248,1.000000 1667.708496,1.000000 1687.525635,1.406457 
	C1687.974243,2.979040 1687.980835,4.145861 1687.942261,5.311182 
	C1687.188965,28.059870 1700.275757,49.028454 1720.799072,57.947723 
	C1742.264893,67.276543 1766.779419,62.659340 1783.008789,46.155098 
	C1795.348999,33.606094 1799.916382,18.264093 1799.000000,1.000000 
	C1816.687622,1.000000 1834.375122,1.000000 1852.721680,1.426649 
	C1853.408936,4.341722 1853.420410,6.830464 1853.467773,9.318524 
	C1854.124512,43.853661 1889.408569,70.460014 1922.000000,61.000000 
	C1922.000000,79.687561 1922.000000,98.375122 1921.599854,117.702461 
	C1919.885742,118.144142 1918.571533,117.949188 1917.258301,117.747505 
	C1889.470825,113.479988 1862.788940,130.709671 1855.309326,157.751572 
	C1847.875732,184.627167 1861.665405,213.088943 1887.301025,223.910233 
	C1898.555786,228.661026 1910.163208,229.009445 1922.000000,227.000000 
M1452.171265,966.640259 
	C1480.223511,937.951965 1508.275879,909.263733 1536.112183,880.796448 
	C1566.963501,903.710571 1597.409302,894.106323 1612.982422,878.663452 
	C1629.970459,861.817688 1637.433228,830.847534 1618.113281,804.919006 
	C1648.758423,773.804199 1679.220825,742.875000 1709.683228,711.945862 
	C1738.547241,732.106201 1770.963623,722.429626 1787.099365,701.872192 
	C1804.759766,679.372192 1802.617188,647.460083 1782.015625,627.387634 
	C1761.999023,607.885376 1729.722534,606.554077 1708.185181,624.373291 
	C1697.059814,633.577881 1690.287964,645.380432 1688.382202,659.645508 
	C1685.919922,678.076355 1691.661377,694.029968 1703.218506,706.036682 
	C1672.859497,737.272705 1642.836426,768.163208 1612.846313,799.019714 
	C1587.130249,776.198425 1553.924927,780.690430 1534.861816,799.279907 
	C1517.141846,816.559937 1509.270264,849.634460 1533.103027,877.550964 
	C1532.328125,878.380066 1531.567261,879.250061 1530.748657,880.061646 
	C1504.604126,905.982117 1478.430786,931.873474 1452.349854,957.857544 
	C1450.273560,959.926208 1448.832153,962.632019 1446.772217,964.335938 
	C1446.023804,963.675537 1445.293945,962.992798 1444.524536,962.357910 
	C1419.815063,941.967407 1384.538940,945.286194 1364.833374,969.850952 
	C1345.580444,993.851318 1349.636108,1029.088989 1373.864014,1048.315430 
	C1395.459717,1065.453003 1426.865845,1063.866821 1446.921997,1044.625488 
	C1466.853394,1025.504028 1469.499390,994.284180 1453.196045,971.725708 
	C1452.250244,970.417053 1452.074097,968.552124 1452.171265,966.640259 
M1307.957397,941.457520 
	C1328.249756,920.550598 1348.542114,899.643677 1368.722534,878.852112 
	C1397.404541,903.285278 1431.745850,896.282715 1449.674561,876.264404 
	C1466.941040,856.985352 1470.173950,825.076904 1450.212280,802.405945 
	C1479.899658,771.993469 1509.533936,741.635193 1539.045654,711.402649 
	C1571.502808,733.559937 1604.779175,720.516602 1619.450562,699.250000 
	C1635.931152,675.361023 1631.587402,643.369873 1609.172485,624.535095 
	C1587.854980,606.622437 1555.409180,607.943298 1535.295410,627.224365 
	C1515.276855,646.414001 1510.091187,681.749329 1533.765503,706.356628 
	C1504.462402,736.221069 1475.181030,766.064941 1445.888306,795.897766 
	C1445.549683,796.242554 1445.060547,796.439636 1444.653076,796.698486 
	C1419.744995,776.812073 1389.424927,781.249695 1371.362183,797.465515 
	C1361.736084,806.107300 1355.640625,816.778076 1353.542236,829.541931 
	C1350.745605,846.553040 1355.057861,861.826172 1365.117188,874.374512 
	C1336.172363,903.920959 1307.612427,933.074524 1279.114868,962.164429 
	C1249.389771,939.203491 1214.846802,949.284058 1198.538208,970.793762 
	C1180.875732,994.088928 1184.067261,1027.053955 1206.182251,1046.575073 
	C1227.676392,1065.548218 1261.146362,1064.562866 1281.518799,1044.357056 
	C1303.289185,1022.764771 1304.025391,990.433350 1283.284058,966.468994 
	C1291.341797,958.298462 1299.399536,950.127991 1307.957397,941.457520 
M1422.034058,557.606262 
	C1450.365479,549.420532 1467.511841,524.059753 1463.173706,495.926971 
	C1459.589966,472.686676 1446.181152,456.994659 1423.729614,450.467194 
	C1401.255127,443.933075 1381.286987,449.911713 1366.061890,467.756866 
	C1350.971313,485.444305 1348.671997,505.773315 1357.889526,527.031677 
	C1366.854370,547.707031 1390.940186,564.304565 1422.034058,557.606262 
M1535.328857,1299.836792 
	C1525.197510,1312.349365 1520.892578,1326.519653 1522.793335,1342.608643 
	C1526.282593,1372.143066 1551.910645,1392.878784 1582.810303,1391.011963 
	C1610.815308,1389.320068 1633.925781,1363.925659 1633.532593,1335.277100 
	C1633.214478,1312.108521 1618.984375,1291.693359 1597.564819,1283.676025 
	C1575.499634,1275.416992 1551.435059,1281.509155 1535.328857,1299.836792 
M1422.543091,1281.954468 
	C1386.129883,1272.521118 1352.168335,1299.632202 1352.811646,1337.619995 
	C1353.311279,1367.117920 1378.160645,1391.170532 1408.155396,1391.189209 
	C1438.427490,1391.208008 1463.454712,1367.022095 1463.850708,1337.366089 
	C1464.200684,1311.172729 1449.239868,1290.752930 1422.543091,1281.954468 
M1608.380737,460.107971 
	C1595.722412,450.471954 1581.572998,446.509247 1565.734863,448.772858 
	C1534.264160,453.270630 1512.918579,483.488617 1519.224121,514.677551 
	C1525.613159,546.280579 1557.659790,566.060364 1588.550659,557.212646 
	C1609.330444,551.260986 1622.877441,537.532776 1627.727417,516.595459 
	C1632.850708,494.478088 1626.249756,475.531830 1608.380737,460.107971 
M1253.811035,1115.692139 
	C1248.522949,1115.402832 1243.199219,1114.569214 1237.952637,1114.912964 
	C1205.721924,1117.026245 1182.994019,1146.691284 1188.003052,1179.800415 
	C1192.622314,1210.333008 1224.366455,1231.549438 1254.759155,1224.417480 
	C1280.959961,1218.269043 1298.262207,1196.418213 1298.189575,1169.569458 
	C1298.119385,1143.608398 1280.422974,1121.794678 1253.811035,1115.692139 
M1420.599609,1115.955811 
	C1416.312622,1115.460327 1412.015137,1114.460327 1407.740112,1114.548706 
	C1371.843384,1115.291138 1346.713745,1147.163574 1354.024902,1182.463623 
	C1359.353516,1208.191406 1385.596436,1227.656982 1411.124634,1225.786987 
	C1441.084595,1223.592285 1463.165405,1199.967163 1463.793335,1171.862305 
	C1464.395874,1144.896973 1448.484253,1124.239868 1420.599609,1115.955811 
M1554.156982,120.660530 
	C1529.544189,130.227646 1515.464233,153.918839 1518.794922,180.161041 
	C1522.650269,210.536728 1551.825806,232.588028 1581.746582,227.740860 
	C1613.714966,222.561981 1634.757935,192.763718 1628.297485,161.821182 
	C1621.265747,128.142197 1588.599731,109.672783 1554.156982,120.660530 
M1459.693604,316.834076 
	C1449.757690,295.731873 1433.526489,283.534485 1409.883301,282.868622 
	C1386.743042,282.216949 1369.258057,292.594788 1358.852295,313.079193 
	C1348.445435,333.565948 1350.377075,354.018799 1364.454834,372.180389 
	C1378.546997,390.360901 1397.843384,397.233734 1420.344849,392.334198 
	C1454.083618,384.987823 1471.800171,350.984039 1459.693604,316.834076 
M1461.871826,157.662369 
	C1461.564697,156.714157 1461.265137,155.763397 1460.949463,154.818039 
	C1451.810303,127.464478 1422.994751,111.744331 1394.859619,118.761627 
	C1366.863892,125.744133 1348.589233,153.158218 1353.283325,181.130585 
	C1358.659668,213.166885 1388.334595,233.522385 1420.121338,226.977905 
	C1450.765259,220.668716 1469.765869,189.610001 1461.871826,157.662369 
M1582.055298,1225.549805 
	C1584.522705,1225.210205 1587.029785,1225.047974 1589.451294,1224.504028 
	C1618.690552,1217.935791 1637.054688,1191.304688 1632.876465,1161.611938 
	C1628.872070,1133.154785 1602.955078,1112.863159 1573.420044,1114.784668 
	C1546.703247,1116.522827 1520.887207,1139.465210 1522.404541,1172.020020 
	C1523.911621,1204.356689 1550.159790,1227.645142 1582.055298,1225.549805 
M1604.219238,384.736847 
	C1620.544067,373.407074 1629.198120,357.993713 1629.185791,337.939240 
	C1629.166992,307.135040 1604.335327,282.377563 1573.624390,282.569489 
	C1543.066528,282.760468 1518.084595,307.384033 1518.233887,337.786499 
	C1518.339600,359.319305 1527.897827,376.119507 1546.713501,386.598267 
	C1565.662720,397.151306 1584.916992,396.311768 1604.219238,384.736847 
M1785.278564,374.771973 
	C1785.810303,374.131409 1786.355469,373.501587 1786.871704,372.848755 
	C1803.278809,352.098572 1803.047974,322.722473 1786.324097,302.768005 
	C1769.060913,282.170105 1740.353760,276.635254 1716.715576,289.347229 
	C1693.852783,301.642303 1682.439453,329.123535 1690.191650,354.256348 
	C1703.029175,395.876160 1755.394897,407.505890 1785.278564,374.771973 
M1798.021606,493.503632 
	C1792.350586,465.078674 1766.788696,445.552612 1738.739014,448.219147 
	C1709.991699,450.951996 1688.237061,473.995728 1687.950317,502.794342 
	C1687.726929,525.229309 1697.809937,542.435303 1717.611084,552.775330 
	C1737.743652,563.288330 1758.022339,561.870300 1776.371216,548.285828 
	C1794.343872,534.979980 1801.394287,516.583069 1798.021606,493.503632 
M1196.703979,1366.790527 
	C1212.021240,1388.555054 1238.581177,1396.883545 1262.809814,1387.519775 
	C1286.801514,1378.247437 1301.313599,1353.682129 1297.881104,1328.152832 
	C1294.471924,1302.796387 1274.386963,1282.923096 1248.229370,1280.437744 
	C1225.979858,1278.323486 1207.907593,1286.962891 1195.953857,1305.917847 
	C1183.445801,1325.751953 1184.115479,1346.175537 1196.703979,1366.790527 
M1759.183716,119.256599 
	C1750.786133,118.805519 1742.207642,117.026321 1734.023560,118.141777 
	C1704.444824,122.173210 1683.363159,151.823166 1688.438721,181.025421 
	C1693.867432,212.258408 1722.583252,233.005707 1752.694946,227.450699 
	C1778.314209,222.724442 1797.079468,202.167587 1798.872681,176.864319 
	C1800.721802,150.773026 1785.149292,127.852539 1759.183716,119.256599 
z"/>
<path fill="#E7E9EC" opacity="1.000000" stroke="none" 
	d="
M1922.000000,1390.000000 
	C1922.000000,1427.263672 1922.000000,1464.527466 1922.000000,1502.000000 
	C1881.312622,1502.000000 1840.625000,1502.000000 1799.473633,1501.550049 
	C1798.963867,1486.332642 1793.549438,1473.628784 1784.612793,1463.673096 
	C1813.363037,1434.264038 1841.737793,1405.239258 1870.232300,1376.091919 
	C1872.904419,1378.105469 1874.836060,1379.639771 1876.846191,1381.063232 
	C1890.559570,1390.774780 1905.789551,1392.876953 1922.000000,1390.000000 
z"/>
<path fill="#25272A" opacity="1.000000" stroke="none" 
	d="
M1922.000000,721.562500 
	C1914.575073,722.053528 1907.097290,722.688232 1899.737915,722.019897 
	C1889.548096,721.094543 1880.755127,716.283142 1871.656982,708.779419 
	C1842.052490,739.061951 1812.516724,769.274231 1782.801758,799.669678 
	C1794.484253,811.895813 1800.218750,826.700439 1798.801392,843.899780 
	C1797.649658,857.875427 1791.832764,869.836487 1781.636353,879.498047 
	C1761.352173,898.718018 1727.531372,901.203735 1703.430420,878.034729 
	C1674.910278,907.092224 1646.385254,936.154724 1617.576904,965.505920 
	C1629.643555,977.714844 1635.333008,993.812439 1632.911987,1012.429993 
	C1631.199097,1025.603027 1625.265137,1036.884766 1615.334595,1045.719360 
	C1593.233643,1065.381348 1560.672729,1064.955200 1539.558838,1044.972656 
	C1519.094116,1025.604370 1516.530273,993.332825 1533.607910,970.887329 
	C1549.890747,949.486206 1582.520020,940.028320 1612.026855,960.350037 
	C1640.536499,930.992737 1669.164551,901.513672 1698.190308,871.625000 
	C1690.008789,860.447693 1686.268188,846.430542 1688.383301,831.105896 
	C1690.147949,818.321045 1695.911377,807.406921 1705.318481,798.534119 
	C1723.500366,781.385254 1753.150146,777.204224 1779.004639,796.026245 
	C1808.204224,765.707581 1837.627441,735.156677 1867.255615,704.392944 
	C1858.421753,694.169495 1853.299805,681.407532 1853.424072,666.542236 
	C1853.708862,632.469299 1885.152710,606.481445 1918.706787,612.760925 
	C1919.524048,612.913818 1920.351685,613.011475 1921.587158,613.067444 
	C1922.000000,614.714355 1922.000000,616.428711 1921.728516,618.671631 
	C1921.285156,619.287659 1921.113281,619.375061 1920.544678,619.306152 
	C1905.335571,616.018250 1891.737305,618.764465 1879.481689,627.697266 
	C1860.503540,641.529846 1854.041870,667.673157 1864.298218,688.867188 
	C1874.593628,710.141174 1899.141968,721.550537 1921.250488,715.248474 
	C1921.683472,715.191895 1921.841675,715.095947 1922.000000,715.000000 
	C1922.000000,717.041687 1922.000000,719.083313 1922.000000,721.562500 
M1554.614014,960.985840 
	C1535.360596,972.363464 1526.492188,989.095703 1528.940063,1011.444214 
	C1531.804565,1037.596436 1558.302490,1057.915161 1584.310181,1053.691772 
	C1605.286743,1050.285645 1619.668945,1038.328369 1625.421631,1017.841614 
	C1630.998535,997.981201 1625.587524,980.326294 1609.765137,967.025208 
	C1593.324829,953.204651 1574.796387,951.251282 1554.614014,960.985840 
M1726.371704,792.661987 
	C1724.700928,793.399475 1722.997437,794.071411 1721.364014,794.884155 
	C1699.201782,805.911499 1688.662354,831.288086 1696.466431,854.785767 
	C1704.115601,877.817627 1727.736694,891.923035 1751.938965,887.911743 
	C1775.569824,883.995178 1793.678467,862.115173 1792.954468,837.956421 
	C1791.958862,804.734558 1759.580444,781.330688 1726.371704,792.661987 
z"/>
<path fill="#3D89FE" opacity="1.000000" stroke="none" 
	d="
M1694.000000,1.000000 
	C1726.687622,1.000000 1759.375122,1.000000 1792.442993,1.454959 
	C1792.866821,2.908483 1792.919922,3.906738 1792.952515,4.905658 
	C1793.634766,25.811180 1781.629272,44.658199 1762.427368,52.829620 
	C1743.802246,60.755554 1722.305420,56.280724 1707.765869,41.312832 
	C1696.848145,30.073542 1693.030884,16.335781 1694.000000,1.000000 
z"/>
<path fill="#3D89FE" opacity="1.000000" stroke="none" 
	d="
M1359.000000,1.000000 
	C1391.354248,1.000000 1423.708496,1.000000 1456.710938,1.371822 
	C1459.192139,20.123535 1452.723755,35.189159 1438.227417,46.308086 
	C1423.184326,57.846279 1406.329956,59.875183 1388.821655,52.550419 
	C1368.625244,44.100929 1358.231445,25.717169 1359.000000,1.000000 
z"/>
<path fill="#3D89FE" opacity="1.000000" stroke="none" 
	d="
M1525.000000,1.000000 
	C1557.354248,1.000000 1589.708496,1.000000 1622.541504,1.465425 
	C1626.494385,37.200352 1593.838379,63.541470 1561.222778,55.002487 
	C1537.409302,48.767933 1520.260010,23.416979 1525.000000,1.000000 
z"/>
<path fill="#24262B" opacity="1.000000" stroke="none" 
	d="
M1922.000000,1223.571533 
	C1909.781982,1227.324097 1897.928711,1225.920044 1886.472168,1220.927246 
	C1883.786255,1219.756836 1882.174683,1219.902100 1880.020996,1222.048706 
	C1851.934937,1250.042603 1823.769531,1277.957275 1795.517822,1305.783936 
	C1793.157715,1308.108398 1792.651367,1309.814331 1794.060547,1312.981812 
	C1807.262085,1342.657593 1792.630371,1377.164795 1762.458740,1387.931519 
	C1731.447510,1398.997803 1698.400879,1381.744385 1689.717651,1349.954102 
	C1682.974976,1325.268677 1694.517456,1298.602539 1717.086182,1286.726440 
	C1740.511719,1274.399414 1768.861328,1279.656860 1785.614502,1299.435791 
	C1786.673828,1300.686523 1787.728516,1301.941162 1789.082764,1303.546631 
	C1818.078003,1273.934082 1846.902466,1244.495850 1875.714478,1215.070312 
	C1852.447876,1192.444458 1846.849976,1167.405640 1860.383423,1142.963623 
	C1872.240967,1121.548828 1897.757812,1110.239380 1921.599854,1116.004639 
	C1922.000000,1117.714355 1922.000000,1119.428711 1921.732422,1121.573730 
	C1921.298218,1122.067261 1921.131348,1122.130249 1920.558105,1122.087158 
	C1891.097168,1114.849609 1861.536621,1136.524902 1859.660889,1166.335938 
	C1857.515625,1200.434204 1889.219238,1227.148804 1921.213623,1218.061279 
	C1921.649414,1218.093140 1921.824707,1218.046509 1922.000000,1218.000000 
	C1922.000000,1219.714355 1922.000000,1221.428711 1922.000000,1223.571533 
M1695.787842,1322.492188 
	C1695.514404,1330.229004 1693.923462,1338.191650 1695.203979,1345.662109 
	C1699.823853,1372.613281 1727.481689,1390.032227 1754.616943,1383.909790 
	C1781.459473,1377.853516 1798.443359,1349.833618 1791.316772,1323.362305 
	C1785.513794,1301.806396 1766.821777,1286.841797 1744.782715,1286.107666 
	C1722.744019,1285.373413 1703.259033,1299.575562 1695.787842,1322.492188 
z"/>
<path fill="#242729" opacity="1.000000" stroke="none" 
	d="
M1922.000000,1058.562500 
	C1906.359009,1061.705811 1891.533569,1059.859131 1877.435425,1050.459717 
	C1848.397827,1080.119019 1819.427368,1109.709839 1790.251709,1139.510132 
	C1809.749268,1171.241455 1794.617432,1204.191895 1772.539551,1217.560791 
	C1748.113525,1232.351807 1716.568359,1226.567993 1699.160522,1203.814819 
	C1682.051270,1181.451904 1684.783447,1148.688354 1705.059570,1129.710083 
	C1725.902466,1110.201294 1761.452881,1107.771729 1785.448120,1133.285522 
	C1813.959473,1104.213501 1842.466309,1075.146118 1870.973022,1046.078735 
	C1871.758667,1046.056519 1872.544189,1046.034180 1873.329712,1046.011963 
	C1871.917725,1045.178833 1870.232910,1044.609497 1869.134521,1043.473145 
	C1852.315918,1026.072632 1848.610718,1000.325256 1859.732056,978.815552 
	C1870.707153,957.589355 1893.654785,946.110901 1917.722656,949.805359 
	C1918.874268,949.982239 1920.030396,950.130493 1921.592285,950.145996 
	C1922.000000,952.041687 1922.000000,954.083313 1921.767334,956.420715 
	C1921.354370,956.738708 1921.174194,956.760925 1920.659546,956.596436 
	C1912.585815,956.460999 1904.517700,955.102417 1897.165771,956.816223 
	C1870.362427,963.064514 1854.512085,989.617615 1860.844727,1016.089050 
	C1867.267456,1042.937500 1893.330200,1058.719482 1921.299805,1052.468140 
	C1921.724609,1052.275513 1921.862305,1052.137817 1922.000000,1052.000000 
	C1922.000000,1054.041626 1922.000000,1056.083374 1922.000000,1058.562500 
M1753.503052,1121.797852 
	C1750.369751,1121.454102 1747.234985,1120.802124 1744.103394,1120.816406 
	C1723.523804,1120.910767 1708.088989,1130.181763 1699.083252,1148.484497 
	C1690.152954,1166.633789 1692.092285,1184.676025 1704.616455,1200.584595 
	C1716.971924,1216.278931 1733.766357,1222.363403 1753.431763,1218.560669 
	C1776.044434,1214.187988 1792.698242,1193.679810 1792.981689,1170.864746 
	C1793.270630,1147.612427 1777.206909,1127.269775 1753.503052,1121.797852 
z"/>
<path fill="#25272B" opacity="1.000000" stroke="none" 
	d="
M1922.000000,892.571533 
	C1902.769897,897.497681 1885.890137,892.627808 1870.489136,879.550659 
	C1841.961426,908.864197 1813.535767,938.072876 1785.037354,967.356384 
	C1807.993774,993.993225 1800.517700,1028.190918 1780.537720,1046.078613 
	C1759.314209,1065.079468 1726.880615,1064.866455 1705.483398,1045.332031 
	C1684.579834,1026.248413 1681.963257,993.290100 1699.433350,970.529663 
	C1715.963623,948.993835 1750.311523,939.449951 1779.321411,961.736267 
	C1807.880127,932.715210 1836.458862,903.673828 1865.375977,874.288513 
	C1849.505737,851.601746 1847.687500,827.157593 1866.210693,803.802917 
	C1880.081909,786.313477 1899.181396,780.470276 1921.604492,784.985352 
	C1922.000000,786.714355 1922.000000,788.428711 1921.732422,790.556152 
	C1921.297485,791.031189 1921.130005,791.093201 1920.556396,791.049866 
	C1891.051270,783.827698 1861.578857,805.432129 1859.669922,835.279053 
	C1857.493408,869.311707 1889.272827,896.100098 1921.214600,887.019409 
	C1921.647827,887.065002 1921.823975,887.032532 1922.000000,887.000000 
	C1922.000000,888.714355 1922.000000,890.428711 1922.000000,892.571533 
M1792.974365,1006.313843 
	C1792.920532,973.643005 1765.760620,950.443420 1734.075073,956.003052 
	C1709.758301,960.269775 1692.424561,983.076050 1694.045166,1008.670654 
	C1695.545410,1032.363159 1716.389893,1052.851685 1740.149048,1053.987183 
	C1768.149780,1055.325317 1789.905640,1036.047363 1792.974365,1006.313843 
z"/>
<path fill="#3D89FE" opacity="1.000000" stroke="none" 
	d="
M1793.000000,1502.000000 
	C1760.312378,1502.000000 1727.624878,1502.000000 1694.426758,1501.556885 
	C1694.928345,1472.105347 1716.255859,1451.586548 1745.109253,1451.861694 
	C1771.444336,1452.112915 1792.530273,1474.188599 1793.000000,1502.000000 
z"/>
<path fill="#FEBA00" opacity="1.000000" stroke="none" 
	d="
M1458.000000,1502.000000 
	C1425.312378,1502.000000 1392.624878,1502.000000 1359.408936,1501.552490 
	C1359.034058,1469.021362 1388.674194,1445.667480 1419.874512,1453.047241 
	C1442.010742,1458.282959 1456.488892,1476.872681 1458.000000,1502.000000 
z"/>
<path fill="#3D89FE" opacity="1.000000" stroke="none" 
	d="
M1627.000000,1502.000000 
	C1594.312378,1502.000000 1561.624878,1502.000000 1528.541748,1501.593506 
	C1528.333252,1499.533325 1528.524292,1497.880371 1528.706543,1496.226196 
	C1532.036377,1466.005371 1560.385132,1446.063599 1589.943848,1453.150146 
	C1611.972168,1458.431396 1628.886597,1480.729004 1627.000000,1502.000000 
z"/>
<path fill="#E6E8EB" opacity="1.000000" stroke="none" 
	d="
M1292.000000,1502.000000 
	C1259.312378,1502.000000 1226.624878,1502.000000 1193.549805,1501.582520 
	C1193.435303,1498.361084 1193.572021,1495.536133 1194.002197,1492.756592 
	C1197.946289,1467.276978 1221.928955,1449.413696 1248.617188,1452.027344 
	C1273.290649,1454.443848 1293.040771,1477.193848 1292.000000,1502.000000 
z"/>
<path fill="#24262A" opacity="1.000000" stroke="none" 
	d="
M1793.428467,1502.000000 
	C1792.530273,1474.188599 1771.444336,1452.112915 1745.109253,1451.861694 
	C1716.255859,1451.586548 1694.928345,1472.105347 1693.958008,1501.556885 
	C1691.958374,1502.000000 1689.916626,1502.000000 1687.437500,1502.000000 
	C1687.437500,1499.130127 1687.853882,1496.256714 1688.315796,1493.390747 
	C1695.113525,1451.210205 1741.756348,1431.792480 1776.666992,1456.604736 
	C1777.464111,1457.171265 1778.279663,1457.711914 1779.557495,1458.587158 
	C1808.122437,1429.385498 1836.604736,1400.268188 1864.735229,1371.510376 
	C1861.689331,1364.309814 1857.057007,1356.456177 1855.005981,1347.978149 
	C1845.779663,1309.842529 1878.476074,1274.844238 1917.254395,1280.755615 
	C1918.568848,1280.956055 1919.884766,1281.147583 1921.599976,1281.171631 
	C1922.000000,1283.041626 1922.000000,1285.083374 1921.748413,1287.438843 
	C1921.313965,1287.791382 1921.131104,1287.830200 1920.605347,1287.680420 
	C1898.331543,1283.331299 1878.824707,1291.210449 1867.356567,1308.861816 
	C1856.672485,1325.306641 1856.942871,1347.410400 1868.024536,1363.467773 
	C1879.962280,1380.765503 1899.793701,1388.318726 1921.219482,1383.760986 
	C1921.642090,1383.924438 1921.821045,1383.962280 1922.000000,1384.000000 
	C1922.000000,1385.714355 1922.000000,1387.428711 1922.000000,1389.571533 
	C1905.789551,1392.876953 1890.559570,1390.774780 1876.846191,1381.063232 
	C1874.836060,1379.639771 1872.904419,1378.105469 1870.232300,1376.091919 
	C1841.737793,1405.239258 1813.363037,1434.264038 1784.612793,1463.673096 
	C1793.549438,1473.628784 1798.963867,1486.332642 1799.005127,1501.550049 
	C1797.285645,1502.000000 1795.571289,1502.000000 1793.428467,1502.000000 
z"/>
<path fill="#3D89FE" opacity="1.000000" stroke="none" 
	d="
M1860.000000,1.000000 
	C1880.020874,1.000000 1900.041870,1.000000 1920.535645,1.468643 
	C1920.990601,19.605404 1920.972778,37.273518 1920.570801,55.075958 
	C1887.073608,63.543255 1855.887085,35.453518 1860.000000,1.000000 
z"/>
<path fill="#272628" opacity="1.000000" stroke="none" 
	d="
M1922.000000,226.562500 
	C1910.163208,229.009445 1898.555786,228.661026 1887.301025,223.910233 
	C1861.665405,213.088943 1847.875732,184.627167 1855.309326,157.751572 
	C1862.788940,130.709671 1889.470825,113.479988 1917.258301,117.747505 
	C1918.571533,117.949188 1919.885742,118.144142 1921.599854,118.171120 
	C1922.000000,120.041664 1922.000000,122.083336 1921.744141,124.444733 
	C1921.303711,124.800110 1921.119385,124.835739 1920.592407,124.684845 
	C1918.617554,124.207443 1916.989746,123.888123 1915.352295,123.629890 
	C1889.100952,119.490150 1862.862671,139.901978 1859.863281,166.287704 
	C1855.719360,202.743301 1889.067627,229.051514 1921.294189,220.542053 
	C1921.729980,220.312607 1921.864990,220.156296 1922.000000,220.000000 
	C1922.000000,222.041672 1922.000000,224.083328 1922.000000,226.562500 
z"/>
<path fill="#25272B" opacity="1.000000" stroke="none" 
	d="
M1922.000000,557.571533 
	C1905.049805,561.092957 1889.282715,558.578491 1875.298706,547.967468 
	C1855.106934,532.645935 1847.913940,505.732788 1857.670410,482.287354 
	C1867.436646,458.818390 1891.528687,445.146393 1916.769287,448.748688 
	C1918.249390,448.959930 1919.730469,449.165314 1921.605469,449.186707 
	C1922.000000,451.041656 1922.000000,453.083344 1921.745850,455.445557 
	C1921.311646,455.814453 1921.131470,455.862762 1920.598877,455.741638 
	C1883.158691,447.892578 1851.808105,479.932709 1861.060059,516.143982 
	C1867.391602,540.925842 1893.086304,558.540771 1921.217285,551.826294 
	C1921.641602,551.960266 1921.820801,551.980164 1922.000000,552.000000 
	C1922.000000,553.714355 1922.000000,555.428711 1922.000000,557.571533 
z"/>
<path fill="#222429" opacity="1.000000" stroke="none" 
	d="
M1922.000000,391.583344 
	C1891.635132,400.886047 1859.315308,378.614594 1853.874512,347.435577 
	C1848.702148,317.794495 1869.448975,289.042419 1897.834106,283.779419 
	C1905.596680,282.340088 1913.588379,281.382599 1921.633179,284.881348 
	C1922.000000,286.388885 1922.000000,287.777802 1921.751953,289.644348 
	C1921.338257,290.162323 1921.172729,290.202606 1920.596680,290.120483 
	C1915.062622,289.624573 1909.915527,288.731171 1904.819580,288.963623 
	C1875.974487,290.279541 1853.419678,321.237823 1860.337769,349.052704 
	C1867.060303,376.081970 1894.185425,393.399841 1920.988037,386.476776 
	C1921.362793,386.903656 1921.662476,387.006836 1922.000000,387.000000 
	C1922.000000,388.388885 1922.000000,389.777802 1922.000000,391.583344 
z"/>
<path fill="#24262B" opacity="1.000000" stroke="none" 
	d="
M1524.562500,1.000000 
	C1520.260010,23.416979 1537.409302,48.767933 1561.222778,55.002487 
	C1593.838379,63.541470 1626.494385,37.200352 1623.010132,1.465425 
	C1624.714355,1.000000 1626.428711,1.000000 1628.571533,1.000000 
	C1632.046143,31.895859 1611.757202,54.741077 1587.816528,60.955051 
	C1552.527344,70.114609 1518.034546,43.335579 1518.152954,6.885073 
	C1518.158325,5.222997 1518.224365,3.561118 1518.131104,1.449573 
	C1520.041626,1.000000 1522.083374,1.000000 1524.562500,1.000000 
z"/>
<path fill="#24262B" opacity="1.000000" stroke="none" 
	d="
M1693.571533,1.000000 
	C1693.030884,16.335781 1696.848145,30.073542 1707.765869,41.312832 
	C1722.305420,56.280724 1743.802246,60.755554 1762.427368,52.829620 
	C1781.629272,44.658199 1793.634766,25.811180 1792.952515,4.905658 
	C1792.919922,3.906738 1792.866821,2.908483 1792.911621,1.454959 
	C1794.714355,1.000000 1796.428711,1.000000 1798.571533,1.000000 
	C1799.916382,18.264093 1795.348999,33.606094 1783.008789,46.155098 
	C1766.779419,62.659340 1742.264893,67.276543 1720.799072,57.947723 
	C1700.275757,49.028454 1687.188965,28.059870 1687.942261,5.311182 
	C1687.980835,4.145861 1687.974243,2.979040 1687.994263,1.406457 
	C1689.714355,1.000000 1691.428711,1.000000 1693.571533,1.000000 
z"/>
<path fill="#24262B" opacity="1.000000" stroke="none" 
	d="
M1358.571533,1.000000 
	C1358.231445,25.717169 1368.625244,44.100929 1388.821655,52.550419 
	C1406.329956,59.875183 1423.184326,57.846279 1438.227417,46.308086 
	C1452.723755,35.189159 1459.192139,20.123535 1457.179688,1.371822 
	C1459.041626,1.000000 1461.083374,1.000000 1463.562500,1.000001 
	C1463.463379,7.276627 1463.687134,13.732054 1462.260498,19.799446 
	C1455.494751,48.574696 1429.530151,65.861481 1399.551514,62.018555 
	C1372.945190,58.607941 1352.692749,34.520020 1352.821411,6.426411 
	C1352.828247,4.929296 1352.917603,3.432560 1352.984375,1.467824 
	C1354.714355,1.000000 1356.428711,1.000000 1358.571533,1.000000 
z"/>
<path fill="#27292C" opacity="1.000000" stroke="none" 
	d="
M1292.437500,1502.000000 
	C1293.040771,1477.193848 1273.290649,1454.443848 1248.617188,1452.027344 
	C1221.928955,1449.413696 1197.946289,1467.276978 1194.002197,1492.756592 
	C1193.572021,1495.536133 1193.435303,1498.361084 1193.081299,1501.582520 
	C1191.285645,1502.000000 1189.571289,1502.000000 1187.428467,1502.000000 
	C1188.317871,1473.107910 1205.250244,1452.222656 1231.806152,1446.733765 
	C1265.236206,1439.824219 1296.988525,1464.788330 1298.197876,1498.930664 
	C1298.227295,1499.760132 1298.280884,1500.588867 1298.661621,1501.708984 
	C1296.958374,1502.000000 1294.916626,1502.000000 1292.437500,1502.000000 
z"/>
<path fill="#24262B" opacity="1.000000" stroke="none" 
	d="
M1627.437500,1502.000000 
	C1628.886597,1480.729004 1611.972168,1458.431396 1589.943848,1453.150146 
	C1560.385132,1446.063599 1532.036377,1466.005371 1528.706543,1496.226196 
	C1528.524292,1497.880371 1528.333252,1499.533325 1528.073242,1501.593506 
	C1526.285645,1502.000000 1524.571289,1502.000000 1522.428467,1502.000000 
	C1522.869019,1482.171265 1530.484131,1465.867920 1547.379761,1454.747437 
	C1582.748169,1431.468140 1629.782104,1454.559814 1633.193726,1496.771118 
	C1633.314331,1498.263184 1633.476929,1499.751953 1633.809937,1501.621094 
	C1631.958374,1502.000000 1629.916626,1502.000000 1627.437500,1502.000000 
z"/>
<path fill="#272727" opacity="1.000000" stroke="none" 
	d="
M1458.428467,1502.000000 
	C1456.488892,1476.872681 1442.010742,1458.282959 1419.874512,1453.047241 
	C1388.674194,1445.667480 1359.034058,1469.021362 1358.940186,1501.552490 
	C1357.285645,1502.000000 1355.571289,1502.000000 1353.428467,1502.000000 
	C1351.477661,1475.039429 1372.892334,1449.758545 1400.349121,1446.102661 
	C1434.198975,1441.595459 1463.508179,1466.980835 1463.935303,1501.560059 
	C1462.285645,1502.000000 1460.571289,1502.000000 1458.428467,1502.000000 
z"/>
<path fill="#24262B" opacity="1.000000" stroke="none" 
	d="
M1859.562500,1.000000 
	C1855.887085,35.453518 1887.073608,63.543255 1920.828735,55.155121 
	C1921.647339,55.066639 1921.823730,55.033321 1922.000000,55.000000 
	C1922.000000,56.714359 1922.000000,58.428715 1922.000000,60.571537 
	C1889.408569,70.460014 1854.124512,43.853661 1853.467773,9.318524 
	C1853.420410,6.830464 1853.408936,4.341722 1853.190430,1.426649 
	C1855.041626,1.000000 1857.083374,1.000000 1859.562500,1.000000 
z"/>
<path fill="#68A2FA" opacity="1.000000" stroke="none" 
	d="
M1921.007202,290.242920 
	C1921.172729,290.202606 1921.338257,290.162323 1921.751953,290.061005 
	C1922.000000,322.020905 1922.000000,354.041779 1922.000000,386.531342 
	C1921.662476,387.006836 1921.362793,386.903656 1921.024414,385.991669 
	C1920.967651,353.609589 1920.987427,321.926239 1921.007202,290.242920 
z"/>
<path fill="#68A2FA" opacity="1.000000" stroke="none" 
	d="
M1920.948242,1287.868896 
	C1921.131104,1287.830200 1921.313965,1287.791382 1921.748413,1287.876343 
	C1922.000000,1319.687622 1922.000000,1351.375122 1922.000000,1383.531372 
	C1921.821045,1383.962280 1921.642090,1383.924438 1921.232422,1383.317627 
	C1920.983887,1351.122070 1920.966064,1319.495483 1920.948242,1287.868896 
z"/>
<path fill="#68A2FA" opacity="1.000000" stroke="none" 
	d="
M1922.000000,551.531372 
	C1921.820801,551.980164 1921.641602,551.960266 1921.230957,551.377625 
	C1920.983398,519.180237 1920.967407,487.545624 1920.951416,455.911041 
	C1921.131470,455.862762 1921.311646,455.814453 1921.745850,455.883057 
	C1922.000000,487.687561 1922.000000,519.375122 1922.000000,551.531372 
z"/>
<path fill="#68A2FA" opacity="1.000000" stroke="none" 
	d="
M1922.000000,886.531372 
	C1921.823975,887.032532 1921.647827,887.065002 1921.229614,886.555054 
	C1920.979248,854.393494 1920.970825,822.774292 1920.962402,791.155151 
	C1921.130005,791.093201 1921.297485,791.031189 1921.732422,790.984619 
	C1922.000000,822.687561 1922.000000,854.375122 1922.000000,886.531372 
z"/>
<path fill="#F7C63B" opacity="1.000000" stroke="none" 
	d="
M1922.000000,714.531372 
	C1921.841675,715.095947 1921.683472,715.191895 1921.262939,714.765015 
	C1920.980835,682.649048 1920.961060,651.055786 1920.941284,619.462524 
	C1921.113281,619.375061 1921.285156,619.287659 1921.728516,619.100098 
	C1922.000000,650.687561 1922.000000,682.375122 1922.000000,714.531372 
z"/>
<path fill="#68A2FA" opacity="1.000000" stroke="none" 
	d="
M1920.964355,1122.193359 
	C1921.131348,1122.130249 1921.298218,1122.067261 1921.732422,1122.002197 
	C1922.000000,1153.687622 1922.000000,1185.375122 1922.000000,1217.531372 
	C1921.824707,1218.046509 1921.649414,1218.093140 1921.230225,1217.594238 
	C1920.979004,1185.430298 1920.971680,1153.811890 1920.964355,1122.193359 
z"/>
<path fill="#F8766A" opacity="1.000000" stroke="none" 
	d="
M1920.934937,124.871368 
	C1921.119385,124.835739 1921.303711,124.800110 1921.744141,124.882233 
	C1922.000000,156.354233 1922.000000,187.708450 1922.000000,219.531342 
	C1921.864990,220.156296 1921.729980,220.312607 1921.305054,220.023712 
	C1920.988281,188.009476 1920.961548,156.440430 1920.934937,124.871368 
z"/>
<path fill="#68A2FA" opacity="1.000000" stroke="none" 
	d="
M1920.993896,956.783203 
	C1921.174194,956.760925 1921.354370,956.738708 1921.767334,956.858215 
	C1922.000000,988.354248 1922.000000,1019.708496 1922.000000,1051.531372 
	C1921.862305,1052.137817 1921.724609,1052.275513 1921.302734,1051.957275 
	C1921.010376,1019.928528 1921.002075,988.355896 1920.993896,956.783203 
z"/>
<path fill="#68A2FA" opacity="1.000000" stroke="none" 
	d="
M1922.000000,54.531342 
	C1921.823730,55.033321 1921.647339,55.066639 1921.212891,55.020798 
	C1920.972778,37.273518 1920.990601,19.605404 1921.004150,1.468641 
	C1921.333374,2.154625 1921.952515,3.308166 1921.956909,4.464050 
	C1922.020020,20.996746 1922.000000,37.529751 1922.000000,54.531342 
z"/>
<path fill="#24262B" opacity="1.000000" stroke="none" 
	d="
M1307.707275,941.707520 
	C1299.399536,950.127991 1291.341797,958.298462 1283.288208,966.471436 
	C1304.025391,990.433350 1303.289185,1022.764771 1281.518799,1044.357056 
	C1261.146362,1064.562866 1227.676392,1065.548218 1206.182251,1046.575073 
	C1184.067261,1027.053955 1180.875732,994.088928 1198.538208,970.793762 
	C1214.846802,949.284058 1249.389771,939.203491 1279.114868,962.164429 
	C1307.612427,933.074524 1336.172363,903.920959 1365.117188,874.374512 
	C1355.057861,861.826172 1350.745605,846.553040 1353.542236,829.541931 
	C1355.640625,816.778076 1361.736084,806.107300 1371.362183,797.465515 
	C1389.424927,781.249695 1419.744995,776.812073 1444.653076,796.698486 
	C1445.060547,796.439636 1445.549683,796.242554 1445.888306,795.897766 
	C1475.181030,766.064941 1504.462402,736.221069 1533.765503,706.356628 
	C1510.091187,681.749329 1515.276855,646.414001 1535.295410,627.224365 
	C1555.409180,607.943298 1587.854980,606.622437 1609.172485,624.535095 
	C1631.587402,643.369873 1635.931152,675.361023 1619.450562,699.250000 
	C1604.779175,720.516602 1571.502808,733.559937 1539.045654,711.402649 
	C1509.533936,741.635193 1479.899658,771.993469 1450.212280,802.405945 
	C1470.173950,825.076904 1466.941040,856.985352 1449.674561,876.264404 
	C1431.745850,896.282715 1397.404541,903.285278 1368.722534,878.852112 
	C1348.542114,899.643677 1328.249756,920.550598 1307.707275,941.707520 
M1614.751587,695.178650 
	C1620.412842,686.629517 1623.434814,677.311157 1623.147583,666.974487 
	C1622.587524,646.822327 1613.319092,631.853760 1595.377930,623.075623 
	C1576.990234,614.079041 1558.921875,616.144226 1542.968750,628.932434 
	C1527.375610,641.432129 1521.201416,658.294006 1525.533081,677.856628 
	C1529.991699,697.992493 1542.976318,711.154480 1563.091187,715.611694 
	C1584.104248,720.268005 1601.317139,712.901367 1614.751587,695.178650 
M1257.841675,957.466125 
	C1249.908813,955.049072 1241.924316,954.466248 1233.676392,955.911621 
	C1207.204834,960.550720 1189.171631,986.799438 1194.086182,1013.826355 
	C1198.856445,1040.060059 1225.110474,1058.238647 1251.141602,1053.331787 
	C1273.284912,1049.157715 1290.167358,1031.224854 1291.982056,1009.950439 
	C1294.008423,986.194031 1281.123413,966.053345 1257.841675,957.466125 
M1377.734619,800.182434 
	C1356.008423,818.172546 1352.442139,848.247742 1369.482300,869.778320 
	C1386.203491,890.906006 1417.177856,894.750854 1438.331177,878.324524 
	C1459.911255,861.566772 1464.201416,831.236328 1448.043091,809.662476 
	C1431.367798,787.398315 1401.092407,783.099487 1377.734619,800.182434 
z"/>
<path fill="#25272B" opacity="1.000000" stroke="none" 
	d="
M1447.095703,965.041748 
	C1448.832153,962.632019 1450.273560,959.926208 1452.349854,957.857544 
	C1478.430786,931.873474 1504.604126,905.982117 1530.748657,880.061646 
	C1531.567261,879.250061 1532.328125,878.380066 1533.103027,877.550964 
	C1509.270264,849.634460 1517.141846,816.559937 1534.861816,799.279907 
	C1553.924927,780.690430 1587.130249,776.198425 1612.846313,799.019714 
	C1642.836426,768.163208 1672.859497,737.272705 1703.218506,706.036682 
	C1691.661377,694.029968 1685.919922,678.076355 1688.382202,659.645508 
	C1690.287964,645.380432 1697.059814,633.577881 1708.185181,624.373291 
	C1729.722534,606.554077 1761.999023,607.885376 1782.015625,627.387634 
	C1802.617188,647.460083 1804.759766,679.372192 1787.099365,701.872192 
	C1770.963623,722.429626 1738.547241,732.106201 1709.683228,711.945862 
	C1679.220825,742.875000 1648.758423,773.804199 1618.113281,804.919006 
	C1637.433228,830.847534 1629.970459,861.817688 1612.982422,878.663452 
	C1597.409302,894.106323 1566.963501,903.710571 1536.112183,880.796448 
	C1508.275879,909.263733 1480.223511,937.951965 1451.831055,966.799561 
	C1451.490723,966.958923 1451.441528,966.945984 1450.932373,966.858398 
	C1450.084839,966.835388 1449.746460,966.899963 1449.178467,966.929382 
	C1448.331177,966.276672 1447.713501,965.659241 1447.095703,965.041748 
M1709.703491,631.193420 
	C1708.660400,632.267029 1707.564087,633.294189 1706.582520,634.421265 
	C1690.560059,652.819824 1689.633301,679.096436 1704.332520,697.752014 
	C1719.159180,716.569397 1744.870972,722.343689 1765.840332,711.565308 
	C1786.973389,700.702698 1797.644775,676.487854 1790.935913,653.759033 
	C1780.651367,618.916138 1738.181396,605.908081 1709.703491,631.193420 
M1599.033691,881.647095 
	C1618.238770,869.113098 1626.656616,849.444641 1622.008301,827.966003 
	C1616.675049,803.322449 1592.773071,786.872803 1566.905029,790.043396 
	C1542.611816,793.020935 1523.023804,816.236938 1524.187500,840.672729 
	C1525.973389,878.173645 1565.019531,899.920044 1599.033691,881.647095 
z"/>
<path fill="#24262B" opacity="1.000000" stroke="none" 
	d="
M1421.636963,557.721558 
	C1390.940186,564.304565 1366.854370,547.707031 1357.889526,527.031677 
	C1348.671997,505.773315 1350.971313,485.444305 1366.061890,467.756866 
	C1381.286987,449.911713 1401.255127,443.933075 1423.729614,450.467194 
	C1446.181152,456.994659 1459.589966,472.686676 1463.173706,495.926971 
	C1467.511841,524.059753 1450.365479,549.420532 1421.636963,557.721558 
M1407.537598,553.135559 
	C1435.421631,552.892151 1457.608765,531.346802 1457.823853,504.303894 
	C1458.037842,477.401337 1436.255005,454.693024 1409.739990,454.177216 
	C1382.883179,453.654755 1359.884521,474.772736 1358.881470,500.876801 
	C1357.792603,529.213928 1378.327515,551.704224 1407.537598,553.135559 
z"/>
<path fill="#24262B" opacity="1.000000" stroke="none" 
	d="
M1535.567993,1299.573730 
	C1551.435059,1281.509155 1575.499634,1275.416992 1597.564819,1283.676025 
	C1618.984375,1291.693359 1633.214478,1312.108521 1633.532593,1335.277100 
	C1633.925781,1363.925659 1610.815308,1389.320068 1582.810303,1391.011963 
	C1551.910645,1392.878784 1526.282593,1372.143066 1522.793335,1342.608643 
	C1520.892578,1326.519653 1525.197510,1312.349365 1535.567993,1299.573730 
M1615.718262,1303.816040 
	C1596.773193,1282.558105 1566.647461,1280.125000 1545.590088,1298.152466 
	C1525.235596,1315.578003 1522.628052,1346.656250 1539.795288,1367.220337 
	C1557.292358,1388.179565 1587.954224,1391.182495 1609.116821,1374.009277 
	C1630.357544,1356.772583 1633.421021,1326.450195 1615.718262,1303.816040 
z"/>
<path fill="#24262B" opacity="1.000000" stroke="none" 
	d="
M1422.945801,1282.019531 
	C1449.239868,1290.752930 1464.200684,1311.172729 1463.850708,1337.366089 
	C1463.454712,1367.022095 1438.427490,1391.208008 1408.155396,1391.189209 
	C1378.160645,1391.170532 1353.311279,1367.117920 1352.811646,1337.619995 
	C1352.168335,1299.632202 1386.129883,1272.521118 1422.945801,1282.019531 
M1421.301025,1287.951416 
	C1414.218872,1287.604980 1406.985107,1286.157471 1400.081787,1287.108643 
	C1374.424072,1290.643799 1356.623901,1314.504150 1359.024414,1341.104736 
	C1361.305054,1366.377319 1384.327881,1386.098389 1410.399902,1385.112183 
	C1436.101562,1384.140015 1457.370239,1362.501709 1457.823853,1336.863892 
	C1458.220703,1314.433105 1444.782959,1296.087769 1421.301025,1287.951416 
z"/>
<path fill="#24262B" opacity="1.000000" stroke="none" 
	d="
M1608.651367,460.336792 
	C1626.249756,475.531830 1632.850708,494.478088 1627.727417,516.595459 
	C1622.877441,537.532776 1609.330444,551.260986 1588.550659,557.212646 
	C1557.659790,566.060364 1525.613159,546.280579 1519.224121,514.677551 
	C1512.918579,483.488617 1534.264160,453.270630 1565.734863,448.772858 
	C1581.572998,446.509247 1595.722412,450.471954 1608.651367,460.336792 
M1561.519165,455.834930 
	C1536.148804,462.690216 1520.905151,486.262115 1525.035767,512.250549 
	C1529.205566,538.485168 1556.130615,557.520508 1582.022949,552.539062 
	C1609.666260,547.220764 1627.897217,521.227722 1622.520142,494.799988 
	C1616.755615,466.468445 1590.788086,449.563507 1561.519165,455.834930 
z"/>
<path fill="#24262B" opacity="1.000000" stroke="none" 
	d="
M1254.220459,1115.783447 
	C1280.422974,1121.794678 1298.119385,1143.608398 1298.189575,1169.569458 
	C1298.262207,1196.418213 1280.959961,1218.269043 1254.759155,1224.417480 
	C1224.366455,1231.549438 1192.622314,1210.333008 1188.003052,1179.800415 
	C1182.994019,1146.691284 1205.721924,1117.026245 1237.952637,1114.912964 
	C1243.199219,1114.569214 1248.522949,1115.402832 1254.220459,1115.783447 
M1238.733887,1120.871826 
	C1212.269409,1122.860107 1191.214966,1146.773193 1193.228271,1172.788696 
	C1195.414185,1201.035889 1217.763916,1220.627808 1244.016357,1219.564087 
	C1273.942139,1218.351562 1294.206299,1194.542236 1291.994263,1165.211182 
	C1290.044556,1139.361572 1265.980957,1118.954590 1238.733887,1120.871826 
z"/>
<path fill="#24262B" opacity="1.000000" stroke="none" 
	d="
M1421.010742,1116.006592 
	C1448.484253,1124.239868 1464.395874,1144.896973 1463.793335,1171.862305 
	C1463.165405,1199.967163 1441.084595,1223.592285 1411.124634,1225.786987 
	C1385.596436,1227.656982 1359.353516,1208.191406 1354.024902,1182.463623 
	C1346.713745,1147.163574 1371.843384,1115.291138 1407.740112,1114.548706 
	C1412.015137,1114.460327 1416.312622,1115.460327 1421.010742,1116.006592 
M1419.510620,1218.259521 
	C1446.395020,1211.723022 1463.024658,1184.905518 1456.424194,1158.731201 
	C1449.547852,1131.462891 1422.454468,1115.168213 1395.715332,1122.218994 
	C1369.850830,1129.039185 1354.103271,1154.968262 1360.093628,1181.393066 
	C1365.831055,1206.701660 1391.605591,1224.483032 1419.510620,1218.259521 
z"/>
<path fill="#24262B" opacity="1.000000" stroke="none" 
	d="
M1554.506348,120.478722 
	C1588.599731,109.672783 1621.265747,128.142197 1628.297485,161.821182 
	C1634.757935,192.763718 1613.714966,222.561981 1581.746582,227.740860 
	C1551.825806,232.588028 1522.650269,210.536728 1518.794922,180.161041 
	C1515.464233,153.918839 1529.544189,130.227646 1554.506348,120.478722 
M1621.716431,160.067734 
	C1613.612061,134.101242 1591.105713,119.780083 1564.986694,123.969711 
	C1541.557617,127.727875 1522.937012,150.640900 1524.184937,174.176926 
	C1525.531006,199.564468 1545.226929,220.335983 1569.508301,221.975510 
	C1603.767578,224.288773 1628.897217,194.988525 1621.716431,160.067734 
z"/>
<path fill="#24262B" opacity="1.000000" stroke="none" 
	d="
M1459.823730,317.195740 
	C1471.800171,350.984039 1454.083618,384.987823 1420.344849,392.334198 
	C1397.843384,397.233734 1378.546997,390.360901 1364.454834,372.180389 
	C1350.377075,354.018799 1348.445435,333.565948 1358.852295,313.079193 
	C1369.258057,292.594788 1386.743042,282.216949 1409.883301,282.868622 
	C1433.526489,283.534485 1449.757690,295.731873 1459.823730,317.195740 
M1452.701660,360.044952 
	C1456.976196,350.760193 1458.679932,341.169159 1457.213501,330.902954 
	C1453.213867,302.904480 1425.913696,283.909454 1397.856323,289.845886 
	C1369.991455,295.741608 1352.710205,324.496063 1360.696899,351.675690 
	C1366.673096,372.013458 1382.720581,385.397186 1405.187012,387.516174 
	C1423.018066,389.197876 1442.431396,379.740845 1452.701660,360.044952 
z"/>
<path fill="#24262B" opacity="1.000000" stroke="none" 
	d="
M1461.953613,158.063187 
	C1469.765869,189.610001 1450.765259,220.668716 1420.121338,226.977905 
	C1388.334595,233.522385 1358.659668,213.166885 1353.283325,181.130585 
	C1348.589233,153.158218 1366.863892,125.744133 1394.859619,118.761627 
	C1422.994751,111.744331 1451.810303,127.464478 1460.949463,154.818039 
	C1461.265137,155.763397 1461.564697,156.714157 1461.953613,158.063187 
M1412.222656,221.985092 
	C1432.362915,219.687561 1446.792969,209.343124 1454.236572,190.520203 
	C1461.642456,171.793060 1458.175049,154.237991 1444.730835,139.452988 
	C1431.279541,124.660339 1414.184326,119.880173 1394.747192,125.069870 
	C1371.125366,131.376907 1355.393066,155.946014 1359.258423,180.004532 
	C1363.358398,205.523315 1385.024414,223.014679 1412.222656,221.985092 
z"/>
<path fill="#272628" opacity="1.000000" stroke="none" 
	d="
M1446.933960,964.688843 
	C1447.713501,965.659241 1448.331177,966.276672 1449.441895,967.288452 
	C1450.437256,967.437134 1450.939331,967.191589 1451.441528,966.945984 
	C1451.441528,966.945984 1451.490723,966.958923 1451.515259,966.952515 
	C1452.074097,968.552124 1452.250244,970.417053 1453.196045,971.725708 
	C1469.499390,994.284180 1466.853394,1025.504028 1446.921997,1044.625488 
	C1426.865845,1063.866821 1395.459717,1065.453003 1373.864014,1048.315430 
	C1349.636108,1029.088989 1345.580444,993.851318 1364.833374,969.850952 
	C1384.538940,945.286194 1419.815063,941.967407 1444.524536,962.357910 
	C1445.293945,962.992798 1446.023804,963.675537 1446.933960,964.688843 
M1371.182129,1037.293091 
	C1387.524170,1055.766357 1414.624023,1059.498047 1435.148315,1046.101562 
	C1453.603516,1034.055542 1461.917725,1011.697998 1455.770020,990.647949 
	C1449.698486,969.858643 1430.046387,954.718140 1408.410889,955.120850 
	C1388.015015,955.500488 1372.483032,964.894653 1363.728027,983.476318 
	C1354.803833,1002.417786 1357.615234,1020.402527 1371.182129,1037.293091 
z"/>
<path fill="#24262B" opacity="1.000000" stroke="none" 
	d="
M1581.602783,1225.599609 
	C1550.159790,1227.645142 1523.911621,1204.356689 1522.404541,1172.020020 
	C1520.887207,1139.465210 1546.703247,1116.522827 1573.420044,1114.784668 
	C1602.955078,1112.863159 1628.872070,1133.154785 1632.876465,1161.611938 
	C1637.054688,1191.304688 1618.690552,1217.935791 1589.451294,1224.504028 
	C1587.029785,1225.047974 1584.522705,1225.210205 1581.602783,1225.599609 
M1611.135620,1206.660522 
	C1625.026367,1193.381958 1630.215942,1177.270996 1625.917725,1158.562012 
	C1620.238037,1133.838623 1596.764648,1117.998657 1571.101318,1121.069458 
	C1547.454102,1123.898926 1527.833008,1145.761719 1528.336792,1170.015503 
	C1528.762085,1190.490234 1538.319824,1206.197144 1557.138672,1214.881836 
	C1576.318848,1223.733521 1594.363647,1220.586426 1611.135620,1206.660522 
z"/>
<path fill="#242729" opacity="1.000000" stroke="none" 
	d="
M1603.908447,384.919067 
	C1584.916992,396.311768 1565.662720,397.151306 1546.713501,386.598267 
	C1527.897827,376.119507 1518.339600,359.319305 1518.233887,337.786499 
	C1518.084595,307.384033 1543.066528,282.760468 1573.624390,282.569489 
	C1604.335327,282.377563 1629.166992,307.135040 1629.185791,337.939240 
	C1629.198120,357.993713 1620.544067,373.407074 1603.908447,384.919067 
M1623.089844,341.329956 
	C1622.724487,336.535736 1622.860962,331.639404 1621.909912,326.964325 
	C1616.944092,302.554291 1592.264526,285.449524 1566.830566,289.203003 
	C1542.161499,292.843597 1523.671021,313.294525 1524.314331,339.333282 
	C1525.073608,370.056732 1552.064819,390.741364 1580.001465,387.211853 
	C1602.755005,384.337219 1621.370605,365.282684 1623.089844,341.329956 
z"/>
<path fill="#24262B" opacity="1.000000" stroke="none" 
	d="
M1785.053101,375.047058 
	C1755.394897,407.505890 1703.029175,395.876160 1690.191650,354.256348 
	C1682.439453,329.123535 1693.852783,301.642303 1716.715576,289.347229 
	C1740.353760,276.635254 1769.060913,282.170105 1786.324097,302.768005 
	C1803.047974,322.722473 1803.278809,352.098572 1786.871704,372.848755 
	C1786.355469,373.501587 1785.810303,374.131409 1785.053101,375.047058 
M1786.319702,362.717773 
	C1792.332153,352.017731 1794.258789,340.690460 1792.002808,328.562012 
	C1787.222290,302.861145 1760.603882,284.406494 1735.184692,289.318970 
	C1707.807007,294.609955 1689.709473,320.118469 1694.658203,346.441315 
	C1698.534424,367.059326 1714.058960,383.023163 1733.910767,386.804962 
	C1754.575073,390.741486 1774.229126,381.893311 1786.319702,362.717773 
z"/>
<path fill="#24262B" opacity="1.000000" stroke="none" 
	d="
M1798.087891,493.934814 
	C1801.394287,516.583069 1794.343872,534.979980 1776.371216,548.285828 
	C1758.022339,561.870300 1737.743652,563.288330 1717.611084,552.775330 
	C1697.809937,542.435303 1687.726929,525.229309 1687.950317,502.794342 
	C1688.237061,473.995728 1709.991699,450.951996 1738.739014,448.219147 
	C1766.788696,445.552612 1792.350586,465.078674 1798.087891,493.934814 
M1722.197876,548.433472 
	C1723.422852,548.946289 1724.634399,549.494324 1725.874756,549.966614 
	C1745.576416,557.468506 1767.938599,551.569275 1781.435913,535.318909 
	C1795.188354,518.761414 1796.772217,496.043518 1785.458374,477.625000 
	C1774.625244,459.989288 1753.165161,450.862122 1732.892822,455.268677 
	C1712.674072,459.663544 1697.430908,476.298523 1694.257690,497.431274 
	C1691.249878,517.463440 1701.989258,537.414429 1722.197876,548.433472 
z"/>
<path fill="#24262B" opacity="1.000000" stroke="none" 
	d="
M1196.481689,1366.503052 
	C1184.115479,1346.175537 1183.445801,1325.751953 1195.953857,1305.917847 
	C1207.907593,1286.962891 1225.979858,1278.323486 1248.229370,1280.437744 
	C1274.386963,1282.923096 1294.471924,1302.796387 1297.881104,1328.152832 
	C1301.313599,1353.682129 1286.801514,1378.247437 1262.809814,1387.519775 
	C1238.581177,1396.883545 1212.021240,1388.555054 1196.481689,1366.503052 
M1270.226440,1376.799316 
	C1271.161743,1376.105713 1272.109253,1375.428101 1273.030273,1374.715942 
	C1291.358521,1360.551025 1297.384766,1335.529907 1287.510620,1314.611816 
	C1277.631592,1293.683472 1254.315063,1282.231934 1231.981201,1287.339722 
	C1209.384888,1292.507446 1192.928467,1312.668335 1193.252075,1335.604126 
	C1193.519165,1354.545898 1201.988281,1369.355103 1218.498779,1378.652588 
	C1235.566040,1388.263428 1252.848145,1387.440308 1270.226440,1376.799316 
z"/>
<path fill="#24262B" opacity="1.000000" stroke="none" 
	d="
M1759.558350,119.403549 
	C1785.149292,127.852539 1800.721802,150.773026 1798.872681,176.864319 
	C1797.079468,202.167587 1778.314209,222.724442 1752.694946,227.450699 
	C1722.583252,233.005707 1693.867432,212.258408 1688.438721,181.025421 
	C1683.363159,151.823166 1704.444824,122.173210 1734.023560,118.141777 
	C1742.207642,117.026321 1750.786133,118.805519 1759.558350,119.403549 
M1754.807739,124.460419 
	C1723.126343,116.554276 1690.034912,142.792221 1694.285400,178.787262 
	C1697.211182,203.562973 1718.495605,222.054092 1743.247070,222.135483 
	C1768.604004,222.218872 1789.319946,203.591003 1792.721313,177.647522 
	C1795.780640,154.314606 1779.522461,131.140533 1754.807739,124.460419 
z"/>
<path fill="#3D89FE" opacity="1.000000" stroke="none" 
	d="
M1554.952148,960.825928 
	C1574.796387,951.251282 1593.324829,953.204651 1609.765137,967.025208 
	C1625.587524,980.326294 1630.998535,997.981201 1625.421631,1017.841614 
	C1619.668945,1038.328369 1605.286743,1050.285645 1584.310181,1053.691772 
	C1558.302490,1057.915161 1531.804565,1037.596436 1528.940063,1011.444214 
	C1526.492188,989.095703 1535.360596,972.363464 1554.952148,960.825928 
z"/>
<path fill="#E6E8EB" opacity="1.000000" stroke="none" 
	d="
M1726.726318,792.484314 
	C1759.580444,781.330688 1791.958862,804.734558 1792.954468,837.956421 
	C1793.678467,862.115173 1775.569824,883.995178 1751.938965,887.911743 
	C1727.736694,891.923035 1704.115601,877.817627 1696.466431,854.785767 
	C1688.662354,831.288086 1699.201782,805.911499 1721.364014,794.884155 
	C1722.997437,794.071411 1724.700928,793.399475 1726.726318,792.484314 
z"/>
<path fill="#FEBA00" opacity="1.000000" stroke="none" 
	d="
M1920.544678,619.306152 
	C1920.961060,651.055786 1920.980835,682.649048 1920.988281,714.725708 
	C1899.141968,721.550537 1874.593628,710.141174 1864.298218,688.867188 
	C1854.041870,667.673157 1860.503540,641.529846 1879.481689,627.697266 
	C1891.737305,618.764465 1905.335571,616.018250 1920.544678,619.306152 
z"/>
<path fill="#3D89FE" opacity="1.000000" stroke="none" 
	d="
M1695.874756,1322.092163 
	C1703.259033,1299.575562 1722.744019,1285.373413 1744.782715,1286.107666 
	C1766.821777,1286.841797 1785.513794,1301.806396 1791.316772,1323.362305 
	C1798.443359,1349.833618 1781.459473,1377.853516 1754.616943,1383.909790 
	C1727.481689,1390.032227 1699.823853,1372.613281 1695.203979,1345.662109 
	C1693.923462,1338.191650 1695.514404,1330.229004 1695.874756,1322.092163 
z"/>
<path fill="#3D89FE" opacity="1.000000" stroke="none" 
	d="
M1920.558105,1122.087158 
	C1920.971680,1153.811890 1920.979004,1185.430298 1920.969727,1217.515869 
	C1889.219238,1227.148804 1857.515625,1200.434204 1859.660889,1166.335938 
	C1861.536621,1136.524902 1891.097168,1114.849609 1920.558105,1122.087158 
z"/>
<path fill="#36BC57" opacity="1.000000" stroke="none" 
	d="
M1753.924194,1121.867188 
	C1777.206909,1127.269775 1793.270630,1147.612427 1792.981689,1170.864746 
	C1792.698242,1193.679810 1776.044434,1214.187988 1753.431763,1218.560669 
	C1733.766357,1222.363403 1716.971924,1216.278931 1704.616455,1200.584595 
	C1692.092285,1184.676025 1690.152954,1166.633789 1699.083252,1148.484497 
	C1708.088989,1130.181763 1723.523804,1120.910767 1744.103394,1120.816406 
	C1747.234985,1120.802124 1750.369751,1121.454102 1753.924194,1121.867188 
z"/>
<path fill="#3D89FE" opacity="1.000000" stroke="none" 
	d="
M1920.659546,956.596436 
	C1921.002075,988.355896 1921.010376,1019.928528 1921.015625,1052.012085 
	C1893.330200,1058.719482 1867.267456,1042.937500 1860.844727,1016.089050 
	C1854.512085,989.617615 1870.362427,963.064514 1897.165771,956.816223 
	C1904.517700,955.102417 1912.585815,956.460999 1920.659546,956.596436 
z"/>
<path fill="#3D89FE" opacity="1.000000" stroke="none" 
	d="
M1792.951660,1006.766418 
	C1789.905640,1036.047363 1768.149780,1055.325317 1740.149048,1053.987183 
	C1716.389893,1052.851685 1695.545410,1032.363159 1694.045166,1008.670654 
	C1692.424561,983.076050 1709.758301,960.269775 1734.075073,956.003052 
	C1765.760620,950.443420 1792.920532,973.643005 1792.951660,1006.766418 
z"/>
<path fill="#3D89FE" opacity="1.000000" stroke="none" 
	d="
M1920.556396,791.049866 
	C1920.970825,822.774292 1920.979248,854.393494 1920.972656,886.476929 
	C1889.272827,896.100098 1857.493408,869.311707 1859.669922,835.279053 
	C1861.578857,805.432129 1891.051270,783.827698 1920.556396,791.049866 
z"/>
<path fill="#3D89FE" opacity="1.000000" stroke="none" 
	d="
M1920.605347,1287.680420 
	C1920.966064,1319.495483 1920.983887,1351.122070 1920.988770,1383.191895 
	C1899.793701,1388.318726 1879.962280,1380.765503 1868.024536,1363.467773 
	C1856.942871,1347.410400 1856.672485,1325.306641 1867.356567,1308.861816 
	C1878.824707,1291.210449 1898.331543,1283.331299 1920.605347,1287.680420 
z"/>
<path fill="#FE4F3E" opacity="1.000000" stroke="none" 
	d="
M1920.592407,124.684845 
	C1920.961548,156.440430 1920.988281,188.009476 1921.004150,220.096863 
	C1889.067627,229.051514 1855.719360,202.743301 1859.863281,166.287704 
	C1862.862671,139.901978 1889.100952,119.490150 1915.352295,123.629890 
	C1916.989746,123.888123 1918.617554,124.207443 1920.592407,124.684845 
z"/>
<path fill="#3D89FE" opacity="1.000000" stroke="none" 
	d="
M1920.598877,455.741638 
	C1920.967407,487.545624 1920.983398,519.180237 1920.985840,551.263428 
	C1893.086304,558.540771 1867.391602,540.925842 1861.060059,516.143982 
	C1851.808105,479.932709 1883.158691,447.892578 1920.598877,455.741638 
z"/>
<path fill="#3D8AFF" opacity="1.000000" stroke="none" 
	d="
M1920.596680,290.120483 
	C1920.987427,321.926239 1920.967651,353.609589 1920.911499,385.778015 
	C1894.185425,393.399841 1867.060303,376.081970 1860.337769,349.052704 
	C1853.419678,321.237823 1875.974487,290.279541 1904.819580,288.963623 
	C1909.915527,288.731171 1915.062622,289.624573 1920.596680,290.120483 
z"/>
<path fill="#3D89FE" opacity="1.000000" stroke="none" 
	d="
M1614.533691,695.468445 
	C1601.317139,712.901367 1584.104248,720.268005 1563.091187,715.611694 
	C1542.976318,711.154480 1529.991699,697.992493 1525.533081,677.856628 
	C1521.201416,658.294006 1527.375610,641.432129 1542.968750,628.932434 
	C1558.921875,616.144226 1576.990234,614.079041 1595.377930,623.075623 
	C1613.319092,631.853760 1622.587524,646.822327 1623.147583,666.974487 
	C1623.434814,677.311157 1620.412842,686.629517 1614.533691,695.468445 
z"/>
<path fill="#3D89FE" opacity="1.000000" stroke="none" 
	d="
M1258.215332,957.609619 
	C1281.123413,966.053345 1294.008423,986.194031 1291.982056,1009.950439 
	C1290.167358,1031.224854 1273.284912,1049.157715 1251.141602,1053.331787 
	C1225.110474,1058.238647 1198.856445,1040.060059 1194.086182,1013.826355 
	C1189.171631,986.799438 1207.204834,960.550720 1233.676392,955.911621 
	C1241.924316,954.466248 1249.908813,955.049072 1258.215332,957.609619 
z"/>
<path fill="#3D89FE" opacity="1.000000" stroke="none" 
	d="
M1378.025146,799.972046 
	C1401.092407,783.099487 1431.367798,787.398315 1448.043091,809.662476 
	C1464.201416,831.236328 1459.911255,861.566772 1438.331177,878.324524 
	C1417.177856,894.750854 1386.203491,890.906006 1369.482300,869.778320 
	C1352.442139,848.247742 1356.008423,818.172546 1378.025146,799.972046 
z"/>
<path fill="#3D89FE" opacity="1.000000" stroke="none" 
	d="
M1709.972656,630.958740 
	C1738.181396,605.908081 1780.651367,618.916138 1790.935913,653.759033 
	C1797.644775,676.487854 1786.973389,700.702698 1765.840332,711.565308 
	C1744.870972,722.343689 1719.159180,716.569397 1704.332520,697.752014 
	C1689.633301,679.096436 1690.560059,652.819824 1706.582520,634.421265 
	C1707.564087,633.294189 1708.660400,632.267029 1709.972656,630.958740 
z"/>
<path fill="#3D89FE" opacity="1.000000" stroke="none" 
	d="
M1598.709961,881.822021 
	C1565.019531,899.920044 1525.973389,878.173645 1524.187500,840.672729 
	C1523.023804,816.236938 1542.611816,793.020935 1566.905029,790.043396 
	C1592.773071,786.872803 1616.675049,803.322449 1622.008301,827.966003 
	C1626.656616,849.444641 1618.238770,869.113098 1598.709961,881.822021 
z"/>
<path fill="#E7E9EC" opacity="1.000000" stroke="none" 
	d="
M1450.932373,966.858398 
	C1450.939331,967.191589 1450.437256,967.437134 1449.671631,967.323669 
	C1449.746460,966.899963 1450.084839,966.835388 1450.932373,966.858398 
z"/>
<path fill="#3D89FE" opacity="1.000000" stroke="none" 
	d="
M1407.065918,553.134277 
	C1378.327515,551.704224 1357.792603,529.213928 1358.881470,500.876801 
	C1359.884521,474.772736 1382.883179,453.654755 1409.739990,454.177216 
	C1436.255005,454.693024 1458.037842,477.401337 1457.823853,504.303894 
	C1457.608765,531.346802 1435.421631,552.892151 1407.065918,553.134277 
z"/>
<path fill="#3D89FE" opacity="1.000000" stroke="none" 
	d="
M1615.934326,1304.103516 
	C1633.421021,1326.450195 1630.357544,1356.772583 1609.116821,1374.009277 
	C1587.954224,1391.182495 1557.292358,1388.179565 1539.795288,1367.220337 
	C1522.628052,1346.656250 1525.235596,1315.578003 1545.590088,1298.152466 
	C1566.647461,1280.125000 1596.773193,1282.558105 1615.934326,1304.103516 
z"/>
<path fill="#3D89FE" opacity="1.000000" stroke="none" 
	d="
M1421.701782,1288.024170 
	C1444.782959,1296.087769 1458.220703,1314.433105 1457.823853,1336.863892 
	C1457.370239,1362.501709 1436.101562,1384.140015 1410.399902,1385.112183 
	C1384.327881,1386.098389 1361.305054,1366.377319 1359.024414,1341.104736 
	C1356.623901,1314.504150 1374.424072,1290.643799 1400.081787,1287.108643 
	C1406.985107,1286.157471 1414.218872,1287.604980 1421.701782,1288.024170 
z"/>
<path fill="#3D89FE" opacity="1.000000" stroke="none" 
	d="
M1561.919189,455.722046 
	C1590.788086,449.563507 1616.755615,466.468445 1622.520142,494.799988 
	C1627.897217,521.227722 1609.666260,547.220764 1582.022949,552.539062 
	C1556.130615,557.520508 1529.205566,538.485168 1525.035767,512.250549 
	C1520.905151,486.262115 1536.148804,462.690216 1561.919189,455.722046 
z"/>
<path fill="#3D89FE" opacity="1.000000" stroke="none" 
	d="
M1239.205322,1120.857666 
	C1265.980957,1118.954590 1290.044556,1139.361572 1291.994263,1165.211182 
	C1294.206299,1194.542236 1273.942139,1218.351562 1244.016357,1219.564087 
	C1217.763916,1220.627808 1195.414185,1201.035889 1193.228271,1172.788696 
	C1191.214966,1146.773193 1212.269409,1122.860107 1239.205322,1120.857666 
z"/>
<path fill="#3D89FE" opacity="1.000000" stroke="none" 
	d="
M1419.104492,1218.367188 
	C1391.605591,1224.483032 1365.831055,1206.701660 1360.093628,1181.393066 
	C1354.103271,1154.968262 1369.850830,1129.039185 1395.715332,1122.218994 
	C1422.454468,1115.168213 1449.547852,1131.462891 1456.424194,1158.731201 
	C1463.024658,1184.905518 1446.395020,1211.723022 1419.104492,1218.367188 
z"/>
<path fill="#3D89FE" opacity="1.000000" stroke="none" 
	d="
M1621.811646,160.474213 
	C1628.897217,194.988525 1603.767578,224.288773 1569.508301,221.975510 
	C1545.226929,220.335983 1525.531006,199.564468 1524.184937,174.176926 
	C1522.937012,150.640900 1541.557617,127.727875 1564.986694,123.969711 
	C1591.105713,119.780083 1613.612061,134.101242 1621.811646,160.474213 
z"/>
<path fill="#3D89FE" opacity="1.000000" stroke="none" 
	d="
M1452.508301,360.365417 
	C1442.431396,379.740845 1423.018066,389.197876 1405.187012,387.516174 
	C1382.720581,385.397186 1366.673096,372.013458 1360.696899,351.675690 
	C1352.710205,324.496063 1369.991455,295.741608 1397.856323,289.845886 
	C1425.913696,283.909454 1453.213867,302.904480 1457.213501,330.902954 
	C1458.679932,341.169159 1456.976196,350.760193 1452.508301,360.365417 
z"/>
<path fill="#3D89FE" opacity="1.000000" stroke="none" 
	d="
M1411.758911,221.999878 
	C1385.024414,223.014679 1363.358398,205.523315 1359.258423,180.004532 
	C1355.393066,155.946014 1371.125366,131.376907 1394.747192,125.069870 
	C1414.184326,119.880173 1431.279541,124.660339 1444.730835,139.452988 
	C1458.175049,154.237991 1461.642456,171.793060 1454.236572,190.520203 
	C1446.792969,209.343124 1432.362915,219.687561 1411.758911,221.999878 
z"/>
<path fill="#FE4F3E" opacity="1.000000" stroke="none" 
	d="
M1370.949585,1037.020508 
	C1357.615234,1020.402527 1354.803833,1002.417786 1363.728027,983.476318 
	C1372.483032,964.894653 1388.015015,955.500488 1408.410889,955.120850 
	C1430.046387,954.718140 1449.698486,969.858643 1455.770020,990.647949 
	C1461.917725,1011.697998 1453.603516,1034.055542 1435.148315,1046.101562 
	C1414.624023,1059.498047 1387.524170,1055.766357 1370.949585,1037.020508 
z"/>
<path fill="#3D89FE" opacity="1.000000" stroke="none" 
	d="
M1610.881836,1206.909668 
	C1594.363647,1220.586426 1576.318848,1223.733521 1557.138672,1214.881836 
	C1538.319824,1206.197144 1528.762085,1190.490234 1528.336792,1170.015503 
	C1527.833008,1145.761719 1547.454102,1123.898926 1571.101318,1121.069458 
	C1596.764648,1117.998657 1620.238037,1133.838623 1625.917725,1158.562012 
	C1630.215942,1177.270996 1625.026367,1193.381958 1610.881836,1206.909668 
z"/>
<path fill="#36BC57" opacity="1.000000" stroke="none" 
	d="
M1623.077148,341.796448 
	C1621.370605,365.282684 1602.755005,384.337219 1580.001465,387.211853 
	C1552.064819,390.741364 1525.073608,370.056732 1524.314331,339.333282 
	C1523.671021,313.294525 1542.161499,292.843597 1566.830566,289.203003 
	C1592.264526,285.449524 1616.944092,302.554291 1621.909912,326.964325 
	C1622.860962,331.639404 1622.724487,336.535736 1623.077148,341.796448 
z"/>
<path fill="#3D89FE" opacity="1.000000" stroke="none" 
	d="
M1786.146973,363.041992 
	C1774.229126,381.893311 1754.575073,390.741486 1733.910767,386.804962 
	C1714.058960,383.023163 1698.534424,367.059326 1694.658203,346.441315 
	C1689.709473,320.118469 1707.807007,294.609955 1735.184692,289.318970 
	C1760.603882,284.406494 1787.222290,302.861145 1792.002808,328.562012 
	C1794.258789,340.690460 1792.332153,352.017731 1786.146973,363.041992 
z"/>
<path fill="#3D89FE" opacity="1.000000" stroke="none" 
	d="
M1721.862427,548.261475 
	C1701.989258,537.414429 1691.249878,517.463440 1694.257690,497.431274 
	C1697.430908,476.298523 1712.674072,459.663544 1732.892822,455.268677 
	C1753.165161,450.862122 1774.625244,459.989288 1785.458374,477.625000 
	C1796.772217,496.043518 1795.188354,518.761414 1781.435913,535.318909 
	C1767.938599,551.569275 1745.576416,557.468506 1725.874756,549.966614 
	C1724.634399,549.494324 1723.422852,548.946289 1721.862427,548.261475 
z"/>
<path fill="#3D89FE" opacity="1.000000" stroke="none" 
	d="
M1269.908936,1376.972778 
	C1252.848145,1387.440308 1235.566040,1388.263428 1218.498779,1378.652588 
	C1201.988281,1369.355103 1193.519165,1354.545898 1193.252075,1335.604126 
	C1192.928467,1312.668335 1209.384888,1292.507446 1231.981201,1287.339722 
	C1254.315063,1282.231934 1277.631592,1293.683472 1287.510620,1314.611816 
	C1297.384766,1335.529907 1291.358521,1360.551025 1273.030273,1374.715942 
	C1272.109253,1375.428101 1271.161743,1376.105713 1269.908936,1376.972778 
z"/>
<path fill="#3D89FE" opacity="1.000000" stroke="none" 
	d="
M1755.200928,124.593620 
	C1779.522461,131.140533 1795.780640,154.314606 1792.721313,177.647522 
	C1789.319946,203.591003 1768.604004,222.218872 1743.247070,222.135483 
	C1718.495605,222.054092 1697.211182,203.562973 1694.285400,178.787262 
	C1690.034912,142.792221 1723.126343,116.554276 1755.200928,124.593620 
z"/>
</svg>