<svg version="1.1" id="Layer_1" xmlns="http://www.w3.org/2000/svg" xmlns:xlink="http://www.w3.org/1999/xlink" x="0px" y="0px"
	 width="100%" viewBox="0 0 7951 1501" enable-background="new 0 0 7951 1501" xml:space="preserve">
<path fill="#E7E9EC" opacity="1.000000" stroke="none" 
	d="
M7868.000000,2.000000 
	C7896.665039,2.000000 7925.330078,2.000000 7953.996094,2.000000 
	C7953.997559,502.637817 7953.997559,1003.275635 7953.997559,1503.956787 
	C5303.506348,1503.956787 2653.013184,1503.956787 2.259864,1503.956787 
	C2.259864,1003.533997 2.259864,503.067749 2.259864,2.000000 
	C1434.720337,2.000000 2867.440674,2.000000 4301.060547,2.921352 
	C4302.515137,11.452750 4302.594727,19.132671 4303.700684,26.661903 
	C4312.843750,88.925117 4363.473633,136.208145 4427.658691,141.199707 
	C4490.370117,146.076691 4546.195312,107.555298 4566.116211,49.949085 
	C4571.506836,34.360394 4572.773438,18.211796 4574.000000,2.000000 
	C4618.720215,2.000000 4663.440918,2.000000 4709.205078,2.913449 
	C4710.926270,12.762078 4710.849121,21.831030 4712.404785,30.610577 
	C4721.957520,84.525574 4763.667969,126.917847 4818.181152,138.638702 
	C4871.367676,150.074265 4926.931641,127.848953 4957.826172,82.844437 
	C4974.555664,58.473907 4981.778320,31.291241 4982.000000,2.000000 
	C5030.053711,2.000000 5078.107422,2.000000 5127.203125,2.892557 
	C5129.497070,14.681765 5129.824219,25.780632 5132.152832,36.442307 
	C5147.698730,107.617882 5220.474609,154.219284 5291.433105,138.826309 
	C5357.155273,124.569145 5400.426758,70.034309 5400.000000,2.000000 
	C5444.720215,2.000000 5489.440918,2.000000 5535.451172,2.809165 
	C5537.036621,8.593013 5537.237793,13.575420 5537.643066,18.541185 
	C5544.420410,101.616180 5627.134766,158.978348 5707.848633,137.016357 
	C5769.372559,120.276062 5810.789062,62.933567 5808.000000,2.000000 
	C5852.720215,2.000000 5897.440918,2.000000 5943.598633,2.753018 
	C5945.223145,6.489362 5945.473145,9.470287 5945.585449,12.456402 
	C5946.930176,48.133728 5961.164551,78.040085 5986.134277,103.152832 
	C5988.411133,105.442543 5990.654785,107.765831 5993.388184,110.558006 
	C5920.862305,182.538422 5848.843750,254.014847 5776.807617,325.509094 
	C5711.048340,254.858963 5618.963867,273.878082 5575.790527,318.684692 
	C5528.231934,368.042938 5523.593262,445.843811 5566.775391,499.279419 
	C5610.187988,552.999939 5687.063477,565.881165 5744.993164,529.000854 
	C5774.314453,510.333771 5794.161621,484.191620 5803.256836,450.708557 
	C5814.321777,409.970825 5807.484375,371.663910 5783.867676,335.938416 
	C5857.396973,262.949677 5930.568359,190.316391 6003.572266,117.848999 
	C6007.281738,120.067680 6009.833008,121.615036 6012.403809,123.127312 
	C6033.870117,135.754242 6057.221680,141.960876 6081.959961,141.713196 
	C6155.487793,140.977081 6214.082031,83.046204 6216.453613,9.384892 
	C6216.533203,6.909255 6217.465332,4.461048 6218.000000,2.000025 
	C6262.053711,2.000000 6306.107422,2.000000 6351.757812,2.609010 
	C6353.432129,4.211826 6353.564941,5.204765 6353.581055,6.199587 
	C6354.323242,52.715027 6373.808105,89.485641 6411.130859,117.006721 
	C6412.354004,117.908707 6413.370117,119.091187 6414.945312,120.580299 
	C6341.291992,193.693253 6268.142090,266.306824 6194.832031,339.079224 
	C6141.259277,264.345001 6046.175293,262.593628 5990.604492,312.777130 
	C5961.439941,339.113983 5946.010254,372.081665 5945.406250,411.495392 
	C5944.658203,460.326263 5965.866211,498.315216 6005.069336,527.440186 
	C5931.363281,600.573914 5858.354492,673.015991 5785.260254,745.542725 
	C5735.230957,676.897034 5648.169434,671.942566 5592.644531,712.570435 
	C5536.844727,753.399292 5520.364258,830.101562 5554.857910,890.132263 
	C5589.368164,950.192017 5664.037109,974.709534 5727.228027,946.633484 
	C5759.009277,932.513123 5782.346191,909.635986 5796.389648,877.815308 
	C5814.469238,836.848816 5811.608398,796.315979 5791.808594,756.499268 
	C5866.895020,681.960327 5941.570801,607.828491 6015.823242,534.117310 
	C6073.142090,559.979370 6126.834961,556.241577 6172.607422,513.538147 
	C6221.757812,467.683563 6227.796387,411.446503 6201.489746,349.824768 
	C6276.295898,275.602692 6351.422363,201.062927 6426.357910,126.712219 
	C6429.146484,127.895462 6430.984375,128.659241 6432.809570,129.452438 
	C6456.513672,139.751968 6481.010742,143.601837 6506.870117,140.396408 
	C6563.728027,133.348450 6611.580566,88.986565 6622.105957,32.423347 
	C6623.973145,22.388128 6624.729980,12.146360 6626.000000,1.999998 
	C6673.387207,2.000000 6720.773926,2.000000 6768.916504,2.914767 
	C6769.926758,10.138769 6769.676270,16.516006 6770.514160,22.746729 
	C6779.843750,92.112526 6835.131836,134.547287 6889.384766,140.654633 
	C6960.030273,148.607315 7025.360352,101.405830 7038.325195,31.535238 
	C7040.131836,21.798120 7040.803223,11.850300 7042.000000,1.999999 
	C7086.720215,2.000000 7131.440918,2.000000 7177.060547,2.921826 
	C7179.006348,14.398195 7179.020996,25.178089 7181.267090,35.470974 
	C7196.667969,106.045494 7264.134277,149.428238 7331.440918,140.458481 
	C7386.850586,133.074127 7434.734375,90.250107 7445.885254,35.478714 
	C7448.121582,24.495203 7448.672363,13.168539 7450.000000,2.000017 
	C7498.053711,2.000000 7546.107422,2.000000 7595.198242,2.914170 
	C7596.933594,12.761649 7596.873047,21.831461 7598.452637,30.606050 
	C7608.317383,85.402954 7650.679688,127.935837 7706.107910,139.207703 
	C7758.983887,149.960480 7814.536133,126.692299 7844.934082,81.177444 
	C7860.958496,57.184685 7867.809082,30.576458 7868.000000,2.000000 
M5807.899414,1219.406128 
	C5804.962402,1187.512329 5792.346680,1159.904297 5770.039551,1135.939941 
	C5842.481934,1064.041992 5914.527832,992.538269 5986.542480,921.065369 
	C6048.784180,976.522766 6130.820312,964.757080 6177.019531,918.476990 
	C6224.118652,871.295715 6233.766602,789.544739 6180.115723,728.889038 
	C6252.302246,657.275085 6324.510742,585.639343 6396.652832,514.069519 
	C6457.671387,567.050110 6539.186523,557.863403 6586.446289,508.829437 
	C6635.854492,457.565430 6637.862305,378.704834 6591.843750,325.222809 
	C6546.370117,272.374664 6467.306152,262.973816 6410.165039,303.775421 
	C6381.827637,324.009338 6363.543457,351.405273 6356.525879,385.321228 
	C6347.273438,430.038361 6358.352051,470.231262 6387.996094,505.253937 
	C6315.334961,577.370972 6243.275879,648.890442 6171.274414,720.353088 
	C6109.591797,669.475952 6032.130859,681.057922 5987.502930,723.817505 
	C5964.562500,745.797241 5950.405273,772.541321 5946.416504,804.011597 
	C5941.313965,844.269958 5952.035645,880.371704 5978.177734,911.613953 
	C5971.323242,918.480408 5965.010254,924.836975 5958.662598,931.158691 
	C5918.052246,971.605408 5877.443359,1012.053467 5836.814941,1052.482178 
	C5814.612793,1074.576172 5792.390137,1096.650391 5770.130859,1118.687378 
	C5767.155762,1121.632935 5763.911133,1124.306885 5760.816406,1127.084106 
	C5757.854004,1124.919678 5755.705566,1123.369263 5753.577148,1121.791626 
	C5723.404297,1099.424683 5689.405762,1091.314819 5652.585938,1096.484497 
	C5578.133301,1106.937866 5526.731445,1177.429688 5538.403809,1252.132446 
	C5546.962402,1306.911865 5588.898438,1351.795044 5643.764648,1363.360474 
	C5700.986816,1375.422729 5755.346191,1351.427856 5785.718750,1305.736328 
	C5802.720215,1280.159180 5809.679688,1251.853882 5807.899414,1219.406128 
M6866.125488,1360.653320 
	C6884.184570,1366.599609 6902.842773,1367.737915 6921.441406,1365.481079 
	C6996.144043,1356.416382 7050.839844,1288.920776 7039.506348,1210.276245 
	C7030.429199,1147.293335 6978.166504,1099.772827 6914.367188,1095.395996 
	C6822.492676,1089.093140 6750.904785,1174.331543 6773.769043,1263.539307 
	C6786.208008,1312.069702 6817.220215,1344.052002 6866.125488,1360.653320 
M4318.467285,1165.472168 
	C4302.628418,1195.480591 4297.685547,1227.095703 4305.255859,1260.276978 
	C4321.546875,1331.677490 4388.531738,1376.945312 4460.711426,1364.160400 
	C4514.255371,1354.676270 4550.768555,1322.923218 4566.833008,1271.292603 
	C4583.125000,1218.928467 4571.103027,1171.275757 4531.450195,1132.945801 
	C4467.165527,1070.805664 4364.684082,1086.424927 4318.467285,1165.472168 
M7611.074219,475.900238 
	C7639.769531,531.091492 7700.492676,559.682251 7760.299805,546.937927 
	C7829.061035,532.285645 7875.211914,466.427673 7866.613281,397.221466 
	C7857.339355,322.572601 7785.846680,264.747742 7704.791504,281.205078 
	C7617.591797,298.909821 7570.805664,393.886261 7611.074219,475.900238 
M4444.422363,687.039246 
	C4437.466309,687.225403 4430.475586,687.028503 4423.559570,687.656372 
	C4343.719727,694.905029 4287.453613,773.300415 4304.965820,851.604553 
	C4320.594727,921.487061 4388.350586,968.280273 4460.218262,956.268127 
	C4532.825195,944.132324 4585.578125,874.314209 4570.869629,796.650452 
	C4558.965820,733.794678 4504.555176,689.752686 4444.422363,687.039246 
M6917.903320,687.419922 
	C6905.978027,687.799927 6893.796875,686.735657 6882.168945,688.794495 
	C6807.416992,702.029541 6759.112305,771.113403 6771.684082,845.870483 
	C6784.981445,924.940674 6865.368164,975.081726 6942.665039,953.032471 
	C7000.010254,936.674561 7045.936035,880.346313 7040.490234,811.289673 
	C7035.420410,746.995972 6983.517578,693.320129 6917.903320,687.419922 
M6966.493652,535.485779 
	C7018.281250,508.769104 7048.024902,454.019470 7039.591309,394.305786 
	C7028.085449,312.837280 6945.238770,259.843689 6866.625000,284.172699 
	C6815.592285,299.966095 6783.014648,334.856873 6772.583008,387.113586 
	C6761.838867,440.938263 6778.503906,487.251892 6822.135254,521.022888 
	C6865.974121,554.953979 6914.544434,558.758850 6966.493652,535.485779 
M4873.501953,689.676880 
	C4859.732422,686.829590 4845.939453,686.209229 4831.863281,687.515625 
	C4752.464355,694.883972 4695.718262,772.691956 4713.154297,850.655884 
	C4729.190430,922.358887 4794.887695,967.308350 4867.601562,956.327454 
	C4931.625488,946.658875 4980.953613,890.017212 4981.713379,825.297791 
	C4982.482910,759.712830 4939.501953,705.098145 4873.501953,689.676880 
M7792.913086,943.826294 
	C7839.186035,918.877502 7865.031738,880.095459 7867.450195,827.719849 
	C7871.417969,741.807129 7794.833984,674.712524 7709.997070,688.382324 
	C7623.102051,702.383850 7572.226562,795.432251 7607.278809,876.274963 
	C7638.269043,947.750366 7722.126953,978.225769 7792.913086,943.826294 
M4504.888672,296.162781 
	C4478.749023,281.753571 4450.998535,276.114014 4421.183105,279.507721 
	C4343.669434,288.330597 4286.940918,363.942688 4305.412598,444.754639 
	C4321.118652,513.468933 4387.822266,558.671021 4457.858398,548.397278 
	C4533.203613,537.344910 4586.039062,463.495544 4570.930176,388.675659 
	C4562.834961,348.588196 4541.072266,318.088867 4504.888672,296.162781 
M4713.516113,443.604767 
	C4729.190918,515.964294 4801.485840,562.379333 4873.767090,547.084595 
	C4942.979980,532.439270 4989.430176,466.533020 4980.547363,396.810638 
	C4971.248535,323.825775 4902.060547,265.339233 4820.376465,280.897064 
	C4745.082031,295.237976 4698.221191,366.537567 4713.516113,443.604767 
M5143.792969,1293.295288 
	C5167.894043,1339.709351 5218.166504,1372.107300 5279.785645,1365.574463 
	C5343.879883,1358.779297 5394.558105,1306.068726 5399.700684,1241.801880 
	C5407.342285,1146.302612 5316.175293,1072.755737 5224.608887,1100.901733 
	C5143.652344,1125.786133 5105.364746,1216.340332 5143.792969,1293.295288 
M7220.420898,315.416077 
	C7186.748047,348.531769 7172.928711,388.466064 7179.651367,435.259247 
	C7190.551758,511.131042 7265.879395,563.051575 7340.983887,547.200989 
	C7404.273438,533.843933 7450.054688,477.336121 7449.252930,412.112030 
	C7448.362793,339.694000 7388.410156,278.886139 7316.114258,278.435333 
	C7279.893066,278.209503 7248.280273,290.048309 7220.420898,315.416077 
M7213.004883,1321.984619 
	C7214.181641,1323.163696 7215.354492,1324.346436 7216.535645,1325.521362 
	C7250.111816,1358.922852 7290.516113,1371.758179 7337.018066,1364.211914 
	C7406.573242,1352.924805 7460.962402,1286.026611 7447.070801,1206.871094 
	C7436.090332,1144.306396 7385.009277,1099.466431 7322.125977,1095.389404 
	C7264.108887,1091.627808 7208.909668,1125.449463 7188.171875,1179.023071 
	C7168.178223,1230.675171 7176.554199,1278.276855 7213.004883,1321.984619 
M5344.809082,931.775208 
	C5377.903320,906.528015 5396.780273,873.234741 5399.645020,831.684692 
	C5405.446777,747.546631 5334.611328,680.036621 5252.208984,687.275391 
	C5163.332031,695.082947 5105.572266,786.319824 5137.096191,869.819031 
	C5168.877930,954.003296 5269.533691,984.580688 5344.809082,931.775208 
M5182.449219,522.502747 
	C5212.907715,544.742065 5246.700684,553.489929 5284.205566,548.346252 
	C5360.843262,537.835571 5413.828613,461.772461 5397.092285,385.963318 
	C5379.214844,304.985321 5296.734863,258.782623 5218.451172,286.401398 
	C5167.431152,304.401581 5128.092285,352.332642 5128.562012,415.374969 
	C5128.885254,458.761292 5147.121582,494.472015 5182.449219,522.502747 
M4771.845703,1116.862305 
	C4723.014160,1149.310425 4702.165527,1204.904663 4712.864746,1257.345215 
	C4727.732422,1330.213989 4795.613281,1377.183838 4868.972168,1364.089722 
	C4925.448242,1354.008789 4962.780762,1319.759766 4977.003418,1264.568848 
	C4991.337402,1208.944580 4974.535645,1161.032593 4930.022949,1124.358032 
	C4886.230469,1088.276733 4821.538086,1085.144165 4771.845703,1116.862305 
M7256.336914,699.392151 
	C7198.307617,726.606262 7166.900391,790.181946 7181.077148,851.735352 
	C7197.470215,922.909241 7262.884766,967.579834 7335.362305,956.178467 
	C7427.247559,941.724121 7477.302734,841.045471 7432.976562,757.960022 
	C7400.035645,696.213989 7324.334961,669.122314 7256.336914,699.392151 
M7817.279785,1336.274780 
	C7821.198242,1332.670288 7825.263184,1329.211060 7829.013672,1325.438843 
	C7885.020996,1269.098511 7879.004883,1173.954224 7816.807129,1124.609985 
	C7762.366699,1081.419800 7682.571289,1086.486084 7634.170410,1136.419556 
	C7582.155762,1190.080688 7584.296387,1279.540161 7639.327148,1330.156982 
	C7688.920410,1375.773193 7764.542480,1378.310669 7817.279785,1336.274780 
z"/>
<path fill="#27282D" opacity="1.000000" stroke="none" 
	d="
M6625.125000,1.999998 
	C6624.729980,12.146360 6623.973145,22.388128 6622.105957,32.423347 
	C6611.580566,88.986565 6563.728027,133.348450 6506.870117,140.396408 
	C6481.010742,143.601837 6456.513672,139.751968 6432.809570,129.452438 
	C6430.984375,128.659241 6429.146484,127.895462 6426.357910,126.712219 
	C6351.422363,201.062927 6276.295898,275.602692 6201.489746,349.824768 
	C6227.796387,411.446503 6221.757812,467.683563 6172.607422,513.538147 
	C6126.834961,556.241577 6073.142090,559.979370 6015.823242,534.117310 
	C5941.570801,607.828491 5866.895020,681.960327 5791.808594,756.499268 
	C5811.608398,796.315979 5814.469238,836.848816 5796.389648,877.815308 
	C5782.346191,909.635986 5759.009277,932.513123 5727.228027,946.633484 
	C5664.037109,974.709534 5589.368164,950.192017 5554.857910,890.132263 
	C5520.364258,830.101562 5536.844727,753.399292 5592.644531,712.570435 
	C5648.169434,671.942566 5735.230957,676.897034 5785.260254,745.542725 
	C5858.354492,673.015991 5931.363281,600.573914 6005.069336,527.440186 
	C5965.866211,498.315216 5944.658203,460.326263 5945.406250,411.495392 
	C5946.010254,372.081665 5961.439941,339.113983 5990.604492,312.777130 
	C6046.175293,262.593628 6141.259277,264.345001 6194.832031,339.079224 
	C6268.142090,266.306824 6341.291992,193.693253 6414.945312,120.580299 
	C6413.370117,119.091187 6412.354004,117.908707 6411.130859,117.006721 
	C6373.808105,89.485641 6354.323242,52.715027 6353.581055,6.199587 
	C6353.564941,5.204765 6353.432129,4.211826 6352.676758,2.609010 
	C6356.083496,2.000000 6360.166504,2.000000 6365.023438,2.906948 
	C6365.170410,24.950684 6369.971680,44.909637 6380.143066,63.311520 
	C6403.979492,106.432480 6441.354492,128.741104 6490.077148,129.190750 
	C6526.334473,129.525375 6557.555664,114.771812 6581.664062,87.188644 
	C6602.865234,62.932838 6613.762207,34.623718 6612.000000,2.000000 
	C6616.083496,2.000000 6620.166504,2.000000 6625.125000,1.999998 
M6043.647949,296.231995 
	C6041.760254,296.883179 6039.854980,297.488281 6037.987305,298.192261 
	C5987.783203,317.116119 5950.089355,367.974518 5958.582031,430.615356 
	C5968.410156,503.109741 6035.414551,544.687805 6096.324219,536.533264 
	C6152.909180,528.957642 6199.017578,482.256622 6203.873047,425.585754 
	C6211.459961,337.027222 6127.857422,270.649048 6043.647949,296.231995 
M5713.399414,938.761230 
	C5767.393555,918.651245 5800.887695,867.394714 5795.676758,811.736389 
	C5788.561523,735.736633 5716.999512,685.163574 5644.482910,702.046753 
	C5595.802734,713.380310 5557.855469,753.644226 5550.518555,803.617126 
	C5542.352051,859.243225 5569.986328,904.622620 5609.117188,927.996399 
	C5641.522949,947.352844 5675.981934,950.880920 5713.399414,938.761230 
z"/>
<path fill="#FE4F3E" opacity="1.000000" stroke="none" 
	d="
M4722.000000,2.000000 
	C4804.041504,2.000000 4886.083496,2.000000 4968.924805,2.861360 
	C4969.035156,11.674631 4968.903320,19.721909 4967.563965,27.562899 
	C4959.052734,77.391273 4919.579590,117.414619 4869.380371,127.481949 
	C4820.616699,137.261368 4769.512207,115.323212 4742.188477,73.042320 
	C4728.193359,51.387222 4722.328125,27.499586 4722.000000,2.000000 
z"/>
<path fill="#3D8AFE" opacity="1.000000" stroke="none" 
	d="
M5140.000000,2.000000 
	C5222.041504,2.000000 5304.083496,2.000000 5387.040527,2.891702 
	C5387.452148,10.079559 5387.192383,16.406420 5386.405762,22.667110 
	C5378.588379,84.887932 5320.608398,135.520081 5252.455078,128.434723 
	C5210.020020,124.023125 5178.370117,102.522087 5156.687012,66.109512 
	C5144.953613,46.406822 5141.266602,24.489290 5140.000000,2.000000 
z"/>
<path fill="#3D8AFE" opacity="1.000000" stroke="none" 
	d="
M6611.062500,2.000000 
	C6613.762207,34.623718 6602.865234,62.932838 6581.664062,87.188644 
	C6557.555664,114.771812 6526.334473,129.525375 6490.077148,129.190750 
	C6441.354492,128.741104 6403.979492,106.432480 6380.143066,63.311520 
	C6369.971680,44.909637 6365.170410,24.950684 6365.898438,2.906948 
	C6447.375000,2.000000 6528.750000,2.000000 6611.062500,2.000000 
z"/>
<path fill="#3D8AFE" opacity="1.000000" stroke="none" 
	d="
M5958.000000,2.000000 
	C6039.375000,2.000000 6120.750000,2.000000 6203.167969,2.906668 
	C6204.842773,24.952154 6200.037109,44.911083 6189.865234,63.313629 
	C6166.029297,106.436691 6128.653320,128.746277 6079.927734,129.199265 
	C6043.666504,129.536392 6012.448242,114.778847 5988.334961,87.198853 
	C5967.126465,62.941288 5956.238770,34.626213 5958.000000,2.000000 
z"/>
<path fill="#3D8AFE" opacity="1.000000" stroke="none" 
	d="
M4314.000000,2.000000 
	C4395.375000,2.000000 4476.750000,2.000000 4559.442383,2.867677 
	C4559.746582,13.961464 4559.926758,24.477058 4557.529785,34.367939 
	C4538.052734,114.729271 4447.027344,154.836777 4375.095215,111.843918 
	C4334.015137,87.290688 4314.385254,49.729652 4314.000000,2.000000 
z"/>
<path fill="#3D8AFE" opacity="1.000000" stroke="none" 
	d="
M5550.000000,2.000008 
	C5631.375000,2.000000 5712.750000,2.000000 5795.041016,2.902608 
	C5797.725098,74.683258 5735.497070,136.192169 5659.697266,128.469421 
	C5608.200684,123.222778 5562.308594,83.255699 5552.224609,32.620075 
	C5550.241211,22.660587 5550.678711,12.219174 5550.000000,2.000008 
z"/>
<path fill="#3D8AFE" opacity="1.000000" stroke="none" 
	d="
M7190.000000,2.000000 
	C7271.375000,2.000000 7352.750000,2.000000 7435.351562,2.887134 
	C7437.004395,50.788658 7416.690918,87.051102 7377.094238,111.156120 
	C7336.994629,135.566895 7294.587891,136.355804 7253.642090,113.256187 
	C7210.926270,89.157883 7190.271484,51.068661 7190.000000,2.000000 
z"/>
<path fill="#3D8AFE" opacity="1.000000" stroke="none" 
	d="
M6782.000000,2.000000 
	C6863.375000,2.000000 6944.750000,2.000000 7027.351562,2.882697 
	C7030.298340,75.689339 6967.586914,135.720169 6893.448242,128.527359 
	C6828.973145,122.272141 6780.013184,67.016495 6782.000000,2.000000 
z"/>
<path fill="#E6E8EB" opacity="1.000000" stroke="none" 
	d="
M7608.000000,2.000000 
	C7690.041504,2.000000 7772.083496,2.000000 7854.896484,2.853531 
	C7855.210449,9.666534 7854.944336,15.647886 7854.265137,21.582031 
	C7848.113770,75.346939 7802.365723,129.401047 7731.553711,129.363907 
	C7671.230469,129.332260 7630.909180,89.625412 7615.826660,47.950207 
	C7610.435547,33.054012 7608.500000,17.675209 7608.000000,2.000000 
z"/>
<path fill="#29292B" opacity="1.000000" stroke="none" 
	d="
M5957.125000,2.000000 
	C5956.238770,34.626213 5967.126465,62.941288 5988.334961,87.198853 
	C6012.448242,114.778847 6043.666504,129.536392 6079.927734,129.199265 
	C6128.653320,128.746277 6166.029297,106.436691 6189.865234,63.313629 
	C6200.037109,44.911083 6204.842773,24.952154 6204.105469,2.906668 
	C6208.083496,2.000000 6212.166504,2.000000 6217.125000,2.000025 
	C6217.465332,4.461048 6216.533203,6.909255 6216.453613,9.384892 
	C6214.082031,83.046204 6155.487793,140.977081 6081.959961,141.713196 
	C6057.221680,141.960876 6033.870117,135.754242 6012.403809,123.127312 
	C6009.833008,121.615036 6007.281738,120.067680 6003.572266,117.848999 
	C5930.568359,190.316391 5857.396973,262.949677 5783.867676,335.938416 
	C5807.484375,371.663910 5814.321777,409.970825 5803.256836,450.708557 
	C5794.161621,484.191620 5774.314453,510.333771 5744.993164,529.000854 
	C5687.063477,565.881165 5610.187988,552.999939 5566.775391,499.279419 
	C5523.593262,445.843811 5528.231934,368.042938 5575.790527,318.684692 
	C5618.963867,273.878082 5711.048340,254.858963 5776.807617,325.509094 
	C5848.843750,254.014847 5920.862305,182.538422 5993.388184,110.558006 
	C5990.654785,107.765831 5988.411133,105.442543 5986.134277,103.152832 
	C5961.164551,78.040085 5946.930176,48.133728 5945.585449,12.456402 
	C5945.473145,9.470287 5945.223145,6.489362 5944.518555,2.753018 
	C5948.083496,2.000000 5952.166504,2.000000 5957.125000,2.000000 
M5569.446289,346.584167 
	C5557.510742,364.800507 5550.790527,384.747589 5549.363281,406.503357 
	C5545.049316,472.271881 5594.285645,533.391968 5665.653320,537.646667 
	C5744.973145,542.375366 5807.067383,472.149353 5794.198242,393.506592 
	C5784.711426,335.534210 5733.425293,291.287384 5674.744141,290.969971 
	C5630.488281,290.730560 5595.831055,309.511414 5569.446289,346.584167 
z"/>
<path fill="#2A2A2D" opacity="1.000000" stroke="none" 
	d="
M7607.143066,2.000000 
	C7608.500000,17.675209 7610.435547,33.054012 7615.826660,47.950207 
	C7630.909180,89.625412 7671.230469,129.332260 7731.553711,129.363907 
	C7802.365723,129.401047 7848.113770,75.346939 7854.265137,21.582031 
	C7854.944336,15.647886 7855.210449,9.666534 7855.833984,2.853531 
	C7859.428711,2.000000 7862.857422,2.000000 7867.143066,2.000000 
	C7867.809082,30.576458 7860.958496,57.184685 7844.934082,81.177444 
	C7814.536133,126.692299 7758.983887,149.960480 7706.107910,139.207703 
	C7650.679688,127.935837 7608.317383,85.402954 7598.452637,30.606050 
	C7596.873047,21.831461 7596.933594,12.761649 7596.118164,2.914170 
	C7599.428711,2.000000 7602.857422,2.000000 7607.143066,2.000000 
z"/>
<path fill="#24292E" opacity="1.000000" stroke="none" 
	d="
M4313.143066,2.000000 
	C4314.385254,49.729652 4334.015137,87.290688 4375.095215,111.843918 
	C4447.027344,154.836777 4538.052734,114.729271 4557.529785,34.367939 
	C4559.926758,24.477058 4559.746582,13.961464 4560.379883,2.867677 
	C4564.083496,2.000000 4568.166504,2.000000 4573.125000,2.000000 
	C4572.773438,18.211796 4571.506836,34.360394 4566.116211,49.949085 
	C4546.195312,107.555298 4490.370117,146.076691 4427.658691,141.199707 
	C4363.473633,136.208145 4312.843750,88.925117 4303.700684,26.661903 
	C4302.594727,19.132671 4302.515137,11.452750 4301.979492,2.921352 
	C4305.428711,2.000000 4308.857422,2.000000 4313.143066,2.000000 
z"/>
<path fill="#24292E" opacity="1.000000" stroke="none" 
	d="
M5139.143066,2.000000 
	C5141.266602,24.489290 5144.953613,46.406822 5156.687012,66.109512 
	C5178.370117,102.522087 5210.020020,124.023125 5252.455078,128.434723 
	C5320.608398,135.520081 5378.588379,84.887932 5386.405762,22.667110 
	C5387.192383,16.406420 5387.452148,10.079559 5387.978027,2.891702 
	C5391.428711,2.000000 5394.857422,2.000000 5399.143066,2.000000 
	C5400.426758,70.034309 5357.155273,124.569145 5291.433105,138.826309 
	C5220.474609,154.219284 5147.698730,107.617882 5132.152832,36.442307 
	C5129.824219,25.780632 5129.497070,14.681765 5128.122070,2.892557 
	C5131.428711,2.000000 5134.857422,2.000000 5139.143066,2.000000 
z"/>
<path fill="#24292E" opacity="1.000000" stroke="none" 
	d="
M5549.125000,2.000008 
	C5550.678711,12.219174 5550.241211,22.660587 5552.224609,32.620075 
	C5562.308594,83.255699 5608.200684,123.222778 5659.697266,128.469421 
	C5735.497070,136.192169 5797.725098,74.683258 5795.978516,2.902608 
	C5799.428711,2.000000 5802.857422,2.000000 5807.143066,2.000000 
	C5810.789062,62.933567 5769.372559,120.276062 5707.848633,137.016357 
	C5627.134766,158.978348 5544.420410,101.616180 5537.643066,18.541185 
	C5537.237793,13.575420 5537.036621,8.593013 5536.370117,2.809165 
	C5540.083496,2.000000 5544.166504,2.000000 5549.125000,2.000008 
z"/>
<path fill="#24292E" opacity="1.000000" stroke="none" 
	d="
M7189.143066,2.000000 
	C7190.271484,51.068661 7210.926270,89.157883 7253.642090,113.256187 
	C7294.587891,136.355804 7336.994629,135.566895 7377.094238,111.156120 
	C7416.690918,87.051102 7437.004395,50.788658 7436.289062,2.887134 
	C7440.083496,2.000000 7444.166504,2.000000 7449.125000,2.000017 
	C7448.672363,13.168539 7448.121582,24.495203 7445.885254,35.478714 
	C7434.734375,90.250107 7386.850586,133.074127 7331.440918,140.458481 
	C7264.134277,149.428238 7196.667969,106.045494 7181.267090,35.470974 
	C7179.020996,25.178089 7179.006348,14.398195 7177.979492,2.921826 
	C7181.428711,2.000000 7184.857422,2.000000 7189.143066,2.000000 
z"/>
<path fill="#24292E" opacity="1.000000" stroke="none" 
	d="
M6781.143066,2.000000 
	C6780.013184,67.016495 6828.973145,122.272141 6893.448242,128.527359 
	C6967.586914,135.720169 7030.298340,75.689339 7028.289062,2.882697 
	C7032.083496,2.000000 7036.166504,2.000000 7041.125000,1.999999 
	C7040.803223,11.850300 7040.131836,21.798120 7038.325195,31.535238 
	C7025.360352,101.405830 6960.030273,148.607315 6889.384766,140.654633 
	C6835.131836,134.547287 6779.843750,92.112526 6770.514160,22.746729 
	C6769.676270,16.516006 6769.926758,10.138769 6769.835938,2.914767 
	C6773.428711,2.000000 6776.857422,2.000000 6781.143066,2.000000 
z"/>
<path fill="#29272A" opacity="1.000000" stroke="none" 
	d="
M4721.143066,2.000000 
	C4722.328125,27.499586 4728.193359,51.387222 4742.188477,73.042320 
	C4769.512207,115.323212 4820.616699,137.261368 4869.380371,127.481949 
	C4919.579590,117.414619 4959.052734,77.391273 4967.563965,27.562899 
	C4968.903320,19.721909 4969.035156,11.674631 4969.862305,2.861360 
	C4973.428711,2.000000 4976.857422,2.000000 4981.143066,2.000000 
	C4981.778320,31.291241 4974.555664,58.473907 4957.826172,82.844437 
	C4926.931641,127.848953 4871.367676,150.074265 4818.181152,138.638702 
	C4763.667969,126.917847 4721.957520,84.525574 4712.404785,30.610577 
	C4710.849121,21.831030 4710.926270,12.762078 4710.124023,2.913449 
	C4713.428711,2.000000 4716.857422,2.000000 4721.143066,2.000000 
z"/>
<path fill="#28282C" opacity="1.000000" stroke="none" 
	d="
M5807.964844,1220.358154 
	C5809.679688,1251.853882 5802.720215,1280.159180 5785.718750,1305.736328 
	C5755.346191,1351.427856 5700.986816,1375.422729 5643.764648,1363.360474 
	C5588.898438,1351.795044 5546.962402,1306.911865 5538.403809,1252.132446 
	C5526.731445,1177.429688 5578.133301,1106.937866 5652.585938,1096.484497 
	C5689.405762,1091.314819 5723.404297,1099.424683 5753.577148,1121.791626 
	C5755.705566,1123.369263 5757.854004,1124.919678 5760.816406,1127.084106 
	C5763.911133,1124.306885 5767.155762,1121.632935 5770.130859,1118.687378 
	C5792.390137,1096.650391 5814.612793,1074.576172 5836.814941,1052.482178 
	C5877.443359,1012.053467 5918.052246,971.605408 5958.662598,931.158691 
	C5965.010254,924.836975 5971.323242,918.480408 5978.177734,911.613953 
	C5952.035645,880.371704 5941.313965,844.269958 5946.416504,804.011597 
	C5950.405273,772.541321 5964.562500,745.797241 5987.502930,723.817505 
	C6032.130859,681.057922 6109.591797,669.475952 6171.274414,720.353088 
	C6243.275879,648.890442 6315.334961,577.370972 6387.996094,505.253937 
	C6358.352051,470.231262 6347.273438,430.038361 6356.525879,385.321228 
	C6363.543457,351.405273 6381.827637,324.009338 6410.165039,303.775421 
	C6467.306152,262.973816 6546.370117,272.374664 6591.843750,325.222809 
	C6637.862305,378.704834 6635.854492,457.565430 6586.446289,508.829437 
	C6539.186523,557.863403 6457.671387,567.050110 6396.652832,514.069519 
	C6324.510742,585.639343 6252.302246,657.275085 6180.115723,728.889038 
	C6233.766602,789.544739 6224.118652,871.295715 6177.019531,918.476990 
	C6130.820312,964.757080 6048.784180,976.522766 5986.542480,921.065369 
	C5914.527832,992.538269 5842.481934,1064.041992 5770.039551,1135.939941 
	C5792.346680,1159.904297 5804.962402,1187.512329 5807.964844,1220.358154 
M6393.210449,491.677521 
	C6423.066406,526.174072 6460.393066,541.871887 6506.040527,536.161255 
	C6567.113770,528.520813 6622.003906,471.022186 6611.240234,396.207855 
	C6600.915527,324.448151 6534.071289,282.260315 6472.470215,291.762878 
	C6429.108887,298.451843 6396.857910,321.349976 6378.154785,360.693604 
	C6356.497070,406.253143 6362.343750,450.016052 6393.210449,491.677521 
M6126.881348,707.810547 
	C6107.998047,700.341919 6088.581055,697.557922 6068.234375,699.505188 
	C6004.792969,705.576904 5947.899902,763.913879 5958.719238,839.758972 
	C5969.289062,913.851318 6038.334961,953.823303 6099.192383,944.507385 
	C6170.356934,933.613647 6218.912598,861.983521 6200.531738,792.368652 
	C6190.073242,752.760010 6165.644531,724.948730 6126.881348,707.810547 
M5601.396484,1130.247437 
	C5561.421387,1160.330078 5543.402832,1200.561890 5550.725586,1249.829712 
	C5561.188965,1320.223022 5627.604492,1364.710693 5695.215332,1352.360962 
	C5766.977051,1339.253174 5812.391113,1264.754150 5790.622070,1194.985107 
	C5765.947754,1115.904785 5672.593262,1081.698608 5601.396484,1130.247437 
z"/>
<path fill="#2A2A2D" opacity="1.000000" stroke="none" 
	d="
M6865.351074,1360.447266 
	C6817.220215,1344.052002 6786.208008,1312.069702 6773.769043,1263.539307 
	C6750.904785,1174.331543 6822.492676,1089.093140 6914.367188,1095.395996 
	C6978.166504,1099.772827 7030.429199,1147.293335 7039.506348,1210.276245 
	C7050.839844,1288.920776 6996.144043,1356.416382 6921.441406,1365.481079 
	C6902.842773,1367.737915 6884.184570,1366.599609 6865.351074,1360.447266 
M7015.615234,1286.227173 
	C7025.416016,1266.080811 7029.701660,1244.970215 7028.410645,1222.455933 
	C7025.052246,1163.889404 6976.855957,1111.112671 6912.351074,1107.456787 
	C6828.086426,1102.681152 6763.470215,1182.698975 6786.260254,1263.776489 
	C6802.582520,1321.842285 6858.865723,1360.537842 6918.385742,1353.502930 
	C6961.705078,1348.382568 6993.811035,1325.761230 7015.615234,1286.227173 
z"/>
<path fill="#2A2A2D" opacity="1.000000" stroke="none" 
	d="
M4318.868652,1164.850830 
	C4364.684082,1086.424927 4467.165527,1070.805664 4531.450195,1132.945801 
	C4571.103027,1171.275757 4583.125000,1218.928467 4566.833008,1271.292603 
	C4550.768555,1322.923218 4514.255371,1354.676270 4460.711426,1364.160400 
	C4388.531738,1376.945312 4321.546875,1331.677490 4305.255859,1260.276978 
	C4297.685547,1227.095703 4302.628418,1195.480591 4318.868652,1164.850830 
M4541.114746,1297.914917 
	C4556.121094,1274.829956 4562.778320,1249.474487 4560.785645,1222.084961 
	C4555.582520,1150.569092 4491.265137,1098.566162 4420.379883,1108.293457 
	C4350.854492,1117.834106 4302.844238,1185.317383 4316.359375,1254.503174 
	C4326.604980,1306.948364 4371.091309,1348.642456 4424.295898,1353.446045 
	C4473.002441,1357.843506 4511.963867,1339.302979 4541.114746,1297.914917 
z"/>
<path fill="#2B2928" opacity="1.000000" stroke="none" 
	d="
M7610.707031,475.249207 
	C7570.805664,393.886261 7617.591797,298.909821 7704.791504,281.205078 
	C7785.846680,264.747742 7857.339355,322.572601 7866.613281,397.221466 
	C7875.211914,466.427673 7829.061035,532.285645 7760.299805,546.937927 
	C7700.492676,559.682251 7639.769531,531.091492 7610.707031,475.249207 
M7701.622559,533.995422 
	C7709.166504,535.252563 7716.672852,537.280396 7724.260254,537.648560 
	C7807.055664,541.665894 7863.761230,469.920563 7854.479492,399.239166 
	C7844.895508,326.253510 7774.810547,277.158875 7703.225098,294.194061 
	C7637.541016,309.824860 7596.061035,376.130157 7611.827637,441.803711 
	C7623.215332,489.236755 7653.577637,519.386780 7701.622559,533.995422 
z"/>
<path fill="#26282D" opacity="1.000000" stroke="none" 
	d="
M4445.338867,687.109192 
	C4504.555176,689.752686 4558.965820,733.794678 4570.869629,796.650452 
	C4585.578125,874.314209 4532.825195,944.132324 4460.218262,956.268127 
	C4388.350586,968.280273 4320.594727,921.487061 4304.965820,851.604553 
	C4287.453613,773.300415 4343.719727,694.905029 4423.559570,687.656372 
	C4430.475586,687.028503 4437.466309,687.225403 4445.338867,687.109192 
M4545.993652,763.273621 
	C4518.535156,715.999207 4468.905762,691.364563 4417.245117,700.462524 
	C4343.644531,713.424255 4306.343262,782.051575 4315.449219,840.589661 
	C4327.390625,917.356323 4407.064453,965.117249 4479.916016,938.257874 
	C4548.797852,912.861938 4582.264648,832.259766 4545.993652,763.273621 
z"/>
<path fill="#26282D" opacity="1.000000" stroke="none" 
	d="
M6918.799805,687.529358 
	C6983.517578,693.320129 7035.420410,746.995972 7040.490234,811.289673 
	C7045.936035,880.346313 7000.010254,936.674561 6942.665039,953.032471 
	C6865.368164,975.081726 6784.981445,924.940674 6771.684082,845.870483 
	C6759.112305,771.113403 6807.416992,702.029541 6882.168945,688.794495 
	C6893.796875,686.735657 6905.978027,687.799927 6918.799805,687.529358 
M6946.647949,705.988037 
	C6923.772949,697.929077 6900.570801,696.744568 6876.884766,702.070557 
	C6816.968262,715.543640 6774.368164,776.212585 6782.511719,836.790894 
	C6792.626465,912.030273 6861.624512,955.781067 6926.569824,943.969299 
	C6993.585938,931.780823 7039.012207,868.197021 7026.710938,801.145630 
	C7018.288574,755.241577 6991.213379,724.017334 6946.647949,705.988037 
z"/>
<path fill="#26282D" opacity="1.000000" stroke="none" 
	d="
M6965.813477,535.792175 
	C6914.544434,558.758850 6865.974121,554.953979 6822.135254,521.022888 
	C6778.503906,487.251892 6761.838867,440.938263 6772.583008,387.113586 
	C6783.014648,334.856873 6815.592285,299.966095 6866.625000,284.172699 
	C6945.238770,259.843689 7028.085449,312.837280 7039.591309,394.305786 
	C7048.024902,454.019470 7018.281250,508.769104 6965.813477,535.792175 
M6964.789062,522.066040 
	C7010.648926,495.191040 7034.612793,447.518158 7027.697266,396.917236 
	C7017.796875,324.473969 6946.055664,276.405243 6874.634277,294.360809 
	C6799.346680,313.288208 6760.150391,398.223999 6794.251953,467.928253 
	C6823.709473,528.140076 6898.555176,557.217407 6964.789062,522.066040 
z"/>
<path fill="#26282D" opacity="1.000000" stroke="none" 
	d="
M4874.336426,689.797485 
	C4939.501953,705.098145 4982.482910,759.712830 4981.713379,825.297791 
	C4980.953613,890.017212 4931.625488,946.658875 4867.601562,956.327454 
	C4794.887695,967.308350 4729.190430,922.358887 4713.154297,850.655884 
	C4695.718262,772.691956 4752.464355,694.883972 4831.863281,687.515625 
	C4845.939453,686.209229 4859.732422,686.829590 4874.336426,689.797485 
M4767.550293,917.537537 
	C4796.130371,940.240417 4828.302246,949.580627 4864.678711,944.273804 
	C4933.211426,934.276001 4980.758301,866.534241 4967.200684,798.698120 
	C4955.013184,737.718445 4897.726074,692.916138 4833.330566,699.488647 
	C4771.735840,705.775330 4722.381348,759.035522 4722.427734,820.847900 
	C4722.457031,859.364380 4737.330078,891.336609 4767.550293,917.537537 
z"/>
<path fill="#26282D" opacity="1.000000" stroke="none" 
	d="
M7792.221680,944.106262 
	C7722.126953,978.225769 7638.269043,947.750366 7607.278809,876.274963 
	C7572.226562,795.432251 7623.102051,702.383850 7709.997070,688.382324 
	C7794.833984,674.712524 7871.417969,741.807129 7867.450195,827.719849 
	C7865.031738,880.095459 7839.186035,918.877502 7792.221680,944.106262 
M7777.618652,936.949219 
	C7831.382324,915.455444 7860.485352,860.221008 7854.702148,808.588562 
	C7847.578125,744.989319 7789.196289,692.337830 7719.370117,699.511108 
	C7670.553223,704.526001 7628.477051,738.736694 7613.846680,786.403381 
	C7599.423828,833.394531 7614.607422,885.638550 7652.457031,916.497253 
	C7689.562500,946.748474 7731.041016,953.539307 7777.618652,936.949219 
z"/>
<path fill="#26282D" opacity="1.000000" stroke="none" 
	d="
M4505.511719,296.544006 
	C4541.072266,318.088867 4562.834961,348.588196 4570.930176,388.675659 
	C4586.039062,463.495544 4533.203613,537.344910 4457.858398,548.397278 
	C4387.822266,558.671021 4321.118652,513.468933 4305.412598,444.754639 
	C4286.940918,363.942688 4343.669434,288.330597 4421.183105,279.507721 
	C4450.998535,276.114014 4478.749023,281.753571 4505.511719,296.544006 
M4560.445312,402.744232 
	C4559.596680,397.160034 4559.082520,391.500824 4557.848145,386.003113 
	C4543.538574,322.232849 4478.565430,279.775116 4414.680664,292.575867 
	C4344.030762,306.732117 4306.199707,373.200684 4315.486816,432.849518 
	C4326.217285,501.764526 4395.218262,549.756775 4463.156250,534.916687 
	C4519.877930,522.526672 4565.681152,469.555969 4560.445312,402.744232 
z"/>
<path fill="#26282D" opacity="1.000000" stroke="none" 
	d="
M4713.326172,442.782654 
	C4698.221191,366.537567 4745.082031,295.237976 4820.376465,280.897064 
	C4902.060547,265.339233 4971.248535,323.825775 4980.547363,396.810638 
	C4989.430176,466.533020 4942.979980,532.439270 4873.767090,547.084595 
	C4801.485840,562.379333 4729.190918,515.964294 4713.326172,442.782654 
M4913.854980,517.041931 
	C4954.244141,488.010651 4973.592773,449.154175 4968.264160,399.141693 
	C4960.636230,327.540710 4889.564453,277.547089 4819.348145,293.399811 
	C4754.622559,308.012878 4714.546875,370.549927 4723.695312,431.617432 
	C4732.253906,488.748810 4780.204102,535.821167 4843.521973,537.527283 
	C4868.432617,538.198547 4891.557617,531.295532 4913.854980,517.041931 
z"/>
<path fill="#26282D" opacity="1.000000" stroke="none" 
	d="
M5143.453125,1292.632568 
	C5105.364746,1216.340332 5143.652344,1125.786133 5224.608887,1100.901733 
	C5316.175293,1072.755737 5407.342285,1146.302612 5399.700684,1241.801880 
	C5394.558105,1306.068726 5343.879883,1358.779297 5279.785645,1365.574463 
	C5218.166504,1372.107300 5167.894043,1339.709351 5143.453125,1292.632568 
M5263.029297,1107.259277 
	C5255.106445,1108.100586 5247.070312,1108.359985 5239.278809,1109.875122 
	C5174.041992,1122.559814 5129.963379,1188.350830 5142.912598,1253.395142 
	C5156.401855,1321.153198 5219.896484,1364.681274 5287.847656,1351.701904 
	C5349.932617,1339.843384 5392.635742,1283.174927 5387.418945,1221.072510 
	C5381.564453,1151.368530 5323.502441,1106.691528 5263.029297,1107.259277 
z"/>
<path fill="#26282D" opacity="1.000000" stroke="none" 
	d="
M7220.919922,314.918579 
	C7248.280273,290.048309 7279.893066,278.209503 7316.114258,278.435333 
	C7388.410156,278.886139 7448.362793,339.694000 7449.252930,412.112030 
	C7450.054688,477.336121 7404.273438,533.843933 7340.983887,547.200989 
	C7265.879395,563.051575 7190.551758,511.131042 7179.651367,435.259247 
	C7172.928711,388.466064 7186.748047,348.531769 7220.919922,314.918579 
M7432.856934,382.510864 
	C7416.952148,321.363007 7355.358398,280.198669 7290.977051,292.602661 
	C7219.367676,306.399261 7180.975586,374.007355 7191.778320,433.410614 
	C7200.281250,480.162964 7226.689941,512.979675 7271.030273,529.583740 
	C7314.772461,545.963318 7356.186035,538.642090 7391.931641,508.882782 
	C7431.031250,476.331299 7443.788574,433.736847 7432.856934,382.510864 
z"/>
<path fill="#26282D" opacity="1.000000" stroke="none" 
	d="
M7212.512695,1321.477295 
	C7176.554199,1278.276855 7168.178223,1230.675171 7188.171875,1179.023071 
	C7208.909668,1125.449463 7264.108887,1091.627808 7322.125977,1095.389404 
	C7385.009277,1099.466431 7436.090332,1144.306396 7447.070801,1206.871094 
	C7460.962402,1286.026611 7406.573242,1352.924805 7337.018066,1364.211914 
	C7290.516113,1371.758179 7250.111816,1358.922852 7216.535645,1325.521362 
	C7215.354492,1324.346436 7214.181641,1323.163696 7212.512695,1321.477295 
M7200.873047,1180.150757 
	C7190.931152,1203.023315 7187.747070,1226.651855 7191.801270,1251.410645 
	C7202.058594,1314.053589 7262.460449,1360.436279 7325.374512,1353.646729 
	C7399.906738,1345.603516 7450.059082,1276.080200 7433.949219,1203.137207 
	C7419.563477,1138.001709 7353.482422,1095.545410 7288.216797,1109.850952 
	C7248.186523,1118.625122 7219.602051,1142.187256 7200.873047,1180.150757 
z"/>
<path fill="#26282D" opacity="1.000000" stroke="none" 
	d="
M5344.214844,932.166260 
	C5269.533691,984.580688 5168.877930,954.003296 5137.096191,869.819031 
	C5105.572266,786.319824 5163.332031,695.082947 5252.208984,687.275391 
	C5334.611328,680.036621 5405.446777,747.546631 5399.645020,831.684692 
	C5396.780273,873.234741 5377.903320,906.528015 5344.214844,932.166260 
M5282.896484,944.230408 
	C5352.717773,933.781616 5396.421875,867.272522 5386.423828,803.812561 
	C5375.942383,737.285889 5313.002441,688.370056 5243.078613,700.642334 
	C5173.715820,712.816040 5127.741211,780.631897 5144.140625,851.132935 
	C5158.299316,912.002075 5219.826172,954.080078 5282.896484,944.230408 
z"/>
<path fill="#26282D" opacity="1.000000" stroke="none" 
	d="
M5181.866211,522.093628 
	C5147.121582,494.472015 5128.885254,458.761292 5128.562012,415.374969 
	C5128.092285,352.332642 5167.431152,304.401581 5218.451172,286.401398 
	C5296.734863,258.782623 5379.214844,304.985321 5397.092285,385.963318 
	C5413.828613,461.772461 5360.843262,537.835571 5284.205566,548.346252 
	C5246.700684,553.489929 5212.907715,544.742065 5181.866211,522.093628 
M5169.722656,334.804352 
	C5147.741211,361.925934 5138.250977,392.648071 5141.636230,427.624786 
	C5148.424805,497.770752 5218.210938,549.605469 5287.446289,535.365967 
	C5361.333008,520.169922 5395.223633,451.200562 5386.573730,396.075043 
	C5378.174316,342.544800 5333.057129,292.007080 5266.626465,290.571960 
	C5228.253418,289.743011 5196.106445,304.798035 5169.722656,334.804352 
z"/>
<path fill="#26282D" opacity="1.000000" stroke="none" 
	d="
M4772.451172,1116.475098 
	C4821.538086,1085.144165 4886.230469,1088.276733 4930.022949,1124.358032 
	C4974.535645,1161.032593 4991.337402,1208.944580 4977.003418,1264.568848 
	C4962.780762,1319.759766 4925.448242,1354.008789 4868.972168,1364.089722 
	C4795.613281,1377.183838 4727.732422,1330.213989 4712.864746,1257.345215 
	C4702.165527,1204.904663 4723.014160,1149.310425 4772.451172,1116.475098 
M4942.005371,1153.111206 
	C4909.387207,1115.281250 4868.425781,1100.263550 4819.436035,1110.161255 
	C4754.227051,1123.335815 4711.059570,1190.123047 4724.866699,1255.020630 
	C4742.271973,1336.834351 4831.272461,1378.772827 4904.706543,1338.778320 
	C4947.514648,1315.463745 4968.814941,1277.664673 4969.383789,1229.153564 
	C4969.709473,1201.383789 4960.052246,1176.262207 4942.005371,1153.111206 
z"/>
<path fill="#26292A" opacity="1.000000" stroke="none" 
	d="
M7257.000000,699.026489 
	C7324.334961,669.122314 7400.035645,696.213989 7432.976562,757.960022 
	C7477.302734,841.045471 7427.247559,941.724121 7335.362305,956.178467 
	C7262.884766,967.579834 7197.470215,922.909241 7181.077148,851.735352 
	C7166.900391,790.181946 7198.307617,726.606262 7257.000000,699.026489 
M7386.242188,722.648376 
	C7358.706055,702.928711 7328.002441,695.058777 7294.660156,700.341736 
	C7223.637207,711.595215 7181.930176,778.375916 7191.421387,840.045166 
	C7200.411621,898.455872 7250.491699,946.885254 7316.299805,945.719971 
	C7354.309570,945.046753 7385.763672,928.800415 7409.800293,899.233154 
	C7433.007324,870.686157 7440.838867,837.477051 7435.199707,801.684753 
	C7430.122559,769.462463 7413.373047,743.428528 7386.242188,722.648376 
z"/>
<path fill="#2A2629" opacity="1.000000" stroke="none" 
	d="
M7816.729980,1336.725586 
	C7764.542480,1378.310669 7688.920410,1375.773193 7639.327148,1330.156982 
	C7584.296387,1279.540161 7582.155762,1190.080688 7634.170410,1136.419556 
	C7682.571289,1086.486084 7762.366699,1081.419800 7816.807129,1124.609985 
	C7879.004883,1173.954224 7885.020996,1269.098511 7829.013672,1325.438843 
	C7825.263184,1329.211060 7821.198242,1332.670288 7816.729980,1336.725586 
M7618.635742,1280.014771 
	C7620.567383,1283.885620 7622.314453,1287.862305 7624.458984,1291.611328 
	C7648.036133,1332.827515 7693.152344,1360.335693 7747.217773,1353.479736 
	C7820.493164,1344.187866 7862.288086,1277.239868 7854.502441,1215.912598 
	C7844.528320,1137.347900 7763.021484,1087.553345 7688.870117,1115.359375 
	C7625.640137,1139.069946 7590.161621,1211.863037 7618.635742,1280.014771 
z"/>
<path fill="#3D8AFE" opacity="1.000000" stroke="none" 
	d="
M6044.431641,296.039551 
	C6127.857422,270.649048 6211.459961,337.027222 6203.873047,425.585754 
	C6199.017578,482.256622 6152.909180,528.957642 6096.324219,536.533264 
	C6035.414551,544.687805 5968.410156,503.109741 5958.582031,430.615356 
	C5950.089355,367.974518 5987.783203,317.116119 6037.987305,298.192261 
	C6039.854980,297.488281 6041.760254,296.883179 6044.431641,296.039551 
z"/>
<path fill="#3D8AFE" opacity="1.000000" stroke="none" 
	d="
M5712.678711,939.088745 
	C5675.981934,950.880920 5641.522949,947.352844 5609.117188,927.996399 
	C5569.986328,904.622620 5542.352051,859.243225 5550.518555,803.617126 
	C5557.855469,753.644226 5595.802734,713.380310 5644.482910,702.046753 
	C5716.999512,685.163574 5788.561523,735.736633 5795.676758,811.736389 
	C5800.887695,867.394714 5767.393555,918.651245 5712.678711,939.088745 
z"/>
<path fill="#FEBA00" opacity="1.000000" stroke="none" 
	d="
M5569.820312,345.968384 
	C5595.831055,309.511414 5630.488281,290.730560 5674.744141,290.969971 
	C5733.425293,291.287384 5784.711426,335.534210 5794.198242,393.506592 
	C5807.067383,472.149353 5744.973145,542.375366 5665.653320,537.646667 
	C5594.285645,533.391968 5545.049316,472.271881 5549.363281,406.503357 
	C5550.790527,384.747589 5557.510742,364.800507 5569.820312,345.968384 
z"/>
<path fill="#3D8AFE" opacity="1.000000" stroke="none" 
	d="
M6392.775391,491.109467 
	C6362.343750,450.016052 6356.497070,406.253143 6378.154785,360.693604 
	C6396.857910,321.349976 6429.108887,298.451843 6472.470215,291.762878 
	C6534.071289,282.260315 6600.915527,324.448151 6611.240234,396.207855 
	C6622.003906,471.022186 6567.113770,528.520813 6506.040527,536.161255 
	C6460.393066,541.871887 6423.066406,526.174072 6392.775391,491.109467 
z"/>
<path fill="#3D8AFE" opacity="1.000000" stroke="none" 
	d="
M6127.618164,708.040771 
	C6165.644531,724.948730 6190.073242,752.760010 6200.531738,792.368652 
	C6218.912598,861.983521 6170.356934,933.613647 6099.192383,944.507385 
	C6038.334961,953.823303 5969.289062,913.851318 5958.719238,839.758972 
	C5947.899902,763.913879 6004.792969,705.576904 6068.234375,699.505188 
	C6088.581055,697.557922 6107.998047,700.341919 6127.618164,708.040771 
z"/>
<path fill="#FE4F3E" opacity="1.000000" stroke="none" 
	d="
M5601.992188,1129.841797 
	C5672.593262,1081.698608 5765.947754,1115.904785 5790.622070,1194.985107 
	C5812.391113,1264.754150 5766.977051,1339.253174 5695.215332,1352.360962 
	C5627.604492,1364.710693 5561.188965,1320.223022 5550.725586,1249.829712 
	C5543.402832,1200.561890 5561.421387,1160.330078 5601.992188,1129.841797 
z"/>
<path fill="#E6E8EB" opacity="1.000000" stroke="none" 
	d="
M7015.232422,1286.870483 
	C6993.811035,1325.761230 6961.705078,1348.382568 6918.385742,1353.502930 
	C6858.865723,1360.537842 6802.582520,1321.842285 6786.260254,1263.776489 
	C6763.470215,1182.698975 6828.086426,1102.681152 6912.351074,1107.456787 
	C6976.855957,1111.112671 7025.052246,1163.889404 7028.410645,1222.455933 
	C7029.701660,1244.970215 7025.416016,1266.080811 7015.232422,1286.870483 
z"/>
<path fill="#E6E8EB" opacity="1.000000" stroke="none" 
	d="
M4540.692383,1298.505127 
	C4511.963867,1339.302979 4473.002441,1357.843506 4424.295898,1353.446045 
	C4371.091309,1348.642456 4326.604980,1306.948364 4316.359375,1254.503174 
	C4302.844238,1185.317383 4350.854492,1117.834106 4420.379883,1108.293457 
	C4491.265137,1098.566162 4555.582520,1150.569092 4560.785645,1222.084961 
	C4562.778320,1249.474487 4556.121094,1274.829956 4540.692383,1298.505127 
z"/>
<path fill="#FEBA00" opacity="1.000000" stroke="none" 
	d="
M7700.815430,533.820068 
	C7653.577637,519.386780 7623.215332,489.236755 7611.827637,441.803711 
	C7596.061035,376.130157 7637.541016,309.824860 7703.225098,294.194061 
	C7774.810547,277.158875 7844.895508,326.253510 7854.479492,399.239166 
	C7863.761230,469.920563 7807.055664,541.665894 7724.260254,537.648560 
	C7716.672852,537.280396 7709.166504,535.252563 7700.815430,533.820068 
z"/>
<path fill="#3D8AFE" opacity="1.000000" stroke="none" 
	d="
M4546.319336,763.943359 
	C4582.264648,832.259766 4548.797852,912.861938 4479.916016,938.257874 
	C4407.064453,965.117249 4327.390625,917.356323 4315.449219,840.589661 
	C4306.343262,782.051575 4343.644531,713.424255 4417.245117,700.462524 
	C4468.905762,691.364563 4518.535156,715.999207 4546.319336,763.943359 
z"/>
<path fill="#3D8AFE" opacity="1.000000" stroke="none" 
	d="
M6947.394531,706.226562 
	C6991.213379,724.017334 7018.288574,755.241577 7026.710938,801.145630 
	C7039.012207,868.197021 6993.585938,931.780823 6926.569824,943.969299 
	C6861.624512,955.781067 6792.626465,912.030273 6782.511719,836.790894 
	C6774.368164,776.212585 6816.968262,715.543640 6876.884766,702.070557 
	C6900.570801,696.744568 6923.772949,697.929077 6947.394531,706.226562 
z"/>
<path fill="#3D8AFE" opacity="1.000000" stroke="none" 
	d="
M6964.148438,522.440186 
	C6898.555176,557.217407 6823.709473,528.140076 6794.251953,467.928253 
	C6760.150391,398.223999 6799.346680,313.288208 6874.634277,294.360809 
	C6946.055664,276.405243 7017.796875,324.473969 7027.697266,396.917236 
	C7034.612793,447.518158 7010.648926,495.191040 6964.148438,522.440186 
z"/>
<path fill="#3D8AFE" opacity="1.000000" stroke="none" 
	d="
M4767.002930,917.077393 
	C4737.330078,891.336609 4722.457031,859.364380 4722.427734,820.847900 
	C4722.381348,759.035522 4771.735840,705.775330 4833.330566,699.488647 
	C4897.726074,692.916138 4955.013184,737.718445 4967.200684,798.698120 
	C4980.758301,866.534241 4933.211426,934.276001 4864.678711,944.273804 
	C4828.302246,949.580627 4796.130371,940.240417 4767.002930,917.077393 
z"/>
<path fill="#3D8AFE" opacity="1.000000" stroke="none" 
	d="
M7776.914062,937.273193 
	C7731.041016,953.539307 7689.562500,946.748474 7652.457031,916.497253 
	C7614.607422,885.638550 7599.423828,833.394531 7613.846680,786.403381 
	C7628.477051,738.736694 7670.553223,704.526001 7719.370117,699.511108 
	C7789.196289,692.337830 7847.578125,744.989319 7854.702148,808.588562 
	C7860.485352,860.221008 7831.382324,915.455444 7776.914062,937.273193 
z"/>
<path fill="#3D8AFE" opacity="1.000000" stroke="none" 
	d="
M4560.546875,403.615784 
	C4565.681152,469.555969 4519.877930,522.526672 4463.156250,534.916687 
	C4395.218262,549.756775 4326.217285,501.764526 4315.486816,432.849518 
	C4306.199707,373.200684 4344.030762,306.732117 4414.680664,292.575867 
	C4478.565430,279.775116 4543.538574,322.232849 4557.848145,386.003113 
	C4559.082520,391.500824 4559.596680,397.160034 4560.546875,403.615784 
z"/>
<path fill="#3D89FE" opacity="1.000000" stroke="none" 
	d="
M4913.241211,517.436584 
	C4891.557617,531.295532 4868.432617,538.198547 4843.521973,537.527283 
	C4780.204102,535.821167 4732.253906,488.748810 4723.695312,431.617432 
	C4714.546875,370.549927 4754.622559,308.012878 4819.348145,293.399811 
	C4889.564453,277.547089 4960.636230,327.540710 4968.264160,399.141693 
	C4973.592773,449.154175 4954.244141,488.010651 4913.241211,517.436584 
z"/>
<path fill="#3D8AFE" opacity="1.000000" stroke="none" 
	d="
M5264.000000,1107.258057 
	C5323.502441,1106.691528 5381.564453,1151.368530 5387.418945,1221.072510 
	C5392.635742,1283.174927 5349.932617,1339.843384 5287.847656,1351.701904 
	C5219.896484,1364.681274 5156.401855,1321.153198 5142.912598,1253.395142 
	C5129.963379,1188.350830 5174.041992,1122.559814 5239.278809,1109.875122 
	C5247.070312,1108.359985 5255.106445,1108.100586 5264.000000,1107.258057 
z"/>
<path fill="#3D8AFE" opacity="1.000000" stroke="none" 
	d="
M7433.117188,383.300018 
	C7443.788574,433.736847 7431.031250,476.331299 7391.931641,508.882782 
	C7356.186035,538.642090 7314.772461,545.963318 7271.030273,529.583740 
	C7226.689941,512.979675 7200.281250,480.162964 7191.778320,433.410614 
	C7180.975586,374.007355 7219.367676,306.399261 7290.977051,292.602661 
	C7355.358398,280.198669 7416.952148,321.363007 7433.117188,383.300018 
z"/>
<path fill="#3D8AFE" opacity="1.000000" stroke="none" 
	d="
M7201.208008,1179.468018 
	C7219.602051,1142.187256 7248.186523,1118.625122 7288.216797,1109.850952 
	C7353.482422,1095.545410 7419.563477,1138.001709 7433.949219,1203.137207 
	C7450.059082,1276.080200 7399.906738,1345.603516 7325.374512,1353.646729 
	C7262.460449,1360.436279 7202.058594,1314.053589 7191.801270,1251.410645 
	C7187.747070,1226.651855 7190.931152,1203.023315 7201.208008,1179.468018 
z"/>
<path fill="#3D8AFE" opacity="1.000000" stroke="none" 
	d="
M5282.022949,944.345642 
	C5219.826172,954.080078 5158.299316,912.002075 5144.140625,851.132935 
	C5127.741211,780.631897 5173.715820,712.816040 5243.078613,700.642334 
	C5313.002441,688.370056 5375.942383,737.285889 5386.423828,803.812561 
	C5396.421875,867.272522 5352.717773,933.781616 5282.022949,944.345642 
z"/>
<path fill="#3D8AFE" opacity="1.000000" stroke="none" 
	d="
M5170.192383,334.271393 
	C5196.106445,304.798035 5228.253418,289.743011 5266.626465,290.571960 
	C5333.057129,292.007080 5378.174316,342.544800 5386.573730,396.075043 
	C5395.223633,451.200562 5361.333008,520.169922 5287.446289,535.365967 
	C5218.210938,549.605469 5148.424805,497.770752 5141.636230,427.624786 
	C5138.250977,392.648071 5147.741211,361.925934 5170.192383,334.271393 
z"/>
<path fill="#3D8AFE" opacity="1.000000" stroke="none" 
	d="
M4942.458008,1153.665405 
	C4960.052246,1176.262207 4969.709473,1201.383789 4969.383789,1229.153564 
	C4968.814941,1277.664673 4947.514648,1315.463745 4904.706543,1338.778320 
	C4831.272461,1378.772827 4742.271973,1336.834351 4724.866699,1255.020630 
	C4711.059570,1190.123047 4754.227051,1123.335815 4819.436035,1110.161255 
	C4868.425781,1100.263550 4909.387207,1115.281250 4942.458008,1153.665405 
z"/>
<path fill="#36BC57" opacity="1.000000" stroke="none" 
	d="
M7386.817383,723.079041 
	C7413.373047,743.428528 7430.122559,769.462463 7435.199707,801.684753 
	C7440.838867,837.477051 7433.007324,870.686157 7409.800293,899.233154 
	C7385.763672,928.800415 7354.309570,945.046753 7316.299805,945.719971 
	C7250.491699,946.885254 7200.411621,898.455872 7191.421387,840.045166 
	C7181.930176,778.375916 7223.637207,711.595215 7294.660156,700.341736 
	C7328.002441,695.058777 7358.706055,702.928711 7386.817383,723.079041 
z"/>
<path fill="#FE4F3E" opacity="1.000000" stroke="none" 
	d="
M7618.344727,1279.306885 
	C7590.161621,1211.863037 7625.640137,1139.069946 7688.870117,1115.359375 
	C7763.021484,1087.553345 7844.528320,1137.347900 7854.502441,1215.912598 
	C7862.288086,1277.239868 7820.493164,1344.187866 7747.217773,1353.479736 
	C7693.152344,1360.335693 7648.036133,1332.827515 7624.458984,1291.611328 
	C7622.314453,1287.862305 7620.567383,1283.885620 7618.344727,1279.306885 
z"/>
</svg>