<svg version="1.1" id="Layer_1" xmlns="http://www.w3.org/2000/svg" xmlns:xlink="http://www.w3.org/1999/xlink" x="0px" y="0px"
	 width="100%" viewBox="0 0 1921 1501" enable-background="new 0 0 1921 1501" xml:space="preserve">
<path fill="#000000" opacity="1.000000" stroke="none" 
	d="
M1922.000000,1280.000000 
	C1922.000000,1301.029419 1922.000000,1322.058716 1921.644775,1343.545288 
	C1919.280273,1342.824951 1917.255493,1341.673096 1915.263916,1340.466187 
	C1843.945923,1297.252563 1772.632324,1254.031128 1701.315186,1210.816040 
	C1581.885010,1138.446655 1462.447388,1066.089111 1343.024536,993.707336 
	C1313.599121,975.872742 1281.749756,965.471008 1247.438965,963.214844 
	C1207.671631,960.599915 1169.960815,968.445618 1134.529297,986.875977 
	C1053.938354,1028.796875 1008.175354,1118.480469 1023.417908,1208.726807 
	C1034.348511,1273.443604 1068.479370,1323.144409 1124.661621,1357.316162 
	C1202.305786,1404.541504 1280.070435,1451.568604 1357.753906,1498.729492 
	C1359.028198,1499.502930 1359.926270,1500.896118 1361.000000,1502.000000 
	C1304.970581,1502.000000 1248.941284,1502.000000 1192.494873,1501.591553 
	C1191.999756,1500.521851 1191.989136,1499.844116 1191.833374,1499.201416 
	C1181.420166,1456.230103 1161.493652,1418.240723 1131.158447,1386.072021 
	C1085.709229,1337.875366 1029.457153,1311.784912 963.540527,1307.334717 
	C918.928955,1304.322876 876.381409,1313.440186 836.544556,1333.827881 
	C781.623230,1361.935547 741.942810,1404.506104 718.439209,1461.605713 
	C713.099060,1474.579102 710.084717,1488.509888 706.000000,1502.000000 
	C471.020386,1502.000000 236.040787,1502.000000 1.030591,1502.000000 
	C1.030591,1001.730469 1.030591,501.460968 1.030591,1.095723 
	C641.213928,1.095723 1281.427856,1.095723 1922.000000,1.095723 
	C1922.000000,207.695908 1922.000000,414.392029 1921.577515,621.528320 
	C1918.197021,621.654297 1915.244507,621.141113 1912.280029,621.057068 
	C1885.808716,620.306152 1859.587646,622.588806 1833.684204,628.083496 
	C1797.958008,635.661804 1764.048096,648.269653 1733.076050,667.630798 
	C1715.967285,678.325623 1699.494629,690.286377 1683.934937,703.129822 
	C1672.102539,712.896484 1661.897583,724.712097 1651.469849,736.076050 
	C1644.211548,743.985901 1637.802734,752.675171 1631.007324,761.008057 
	C1631.000000,760.999756 1630.982422,760.985352 1630.978271,760.606689 
	C1634.265869,752.615723 1637.401733,744.931335 1640.876221,737.403381 
	C1656.069458,704.485168 1671.243408,671.557129 1686.657104,638.741882 
	C1697.390869,615.890137 1687.241821,588.033691 1664.433350,577.687561 
	C1651.859985,571.984253 1638.973267,574.332214 1626.147827,575.260132 
	C1613.277832,576.191162 1600.458618,577.803955 1587.604980,578.985718 
	C1575.232910,580.123169 1562.840820,581.041382 1550.465820,582.147705 
	C1536.616455,583.385864 1522.778076,584.745361 1508.931641,586.016602 
	C1500.683716,586.773865 1492.425171,587.418030 1484.179077,588.193481 
	C1470.996460,589.433167 1457.823364,590.774841 1444.639893,592.005615 
	C1436.061890,592.806458 1427.467773,593.434265 1418.889526,594.234192 
	C1405.872192,595.447998 1392.867065,596.793640 1379.848267,597.990906 
	C1367.642700,599.113403 1355.419434,600.046631 1343.215698,601.188171 
	C1326.735718,602.729736 1310.274048,604.468262 1293.791016,605.975464 
	C1281.088623,607.136963 1268.354126,607.948853 1255.654785,609.139465 
	C1239.672119,610.637817 1223.728882,612.579163 1207.735107,613.931885 
	C1191.040405,615.343994 1178.799805,623.646057 1171.160400,638.059387 
	C1163.172974,653.128845 1163.638428,668.564514 1173.099243,683.031738 
	C1180.640381,694.563416 1188.716064,705.749207 1196.671265,717.005920 
	C1223.406006,754.835876 1250.187622,792.632629 1276.961182,830.435059 
	C1305.462158,870.676331 1334.000610,910.890991 1362.471558,951.153503 
	C1379.344604,975.014771 1396.173950,998.907288 1412.903931,1022.868958 
	C1417.985840,1030.147827 1423.094482,1037.226440 1432.438599,1040.108276 
	C1440.144409,1044.850586 1447.576538,1049.407227 1455.196289,1054.245850 
	C1460.589844,1058.202515 1465.577881,1061.216675 1472.757568,1059.398438 
	C1487.101562,1055.765991 1497.567383,1047.883667 1503.803589,1034.458618 
	C1519.352295,1000.985962 1534.915649,967.520142 1550.415894,934.025085 
	C1557.255859,919.244324 1563.927368,904.385742 1570.733765,889.589294 
	C1574.115479,882.237610 1577.629028,874.946655 1581.083008,867.628296 
	C1581.774536,868.983826 1581.632324,870.047913 1581.461060,871.107239 
	C1578.321045,890.522461 1573.735474,909.839600 1572.414307,929.377502 
	C1570.895142,951.842285 1571.356812,974.485535 1574.807129,996.989258 
	C1577.959961,1017.552795 1582.695557,1037.666870 1589.335449,1057.306152 
	C1596.055542,1077.182861 1604.758057,1096.239014 1615.228516,1114.454590 
	C1629.453491,1139.201538 1646.154785,1162.163940 1666.799194,1181.883545 
	C1672.676147,1187.497314 1681.061890,1190.484619 1688.217285,1194.839355 
	C1688.137573,1195.002197 1688.269287,1194.664429 1688.292480,1194.979370 
	C1688.858521,1195.544800 1689.401245,1195.795410 1689.971924,1196.022949 
	C1690.000000,1196.000000 1689.962280,1196.062012 1690.065430,1196.297119 
	C1690.468140,1196.679199 1690.767578,1196.825928 1691.374023,1197.109497 
	C1692.587524,1197.971558 1693.424805,1198.811646 1694.410522,1199.405640 
	C1722.939575,1216.594116 1751.483398,1233.758057 1780.194580,1251.195068 
	C1780.961426,1251.587891 1781.558228,1251.711670 1782.090576,1251.888672 
	C1782.026001,1251.942017 1782.117798,1251.801880 1782.207031,1252.139893 
	C1791.658081,1258.401733 1800.607300,1264.925781 1811.648315,1267.856079 
	C1838.012207,1274.853027 1864.628906,1279.899048 1892.012329,1279.999512 
	C1902.008057,1280.036133 1912.004150,1280.001831 1922.000000,1280.000000 
M1203.225464,777.206421 
	C1202.863037,774.570312 1202.556152,771.925171 1202.130371,769.299316 
	C1192.623657,710.670044 1164.910645,662.416199 1119.410767,624.331543 
	C1116.027710,621.499817 1112.399902,618.960449 1108.676270,616.125671 
	C1018.307800,743.611084 928.335388,870.537720 838.261841,997.607056 
	C839.432617,998.528625 840.160706,999.194214 840.974670,999.729187 
	C888.395691,1030.893311 940.449341,1044.204346 996.760986,1037.597656 
	C1065.669189,1029.513184 1121.160400,997.097656 1161.584961,940.562683 
	C1196.305176,892.005127 1209.911743,837.514648 1203.225464,777.206421 
M813.947571,981.552368 
	C791.390625,958.538086 768.833618,935.523804 746.132751,912.362732 
	C694.460571,962.921570 643.179138,1013.098083 591.709412,1063.458862 
	C676.078491,1149.614136 760.281555,1235.599854 844.814148,1321.922119 
	C896.355225,1271.486694 947.720032,1221.223877 999.234863,1170.814209 
	C937.450500,1107.700928 875.949036,1044.876709 813.947571,981.552368 
M908.490601,240.954437 
	C886.389893,257.096039 876.910461,283.735046 883.984802,309.821014 
	C890.969116,335.575409 912.585693,353.379547 940.319824,356.220428 
	C979.607483,360.244751 1014.255859,324.307770 1008.699158,285.297974 
	C1001.820374,237.007660 949.728210,213.600800 908.490601,240.954437 
M830.848694,299.500000 
	C830.848694,276.887115 830.848694,254.274246 830.848694,231.408707 
	C809.871338,231.408707 789.456970,231.408707 768.823242,231.408707 
	C768.823242,272.451263 768.823242,313.318665 768.823242,354.242676 
	C789.638000,354.242676 810.057922,354.242676 830.848572,354.242676 
	C830.848572,336.112122 830.848572,318.306061 830.848694,299.500000 
M268.823883,294.496582 
	C268.823883,297.590698 268.823883,300.684814 268.823883,304.006439 
	C276.218658,304.006439 283.026276,304.006470 289.833923,304.006470 
	C296.812988,304.006470 303.792053,304.006439 310.793549,304.006439 
	C309.315125,321.312714 297.219391,334.291840 279.550262,337.809418 
	C257.844269,342.130615 237.237793,332.372345 227.643433,313.228607 
	C218.428131,294.841187 222.447800,271.196808 237.089600,257.583069 
	C244.637741,250.564911 253.514572,246.257721 263.745300,245.179626 
	C277.831299,243.695251 290.268219,247.821411 299.987183,256.749573 
	C304.552887,252.403763 308.726807,248.430893 313.050476,244.315475 
	C296.729675,228.985535 277.171204,223.652344 255.535690,228.369797 
	C229.700226,234.003021 212.087158,249.968323 205.291016,275.686890 
	C198.456635,301.550262 206.089645,324.043213 226.515717,341.106873 
	C247.159348,358.352203 270.996338,361.586914 295.751373,351.367157 
	C324.892212,339.336823 333.144135,309.110138 328.139832,286.181854 
	C308.398773,286.181854 288.675812,286.181854 268.823883,286.181854 
	C268.823883,288.863831 268.823883,291.188324 268.823883,294.496582 
M521.923279,297.456604 
	C516.198730,310.716522 516.799805,323.691101 523.840454,336.293915 
	C532.753418,352.248138 552.438110,360.571045 568.545593,354.922455 
	C572.623657,353.492371 576.260376,350.803711 580.071411,348.709045 
	C582.769714,358.828827 577.997925,370.722626 569.418457,375.010925 
	C557.940857,380.747833 548.401489,377.178253 537.070435,362.772949 
	C531.983887,364.926605 526.842773,367.103363 521.726379,369.269684 
	C527.988770,386.449341 545.996094,396.420105 565.492737,393.849487 
	C583.994019,391.410095 597.253052,377.770111 597.849304,358.393890 
	C598.684143,331.261871 598.316711,304.092743 598.431702,276.939392 
	C598.433533,276.512817 598.027954,276.084564 597.895020,275.820801 
	C592.158081,275.820801 586.594604,275.820801 581.080261,275.820801 
	C580.845276,277.878723 580.650330,279.586151 580.387024,281.892487 
	C571.904541,274.475525 562.702332,271.626923 552.190430,273.578430 
	C538.230347,276.170135 528.510193,284.265808 521.923279,297.456604 
M1112.497314,258.190826 
	C1118.564941,258.190826 1124.632568,258.190826 1130.600586,258.190826 
	C1130.600586,252.172653 1130.600586,246.899307 1130.600586,241.498734 
	C1107.833130,241.498734 1085.321411,241.498734 1062.732178,241.498734 
	C1062.732178,278.919189 1062.732178,315.985687 1062.732178,353.185974 
	C1085.546631,353.185974 1108.087646,353.185974 1130.639648,353.185974 
	C1130.639648,347.551453 1130.639648,342.272827 1130.639648,336.300049 
	C1113.744873,336.300049 1097.050781,336.300049 1080.383301,336.300049 
	C1080.383301,325.819641 1080.383301,316.037445 1080.383301,305.637878 
	C1095.611328,305.637878 1110.657959,305.637878 1125.551514,305.637878 
	C1125.551514,299.755371 1125.551514,294.498047 1125.551514,288.916138 
	C1110.309937,288.916138 1095.367798,288.916138 1080.445801,288.916138 
	C1080.445801,278.644104 1080.445801,268.708252 1080.445801,258.190796 
	C1090.959717,258.190796 1101.229004,258.190796 1112.497314,258.190826 
M1523.781982,241.156784 
	C1522.396362,241.270126 1521.010742,241.383484 1519.734009,241.487930 
	C1519.734009,255.634827 1519.734009,269.190796 1519.734009,282.949951 
	C1500.991455,261.812805 1470.994507,270.673584 1460.500122,291.686676 
	C1455.961060,300.775421 1454.982666,310.358246 1455.972656,320.320129 
	C1458.310669,343.848053 1480.237549,360.706604 1502.053345,354.830048 
	C1508.545410,353.081268 1514.267578,348.474548 1520.252075,345.226410 
	C1520.252075,347.202209 1520.252075,350.124542 1520.252075,353.202850 
	C1526.016113,353.202850 1531.409668,353.202850 1536.787842,353.202850 
	C1536.787842,315.789032 1536.787842,278.695435 1536.787842,241.156754 
	C1532.628906,241.156754 1528.674561,241.156754 1523.781982,241.156784 
M1719.007812,247.605774 
	C1719.007812,245.520599 1719.007812,243.435425 1719.007812,241.375854 
	C1712.865112,241.375854 1707.431030,241.375854 1701.477417,241.375854 
	C1701.477417,248.378082 1701.477539,255.170807 1701.477539,261.963531 
	C1701.477539,268.870056 1701.477417,275.776581 1701.477417,282.811005 
	C1701.219360,282.593140 1700.843384,282.365692 1700.584473,282.044037 
	C1689.021606,267.679688 1667.986450,268.467255 1655.811279,276.956940 
	C1640.178711,287.857208 1635.999268,303.572601 1638.325439,321.314270 
	C1640.185669,335.502136 1647.488403,346.858276 1660.913452,352.684143 
	C1676.097290,359.273224 1690.069824,356.831848 1702.087769,343.456329 
	C1702.087769,347.201294 1702.087769,350.094574 1702.087769,353.250916 
	C1707.929688,353.250916 1713.343262,353.250916 1719.007812,353.250916 
	C1719.007812,318.188690 1719.007812,283.386780 1719.007812,247.605774 
M1318.605469,356.005920 
	C1335.349976,356.376434 1347.996094,349.506775 1356.683838,334.624969 
	C1351.580078,332.220581 1346.851440,329.992920 1342.213257,327.807892 
	C1332.729980,339.503601 1322.728760,342.936798 1311.551392,338.564850 
	C1302.509155,335.028015 1296.701904,326.490662 1297.211792,317.089020 
	C1317.282471,317.089020 1337.376221,317.089020 1357.393188,317.089020 
	C1363.236694,287.215729 1335.912476,263.434570 1306.911011,272.724762 
	C1288.645752,278.575745 1277.025391,297.751678 1279.201782,318.450562 
	C1281.459473,339.924438 1295.964966,354.081757 1318.605469,356.005920 
M1567.738037,319.279510 
	C1569.029663,318.578369 1570.315552,317.280090 1571.613892,317.267517 
	C1586.431519,317.123840 1601.250977,317.176117 1616.069946,317.176117 
	C1620.181763,317.176086 1624.293457,317.176117 1628.302856,317.176117 
	C1632.576172,288.192535 1610.361328,263.768463 1578.132446,272.729065 
	C1557.330566,278.512634 1545.799927,301.659088 1551.123779,324.998657 
	C1555.883423,345.864441 1575.972778,358.958130 1597.629395,355.588989 
	C1611.053345,353.500610 1620.673340,346.428650 1627.536987,334.606628 
	C1622.287842,332.142517 1617.551880,329.919312 1612.761597,327.670593 
	C1606.270020,337.874878 1597.303467,342.006165 1586.055664,339.555695 
	C1575.855957,337.333557 1569.633179,330.654480 1567.738037,319.279510 
M371.130310,273.517273 
	C350.105377,277.225494 337.002289,291.718475 335.497192,312.930176 
	C334.186890,331.396271 346.124634,348.896484 363.943451,354.631256 
	C382.762665,360.687988 403.294617,353.681335 413.166809,337.212494 
	C421.920532,322.609344 422.127197,307.344727 413.291199,292.801483 
	C404.000183,277.509186 389.551941,271.807678 371.130310,273.517273 
M657.625549,350.929138 
	C677.803528,362.151093 702.859985,356.511902 714.029114,338.039612 
	C712.992676,337.292084 711.956482,336.502228 710.878174,335.774780 
	C707.321716,333.375427 703.750000,330.998657 700.254272,328.660095 
	C685.157654,344.094757 666.624756,343.566315 659.892456,327.491547 
	C669.035461,323.683594 678.176758,319.864105 687.327942,316.068481 
	C696.506470,312.261505 705.694885,308.478333 715.088318,304.598267 
	C713.967285,301.746124 713.124878,299.056122 711.892273,296.558685 
	C705.538025,283.684052 695.933960,274.639374 681.141296,273.292175 
	C666.514893,271.960114 654.272705,277.235565 645.582886,289.367889 
	C631.498230,309.032227 636.730835,336.624695 657.625549,350.929138 
M509.879456,324.205322 
	C510.029785,323.050476 510.166046,321.893616 510.332489,320.741089 
	C513.004883,302.237152 503.536743,284.564117 486.865021,276.944458 
	C469.573303,269.041473 448.750397,273.362640 436.794647,287.334991 
	C424.818329,301.331390 423.157135,322.759247 433.432312,337.923889 
	C443.561951,352.873779 458.120148,358.830353 475.777893,356.014893 
	C493.620850,353.169861 504.772858,342.343475 509.879456,324.205322 
M1388.846802,326.500183 
	C1388.847778,320.507263 1388.675537,314.508118 1388.892212,308.523010 
	C1389.180176,300.568878 1392.387329,293.985016 1399.300293,289.721771 
	C1410.603271,282.751312 1423.957031,288.863708 1425.349365,301.927673 
	C1426.139404,309.339386 1425.758179,316.881561 1425.803223,324.365601 
	C1425.860962,333.979614 1425.817261,343.594299 1425.817261,353.182007 
	C1431.861694,353.182007 1437.401611,353.182007 1442.934082,353.182007 
	C1442.934082,334.379639 1443.475952,315.902100 1442.772217,297.472107 
	C1442.145508,281.055481 1430.698853,271.175110 1414.369995,270.939514 
	C1403.735962,270.786102 1395.291992,274.987335 1388.042480,283.722870 
	C1388.042480,279.812592 1388.042480,276.880249 1388.042480,273.766541 
	C1382.320190,273.766541 1376.908325,273.766541 1371.474365,273.766541 
	C1371.474365,300.421204 1371.474365,326.780487 1371.474365,353.218262 
	C1377.383423,353.218262 1382.967896,353.218262 1388.846802,353.218262 
	C1388.846802,344.441528 1388.846802,335.970825 1388.846802,326.500183 
M1176.986206,327.506866 
	C1177.863037,328.137085 1179.005859,328.586975 1179.574951,329.425934 
	C1184.332397,336.439056 1188.929932,343.561127 1193.719971,350.551422 
	C1194.561523,351.779572 1196.038940,353.331512 1197.287842,353.392120 
	C1203.363159,353.686859 1209.460571,353.525330 1216.377930,353.525330 
	C1206.604858,339.422272 1197.362305,326.084900 1188.161011,312.806885 
	C1197.402710,299.724670 1206.434937,286.938904 1215.951660,273.467163 
	C1210.121826,273.467163 1205.448364,273.754578 1200.827637,273.383484 
	C1196.516113,273.037201 1193.911377,274.362610 1191.665283,278.257874 
	C1187.556519,285.383575 1182.734253,292.097870 1177.927002,299.413544 
	C1172.402222,291.338196 1167.314331,283.788177 1162.069336,276.348938 
	C1161.216309,275.138947 1159.705322,273.664185 1158.434937,273.601501 
	C1152.529053,273.310120 1146.600708,273.472504 1139.777954,273.472504 
	C1149.305542,287.109009 1158.294556,299.974640 1167.270630,312.821838 
	C1157.974487,326.385895 1148.925415,339.589386 1139.369385,353.532776 
	C1145.870483,353.532776 1151.337524,353.760742 1156.765869,353.403015 
	C1158.548950,353.285553 1160.858398,352.082031 1161.855347,350.636108 
	C1166.945557,343.253082 1171.685059,335.628204 1176.986206,327.506866 
M1237.028564,339.283783 
	C1241.945679,354.087402 1258.831177,360.641632 1273.185791,353.211334 
	C1273.185791,350.610901 1273.185791,347.948853 1273.185791,345.286804 
	C1273.185791,342.540680 1273.185791,339.794556 1273.185791,336.725250 
	C1271.597046,337.481384 1270.725464,337.948120 1269.815308,338.321289 
	C1260.633423,342.085938 1254.063477,338.128387 1253.594849,328.340363 
	C1253.332397,322.857513 1253.534546,317.352295 1253.532593,311.857147 
	C1253.529907,304.280640 1253.531860,296.704102 1253.531860,288.649353 
	C1260.400513,288.649353 1266.640137,288.649353 1272.764893,288.649353 
	C1272.764893,283.384674 1272.764893,278.615692 1272.764893,273.305847 
	C1266.298584,273.305847 1260.064819,273.305847 1253.376221,273.305847 
	C1253.376221,265.537811 1253.376221,258.308502 1253.376221,251.093750 
	C1247.322266,251.093750 1241.756958,251.093750 1235.862549,251.093750 
	C1235.862549,258.656677 1235.862549,265.945374 1235.862549,273.614197 
	C1231.095093,273.614197 1226.658325,273.614197 1222.364990,273.614197 
	C1222.364990,278.912292 1222.364990,283.808441 1222.364990,288.954590 
	C1227.015381,288.954590 1231.292480,288.954590 1235.987549,288.954590 
	C1235.987549,299.663818 1235.883789,310.113739 1236.027832,320.560211 
	C1236.110107,326.527954 1236.596069,332.490173 1237.028564,339.283783 
M629.168457,325.500061 
	C629.168457,294.122681 629.168457,262.745300 629.168457,231.461411 
	C622.625549,231.461411 616.871948,231.461411 611.116028,231.461411 
	C611.116028,272.468506 611.116028,313.180023 611.116028,353.810944 
	C617.289185,353.810944 623.171021,353.810944 629.168457,353.810944 
	C629.168457,344.469238 629.168457,335.484680 629.168457,325.500061 
M853.042053,304.386658 
	C848.302612,325.388763 843.563232,346.390839 838.760803,367.672028 
	C843.082520,367.672028 846.877930,367.672028 850.986084,367.672028 
	C862.301819,317.906311 873.618469,268.136627 884.989746,218.126511 
	C880.694702,218.126511 876.901306,218.126511 872.766479,218.126511 
	C866.238098,246.640350 859.721741,275.101929 853.042053,304.386658 
z"/>
<path fill="#FF4F3E" opacity="1.000000" stroke="none" 
	d="
M1361.468628,1502.000000 
	C1359.926270,1500.896118 1359.028198,1499.502930 1357.753906,1498.729492 
	C1280.070435,1451.568604 1202.305786,1404.541504 1124.661621,1357.316162 
	C1068.479370,1323.144409 1034.348511,1273.443604 1023.417908,1208.726807 
	C1008.175354,1118.480469 1053.938354,1028.796875 1134.529297,986.875977 
	C1169.960815,968.445618 1207.671631,960.599915 1247.438965,963.214844 
	C1281.749756,965.471008 1313.599121,975.872742 1343.024536,993.707336 
	C1462.447388,1066.089111 1581.885010,1138.446655 1701.315186,1210.816040 
	C1772.632324,1254.031128 1843.945923,1297.252563 1915.263916,1340.466187 
	C1917.255493,1341.673096 1919.280273,1342.824951 1921.644775,1344.001221 
	C1922.000000,1396.634644 1922.000000,1449.269165 1922.000000,1502.000000 
	C1735.312378,1502.000000 1548.624878,1502.000000 1361.468628,1502.000000 
z"/>
<path fill="#3D8BFF" opacity="1.000000" stroke="none" 
	d="
M1780.024780,1250.926025 
	C1751.483398,1233.758057 1722.939575,1216.594116 1694.410522,1199.405640 
	C1693.424805,1198.811646 1692.587524,1197.971558 1691.273071,1196.870361 
	C1690.564209,1196.350464 1690.263306,1196.206177 1689.962280,1196.062012 
	C1689.962280,1196.062012 1690.000000,1196.000000 1689.877441,1195.748047 
	C1689.259644,1195.218872 1688.764526,1194.941650 1688.269287,1194.664429 
	C1688.269287,1194.664429 1688.137573,1195.002197 1688.089844,1194.538940 
	C1677.633423,1183.537598 1666.457642,1173.646118 1656.939575,1162.357178 
	C1591.906860,1085.225708 1566.325806,996.465515 1582.471558,896.870117 
	C1594.524902,822.518127 1629.291382,759.531067 1685.912476,709.630981 
	C1753.246948,650.289246 1832.153076,622.960083 1922.000000,628.000000 
	C1922.000000,843.020935 1922.000000,1058.041870 1921.535889,1273.457764 
	C1885.918579,1275.433228 1851.220337,1272.454834 1817.260376,1262.935303 
	C1805.435059,1259.620361 1793.825806,1255.535278 1782.117798,1251.801880 
	C1782.117798,1251.801880 1782.026001,1251.942017 1781.925415,1251.623901 
	C1781.224854,1251.179199 1780.624756,1251.052612 1780.024780,1250.926025 
z"/>
<path fill="#45B757" opacity="1.000000" stroke="none" 
	d="
M706.468628,1502.000000 
	C710.084717,1488.509888 713.099060,1474.579102 718.439209,1461.605713 
	C741.942810,1404.506104 781.623230,1361.935547 836.544556,1333.827881 
	C876.381409,1313.440186 918.928955,1304.322876 963.540527,1307.334717 
	C1029.457153,1311.784912 1085.709229,1337.875366 1131.158447,1386.072021 
	C1161.493652,1418.240723 1181.420166,1456.230103 1191.833374,1499.201416 
	C1191.989136,1499.844116 1191.999756,1500.521851 1192.039062,1501.591553 
	C1030.312500,1502.000000 868.624878,1502.000000 706.468628,1502.000000 
z"/>
<path fill="#202225" opacity="1.000000" stroke="none" 
	d="
M1922.000000,627.571533 
	C1832.153076,622.960083 1753.246948,650.289246 1685.912476,709.630981 
	C1629.291382,759.531067 1594.524902,822.518127 1582.471558,896.870117 
	C1566.325806,996.465515 1591.906860,1085.225708 1656.939575,1162.357178 
	C1666.457642,1173.646118 1677.633423,1183.537598 1688.169678,1194.375977 
	C1681.061890,1190.484619 1672.676147,1187.497314 1666.799194,1181.883545 
	C1646.154785,1162.163940 1629.453491,1139.201538 1615.228516,1114.454590 
	C1604.758057,1096.239014 1596.055542,1077.182861 1589.335449,1057.306152 
	C1582.695557,1037.666870 1577.959961,1017.552795 1574.807129,996.989258 
	C1571.356812,974.485535 1570.895142,951.842285 1572.414307,929.377502 
	C1573.735474,909.839600 1578.321045,890.522461 1581.461060,871.107239 
	C1581.632324,870.047913 1581.774536,868.983826 1581.083008,867.628296 
	C1577.629028,874.946655 1574.115479,882.237610 1570.733765,889.589294 
	C1563.927368,904.385742 1557.255859,919.244324 1550.415894,934.025085 
	C1534.915649,967.520142 1519.352295,1000.985962 1503.803589,1034.458618 
	C1497.567383,1047.883667 1487.101562,1055.765991 1472.757568,1059.398438 
	C1465.577881,1061.216675 1460.589844,1058.202515 1455.663086,1054.222168 
	C1477.797485,1056.371460 1492.547363,1045.827759 1500.627686,1027.245483 
	C1511.045166,1003.289062 1522.430542,979.753906 1533.379883,956.028442 
	C1566.504883,884.250305 1599.621704,812.468384 1632.739624,740.686951 
	C1648.843750,705.782104 1665.053589,670.925476 1681.009399,635.952881 
	C1693.429810,608.729736 1674.245483,579.603149 1644.315063,580.050537 
	C1639.171021,580.127441 1634.030029,580.749390 1628.898193,581.231689 
	C1609.039795,583.098206 1589.190918,585.068604 1569.328369,586.888611 
	C1549.297119,588.723999 1529.247070,590.354370 1509.217285,592.205688 
	C1482.238525,594.699158 1455.276978,597.380493 1428.297241,599.862854 
	C1408.101440,601.721069 1387.880127,603.303711 1367.684937,605.167664 
	C1337.065430,607.993530 1306.463501,611.008362 1275.844971,613.845459 
	C1252.670532,615.992737 1229.458252,617.758789 1206.310547,620.155334 
	C1196.028564,621.219849 1187.221558,625.952332 1180.827271,634.338074 
	C1168.515991,650.483643 1169.109253,667.282776 1181.916748,685.355408 
	C1226.102539,747.705688 1270.156372,810.149597 1314.278076,872.545349 
	C1344.557007,915.364990 1374.893433,958.143860 1405.143188,1000.983948 
	C1414.255615,1013.889221 1423.163330,1026.938965 1432.164795,1039.922607 
	C1423.094482,1037.226440 1417.985840,1030.147827 1412.903931,1022.868958 
	C1396.173950,998.907288 1379.344604,975.014771 1362.471558,951.153503 
	C1334.000610,910.890991 1305.462158,870.676331 1276.961182,830.435059 
	C1250.187622,792.632629 1223.406006,754.835876 1196.671265,717.005920 
	C1188.716064,705.749207 1180.640381,694.563416 1173.099243,683.031738 
	C1163.638428,668.564514 1163.172974,653.128845 1171.160400,638.059387 
	C1178.799805,623.646057 1191.040405,615.343994 1207.735107,613.931885 
	C1223.728882,612.579163 1239.672119,610.637817 1255.654785,609.139465 
	C1268.354126,607.948853 1281.088623,607.136963 1293.791016,605.975464 
	C1310.274048,604.468262 1326.735718,602.729736 1343.215698,601.188171 
	C1355.419434,600.046631 1367.642700,599.113403 1379.848267,597.990906 
	C1392.867065,596.793640 1405.872192,595.447998 1418.889526,594.234192 
	C1427.467773,593.434265 1436.061890,592.806458 1444.639893,592.005615 
	C1457.823364,590.774841 1470.996460,589.433167 1484.179077,588.193481 
	C1492.425171,587.418030 1500.683716,586.773865 1508.931641,586.016602 
	C1522.778076,584.745361 1536.616455,583.385864 1550.465820,582.147705 
	C1562.840820,581.041382 1575.232910,580.123169 1587.604980,578.985718 
	C1600.458618,577.803955 1613.277832,576.191162 1626.147827,575.260132 
	C1638.973267,574.332214 1651.859985,571.984253 1664.433350,577.687561 
	C1687.241821,588.033691 1697.390869,615.890137 1686.657104,638.741882 
	C1671.243408,671.557129 1656.069458,704.485168 1640.876221,737.403381 
	C1637.401733,744.931335 1634.265869,752.615723 1630.825684,760.660645 
	C1630.789673,761.067566 1630.902100,761.041992 1631.014648,761.016357 
	C1637.802734,752.675171 1644.211548,743.985901 1651.469849,736.076050 
	C1661.897583,724.712097 1672.102539,712.896484 1683.934937,703.129822 
	C1699.494629,690.286377 1715.967285,678.325623 1733.076050,667.630798 
	C1764.048096,648.269653 1797.958008,635.661804 1833.684204,628.083496 
	C1859.587646,622.588806 1885.808716,620.306152 1912.280029,621.057068 
	C1915.244507,621.141113 1918.197021,621.654297 1921.577515,621.984253 
	C1922.000000,623.714355 1922.000000,625.428711 1922.000000,627.571533 
M1582.745117,865.211060 
	C1582.628418,865.046326 1582.511597,864.881592 1582.394775,864.716919 
	C1582.418945,864.950317 1582.443115,865.183777 1582.745117,865.211060 
M1629.519531,763.378967 
	C1629.519531,763.378967 1629.600586,763.512695 1629.519531,763.378967 
z"/>
<path fill="#202228" opacity="1.000000" stroke="none" 
	d="
M1782.207031,1252.139893 
	C1793.825806,1255.535278 1805.435059,1259.620361 1817.260376,1262.935303 
	C1851.220337,1272.454834 1885.918579,1275.433228 1921.535889,1273.926270 
	C1922.000000,1275.714355 1922.000000,1277.428711 1922.000000,1279.571533 
	C1912.004150,1280.001831 1902.008057,1280.036133 1892.012329,1279.999512 
	C1864.628906,1279.899048 1838.012207,1274.853027 1811.648315,1267.856079 
	C1800.607300,1264.925781 1791.658081,1258.401733 1782.207031,1252.139893 
z"/>
<path fill="#45B757" opacity="1.000000" stroke="none" 
	d="
M1432.438599,1040.108276 
	C1423.163330,1026.938965 1414.255615,1013.889221 1405.143188,1000.983948 
	C1374.893433,958.143860 1344.557007,915.364990 1314.278076,872.545349 
	C1270.156372,810.149597 1226.102539,747.705688 1181.916748,685.355408 
	C1169.109253,667.282776 1168.515991,650.483643 1180.827271,634.338074 
	C1187.221558,625.952332 1196.028564,621.219849 1206.310547,620.155334 
	C1229.458252,617.758789 1252.670532,615.992737 1275.844971,613.845459 
	C1306.463501,611.008362 1337.065430,607.993530 1367.684937,605.167664 
	C1387.880127,603.303711 1408.101440,601.721069 1428.297241,599.862854 
	C1455.276978,597.380493 1482.238525,594.699158 1509.217285,592.205688 
	C1529.247070,590.354370 1549.297119,588.723999 1569.328369,586.888611 
	C1589.190918,585.068604 1609.039795,583.098206 1628.898193,581.231689 
	C1634.030029,580.749390 1639.171021,580.127441 1644.315063,580.050537 
	C1674.245483,579.603149 1693.429810,608.729736 1681.009399,635.952881 
	C1665.053589,670.925476 1648.843750,705.782104 1632.739624,740.686951 
	C1599.621704,812.468384 1566.504883,884.250305 1533.379883,956.028442 
	C1522.430542,979.753906 1511.045166,1003.289062 1500.627686,1027.245483 
	C1492.547363,1045.827759 1477.797485,1056.371460 1455.475220,1053.940186 
	C1447.576538,1049.407227 1440.144409,1044.850586 1432.438599,1040.108276 
z"/>
<path fill="#FFB800" opacity="1.000000" stroke="none" 
	d="
M1203.301758,777.649902 
	C1209.911743,837.514648 1196.305176,892.005127 1161.584961,940.562683 
	C1121.160400,997.097656 1065.669189,1029.513184 996.760986,1037.597656 
	C940.449341,1044.204346 888.395691,1030.893311 840.974670,999.729187 
	C840.160706,999.194214 839.432617,998.528625 838.261841,997.607056 
	C928.335388,870.537720 1018.307800,743.611084 1108.676270,616.125671 
	C1112.399902,618.960449 1116.027710,621.499817 1119.410767,624.331543 
	C1164.910645,662.416199 1192.623657,710.670044 1202.130371,769.299316 
	C1202.556152,771.925171 1202.863037,774.570312 1203.301758,777.649902 
z"/>
<path fill="#E4E6E9" opacity="1.000000" stroke="none" 
	d="
M814.197632,981.802368 
	C875.949036,1044.876709 937.450500,1107.700928 999.234863,1170.814209 
	C947.720032,1221.223877 896.355225,1271.486694 844.814148,1321.922119 
	C760.281555,1235.599854 676.078491,1149.614136 591.709412,1063.458862 
	C643.179138,1013.098083 694.460571,962.921570 746.132751,912.362732 
	C768.833618,935.523804 791.390625,958.538086 814.197632,981.802368 
z"/>
<path fill="#3D8AFE" opacity="1.000000" stroke="none" 
	d="
M908.781128,240.743134 
	C949.728210,213.600800 1001.820374,237.007660 1008.699158,285.297974 
	C1014.255859,324.307770 979.607483,360.244751 940.319824,356.220428 
	C912.585693,353.379547 890.969116,335.575409 883.984802,309.821014 
	C876.910461,283.735046 886.389893,257.096039 908.781128,240.743134 
z"/>
<path fill="#3C89FB" opacity="1.000000" stroke="none" 
	d="
M830.848633,300.000000 
	C830.848572,318.306061 830.848572,336.112122 830.848572,354.242676 
	C810.057922,354.242676 789.638000,354.242676 768.823242,354.242676 
	C768.823242,313.318665 768.823242,272.451263 768.823242,231.408707 
	C789.456970,231.408707 809.871338,231.408707 830.848694,231.408707 
	C830.848694,254.274246 830.848694,276.887115 830.848633,300.000000 
z"/>
<path fill="#FCFCFC" opacity="1.000000" stroke="none" 
	d="
M268.823883,294.004700 
	C268.823883,291.188324 268.823883,288.863831 268.823883,286.181854 
	C288.675812,286.181854 308.398773,286.181854 328.139832,286.181854 
	C333.144135,309.110138 324.892212,339.336823 295.751373,351.367157 
	C270.996338,361.586914 247.159348,358.352203 226.515717,341.106873 
	C206.089645,324.043213 198.456635,301.550262 205.291016,275.686890 
	C212.087158,249.968323 229.700226,234.003021 255.535690,228.369797 
	C277.171204,223.652344 296.729675,228.985535 313.050476,244.315475 
	C308.726807,248.430893 304.552887,252.403763 299.987183,256.749573 
	C290.268219,247.821411 277.831299,243.695251 263.745300,245.179626 
	C253.514572,246.257721 244.637741,250.564911 237.089600,257.583069 
	C222.447800,271.196808 218.428131,294.841187 227.643433,313.228607 
	C237.237793,332.372345 257.844269,342.130615 279.550262,337.809418 
	C297.219391,334.291840 309.315125,321.312714 310.793549,304.006439 
	C303.792053,304.006439 296.812988,304.006470 289.833923,304.006470 
	C283.026276,304.006470 276.218658,304.006439 268.823883,304.006439 
	C268.823883,300.684814 268.823883,297.590698 268.823883,294.004700 
z"/>
<path fill="#FAFAFA" opacity="1.000000" stroke="none" 
	d="
M522.054565,297.104065 
	C528.510193,284.265808 538.230347,276.170135 552.190430,273.578430 
	C562.702332,271.626923 571.904541,274.475525 580.387024,281.892487 
	C580.650330,279.586151 580.845276,277.878723 581.080261,275.820801 
	C586.594604,275.820801 592.158081,275.820801 597.895020,275.820801 
	C598.027954,276.084564 598.433533,276.512817 598.431702,276.939392 
	C598.316711,304.092743 598.684143,331.261871 597.849304,358.393890 
	C597.253052,377.770111 583.994019,391.410095 565.492737,393.849487 
	C545.996094,396.420105 527.988770,386.449341 521.726379,369.269684 
	C526.842773,367.103363 531.983887,364.926605 537.070435,362.772949 
	C548.401489,377.178253 557.940857,380.747833 569.418457,375.010925 
	C577.997925,370.722626 582.769714,358.828827 580.071411,348.709045 
	C576.260376,350.803711 572.623657,353.492371 568.545593,354.922455 
	C552.438110,360.571045 532.753418,352.248138 523.840454,336.293915 
	C516.799805,323.691101 516.198730,310.716522 522.054565,297.104065 
M550.709351,291.873932 
	C540.152222,297.758911 535.141724,308.097961 537.122620,319.909912 
	C538.750671,329.618408 546.019775,337.484772 555.322449,339.605103 
	C563.228882,341.407196 572.168457,338.107361 576.870544,331.260315 
	C582.306152,323.345184 583.401489,314.687622 580.331604,305.568451 
	C575.934937,292.507812 564.396912,286.932434 550.709351,291.873932 
z"/>
<path fill="#F6F6F6" opacity="1.000000" stroke="none" 
	d="
M1111.997803,258.190796 
	C1101.229004,258.190796 1090.959717,258.190796 1080.445801,258.190796 
	C1080.445801,268.708252 1080.445801,278.644104 1080.445801,288.916138 
	C1095.367798,288.916138 1110.309937,288.916138 1125.551514,288.916138 
	C1125.551514,294.498047 1125.551514,299.755371 1125.551514,305.637878 
	C1110.657959,305.637878 1095.611328,305.637878 1080.383301,305.637878 
	C1080.383301,316.037445 1080.383301,325.819641 1080.383301,336.300049 
	C1097.050781,336.300049 1113.744873,336.300049 1130.639648,336.300049 
	C1130.639648,342.272827 1130.639648,347.551453 1130.639648,353.185974 
	C1108.087646,353.185974 1085.546631,353.185974 1062.732178,353.185974 
	C1062.732178,315.985687 1062.732178,278.919189 1062.732178,241.498734 
	C1085.321411,241.498734 1107.833130,241.498734 1130.600586,241.498734 
	C1130.600586,246.899307 1130.600586,252.172653 1130.600586,258.190826 
	C1124.632568,258.190826 1118.564941,258.190826 1111.997803,258.190796 
z"/>
<path fill="#FBFBFB" opacity="1.000000" stroke="none" 
	d="
M1524.251099,241.156769 
	C1528.674561,241.156754 1532.628906,241.156754 1536.787842,241.156754 
	C1536.787842,278.695435 1536.787842,315.789032 1536.787842,353.202850 
	C1531.409668,353.202850 1526.016113,353.202850 1520.252075,353.202850 
	C1520.252075,350.124542 1520.252075,347.202209 1520.252075,345.226410 
	C1514.267578,348.474548 1508.545410,353.081268 1502.053345,354.830048 
	C1480.237549,360.706604 1458.310669,343.848053 1455.972656,320.320129 
	C1454.982666,310.358246 1455.961060,300.775421 1460.500122,291.686676 
	C1470.994507,270.673584 1500.991455,261.812805 1519.734009,282.949951 
	C1519.734009,269.190796 1519.734009,255.634827 1519.734009,241.487930 
	C1521.010742,241.383484 1522.396362,241.270126 1524.251099,241.156769 
M1477.319946,297.996613 
	C1475.902710,303.875366 1473.320923,309.756165 1473.331177,315.632446 
	C1473.348145,325.337891 1478.070557,333.232147 1487.114014,337.668060 
	C1494.741577,341.409485 1502.440308,340.795135 1509.306763,335.857971 
	C1518.464233,329.273621 1521.113647,319.754059 1519.904053,308.985931 
	C1518.772095,298.910034 1511.623169,290.409943 1502.568115,287.946381 
	C1493.055176,285.358276 1484.455078,288.650055 1477.319946,297.996613 
z"/>
<path fill="#FBFBFB" opacity="1.000000" stroke="none" 
	d="
M1719.007812,248.095337 
	C1719.007812,283.386780 1719.007812,318.188690 1719.007812,353.250916 
	C1713.343262,353.250916 1707.929688,353.250916 1702.087769,353.250916 
	C1702.087769,350.094574 1702.087769,347.201294 1702.087769,343.456329 
	C1690.069824,356.831848 1676.097290,359.273224 1660.913452,352.684143 
	C1647.488403,346.858276 1640.185669,335.502136 1638.325439,321.314270 
	C1635.999268,303.572601 1640.178711,287.857208 1655.811279,276.956940 
	C1667.986450,268.467255 1689.021606,267.679688 1700.584473,282.044037 
	C1700.843384,282.365692 1701.219360,282.593140 1701.477417,282.811005 
	C1701.477417,275.776581 1701.477539,268.870056 1701.477539,261.963531 
	C1701.477539,255.170807 1701.477417,248.378082 1701.477417,241.375854 
	C1707.431030,241.375854 1712.865112,241.375854 1719.007812,241.375854 
	C1719.007812,243.435425 1719.007812,245.520599 1719.007812,248.095337 
M1655.173706,311.781403 
	C1655.173828,312.945068 1655.074951,314.118561 1655.189697,315.270844 
	C1656.251343,325.930542 1660.646606,334.397095 1671.167969,338.456848 
	C1679.740967,341.764832 1688.933105,339.384796 1695.270996,332.562317 
	C1704.631836,322.485596 1704.732056,304.820801 1695.485596,294.660614 
	C1686.212158,284.470581 1670.151367,284.349152 1661.853271,295.208740 
	C1658.506836,299.588013 1657.341919,305.634277 1655.173706,311.781403 
z"/>
<path fill="#FCFCFC" opacity="1.000000" stroke="none" 
	d="
M1318.139404,356.002441 
	C1295.964966,354.081757 1281.459473,339.924438 1279.201782,318.450562 
	C1277.025391,297.751678 1288.645752,278.575745 1306.911011,272.724762 
	C1335.912476,263.434570 1363.236694,287.215729 1357.393188,317.089020 
	C1337.376221,317.089020 1317.282471,317.089020 1297.211792,317.089020 
	C1296.701904,326.490662 1302.509155,335.028015 1311.551392,338.564850 
	C1322.728760,342.936798 1332.729980,339.503601 1342.213257,327.807892 
	C1346.851440,329.992920 1351.580078,332.220581 1356.683838,334.624969 
	C1347.996094,349.506775 1335.349976,356.376434 1318.139404,356.002441 
M1321.499512,303.997650 
	C1327.637207,303.997650 1333.774902,303.997650 1339.910400,303.997650 
	C1339.869141,292.844513 1329.310059,286.142029 1320.214111,285.969879 
	C1308.866943,285.755127 1299.269653,293.351685 1298.062378,303.997650 
	C1305.557373,303.997650 1313.028564,303.997650 1321.499512,303.997650 
z"/>
<path fill="#FCFCFC" opacity="1.000000" stroke="none" 
	d="
M1567.797363,319.721375 
	C1569.633179,330.654480 1575.855957,337.333557 1586.055664,339.555695 
	C1597.303467,342.006165 1606.270020,337.874878 1612.761597,327.670593 
	C1617.551880,329.919312 1622.287842,332.142517 1627.536987,334.606628 
	C1620.673340,346.428650 1611.053345,353.500610 1597.629395,355.588989 
	C1575.972778,358.958130 1555.883423,345.864441 1551.123779,324.998657 
	C1545.799927,301.659088 1557.330566,278.512634 1578.132446,272.729065 
	C1610.361328,263.768463 1632.576172,288.192535 1628.302856,317.176117 
	C1624.293457,317.176117 1620.181763,317.176086 1616.069946,317.176117 
	C1601.250977,317.176117 1586.431519,317.123840 1571.613892,317.267517 
	C1570.315552,317.280090 1569.029663,318.578369 1567.797363,319.721375 
M1574.596191,303.997650 
	C1586.698120,303.997650 1598.799927,303.997650 1610.938965,303.997650 
	C1609.969360,293.565247 1602.005371,286.436340 1591.313354,286.005981 
	C1579.929077,285.547729 1570.834106,292.641724 1568.739380,303.997650 
	C1570.406982,303.997650 1572.015259,303.997650 1574.596191,303.997650 
z"/>
<path fill="#FBFBFB" opacity="1.000000" stroke="none" 
	d="
M371.568848,273.426178 
	C389.551941,271.807678 404.000183,277.509186 413.291199,292.801483 
	C422.127197,307.344727 421.920532,322.609344 413.166809,337.212494 
	C403.294617,353.681335 382.762665,360.687988 363.943451,354.631256 
	C346.124634,348.896484 334.186890,331.396271 335.497192,312.930176 
	C337.002289,291.718475 350.105377,277.225494 371.568848,273.426178 
M400.827423,313.691284 
	C400.454376,306.390411 397.889160,300.052124 392.250885,295.260254 
	C381.921997,286.481964 366.813690,288.455505 358.913666,299.501160 
	C350.267181,311.590485 353.543976,329.455109 365.862335,336.718597 
	C373.317932,341.114807 381.062653,341.385864 388.597443,337.024048 
	C397.145050,332.075806 400.812592,324.258698 400.827423,313.691284 
z"/>
<path fill="#FAFAFA" opacity="1.000000" stroke="none" 
	d="
M657.310852,350.744812 
	C636.730835,336.624695 631.498230,309.032227 645.582886,289.367889 
	C654.272705,277.235565 666.514893,271.960114 681.141296,273.292175 
	C695.933960,274.639374 705.538025,283.684052 711.892273,296.558685 
	C713.124878,299.056122 713.967285,301.746124 715.088318,304.598267 
	C705.694885,308.478333 696.506470,312.261505 687.327942,316.068481 
	C678.176758,319.864105 669.035461,323.683594 659.892456,327.491547 
	C666.624756,343.566315 685.157654,344.094757 700.254272,328.660095 
	C703.750000,330.998657 707.321716,333.375427 710.878174,335.774780 
	C711.956482,336.502228 712.992676,337.292084 714.029114,338.039612 
	C702.859985,356.511902 677.803528,362.151093 657.310852,350.744812 
M663.749084,310.219543 
	C673.516052,306.186646 683.283081,302.153717 693.116516,298.093353 
	C688.675903,290.732086 680.771057,287.847961 672.575439,290.249207 
	C662.768738,293.122589 656.197083,302.380829 656.590454,313.135559 
	C658.821533,312.259918 660.949280,311.424835 663.749084,310.219543 
z"/>
<path fill="#FBFBFB" opacity="1.000000" stroke="none" 
	d="
M509.783875,324.613281 
	C504.772858,342.343475 493.620850,353.169861 475.777893,356.014893 
	C458.120148,358.830353 443.561951,352.873779 433.432312,337.923889 
	C423.157135,322.759247 424.818329,301.331390 436.794647,287.334991 
	C448.750397,273.362640 469.573303,269.041473 486.865021,276.944458 
	C503.536743,284.564117 513.004883,302.237152 510.332489,320.741089 
	C510.166046,321.893616 510.029785,323.050476 509.783875,324.613281 
M445.561432,317.856445 
	C446.388672,325.150848 449.448425,331.254456 455.448792,335.615417 
	C465.652863,343.031525 479.301331,340.946411 486.983154,330.914124 
	C495.229401,320.144653 493.433624,303.001495 483.051514,294.892578 
	C475.377502,288.898743 466.825287,287.852753 458.283569,292.451324 
	C448.685486,297.618683 444.933838,306.325378 445.561432,317.856445 
z"/>
<path fill="#FAFAFA" opacity="1.000000" stroke="none" 
	d="
M1388.846802,327.000122 
	C1388.846802,335.970825 1388.846802,344.441528 1388.846802,353.218262 
	C1382.967896,353.218262 1377.383423,353.218262 1371.474365,353.218262 
	C1371.474365,326.780487 1371.474365,300.421204 1371.474365,273.766541 
	C1376.908325,273.766541 1382.320190,273.766541 1388.042480,273.766541 
	C1388.042480,276.880249 1388.042480,279.812592 1388.042480,283.722870 
	C1395.291992,274.987335 1403.735962,270.786102 1414.369995,270.939514 
	C1430.698853,271.175110 1442.145508,281.055481 1442.772217,297.472107 
	C1443.475952,315.902100 1442.934082,334.379639 1442.934082,353.182007 
	C1437.401611,353.182007 1431.861694,353.182007 1425.817261,353.182007 
	C1425.817261,343.594299 1425.860962,333.979614 1425.803223,324.365601 
	C1425.758179,316.881561 1426.139404,309.339386 1425.349365,301.927673 
	C1423.957031,288.863708 1410.603271,282.751312 1399.300293,289.721771 
	C1392.387329,293.985016 1389.180176,300.568878 1388.892212,308.523010 
	C1388.675537,314.508118 1388.847778,320.507263 1388.846802,327.000122 
z"/>
<path fill="#F8F8F8" opacity="1.000000" stroke="none" 
	d="
M1176.766602,327.797394 
	C1171.685059,335.628204 1166.945557,343.253082 1161.855347,350.636108 
	C1160.858398,352.082031 1158.548950,353.285553 1156.765869,353.403015 
	C1151.337524,353.760742 1145.870483,353.532776 1139.369385,353.532776 
	C1148.925415,339.589386 1157.974487,326.385895 1167.270630,312.821838 
	C1158.294556,299.974640 1149.305542,287.109009 1139.777954,273.472504 
	C1146.600708,273.472504 1152.529053,273.310120 1158.434937,273.601501 
	C1159.705322,273.664185 1161.216309,275.138947 1162.069336,276.348938 
	C1167.314331,283.788177 1172.402222,291.338196 1177.927002,299.413544 
	C1182.734253,292.097870 1187.556519,285.383575 1191.665283,278.257874 
	C1193.911377,274.362610 1196.516113,273.037201 1200.827637,273.383484 
	C1205.448364,273.754578 1210.121826,273.467163 1215.951660,273.467163 
	C1206.434937,286.938904 1197.402710,299.724670 1188.161011,312.806885 
	C1197.362305,326.084900 1206.604858,339.422272 1216.377930,353.525330 
	C1209.460571,353.525330 1203.363159,353.686859 1197.287842,353.392120 
	C1196.038940,353.331512 1194.561523,351.779572 1193.719971,350.551422 
	C1188.929932,343.561127 1184.332397,336.439056 1179.574951,329.425934 
	C1179.005859,328.586975 1177.863037,328.137085 1176.766602,327.797394 
z"/>
<path fill="#F8F8F8" opacity="1.000000" stroke="none" 
	d="
M1236.964478,338.869324 
	C1236.596069,332.490173 1236.110107,326.527954 1236.027832,320.560211 
	C1235.883789,310.113739 1235.987549,299.663818 1235.987549,288.954590 
	C1231.292480,288.954590 1227.015381,288.954590 1222.364990,288.954590 
	C1222.364990,283.808441 1222.364990,278.912292 1222.364990,273.614197 
	C1226.658325,273.614197 1231.095093,273.614197 1235.862549,273.614197 
	C1235.862549,265.945374 1235.862549,258.656677 1235.862549,251.093750 
	C1241.756958,251.093750 1247.322266,251.093750 1253.376221,251.093750 
	C1253.376221,258.308502 1253.376221,265.537811 1253.376221,273.305847 
	C1260.064819,273.305847 1266.298584,273.305847 1272.764893,273.305847 
	C1272.764893,278.615692 1272.764893,283.384674 1272.764893,288.649353 
	C1266.640137,288.649353 1260.400513,288.649353 1253.531860,288.649353 
	C1253.531860,296.704102 1253.529907,304.280640 1253.532593,311.857147 
	C1253.534546,317.352295 1253.332397,322.857513 1253.594849,328.340363 
	C1254.063477,338.128387 1260.633423,342.085938 1269.815308,338.321289 
	C1270.725464,337.948120 1271.597046,337.481384 1273.185791,336.725250 
	C1273.185791,339.794556 1273.185791,342.540680 1273.185791,345.286804 
	C1273.185791,347.948853 1273.185791,350.610901 1273.185791,353.211334 
	C1258.831177,360.641632 1241.945679,354.087402 1236.964478,338.869324 
z"/>
<path fill="#FEFEFE" opacity="1.000000" stroke="none" 
	d="
M629.168457,326.000092 
	C629.168457,335.484680 629.168457,344.469238 629.168457,353.810944 
	C623.171021,353.810944 617.289185,353.810944 611.116028,353.810944 
	C611.116028,313.180023 611.116028,272.468506 611.116028,231.461411 
	C616.871948,231.461411 622.625549,231.461411 629.168457,231.461411 
	C629.168457,262.745300 629.168457,294.122681 629.168457,326.000092 
z"/>
<path fill="#F8F8F8" opacity="1.000000" stroke="none" 
	d="
M853.123718,303.975098 
	C859.721741,275.101929 866.238098,246.640350 872.766479,218.126511 
	C876.901306,218.126511 880.694702,218.126511 884.989746,218.126511 
	C873.618469,268.136627 862.301819,317.906311 850.986084,367.672028 
	C846.877930,367.672028 843.082520,367.672028 838.760803,367.672028 
	C843.563232,346.390839 848.302612,325.388763 853.123718,303.975098 
z"/>
<path fill="#202225" opacity="1.000000" stroke="none" 
	d="
M1688.292480,1194.979370 
	C1688.764526,1194.941650 1689.259644,1195.218872 1689.849365,1195.771118 
	C1689.401245,1195.795410 1688.858521,1195.544800 1688.292480,1194.979370 
z"/>
<path fill="#202228" opacity="1.000000" stroke="none" 
	d="
M1780.194580,1251.195068 
	C1780.624756,1251.052612 1781.224854,1251.179199 1781.989990,1251.570557 
	C1781.558228,1251.711670 1780.961426,1251.587891 1780.194580,1251.195068 
z"/>
<path fill="#202225" opacity="1.000000" stroke="none" 
	d="
M1690.065430,1196.297119 
	C1690.263306,1196.206177 1690.564209,1196.350464 1690.966064,1196.733643 
	C1690.767578,1196.825928 1690.468140,1196.679199 1690.065430,1196.297119 
z"/>
<path fill="#000000" opacity="1.000000" stroke="none" 
	d="
M1582.606201,865.314087 
	C1582.443115,865.183777 1582.418945,864.950317 1582.394775,864.716919 
	C1582.511597,864.881592 1582.628418,865.046326 1582.606201,865.314087 
z"/>
<path fill="#000000" opacity="1.000000" stroke="none" 
	d="
M1631.007324,761.008057 
	C1630.902100,761.041992 1630.789673,761.067566 1630.829834,761.039307 
	C1630.982422,760.985352 1631.000000,760.999756 1631.007324,761.008057 
z"/>
<path fill="#000000" opacity="1.000000" stroke="none" 
	d="
M1629.560059,763.445801 
	C1629.600586,763.512695 1629.519531,763.378967 1629.560059,763.445801 
z"/>
<path fill="#020202" opacity="1.000000" stroke="none" 
	d="
M551.069336,291.715698 
	C564.396912,286.932434 575.934937,292.507812 580.331604,305.568451 
	C583.401489,314.687622 582.306152,323.345184 576.870544,331.260315 
	C572.168457,338.107361 563.228882,341.407196 555.322449,339.605103 
	C546.019775,337.484772 538.750671,329.618408 537.122620,319.909912 
	C535.141724,308.097961 540.152222,297.758911 551.069336,291.715698 
z"/>
<path fill="#020202" opacity="1.000000" stroke="none" 
	d="
M1477.556641,297.712891 
	C1484.455078,288.650055 1493.055176,285.358276 1502.568115,287.946381 
	C1511.623169,290.409943 1518.772095,298.910034 1519.904053,308.985931 
	C1521.113647,319.754059 1518.464233,329.273621 1509.306763,335.857971 
	C1502.440308,340.795135 1494.741577,341.409485 1487.114014,337.668060 
	C1478.070557,333.232147 1473.348145,325.337891 1473.331177,315.632446 
	C1473.320923,309.756165 1475.902710,303.875366 1477.556641,297.712891 
z"/>
<path fill="#020202" opacity="1.000000" stroke="none" 
	d="
M1655.178955,311.351685 
	C1657.341919,305.634277 1658.506836,299.588013 1661.853271,295.208740 
	C1670.151367,284.349152 1686.212158,284.470581 1695.485596,294.660614 
	C1704.732056,304.820801 1704.631836,322.485596 1695.270996,332.562317 
	C1688.933105,339.384796 1679.740967,341.764832 1671.167969,338.456848 
	C1660.646606,334.397095 1656.251343,325.930542 1655.189697,315.270844 
	C1655.074951,314.118561 1655.173828,312.945068 1655.178955,311.351685 
z"/>
<path fill="#020202" opacity="1.000000" stroke="none" 
	d="
M1320.999634,303.997650 
	C1313.028564,303.997650 1305.557373,303.997650 1298.062378,303.997650 
	C1299.269653,293.351685 1308.866943,285.755127 1320.214111,285.969879 
	C1329.310059,286.142029 1339.869141,292.844513 1339.910400,303.997650 
	C1333.774902,303.997650 1327.637207,303.997650 1320.999634,303.997650 
z"/>
<path fill="#020202" opacity="1.000000" stroke="none" 
	d="
M1574.109863,303.997650 
	C1572.015259,303.997650 1570.406982,303.997650 1568.739380,303.997650 
	C1570.834106,292.641724 1579.929077,285.547729 1591.313354,286.005981 
	C1602.005371,286.436340 1609.969360,293.565247 1610.938965,303.997650 
	C1598.799927,303.997650 1586.698120,303.997650 1574.109863,303.997650 
z"/>
<path fill="#020202" opacity="1.000000" stroke="none" 
	d="
M400.827576,314.124512 
	C400.812592,324.258698 397.145050,332.075806 388.597443,337.024048 
	C381.062653,341.385864 373.317932,341.114807 365.862335,336.718597 
	C353.543976,329.455109 350.267181,311.590485 358.913666,299.501160 
	C366.813690,288.455505 381.921997,286.481964 392.250885,295.260254 
	C397.889160,300.052124 400.454376,306.390411 400.827576,314.124512 
z"/>
<path fill="#020202" opacity="1.000000" stroke="none" 
	d="
M663.413086,310.404663 
	C660.949280,311.424835 658.821533,312.259918 656.590454,313.135559 
	C656.197083,302.380829 662.768738,293.122589 672.575439,290.249207 
	C680.771057,287.847961 688.675903,290.732086 693.116516,298.093353 
	C683.283081,302.153717 673.516052,306.186646 663.413086,310.404663 
z"/>
<path fill="#020202" opacity="1.000000" stroke="none" 
	d="
M445.533569,317.445190 
	C444.933838,306.325378 448.685486,297.618683 458.283569,292.451324 
	C466.825287,287.852753 475.377502,288.898743 483.051514,294.892578 
	C493.433624,303.001495 495.229401,320.144653 486.983154,330.914124 
	C479.301331,340.946411 465.652863,343.031525 455.448792,335.615417 
	C449.448425,331.254456 446.388672,325.150848 445.533569,317.445190 
z"/>
</svg>