<svg version="1.1" id="Layer_1" xmlns="http://www.w3.org/2000/svg" xmlns:xlink="http://www.w3.org/1999/xlink" x="0px" y="0px"
	 width="100%" viewBox="0 0 1921 1501" enable-background="new 0 0 1921 1501" xml:space="preserve">
<path fill="#E7E9EC" opacity="1.000000" stroke="none" 
	d="
M1.000000,1387.000000 
	C1.000000,925.050964 1.000000,463.101898 1.000000,1.076416 
	C641.211792,1.076416 1281.423584,1.076416 1922.000000,1.076416 
	C1922.000000,113.032471 1922.000000,225.065338 1921.728638,337.257874 
	C1920.235718,338.539520 1918.970825,339.618073 1917.798828,340.789734 
	C1855.985596,402.589203 1794.189697,464.406097 1732.360840,526.189941 
	C1725.303345,533.242310 1720.003662,541.330933 1716.771484,550.788757 
	C1716.319824,552.110046 1715.570923,554.114319 1714.602661,554.352844 
	C1705.268066,556.651794 1700.718872,563.349243 1697.425049,571.792480 
	C1654.939209,571.807678 1612.914307,571.807678 1570.889526,571.807678 
	C1576.169556,567.645874 1581.665039,564.358948 1587.242065,561.217041 
	C1589.454468,559.970642 1591.678223,558.487549 1589.796753,555.973267 
	C1589.120605,555.069580 1585.815308,555.195923 1584.323486,555.996155 
	C1576.417969,560.236755 1568.807495,565.030029 1560.876099,569.217896 
	C1558.092163,570.687927 1554.687866,571.702942 1551.565186,571.707275 
	C1459.296509,571.836670 1367.027832,571.802124 1274.759033,571.820984 
	C1256.348999,571.824707 1243.001221,585.237549 1242.986328,603.634033 
	C1242.975952,616.624939 1242.964233,629.615906 1242.988403,642.606750 
	C1243.038208,669.416077 1243.111572,696.225464 1243.099854,723.495911 
	C1243.008789,731.079773 1243.168701,738.208130 1242.941162,745.324097 
	C1242.457764,760.436157 1232.232910,772.021423 1217.353760,774.320862 
	C1213.615479,774.898621 1209.778076,774.835999 1205.608276,774.951843 
	C1168.444702,775.041626 1131.658569,775.203796 1094.873413,775.473022 
	C1078.903076,775.589844 1062.934326,775.927002 1046.657349,776.003662 
	C1044.722046,773.763611 1043.287598,771.491333 1041.437012,769.633423 
	C1018.883911,746.990356 996.270142,724.407654 973.671143,701.810303 
	C965.067200,693.206909 957.936096,693.211975 949.279114,701.863586 
	C927.380493,723.748962 905.452209,745.604980 883.649597,767.585571 
	C880.778748,770.479858 878.572327,774.033081 875.589233,777.220947 
	C845.205688,777.375916 815.291077,777.583008 785.376648,777.810730 
	C774.574524,777.893005 763.772888,778.025024 752.508240,778.068970 
	C702.704346,778.036926 653.363281,778.070251 603.654297,778.022705 
	C601.635254,777.287781 599.881348,776.815186 598.349854,775.949402 
	C590.142700,771.310059 582.030884,766.500061 573.776367,761.948059 
	C572.555237,761.274719 570.711853,761.436462 569.236511,761.685791 
	C568.756897,761.766846 567.988708,763.692810 568.296997,764.194458 
	C569.108032,765.514038 570.285400,766.747742 571.588257,767.601501 
	C577.004456,771.150940 582.520752,774.547424 587.532043,777.980347 
	C550.068176,777.959290 513.072571,777.940979 476.077026,777.963501 
	C456.178558,777.975647 442.958069,791.273499 442.957550,811.204102 
	C442.955444,891.861511 442.956696,972.518982 442.956696,1053.176392 
	C442.956696,1054.998779 442.956696,1056.821045 442.956696,1058.714722 
	C433.001373,1060.970703 427.147705,1067.070435 425.173096,1077.051880 
	C343.709381,1083.081055 274.354065,1115.312866 218.422714,1174.441406 
	C162.348282,1233.721313 134.471634,1305.131226 132.705032,1387.000000 
	C88.540688,1387.000000 44.770344,1387.000000 1.000000,1387.000000 
M892.783752,246.410110 
	C881.139343,284.789856 906.054993,321.814484 946.009460,323.592682 
	C986.886108,325.411865 1013.842041,288.007904 1005.497742,251.942871 
	C999.362488,225.425842 976.110352,206.757996 948.892822,206.348053 
	C924.135071,205.975159 902.683838,221.066696 892.783752,246.410110 
M785.344482,296.499969 
	C785.344482,304.909790 785.344482,313.319611 785.344482,321.653229 
	C804.944336,321.653229 823.677856,321.653229 842.539062,321.653229 
	C842.539062,283.765991 842.539062,246.227158 842.539062,208.371216 
	C840.611389,208.285019 838.987000,208.150955 837.362549,208.149292 
	C821.876038,208.133301 806.386902,208.295517 790.904602,208.039780 
	C786.561523,207.968033 785.210632,209.093338 785.243713,213.571960 
	C785.445496,240.880035 785.344849,268.190369 785.344482,296.499969 
M312.408691,205.890182 
	C274.887665,215.204620 255.170120,253.356247 270.106964,287.740112 
	C283.648468,318.912018 322.500366,333.068573 353.072083,317.970215 
	C374.110718,307.579926 385.962250,282.082245 380.371155,259.122314 
	C362.314209,259.122314 344.240173,259.122314 326.225525,259.122314 
	C326.225525,264.634491 326.225525,269.846130 326.225525,275.363617 
	C339.069763,275.363617 351.518829,275.363617 363.957764,275.363617 
	C364.027588,288.911743 353.635773,301.322754 338.898041,305.621979 
	C319.652405,311.236206 299.581085,303.596161 289.444214,286.797638 
	C279.319275,270.018890 281.597626,248.482040 295.115875,234.114487 
	C301.727081,227.087921 309.917358,222.888092 319.434082,221.438232 
	C333.087982,219.358078 344.954407,223.576874 354.801392,232.063019 
	C358.872284,228.130844 362.554993,224.573639 366.603149,220.663452 
	C351.380920,206.201828 333.466675,201.959702 312.408691,205.890182 
M629.004883,259.531128 
	C629.004883,256.123779 629.004883,252.716431 629.004883,249.330566 
	C623.224426,249.330566 618.255127,249.330566 613.127380,249.330566 
	C612.920227,251.168365 612.730774,252.848740 612.518372,254.732925 
	C595.896118,243.098907 578.886780,244.686249 565.585693,258.802551 
	C552.385010,272.812286 551.605957,294.957550 563.783813,310.022156 
	C576.223999,325.411194 593.241516,327.589935 612.360657,316.241364 
	C613.986938,328.083130 610.084656,337.650391 601.419678,340.917999 
	C597.552185,342.376495 592.935425,342.884674 588.817566,342.419098 
	C581.118225,341.548584 576.540405,335.852966 572.857666,329.335846 
	C567.783508,331.464752 563.105652,333.427399 558.185364,335.491760 
	C563.915039,348.240448 573.240173,356.062042 586.568726,357.824005 
	C600.653564,359.685944 613.524353,356.728607 622.286621,344.124115 
	C627.199524,337.056946 628.937317,328.943024 628.975708,320.486084 
	C629.066406,300.498962 629.004883,280.511200 629.004883,259.531128 
M1660.521729,230.523331 
	C1660.521729,226.272629 1660.521729,222.021942 1660.521729,217.810532 
	C1654.637207,217.810532 1649.545288,217.810532 1644.159424,217.810532 
	C1644.159424,224.449799 1644.159546,230.760468 1644.159546,237.071136 
	C1644.159546,243.271713 1644.159424,249.472275 1644.159424,255.439285 
	C1626.785522,240.089874 1605.316895,241.698700 1592.815796,259.546570 
	C1582.822510,273.813873 1583.098877,295.251526 1593.342041,309.252655 
	C1605.637207,326.058594 1631.188354,328.400452 1643.948120,312.490753 
	C1644.058960,312.352600 1644.493164,312.473663 1645.261963,312.473663 
	C1645.261963,315.199554 1645.261963,317.923798 1645.261963,320.575745 
	C1650.506348,320.575745 1655.261475,320.575745 1660.521606,320.575745 
	C1660.521606,290.714844 1660.521606,261.115723 1660.521729,230.523331 
M1492.845703,285.500031 
	C1492.845703,262.951599 1492.845703,240.403168 1492.845703,217.705048 
	C1487.197632,217.705048 1482.262817,217.705048 1476.821533,217.705048 
	C1476.821533,224.210739 1476.821411,230.491714 1476.821411,236.772675 
	C1476.821411,243.017090 1476.821533,249.261520 1476.821533,256.240692 
	C1468.616821,246.345764 1458.396362,243.182114 1446.681885,245.534866 
	C1431.984131,248.486771 1422.952637,258.094635 1419.440063,272.213959 
	C1415.515381,287.989288 1417.944946,302.857178 1430.484497,314.379639 
	C1444.187134,326.970703 1461.339600,326.015320 1477.144897,312.154297 
	C1477.371948,315.105316 1477.579346,317.800232 1477.792847,320.576111 
	C1482.848755,320.576111 1487.591431,320.576111 1492.845703,320.576111 
	C1492.845703,309.042816 1492.845703,297.771454 1492.845703,285.500031 
M1114.173340,270.492126 
	C1114.173340,267.580414 1114.173340,264.668732 1114.173340,261.194580 
	C1099.851685,261.194580 1086.296509,261.194580 1072.766113,261.194580 
	C1072.766113,251.638809 1072.766113,242.685287 1072.766113,233.178497 
	C1088.219727,233.178497 1103.442139,233.178497 1118.746338,233.178497 
	C1118.746338,227.710571 1118.746338,222.803864 1118.746338,217.777100 
	C1097.742432,217.777100 1076.998047,217.777100 1056.231689,217.777100 
	C1056.231689,252.172180 1056.231689,286.267822 1056.231689,320.561218 
	C1077.187500,320.561218 1097.906128,320.561218 1118.728271,320.561218 
	C1118.728271,315.373169 1118.728271,310.466888 1118.728271,305.030762 
	C1103.225952,305.030762 1087.991821,305.030762 1072.861572,305.030762 
	C1072.861572,295.428528 1072.861572,286.364655 1072.861572,276.853302 
	C1086.776123,276.853302 1100.357544,276.853302 1114.173340,276.853302 
	C1114.173340,274.750122 1114.173340,273.103210 1114.173340,270.492126 
M1524.869385,299.483582 
	C1523.371338,295.783478 1521.873413,292.083344 1520.028076,287.525269 
	C1539.894775,287.525269 1558.307007,287.525269 1577.260010,287.525269 
	C1578.187988,273.884613 1575.883545,261.750153 1565.149536,252.919067 
	C1553.705200,243.503525 1540.502441,242.350021 1527.124512,247.878311 
	C1509.154053,255.304459 1500.300537,277.207184 1506.535767,297.120209 
	C1512.435791,315.963287 1530.734741,326.435394 1550.599243,322.498871 
	C1562.092529,320.221283 1570.192627,313.670197 1576.196777,303.532043 
	C1571.348511,301.254120 1567.037842,299.228790 1562.820557,297.247375 
	C1551.187622,311.541840 1536.200439,312.562347 1524.869385,299.483582 
M1259.569214,302.843628 
	C1267.204834,317.336792 1279.426880,323.661774 1295.548706,323.079224 
	C1309.562378,322.572845 1319.585083,315.748077 1326.931152,303.594482 
	C1322.207153,301.335388 1317.918091,299.284210 1313.685913,297.260315 
	C1304.360840,308.098663 1295.339966,311.170288 1285.298584,307.059021 
	C1276.752563,303.560028 1271.698608,296.121826 1272.375000,287.525085 
	C1290.740479,287.525085 1309.149536,287.525085 1327.935669,287.525085 
	C1329.066040,272.463043 1326.054443,259.291687 1313.105591,250.862717 
	C1300.188354,242.454239 1286.290771,242.299927 1273.048828,250.396378 
	C1256.661499,260.416046 1251.146484,281.932526 1259.569214,302.843628 
M420.154297,323.439636 
	C447.689331,326.937164 469.402954,303.665222 463.533844,276.946838 
	C459.237030,257.386139 441.907806,245.145767 421.219269,247.058212 
	C402.341187,248.803329 387.790039,264.466766 387.023163,283.868286 
	C386.238922,303.709015 399.585236,320.008179 420.154297,323.439636 
M471.983917,276.632324 
	C471.910370,277.126587 471.852295,277.623688 471.761017,278.114655 
	C468.554108,295.370422 476.506470,311.969055 491.633911,319.588165 
	C507.675079,327.667511 526.400269,324.308533 538.713623,311.142883 
	C549.696411,299.399933 551.693115,279.312683 542.832886,265.141205 
	C533.985657,250.990585 520.625671,245.185028 504.423645,247.300522 
	C487.629700,249.493286 476.776550,259.380219 471.983917,276.632324 
M681.505249,252.943329 
	C667.500488,263.177399 661.859619,280.810364 667.164856,297.770355 
	C671.953796,313.080048 685.804016,323.384155 702.393066,323.978912 
	C716.088684,324.470001 731.276062,316.300232 735.117371,306.245392 
	C731.008911,303.513947 726.868408,300.761169 722.757629,298.028198 
	C708.692932,312.077942 691.164490,311.588989 685.809937,296.890228 
	C702.594788,289.914001 719.393250,282.932159 736.132812,275.974762 
	C728.154663,249.487152 704.925354,239.603241 681.505249,252.943329 
M1356.178467,298.500916 
	C1356.178833,293.173920 1356.084839,287.844849 1356.202515,282.520447 
	C1356.357666,275.498627 1358.014160,269.002594 1363.539062,264.103333 
	C1369.140869,259.135742 1375.597168,258.646759 1382.193237,261.328918 
	C1388.401733,263.853485 1390.234497,269.263489 1390.165771,275.565643 
	C1390.107666,280.891998 1390.154297,286.219543 1390.154297,291.546539 
	C1390.154297,301.150787 1390.154175,310.755035 1390.154175,320.597229 
	C1395.787964,320.597229 1400.865112,320.597229 1406.247192,320.597229 
	C1406.247192,303.828247 1406.545288,287.223663 1406.142700,270.636078 
	C1405.872925,259.517609 1401.290771,250.346085 1390.021484,246.658081 
	C1377.864990,242.679703 1366.697632,244.608124 1357.722900,254.575821 
	C1357.271484,255.077133 1356.628906,255.406387 1355.722412,256.076874 
	C1355.552979,252.775604 1355.412842,250.044632 1355.284302,247.538910 
	C1349.903320,247.538910 1345.164673,247.538910 1340.529907,247.538910 
	C1340.529907,272.129883 1340.529907,296.336182 1340.529907,320.591888 
	C1345.835205,320.591888 1350.762329,320.591888 1356.178589,320.591888 
	C1356.178589,313.398804 1356.178589,306.449646 1356.178467,298.500916 
M1143.411255,296.853546 
	C1138.106323,304.567841 1132.801514,312.282166 1126.912720,320.845612 
	C1132.950439,320.845612 1137.755249,321.135559 1142.494629,320.704163 
	C1144.415161,320.529388 1146.830322,319.230499 1147.925171,317.673157 
	C1152.765015,310.788452 1157.206299,303.623596 1162.099854,296.085907 
	C1167.255737,303.798218 1171.973999,310.983154 1176.865234,318.048248 
	C1177.692749,319.243469 1179.225708,320.644775 1180.500732,320.714905 
	C1185.890015,321.011292 1191.305054,320.840454 1197.700684,320.840454 
	C1188.667847,307.790802 1180.218750,295.584595 1171.796875,283.417633 
	C1176.186279,277.229065 1180.328369,271.404297 1184.454102,265.567993 
	C1188.627808,259.663696 1192.785400,253.747971 1197.431152,247.154358 
	C1191.455811,247.154358 1186.483887,246.871964 1181.572876,247.295670 
	C1179.653320,247.461273 1177.237793,248.764709 1176.135620,250.320358 
	C1171.433228,256.957825 1167.137207,263.883392 1162.409180,271.139374 
	C1157.537476,264.012299 1152.914917,257.151062 1148.160278,250.382629 
	C1147.273438,249.120224 1145.907227,247.387833 1144.675171,247.313339 
	C1139.164062,246.980072 1133.621460,247.168411 1127.190918,247.168411 
	C1131.954468,253.987625 1136.035400,259.828033 1140.114624,265.669708 
	C1144.270142,271.620850 1148.424072,277.573212 1152.526001,283.449585 
	C1150.826782,285.956116 1149.429443,288.016418 1148.033203,290.077576 
	C1146.634521,292.142273 1145.236938,294.207825 1143.411255,296.853546 
M1250.004883,314.412354 
	C1250.004883,311.655914 1250.004883,308.899475 1250.004883,305.759155 
	C1248.081665,306.506744 1246.744751,307.139069 1245.343140,307.552063 
	C1238.564575,309.549652 1232.528687,306.548065 1232.283081,300.134399 
	C1231.794922,287.379059 1232.138672,274.591919 1232.138672,261.218445 
	C1238.240112,261.218445 1243.953003,261.218445 1249.441895,261.218445 
	C1249.441895,256.205017 1249.441895,251.803345 1249.441895,246.992432 
	C1243.467896,246.992432 1237.884399,246.992432 1231.885132,246.992432 
	C1231.885132,240.004288 1231.885132,233.432053 1231.885132,226.760742 
	C1226.354614,226.760742 1221.265747,226.760742 1215.707275,226.760742 
	C1215.707275,233.626801 1215.707275,240.216263 1215.707275,247.212311 
	C1211.313843,247.212311 1207.382202,247.212311 1203.339600,247.212311 
	C1203.339600,252.162628 1203.339600,256.686768 1203.339600,261.705139 
	C1207.586670,261.705139 1211.503052,261.705139 1215.826660,261.705139 
	C1215.826660,263.835754 1215.825562,265.467987 1215.826782,267.100220 
	C1215.835083,278.252502 1215.609253,289.411072 1215.905640,300.555695 
	C1216.394043,318.918732 1232.901489,328.690308 1250.004883,320.676697 
	C1250.004883,318.985352 1250.004883,317.165588 1250.004883,314.412354 
M657.519470,280.500244 
	C657.519470,256.603333 657.519470,232.706421 657.519470,208.797729 
	C651.337952,208.797729 645.915039,208.797729 640.522583,208.797729 
	C640.522583,246.459702 640.522583,283.803253 640.522583,321.186890 
	C646.293945,321.186890 651.697388,321.186890 657.519287,321.186890 
	C657.519287,307.739288 657.519287,294.619781 657.519470,280.500244 
M864.621338,320.251373 
	C873.982300,279.028015 883.343323,237.804642 892.741211,196.418808 
	C888.588074,196.418808 885.149780,196.418808 881.448914,196.418808 
	C871.023376,242.266357 860.641663,287.921204 850.214539,333.775879 
	C854.067627,333.775879 857.672363,333.775879 861.520081,333.775879 
	C862.492676,329.422821 863.428223,325.235291 864.621338,320.251373 
z"/>
<path fill="#3D8BFF" opacity="1.000000" stroke="none" 
	d="
M732.000000,1502.000000 
	C541.640808,1502.000000 351.281677,1502.000000 160.341644,1501.639160 
	C155.451492,1487.054565 150.262115,1473.025391 147.065552,1458.555908 
	C143.433884,1442.116577 140.216736,1425.359985 139.279068,1408.603760 
	C137.860153,1383.247437 139.066833,1357.876343 143.941742,1332.704712 
	C148.720779,1308.028198 155.891663,1284.112427 166.446243,1261.477905 
	C183.445465,1225.022705 206.280258,1192.590820 236.159576,1165.193237 
	C278.904083,1125.999023 328.280853,1099.961304 385.144775,1088.490845 
	C398.373230,1085.822266 411.869049,1084.479248 425.297241,1082.518188 
	C425.710266,1084.051880 425.840210,1084.682739 426.048706,1085.286499 
	C429.220490,1094.471436 436.650299,1100.010498 445.835449,1100.051025 
	C455.055023,1100.091553 462.570435,1094.621826 465.821075,1085.533936 
	C466.141785,1084.637207 466.599304,1083.789307 467.412537,1083.004883 
	C476.891663,1084.146973 486.019714,1084.801025 495.000732,1086.322876 
	C568.015381,1098.693970 629.161072,1132.648071 677.818604,1188.438599 
	C716.396484,1232.671875 740.174805,1284.056519 749.127625,1342.138428 
	C753.456970,1370.225342 754.789551,1398.394775 750.014099,1426.595581 
	C747.824463,1439.526001 746.144958,1452.585083 743.110107,1465.318115 
	C740.153259,1477.723389 735.761719,1489.786621 732.000000,1502.000000 
z"/>
<path fill="#FF4F3E" opacity="1.000000" stroke="none" 
	d="
M1922.000000,825.000000 
	C1922.000000,918.020935 1922.000000,1011.041809 1921.635010,1104.533569 
	C1896.615479,1117.647827 1870.423096,1122.925293 1842.744141,1122.877441 
	C1715.255127,1122.657104 1587.765381,1122.793213 1460.276001,1122.737549 
	C1454.626831,1122.735107 1448.920898,1122.506104 1443.337891,1121.707397 
	C1386.381836,1113.560181 1344.883667,1083.733276 1319.156494,1032.286865 
	C1311.834106,1017.644226 1307.362061,1002.017822 1305.542847,985.549805 
	C1315.428223,982.133789 1321.487671,975.796448 1321.555176,965.330627 
	C1321.625244,954.444275 1315.483521,947.816833 1305.523926,944.578430 
	C1310.176636,905.118958 1331.424072,867.305969 1363.140137,842.038330 
	C1392.203003,818.884338 1425.461914,807.314941 1462.515747,807.274231 
	C1590.838379,807.133423 1719.161743,807.048645 1847.483032,807.464966 
	C1861.470581,807.510376 1875.670654,809.968811 1889.358887,813.109314 
	C1900.558960,815.679138 1911.142944,820.934937 1922.000000,825.000000 
z"/>
<path fill="#E7E9EC" opacity="1.000000" stroke="none" 
	d="
M1922.000000,806.000000 
	C1922.000000,809.692932 1922.000000,813.385803 1921.632812,817.582520 
	C1895.786133,805.690796 1868.818970,800.960083 1840.574829,801.011963 
	C1714.155884,801.244324 1587.736084,801.013855 1461.316895,801.178345 
	C1426.948975,801.223083 1395.363281,811.083496 1367.373779,831.165161 
	C1329.738892,858.167236 1307.148804,894.684082 1299.712158,940.505676 
	C1299.464600,942.030945 1298.280518,944.400146 1297.168213,944.632812 
	C1287.471680,946.661316 1282.709473,953.283081 1279.555908,962.032959 
	C1276.092896,961.999939 1273.096924,961.998962 1270.100952,961.994812 
	C1256.944946,961.976379 1249.008057,954.055420 1249.006714,940.915466 
	C1249.001831,896.808228 1248.957397,852.700867 1249.033691,808.593750 
	C1249.056519,795.347229 1244.015503,785.101501 1232.367920,778.350952 
	C1231.652588,777.936462 1231.373169,776.770142 1231.231201,775.886108 
	C1242.368652,768.943298 1248.382080,759.154663 1248.883789,746.338989 
	C1249.187378,738.583740 1248.865723,730.803955 1248.909912,722.571167 
	C1249.001831,683.301147 1249.009644,644.495178 1249.015381,605.689209 
	C1249.018066,587.974426 1259.124512,577.855835 1276.832397,577.855530 
	C1360.107056,577.853943 1443.381836,577.848694 1526.656494,577.862610 
	C1536.810913,577.864319 1547.469727,576.064819 1556.976562,578.575867 
	C1566.285278,581.034607 1574.420532,587.935303 1583.071289,592.885681 
	C1583.360229,593.051086 1583.650024,593.215393 1583.945068,593.369568 
	C1585.952148,594.418335 1588.394897,596.462769 1589.792480,593.384033 
	C1590.302979,592.259216 1588.565308,589.229492 1587.075684,588.241638 
	C1581.924316,584.825378 1576.430420,581.925537 1571.066895,578.829041 
	C1573.132812,577.854797 1574.887329,577.856323 1576.641968,577.854553 
	C1617.111572,577.814819 1657.581055,577.774780 1698.323364,577.993774 
	C1699.867798,584.228455 1702.537964,590.333923 1708.241821,591.949524 
	C1716.829102,594.381958 1720.060425,600.780579 1723.954834,607.367493 
	C1726.047607,610.907288 1728.817139,614.156311 1731.737305,617.081299 
	C1794.022705,679.467773 1856.369873,741.792603 1918.739624,804.094849 
	C1919.601196,804.955383 1920.903442,805.374756 1922.000000,806.000000 
z"/>
<path fill="#E7E9EC" opacity="1.000000" stroke="none" 
	d="
M1922.000000,1112.000000 
	C1922.000000,1241.935669 1922.000000,1371.871460 1922.000000,1502.000000 
	C1762.310059,1502.000000 1602.619995,1502.000000 1442.545410,1501.537354 
	C1442.160889,1485.278198 1442.160889,1469.481689 1442.160889,1453.120972 
	C1444.509399,1453.120972 1446.470825,1453.121094 1448.432251,1453.120972 
	C1507.091553,1453.119751 1565.753174,1452.833374 1624.409058,1453.283691 
	C1642.972046,1453.426147 1658.123169,1438.744751 1657.932129,1419.513550 
	C1657.473755,1373.357178 1657.771851,1327.193237 1657.822998,1281.032349 
	C1657.825317,1278.961670 1657.861938,1276.597778 1658.801880,1274.870728 
	C1663.578491,1266.093872 1668.767822,1257.541382 1673.521362,1248.752686 
	C1674.288574,1247.334229 1674.283936,1244.039795 1673.429077,1243.490601 
	C1671.312378,1242.130127 1669.472046,1243.204834 1668.155884,1245.812134 
	C1665.354126,1251.363037 1662.063354,1256.667236 1658.972900,1262.072510 
	C1658.676392,1261.938477 1658.380005,1261.804321 1658.083496,1261.670288 
	C1658.083496,1217.513184 1658.083496,1173.356201 1658.083496,1128.887451 
	C1660.179932,1128.887451 1661.987915,1128.887329 1663.795898,1128.887329 
	C1725.454834,1128.887329 1787.115723,1129.137207 1848.771362,1128.681641 
	C1861.468384,1128.587891 1874.382935,1126.895264 1886.765137,1124.055664 
	C1898.798828,1121.296021 1910.277588,1116.116699 1922.000000,1112.000000 
z"/>
<path fill="#36BA57" opacity="1.000000" stroke="none" 
	d="
M1922.000000,346.000061 
	C1922.000000,496.357422 1922.000000,646.714844 1921.679688,797.435791 
	C1920.518555,796.992065 1919.662720,796.199585 1918.838623,795.375488 
	C1857.938843,734.482727 1797.006348,673.622437 1736.223633,612.613159 
	C1732.172363,608.546753 1729.206787,603.383423 1725.860596,598.642578 
	C1725.170410,597.664978 1725.035156,596.295776 1724.603271,594.982544 
	C1734.507690,590.859985 1740.269287,583.998291 1739.642212,573.382141 
	C1739.015381,562.774414 1732.197388,556.817017 1722.399292,553.827698 
	C1725.268188,544.173706 1730.573242,536.660583 1737.260986,529.975159 
	C1797.461182,469.796204 1857.644653,409.600525 1917.852661,349.429413 
	C1919.115967,348.166962 1920.612427,347.137970 1922.000000,346.000061 
z"/>
<path fill="#E6E8EB" opacity="1.000000" stroke="none" 
	d="
M1211.000000,1502.000000 
	C1160.645752,1502.000000 1110.291504,1502.000000 1059.580322,1501.542969 
	C1059.241577,1482.454102 1059.261108,1463.822510 1059.277222,1445.190796 
	C1059.282349,1439.368042 1059.045166,1433.534058 1059.324219,1427.724731 
	C1060.053345,1412.546997 1053.359009,1401.417114 1040.476685,1393.289917 
	C1054.282959,1386.018433 1060.202637,1374.896118 1059.225830,1359.912109 
	C1058.934204,1355.439575 1059.123413,1350.935669 1059.527344,1346.325073 
	C1106.712769,1344.273315 1151.841675,1311.775635 1163.556885,1257.124390 
	C1177.260132,1254.812988 1183.189453,1246.086426 1183.089355,1232.534546 
	C1222.609619,1232.534546 1261.757935,1232.306641 1300.900879,1232.668579 
	C1313.181641,1232.781982 1323.392822,1242.944092 1324.004517,1255.387329 
	C1324.715210,1269.844849 1324.268799,1284.359253 1323.906494,1298.864502 
	C1305.690796,1299.314209 1289.004761,1303.750366 1273.153931,1311.954224 
	C1252.058838,1322.871826 1236.029785,1338.739502 1224.806396,1359.569336 
	C1215.467529,1376.901367 1210.961060,1395.339233 1211.134644,1415.116699 
	C1211.388916,1444.075195 1211.072998,1473.038696 1211.000000,1502.000000 
z"/>
<path fill="#3D8BFF" opacity="1.000000" stroke="none" 
	d="
M1436.000000,1502.000000 
	C1363.312378,1502.000000 1290.624878,1502.000000 1217.508667,1501.532837 
	C1217.086182,1471.406738 1217.044434,1441.747803 1217.141724,1412.089111 
	C1217.159546,1406.650879 1217.085815,1401.079224 1218.173828,1395.799927 
	C1223.590942,1369.515259 1235.558716,1347.143555 1256.689209,1329.725586 
	C1274.400757,1315.125610 1294.531616,1306.999512 1317.013184,1305.146606 
	C1351.329346,1302.318237 1381.112061,1313.235107 1405.232300,1337.908936 
	C1425.653564,1358.798828 1436.136719,1384.174194 1436.193115,1413.541138 
	C1436.249634,1443.027222 1436.073975,1472.513672 1436.000000,1502.000000 
z"/>
<path fill="#E7E9EC" opacity="1.000000" stroke="none" 
	d="
M1053.000000,1502.000000 
	C948.645203,1502.000000 844.290466,1502.000000 739.164429,1501.682495 
	C746.549316,1478.631348 752.853516,1455.405518 755.923645,1431.427002 
	C757.464539,1419.392822 758.089966,1407.241455 759.156067,1394.833008 
	C760.382141,1394.833008 761.353210,1394.831543 762.324219,1394.833252 
	C824.758118,1394.943970 887.192017,1395.055054 949.625916,1395.167358 
	C950.291626,1395.168579 950.957275,1395.195923 951.622986,1395.197021 
	C973.424194,1395.229858 995.225403,1395.261108 1017.431885,1395.445923 
	C1020.986755,1395.736694 1024.145874,1395.762939 1027.284180,1396.030518 
	C1040.642700,1397.169922 1052.812866,1409.426514 1052.953003,1422.785645 
	C1053.230225,1449.187622 1053.012939,1475.594971 1053.000000,1502.000000 
z"/>
<path fill="#131214" opacity="1.000000" stroke="none" 
	d="
M1436.428467,1502.000000 
	C1436.073975,1472.513672 1436.249634,1443.027222 1436.193115,1413.541138 
	C1436.136719,1384.174194 1425.653564,1358.798828 1405.232300,1337.908936 
	C1381.112061,1313.235107 1351.329346,1302.318237 1317.013184,1305.146606 
	C1294.531616,1306.999512 1274.400757,1315.125610 1256.689209,1329.725586 
	C1235.558716,1347.143555 1223.590942,1369.515259 1218.173828,1395.799927 
	C1217.085815,1401.079224 1217.159546,1406.650879 1217.141724,1412.089111 
	C1217.044434,1441.747803 1217.086182,1471.406738 1217.040039,1501.532837 
	C1215.285645,1502.000000 1213.571289,1502.000000 1211.428467,1502.000000 
	C1211.072998,1473.038696 1211.388916,1444.075195 1211.134644,1415.116699 
	C1210.961060,1395.339233 1215.467529,1376.901367 1224.806396,1359.569336 
	C1236.029785,1338.739502 1252.058838,1322.871826 1273.153931,1311.954224 
	C1289.004761,1303.750366 1305.690796,1299.314209 1324.377930,1298.888428 
	C1327.130127,1298.943115 1328.992798,1298.989502 1331.306152,1299.036621 
	C1334.175781,1299.369629 1336.586426,1299.902954 1339.014648,1300.001831 
	C1355.334595,1300.666870 1370.329468,1305.880371 1384.107544,1314.189453 
	C1421.384155,1336.670044 1440.840942,1369.832764 1442.069336,1413.434448 
	C1442.382324,1424.540771 1442.116333,1435.663330 1442.116333,1446.958618 
	C1443.761597,1447.067139 1444.895630,1447.207275 1446.029663,1447.207520 
	C1506.015991,1447.217896 1566.002319,1447.165161 1625.988525,1447.255981 
	C1639.254150,1447.276123 1651.808228,1435.513916 1651.841309,1421.371704 
	C1651.952271,1374.049438 1651.886353,1326.726807 1651.867920,1279.404297 
	C1651.867310,1278.090088 1652.044189,1276.541260 1651.445435,1275.500122 
	C1647.758789,1269.089111 1643.518188,1262.972290 1640.183472,1256.391846 
	C1638.117676,1252.315430 1633.506958,1248.871582 1635.777832,1242.367676 
	C1644.966064,1245.404907 1644.492188,1256.351807 1651.551514,1261.353760 
	C1651.551514,1216.867798 1651.551514,1173.010620 1651.551514,1128.886841 
	C1649.401733,1128.886841 1647.583008,1128.886963 1645.764160,1128.886963 
	C1584.444824,1128.886963 1523.124634,1129.083618 1461.806396,1128.823486 
	C1414.040771,1128.620850 1373.666260,1110.772095 1341.130127,1075.860474 
	C1318.525757,1051.605835 1304.887695,1022.802429 1299.785278,989.983948 
	C1299.539185,988.401184 1298.568115,985.852356 1297.540405,985.637329 
	C1287.686279,983.575378 1282.636719,977.021423 1280.010986,967.518555 
	C1280.008667,965.420532 1280.015869,963.742004 1280.023071,962.063477 
	C1282.709473,953.283081 1287.471680,946.661316 1297.168213,944.632812 
	C1298.280518,944.400146 1299.464600,942.030945 1299.712158,940.505676 
	C1307.148804,894.684082 1329.738892,858.167236 1367.373779,831.165161 
	C1395.363281,811.083496 1426.948975,801.223083 1461.316895,801.178345 
	C1587.736084,801.013855 1714.155884,801.244324 1840.574829,801.011963 
	C1868.818970,800.960083 1895.786133,805.690796 1921.632812,818.043152 
	C1922.000000,820.041687 1922.000000,822.083313 1922.000000,824.562500 
	C1911.142944,820.934937 1900.558960,815.679138 1889.358887,813.109314 
	C1875.670654,809.968811 1861.470581,807.510376 1847.483032,807.464966 
	C1719.161743,807.048645 1590.838379,807.133423 1462.515747,807.274231 
	C1425.461914,807.314941 1392.203003,818.884338 1363.140137,842.038330 
	C1331.424072,867.305969 1310.176636,905.118958 1305.523926,944.578430 
	C1315.483521,947.816833 1321.625244,954.444275 1321.555176,965.330627 
	C1321.487671,975.796448 1315.428223,982.133789 1305.542847,985.549805 
	C1307.362061,1002.017822 1311.834106,1017.644226 1319.156494,1032.286865 
	C1344.883667,1083.733276 1386.381836,1113.560181 1443.337891,1121.707397 
	C1448.920898,1122.506104 1454.626831,1122.735107 1460.276001,1122.737549 
	C1587.765381,1122.793213 1715.255127,1122.657104 1842.744141,1122.877441 
	C1870.423096,1122.925293 1896.615479,1117.647827 1921.635010,1105.002197 
	C1922.000000,1107.041626 1922.000000,1109.083374 1922.000000,1111.562500 
	C1910.277588,1116.116699 1898.798828,1121.296021 1886.765137,1124.055664 
	C1874.382935,1126.895264 1861.468384,1128.587891 1848.771362,1128.681641 
	C1787.115723,1129.137207 1725.454834,1128.887329 1663.795898,1128.887329 
	C1661.987915,1128.887329 1660.179932,1128.887451 1658.083496,1128.887451 
	C1658.083496,1173.356201 1658.083496,1217.513184 1658.083496,1261.670288 
	C1658.380005,1261.804321 1658.676392,1261.938477 1658.972900,1262.072510 
	C1662.063354,1256.667236 1665.354126,1251.363037 1668.155884,1245.812134 
	C1669.472046,1243.204834 1671.312378,1242.130127 1673.429077,1243.490601 
	C1674.283936,1244.039795 1674.288574,1247.334229 1673.521362,1248.752686 
	C1668.767822,1257.541382 1663.578491,1266.093872 1658.801880,1274.870728 
	C1657.861938,1276.597778 1657.825317,1278.961670 1657.822998,1281.032349 
	C1657.771851,1327.193237 1657.473755,1373.357178 1657.932129,1419.513550 
	C1658.123169,1438.744751 1642.972046,1453.426147 1624.409058,1453.283691 
	C1565.753174,1452.833374 1507.091553,1453.119751 1448.432251,1453.120972 
	C1446.470825,1453.121094 1444.509399,1453.120972 1442.160889,1453.120972 
	C1442.160889,1469.481689 1442.160889,1485.278198 1442.080444,1501.537354 
	C1440.285645,1502.000000 1438.571289,1502.000000 1436.428467,1502.000000 
M1286.736206,962.273193 
	C1285.565552,968.707031 1287.932739,973.713135 1293.208008,977.265930 
	C1298.052490,980.528564 1303.205811,980.479370 1308.248901,977.604980 
	C1313.969238,974.344666 1316.612549,967.845764 1315.001343,961.359619 
	C1313.496582,955.302307 1307.986816,950.841003 1301.642822,950.543152 
	C1294.766602,950.220276 1289.713013,953.982727 1286.736206,962.273193 
M1651.262085,1262.524048 
	C1651.374756,1262.036621 1651.487427,1261.549072 1651.599976,1261.061646 
	C1651.333618,1261.351440 1651.067139,1261.641113 1651.262085,1262.524048 
z"/>
<path fill="#E7E9EC" opacity="1.000000" stroke="none" 
	d="
M153.000015,1502.000000 
	C102.418053,1502.000000 51.836105,1502.000000 1.000000,1502.000000 
	C1.000000,1465.646118 1.000000,1429.291748 1.466022,1392.522217 
	C45.495667,1392.107056 89.059288,1392.107056 132.040298,1392.107056 
	C133.446609,1406.533081 134.559311,1419.782837 136.068619,1432.987305 
	C138.183212,1451.487183 142.674301,1469.469971 148.502289,1487.137451 
	C150.123276,1492.051392 151.507294,1497.043701 153.000015,1502.000000 
z"/>
<path fill="#131416" opacity="1.000000" stroke="none" 
	d="
M153.437515,1502.000000 
	C151.507294,1497.043701 150.123276,1492.051392 148.502289,1487.137451 
	C142.674301,1469.469971 138.183212,1451.487183 136.068619,1432.987305 
	C134.559311,1419.782837 133.446609,1406.533081 132.040298,1392.107056 
	C89.059288,1392.107056 45.495667,1392.107056 1.466022,1392.053467 
	C1.000000,1390.611084 1.000000,1389.222168 1.000000,1387.416626 
	C44.770344,1387.000000 88.540688,1387.000000 132.705032,1387.000000 
	C134.471634,1305.131226 162.348282,1233.721313 218.422714,1174.441406 
	C274.354065,1115.312866 343.709381,1083.081055 425.173096,1077.051880 
	C427.147705,1067.070435 433.001373,1060.970703 442.956696,1058.714722 
	C442.956696,1056.821045 442.956696,1054.998779 442.956696,1053.176392 
	C442.956696,972.518982 442.955444,891.861511 442.957550,811.204102 
	C442.958069,791.273499 456.178558,777.975647 476.077026,777.963501 
	C513.072571,777.940979 550.068176,777.959290 587.901978,778.010559 
	C590.504211,778.780334 592.268250,779.500122 594.032227,780.219910 
	C594.010498,780.813904 593.988770,781.407959 593.967041,782.001953 
	C591.998352,782.660339 590.029663,783.318665 587.589172,784.007141 
	C550.318604,784.039246 513.519836,784.028137 476.721069,784.048950 
	C459.598663,784.058655 449.044434,794.652893 449.044037,811.764526 
	C449.042236,892.355408 449.043243,972.946350 449.043274,1053.537231 
	C449.043274,1055.193726 449.043213,1056.850220 449.043213,1058.749390 
	C459.252350,1060.809448 464.612091,1067.532593 466.972687,1077.533936 
	C466.986603,1079.604858 466.989960,1081.261841 466.993347,1082.918823 
	C466.599304,1083.789307 466.141785,1084.637207 465.821075,1085.533936 
	C462.570435,1094.621826 455.055023,1100.091553 445.835449,1100.051025 
	C436.650299,1100.010498 429.220490,1094.471436 426.048706,1085.286499 
	C425.840210,1084.682739 425.710266,1084.051880 425.297241,1082.518188 
	C411.869049,1084.479248 398.373230,1085.822266 385.144775,1088.490845 
	C328.280853,1099.961304 278.904083,1125.999023 236.159576,1165.193237 
	C206.280258,1192.590820 183.445465,1225.022705 166.446243,1261.477905 
	C155.891663,1284.112427 148.720779,1308.028198 143.941742,1332.704712 
	C139.066833,1357.876343 137.860153,1383.247437 139.279068,1408.603760 
	C140.216736,1425.359985 143.433884,1442.116577 147.065552,1458.555908 
	C150.262115,1473.025391 155.451492,1487.054565 159.880402,1501.639160 
	C157.958328,1502.000000 155.916672,1502.000000 153.437515,1502.000000 
M460.111359,1082.568604 
	C460.221283,1081.084351 460.567017,1079.572998 460.400146,1078.120605 
	C459.691132,1071.948975 456.393890,1067.716919 450.491150,1065.645752 
	C445.058228,1063.739380 438.906311,1065.338257 435.127838,1069.790405 
	C431.125885,1074.505859 430.118927,1079.797119 432.868683,1085.498901 
	C435.580048,1091.121338 440.193787,1094.147095 446.387451,1093.887329 
	C453.217163,1093.600708 457.729431,1089.794800 460.111359,1082.568604 
z"/>
<path fill="#202124" opacity="1.000000" stroke="none" 
	d="
M467.412537,1083.004883 
	C466.989960,1081.261841 466.986603,1079.604858 467.383362,1077.635498 
	C476.728851,1078.253174 485.818237,1078.478271 494.587311,1080.270630 
	C509.469177,1083.312622 524.231079,1087.040771 538.896057,1091.023193 
	C566.074890,1098.403564 590.934204,1110.875244 614.673767,1125.899780 
	C633.753906,1137.975220 651.173645,1152.107788 667.055054,1167.982666 
	C677.482544,1178.405762 687.025940,1189.833862 696.037720,1201.526733 
	C713.285706,1223.906372 726.960144,1248.437622 737.091858,1274.850220 
	C744.969788,1295.387451 751.845703,1316.224609 754.123535,1338.279785 
	C755.417114,1350.805176 756.814697,1363.321045 757.939514,1375.861572 
	C758.317810,1380.078857 757.999390,1384.358643 757.999390,1389.000488 
	C775.533508,1389.000488 792.339722,1388.967529 809.145874,1389.006348 
	C877.108521,1389.163330 945.071228,1389.341675 1013.033875,1389.521606 
	C1014.361877,1389.525146 1015.689636,1389.644043 1017.021667,1390.174072 
	C1017.026062,1392.190063 1017.026306,1393.741333 1017.026611,1395.292480 
	C995.225403,1395.261108 973.424194,1395.229858 951.622986,1395.197021 
	C950.957275,1395.195923 950.291626,1395.168579 949.625916,1395.167358 
	C887.192017,1395.055054 824.758118,1394.943970 762.324219,1394.833252 
	C761.353210,1394.831543 760.382141,1394.833008 759.156067,1394.833008 
	C758.089966,1407.241455 757.464539,1419.392822 755.923645,1431.427002 
	C752.853516,1455.405518 746.549316,1478.631348 738.696533,1501.682495 
	C736.958313,1502.000000 734.916687,1502.000000 732.437500,1502.000000 
	C735.761719,1489.786621 740.153259,1477.723389 743.110107,1465.318115 
	C746.144958,1452.585083 747.824463,1439.526001 750.014099,1426.595581 
	C754.789551,1398.394775 753.456970,1370.225342 749.127625,1342.138428 
	C740.174805,1284.056519 716.396484,1232.671875 677.818604,1188.438599 
	C629.161072,1132.648071 568.015381,1098.693970 495.000732,1086.322876 
	C486.019714,1084.801025 476.891663,1084.146973 467.412537,1083.004883 
z"/>
<path fill="#060A07" opacity="1.000000" stroke="none" 
	d="
M1922.000000,345.555908 
	C1920.612427,347.137970 1919.115967,348.166962 1917.852661,349.429413 
	C1857.644653,409.600525 1797.461182,469.796204 1737.260986,529.975159 
	C1730.573242,536.660583 1725.268188,544.173706 1722.399292,553.827698 
	C1732.197388,556.817017 1739.015381,562.774414 1739.642212,573.382141 
	C1740.269287,583.998291 1734.507690,590.859985 1724.603271,594.982544 
	C1725.035156,596.295776 1725.170410,597.664978 1725.860596,598.642578 
	C1729.206787,603.383423 1732.172363,608.546753 1736.223633,612.613159 
	C1797.006348,673.622437 1857.938843,734.482727 1918.838623,795.375488 
	C1919.662720,796.199585 1920.518555,796.992065 1921.679688,797.899658 
	C1922.000000,800.370544 1922.000000,802.741150 1922.000000,805.555847 
	C1920.903442,805.374756 1919.601196,804.955383 1918.739624,804.094849 
	C1856.369873,741.792603 1794.022705,679.467773 1731.737305,617.081299 
	C1728.817139,614.156311 1726.047607,610.907288 1723.954834,607.367493 
	C1720.060425,600.780579 1716.829102,594.381958 1708.241821,591.949524 
	C1702.537964,590.333923 1699.867798,584.228455 1698.332031,577.569336 
	C1698.007568,575.183044 1697.946899,573.480164 1697.886230,571.777283 
	C1700.718872,563.349243 1705.268066,556.651794 1714.602661,554.352844 
	C1715.570923,554.114319 1716.319824,552.110046 1716.771484,550.788757 
	C1720.003662,541.330933 1725.303345,533.242310 1732.360840,526.189941 
	C1794.189697,464.406097 1855.985596,402.589203 1917.798828,340.789734 
	C1918.970825,339.618073 1920.235718,338.539520 1921.728638,337.708771 
	C1922.000000,340.370575 1922.000000,342.741119 1922.000000,345.555908 
M1718.583008,589.153931 
	C1728.132935,588.670593 1734.716187,581.615845 1733.523804,573.143127 
	C1732.439331,565.437073 1725.764282,559.651733 1718.411255,560.044739 
	C1711.039185,560.438782 1704.915771,566.518311 1704.501221,573.855347 
	C1704.057373,581.710144 1709.208740,587.662598 1718.583008,589.153931 
z"/>
<path fill="#27282B" opacity="1.000000" stroke="none" 
	d="
M1017.431885,1395.445923 
	C1017.026306,1393.741333 1017.026062,1392.190063 1017.410889,1390.018799 
	C1021.459595,1389.412598 1025.124146,1389.482788 1028.786743,1389.430664 
	C1041.430176,1389.250366 1052.636353,1378.654785 1053.078857,1366.175537 
	C1053.314819,1359.526245 1053.007935,1352.857666 1052.994629,1345.794434 
	C1054.210449,1344.615601 1055.521851,1343.084839 1056.505371,1343.272461 
	C1057.531982,1343.468262 1058.243164,1345.318970 1059.092285,1346.446167 
	C1059.123413,1350.935669 1058.934204,1355.439575 1059.225830,1359.912109 
	C1060.202637,1374.896118 1054.282959,1386.018433 1040.476685,1393.289917 
	C1053.359009,1401.417114 1060.053345,1412.546997 1059.324219,1427.724731 
	C1059.045166,1433.534058 1059.282349,1439.368042 1059.277222,1445.190796 
	C1059.261108,1463.822510 1059.241577,1482.454102 1059.111694,1501.542969 
	C1057.285645,1502.000000 1055.571289,1502.000000 1053.428467,1502.000000 
	C1053.012939,1475.594971 1053.230225,1449.187622 1052.953003,1422.785645 
	C1052.812866,1409.426514 1040.642700,1397.169922 1027.284180,1396.030518 
	C1024.145874,1395.762939 1020.986755,1395.736694 1017.431885,1395.445923 
z"/>
<path fill="#3E8BFF" opacity="1.000000" stroke="none" 
	d="
M892.901001,246.033661 
	C902.683838,221.066696 924.135071,205.975159 948.892822,206.348053 
	C976.110352,206.757996 999.362488,225.425842 1005.497742,251.942871 
	C1013.842041,288.007904 986.886108,325.411865 946.009460,323.592682 
	C906.054993,321.814484 881.139343,284.789856 892.901001,246.033661 
z"/>
<path fill="#3E8BFF" opacity="1.000000" stroke="none" 
	d="
M785.344788,295.999939 
	C785.344849,268.190369 785.445496,240.880035 785.243713,213.571960 
	C785.210632,209.093338 786.561523,207.968033 790.904602,208.039780 
	C806.386902,208.295517 821.876038,208.133301 837.362549,208.149292 
	C838.987000,208.150955 840.611389,208.285019 842.539062,208.371216 
	C842.539062,246.227158 842.539062,283.765991 842.539062,321.653229 
	C823.677856,321.653229 804.944336,321.653229 785.344482,321.653229 
	C785.344482,313.319611 785.344482,304.909790 785.344788,295.999939 
z"/>
<path fill="#232325" opacity="1.000000" stroke="none" 
	d="
M312.823914,205.813538 
	C333.466675,201.959702 351.380920,206.201828 366.603149,220.663452 
	C362.554993,224.573639 358.872284,228.130844 354.801392,232.063019 
	C344.954407,223.576874 333.087982,219.358078 319.434082,221.438232 
	C309.917358,222.888092 301.727081,227.087921 295.115875,234.114487 
	C281.597626,248.482040 279.319275,270.018890 289.444214,286.797638 
	C299.581085,303.596161 319.652405,311.236206 338.898041,305.621979 
	C353.635773,301.322754 364.027588,288.911743 363.957764,275.363617 
	C351.518829,275.363617 339.069763,275.363617 326.225525,275.363617 
	C326.225525,269.846130 326.225525,264.634491 326.225525,259.122314 
	C344.240173,259.122314 362.314209,259.122314 380.371155,259.122314 
	C385.962250,282.082245 374.110718,307.579926 353.072083,317.970215 
	C322.500366,333.068573 283.648468,318.912018 270.106964,287.740112 
	C255.170120,253.356247 274.887665,215.204620 312.823914,205.813538 
z"/>
<path fill="#232325" opacity="1.000000" stroke="none" 
	d="
M629.004883,260.027405 
	C629.004883,280.511200 629.066406,300.498962 628.975708,320.486084 
	C628.937317,328.943024 627.199524,337.056946 622.286621,344.124115 
	C613.524353,356.728607 600.653564,359.685944 586.568726,357.824005 
	C573.240173,356.062042 563.915039,348.240448 558.185364,335.491760 
	C563.105652,333.427399 567.783508,331.464752 572.857666,329.335846 
	C576.540405,335.852966 581.118225,341.548584 588.817566,342.419098 
	C592.935425,342.884674 597.552185,342.376495 601.419678,340.917999 
	C610.084656,337.650391 613.986938,328.083130 612.360657,316.241364 
	C593.241516,327.589935 576.223999,325.411194 563.783813,310.022156 
	C551.605957,294.957550 552.385010,272.812286 565.585693,258.802551 
	C578.886780,244.686249 595.896118,243.098907 612.518372,254.732925 
	C612.730774,252.848740 612.920227,251.168365 613.127380,249.330566 
	C618.255127,249.330566 623.224426,249.330566 629.004883,249.330566 
	C629.004883,252.716431 629.004883,256.123779 629.004883,260.027405 
M579.053528,302.449829 
	C582.515808,304.309540 585.782043,307.068512 589.474243,307.873840 
	C605.748840,311.423309 618.217285,294.664551 612.535889,277.068665 
	C609.792236,268.571106 603.990845,263.026215 594.930481,262.321503 
	C586.381226,261.656494 579.878906,265.796967 575.591431,273.166656 
	C570.159119,282.504150 571.269348,292.713135 579.053528,302.449829 
z"/>
<path fill="#25272B" opacity="1.000000" stroke="none" 
	d="
M1660.521729,231.019989 
	C1660.521606,261.115723 1660.521606,290.714844 1660.521606,320.575745 
	C1655.261475,320.575745 1650.506348,320.575745 1645.261963,320.575745 
	C1645.261963,317.923798 1645.261963,315.199554 1645.261963,312.473663 
	C1644.493164,312.473663 1644.058960,312.352600 1643.948120,312.490753 
	C1631.188354,328.400452 1605.637207,326.058594 1593.342041,309.252655 
	C1583.098877,295.251526 1582.822510,273.813873 1592.815796,259.546570 
	C1605.316895,241.698700 1626.785522,240.089874 1644.159424,255.439285 
	C1644.159424,249.472275 1644.159546,243.271713 1644.159546,237.071136 
	C1644.159546,230.760468 1644.159424,224.449799 1644.159424,217.810532 
	C1649.545288,217.810532 1654.637207,217.810532 1660.521729,217.810532 
	C1660.521729,222.021942 1660.521729,226.272629 1660.521729,231.019989 
M1633.667847,262.643433 
	C1621.286499,256.639557 1608.624023,261.124542 1603.664551,273.689850 
	C1600.167358,282.550232 1600.760986,291.395691 1606.326172,299.373566 
	C1614.786865,311.502228 1632.314941,311.224335 1640.606812,298.989746 
	C1648.527588,287.302673 1645.825928,271.890869 1633.667847,262.643433 
z"/>
<path fill="#27282B" opacity="1.000000" stroke="none" 
	d="
M1697.425049,571.792480 
	C1697.946899,573.480164 1698.007568,575.183044 1698.059326,577.310364 
	C1657.581055,577.774780 1617.111572,577.814819 1576.641968,577.854553 
	C1574.887329,577.856323 1573.132812,577.854797 1571.066895,578.829041 
	C1576.430420,581.925537 1581.924316,584.825378 1587.075684,588.241638 
	C1588.565308,589.229492 1590.302979,592.259216 1589.792480,593.384033 
	C1588.394897,596.462769 1585.952148,594.418335 1583.945068,593.369568 
	C1583.650024,593.215393 1583.360229,593.051086 1583.071289,592.885681 
	C1574.420532,587.935303 1566.285278,581.034607 1556.976562,578.575867 
	C1547.469727,576.064819 1536.810913,577.864319 1526.656494,577.862610 
	C1443.381836,577.848694 1360.107056,577.853943 1276.832397,577.855530 
	C1259.124512,577.855835 1249.018066,587.974426 1249.015381,605.689209 
	C1249.009644,644.495178 1249.001831,683.301147 1248.506592,722.568237 
	C1246.403809,723.031128 1244.789429,723.032959 1243.175171,723.034790 
	C1243.111572,696.225464 1243.038208,669.416077 1242.988403,642.606750 
	C1242.964233,629.615906 1242.975952,616.624939 1242.986328,603.634033 
	C1243.001221,585.237549 1256.348999,571.824707 1274.759033,571.820984 
	C1367.027832,571.802124 1459.296509,571.836670 1551.565186,571.707275 
	C1554.687866,571.702942 1558.092163,570.687927 1560.876099,569.217896 
	C1568.807495,565.030029 1576.417969,560.236755 1584.323486,555.996155 
	C1585.815308,555.195923 1589.120605,555.069580 1589.796753,555.973267 
	C1591.678223,558.487549 1589.454468,559.970642 1587.242065,561.217041 
	C1581.665039,564.358948 1576.169556,567.645874 1570.889526,571.807678 
	C1612.914307,571.807678 1654.939209,571.807678 1697.425049,571.792480 
z"/>
<path fill="#27292D" opacity="1.000000" stroke="none" 
	d="
M1492.845703,286.000061 
	C1492.845703,297.771454 1492.845703,309.042816 1492.845703,320.576111 
	C1487.591431,320.576111 1482.848755,320.576111 1477.792847,320.576111 
	C1477.579346,317.800232 1477.371948,315.105316 1477.144897,312.154297 
	C1461.339600,326.015320 1444.187134,326.970703 1430.484497,314.379639 
	C1417.944946,302.857178 1415.515381,287.989288 1419.440063,272.213959 
	C1422.952637,258.094635 1431.984131,248.486771 1446.681885,245.534866 
	C1458.396362,243.182114 1468.616821,246.345764 1476.821533,256.240692 
	C1476.821533,249.261520 1476.821411,243.017090 1476.821411,236.772675 
	C1476.821411,230.491714 1476.821533,224.210739 1476.821533,217.705048 
	C1482.262817,217.705048 1487.197632,217.705048 1492.845703,217.705048 
	C1492.845703,240.403168 1492.845703,262.951599 1492.845703,286.000061 
M1434.928833,291.247345 
	C1438.151611,301.438110 1444.894897,307.532776 1453.628296,308.148224 
	C1462.883179,308.800415 1470.769043,304.410675 1474.698486,296.061035 
	C1478.118652,288.793518 1478.339844,281.181824 1475.376099,273.777435 
	C1472.092407,265.573761 1465.984985,260.485016 1456.915649,259.954132 
	C1447.844849,259.423218 1441.295044,263.781921 1437.027954,271.563507 
	C1433.779175,277.487793 1433.179565,283.860138 1434.928833,291.247345 
z"/>
<path fill="#25272B" opacity="1.000000" stroke="none" 
	d="
M1114.173340,270.974213 
	C1114.173340,273.103210 1114.173340,274.750122 1114.173340,276.853302 
	C1100.357544,276.853302 1086.776123,276.853302 1072.861572,276.853302 
	C1072.861572,286.364655 1072.861572,295.428528 1072.861572,305.030762 
	C1087.991821,305.030762 1103.225952,305.030762 1118.728271,305.030762 
	C1118.728271,310.466888 1118.728271,315.373169 1118.728271,320.561218 
	C1097.906128,320.561218 1077.187500,320.561218 1056.231689,320.561218 
	C1056.231689,286.267822 1056.231689,252.172180 1056.231689,217.777100 
	C1076.998047,217.777100 1097.742432,217.777100 1118.746338,217.777100 
	C1118.746338,222.803864 1118.746338,227.710571 1118.746338,233.178497 
	C1103.442139,233.178497 1088.219727,233.178497 1072.766113,233.178497 
	C1072.766113,242.685287 1072.766113,251.638809 1072.766113,261.194580 
	C1086.296509,261.194580 1099.851685,261.194580 1114.173340,261.194580 
	C1114.173340,264.668732 1114.173340,267.580414 1114.173340,270.974213 
z"/>
<path fill="#25272B" opacity="1.000000" stroke="none" 
	d="
M1525.066406,299.795288 
	C1536.200439,312.562347 1551.187622,311.541840 1562.820557,297.247375 
	C1567.037842,299.228790 1571.348511,301.254120 1576.196777,303.532043 
	C1570.192627,313.670197 1562.092529,320.221283 1550.599243,322.498871 
	C1530.734741,326.435394 1512.435791,315.963287 1506.535767,297.120209 
	C1500.300537,277.207184 1509.154053,255.304459 1527.124512,247.878311 
	C1540.502441,242.350021 1553.705200,243.503525 1565.149536,252.919067 
	C1575.883545,261.750153 1578.187988,273.884613 1577.260010,287.525269 
	C1558.307007,287.525269 1539.894775,287.525269 1520.028076,287.525269 
	C1521.873413,292.083344 1523.371338,295.783478 1525.066406,299.795288 
M1541.541504,258.835602 
	C1530.918335,259.533630 1523.905762,265.344330 1522.262817,274.779480 
	C1535.114746,274.779480 1547.969238,274.779480 1560.885986,274.779480 
	C1559.037109,264.630859 1553.166748,259.665710 1541.541504,258.835602 
z"/>
<path fill="#25272B" opacity="1.000000" stroke="none" 
	d="
M1259.374268,302.518616 
	C1251.146484,281.932526 1256.661499,260.416046 1273.048828,250.396378 
	C1286.290771,242.299927 1300.188354,242.454239 1313.105591,250.862717 
	C1326.054443,259.291687 1329.066040,272.463043 1327.935669,287.525085 
	C1309.149536,287.525085 1290.740479,287.525085 1272.375000,287.525085 
	C1271.698608,296.121826 1276.752563,303.560028 1285.298584,307.059021 
	C1295.339966,311.170288 1304.360840,308.098663 1313.685913,297.260315 
	C1317.918091,299.284210 1322.207153,301.335388 1326.931152,303.594482 
	C1319.585083,315.748077 1309.562378,322.572845 1295.548706,323.079224 
	C1279.426880,323.661774 1267.204834,317.336792 1259.374268,302.518616 
M1311.279907,272.373505 
	C1308.047607,262.488129 1299.995483,257.640015 1289.114624,259.028015 
	C1280.912109,260.074402 1273.706055,267.296112 1273.273682,275.164185 
	C1285.270996,275.164185 1297.255493,275.201569 1309.238525,275.077332 
	C1310.011719,275.069336 1310.772095,273.815430 1311.279907,272.373505 
z"/>
<path fill="#232325" opacity="1.000000" stroke="none" 
	d="
M419.726318,323.361938 
	C399.585236,320.008179 386.238922,303.709015 387.023163,283.868286 
	C387.790039,264.466766 402.341187,248.803329 421.219269,247.058212 
	C441.907806,245.145767 459.237030,257.386139 463.533844,276.946838 
	C469.402954,303.665222 447.689331,326.937164 419.726318,323.361938 
M431.114990,307.845825 
	C442.950378,303.245148 448.454376,294.182800 446.965546,281.747742 
	C445.483429,269.368774 433.881409,260.270142 422.445709,262.518616 
	C410.330811,264.900635 402.339783,276.532562 404.370300,288.829742 
	C406.607025,302.375885 416.745239,309.854950 431.114990,307.845825 
z"/>
<path fill="#232325" opacity="1.000000" stroke="none" 
	d="
M472.047668,276.218750 
	C476.776550,259.380219 487.629700,249.493286 504.423645,247.300522 
	C520.625671,245.185028 533.985657,250.990585 542.832886,265.141205 
	C551.693115,279.312683 549.696411,299.399933 538.713623,311.142883 
	C526.400269,324.308533 507.675079,327.667511 491.633911,319.588165 
	C476.506470,311.969055 468.554108,295.370422 471.761017,278.114655 
	C471.852295,277.623688 471.910370,277.126587 472.047668,276.218750 
M493.935577,269.477173 
	C493.067413,270.692902 492.099030,271.849884 491.346588,273.133423 
	C483.355896,286.764191 490.968109,305.340271 505.629272,308.048828 
	C515.839050,309.935059 525.332092,304.719666 529.342163,295.021240 
	C533.593140,284.740326 530.442749,272.339905 522.044983,266.298920 
	C513.251465,259.973236 503.198608,260.940552 493.935577,269.477173 
z"/>
<path fill="#232325" opacity="1.000000" stroke="none" 
	d="
M681.798340,252.728302 
	C704.925354,239.603241 728.154663,249.487152 736.132812,275.974762 
	C719.393250,282.932159 702.594788,289.914001 685.809937,296.890228 
	C691.164490,311.588989 708.692932,312.077942 722.757629,298.028198 
	C726.868408,300.761169 731.008911,303.513947 735.117371,306.245392 
	C731.276062,316.300232 716.088684,324.470001 702.393066,323.978912 
	C685.804016,323.384155 671.953796,313.080048 667.164856,297.770355 
	C661.859619,280.810364 667.500488,263.177399 681.798340,252.728302 
M701.641235,261.995880 
	C689.662964,263.595520 682.506653,271.598633 682.498230,283.870178 
	C693.777649,279.195526 704.892334,274.589142 716.236755,269.887543 
	C713.090210,264.144592 708.299438,262.182617 701.641235,261.995880 
z"/>
<path fill="#040404" opacity="1.000000" stroke="none" 
	d="
M876.058105,777.281128 
	C878.572327,774.033081 880.778748,770.479858 883.649597,767.585571 
	C905.452209,745.604980 927.380493,723.748962 949.279114,701.863586 
	C957.936096,693.211975 965.067200,693.206909 973.671143,701.810303 
	C996.270142,724.407654 1018.883911,746.990356 1041.437012,769.633423 
	C1043.287598,771.491333 1044.722046,773.763611 1046.669434,776.431885 
	C1047.025269,778.737671 1047.061523,780.454773 1047.063477,782.545837 
	C1045.303833,786.051025 1044.176636,789.772339 1041.760132,792.221802 
	C1018.956177,815.337341 995.947998,838.251709 972.962952,861.188171 
	C965.626099,868.509521 957.623657,868.469666 950.311157,861.163696 
	C927.458008,838.330750 904.568359,815.533691 881.853394,792.564026 
	C879.383545,790.066406 877.958435,786.535767 876.052307,783.097290 
	C876.056641,780.900574 876.057373,779.090820 876.058105,777.281128 
M1038.559692,775.149353 
	C1015.342407,751.934692 992.131897,728.713196 968.902527,705.510620 
	C963.622681,700.236816 959.649719,700.218262 954.442139,705.421387 
	C931.451843,728.391418 908.462463,751.362549 885.508301,774.368652 
	C880.823425,779.064087 880.731812,783.059143 885.412781,787.760376 
	C908.577820,811.025696 931.790344,834.243958 955.057739,857.406982 
	C959.438660,861.768311 963.740051,861.621887 968.100708,857.268066 
	C991.334351,834.071106 1014.548218,810.854431 1037.745850,787.621460 
	C1041.914917,783.445923 1042.121094,781.026062 1038.559692,775.149353 
z"/>
<path fill="#27292D" opacity="1.000000" stroke="none" 
	d="
M1356.178467,299.000702 
	C1356.178589,306.449646 1356.178589,313.398804 1356.178589,320.591888 
	C1350.762329,320.591888 1345.835205,320.591888 1340.529907,320.591888 
	C1340.529907,296.336182 1340.529907,272.129883 1340.529907,247.538910 
	C1345.164673,247.538910 1349.903320,247.538910 1355.284302,247.538910 
	C1355.412842,250.044632 1355.552979,252.775604 1355.722412,256.076874 
	C1356.628906,255.406387 1357.271484,255.077133 1357.722900,254.575821 
	C1366.697632,244.608124 1377.864990,242.679703 1390.021484,246.658081 
	C1401.290771,250.346085 1405.872925,259.517609 1406.142700,270.636078 
	C1406.545288,287.223663 1406.247192,303.828247 1406.247192,320.597229 
	C1400.865112,320.597229 1395.787964,320.597229 1390.154175,320.597229 
	C1390.154175,310.755035 1390.154297,301.150787 1390.154297,291.546539 
	C1390.154297,286.219543 1390.107666,280.891998 1390.165771,275.565643 
	C1390.234497,269.263489 1388.401733,263.853485 1382.193237,261.328918 
	C1375.597168,258.646759 1369.140869,259.135742 1363.539062,264.103333 
	C1358.014160,269.002594 1356.357666,275.498627 1356.202515,282.520447 
	C1356.084839,287.844849 1356.178833,293.173920 1356.178467,299.000702 
z"/>
<path fill="#27292D" opacity="1.000000" stroke="none" 
	d="
M1143.625122,296.563293 
	C1145.236938,294.207825 1146.634521,292.142273 1148.033203,290.077576 
	C1149.429443,288.016418 1150.826782,285.956116 1152.526001,283.449585 
	C1148.424072,277.573212 1144.270142,271.620850 1140.114624,265.669708 
	C1136.035400,259.828033 1131.954468,253.987625 1127.190918,247.168411 
	C1133.621460,247.168411 1139.164062,246.980072 1144.675171,247.313339 
	C1145.907227,247.387833 1147.273438,249.120224 1148.160278,250.382629 
	C1152.914917,257.151062 1157.537476,264.012299 1162.409180,271.139374 
	C1167.137207,263.883392 1171.433228,256.957825 1176.135620,250.320358 
	C1177.237793,248.764709 1179.653320,247.461273 1181.572876,247.295670 
	C1186.483887,246.871964 1191.455811,247.154358 1197.431152,247.154358 
	C1192.785400,253.747971 1188.627808,259.663696 1184.454102,265.567993 
	C1180.328369,271.404297 1176.186279,277.229065 1171.796875,283.417633 
	C1180.218750,295.584595 1188.667847,307.790802 1197.700684,320.840454 
	C1191.305054,320.840454 1185.890015,321.011292 1180.500732,320.714905 
	C1179.225708,320.644775 1177.692749,319.243469 1176.865234,318.048248 
	C1171.973999,310.983154 1167.255737,303.798218 1162.099854,296.085907 
	C1157.206299,303.623596 1152.765015,310.788452 1147.925171,317.673157 
	C1146.830322,319.230499 1144.415161,320.529388 1142.494629,320.704163 
	C1137.755249,321.135559 1132.950439,320.845612 1126.912720,320.845612 
	C1132.801514,312.282166 1138.106323,304.567841 1143.625122,296.563293 
z"/>
<path fill="#25272B" opacity="1.000000" stroke="none" 
	d="
M1250.004883,314.879089 
	C1250.004883,317.165588 1250.004883,318.985352 1250.004883,320.676697 
	C1232.901489,328.690308 1216.394043,318.918732 1215.905640,300.555695 
	C1215.609253,289.411072 1215.835083,278.252502 1215.826782,267.100220 
	C1215.825562,265.467987 1215.826660,263.835754 1215.826660,261.705139 
	C1211.503052,261.705139 1207.586670,261.705139 1203.339600,261.705139 
	C1203.339600,256.686768 1203.339600,252.162628 1203.339600,247.212311 
	C1207.382202,247.212311 1211.313843,247.212311 1215.707275,247.212311 
	C1215.707275,240.216263 1215.707275,233.626801 1215.707275,226.760742 
	C1221.265747,226.760742 1226.354614,226.760742 1231.885132,226.760742 
	C1231.885132,233.432053 1231.885132,240.004288 1231.885132,246.992432 
	C1237.884399,246.992432 1243.467896,246.992432 1249.441895,246.992432 
	C1249.441895,251.803345 1249.441895,256.205017 1249.441895,261.218445 
	C1243.953003,261.218445 1238.240112,261.218445 1232.138672,261.218445 
	C1232.138672,274.591919 1231.794922,287.379059 1232.283081,300.134399 
	C1232.528687,306.548065 1238.564575,309.549652 1245.343140,307.552063 
	C1246.744751,307.139069 1248.081665,306.506744 1250.004883,305.759155 
	C1250.004883,308.899475 1250.004883,311.655914 1250.004883,314.879089 
z"/>
<path fill="#232325" opacity="1.000000" stroke="none" 
	d="
M657.519409,281.000275 
	C657.519287,294.619781 657.519287,307.739288 657.519287,321.186890 
	C651.697388,321.186890 646.293945,321.186890 640.522583,321.186890 
	C640.522583,283.803253 640.522583,246.459702 640.522583,208.797729 
	C645.915039,208.797729 651.337952,208.797729 657.519470,208.797729 
	C657.519470,232.706421 657.519470,256.603333 657.519409,281.000275 
z"/>
<path fill="#27292D" opacity="1.000000" stroke="none" 
	d="
M864.492554,320.649597 
	C863.428223,325.235291 862.492676,329.422821 861.520081,333.775879 
	C857.672363,333.775879 854.067627,333.775879 850.214539,333.775879 
	C860.641663,287.921204 871.023376,242.266357 881.448914,196.418808 
	C885.149780,196.418808 888.588074,196.418808 892.741211,196.418808 
	C883.343323,237.804642 873.982300,279.028015 864.492554,320.649597 
z"/>
<path fill="#27292D" opacity="1.000000" stroke="none" 
	d="
M1047.097900,782.171936 
	C1047.061523,780.454773 1047.025269,778.737671 1046.976929,776.592285 
	C1062.934326,775.927002 1078.903076,775.589844 1094.873413,775.473022 
	C1131.658569,775.203796 1168.444702,775.041626 1205.618042,775.347656 
	C1206.018799,777.440063 1206.031738,779.020935 1205.584839,780.712280 
	C1168.894775,781.064392 1132.664429,781.276306 1096.434692,781.561035 
	C1079.988525,781.690247 1063.543457,781.963867 1047.097900,782.171936 
z"/>
<path fill="#040404" opacity="1.000000" stroke="none" 
	d="
M604.022156,778.103577 
	C653.363281,778.070251 702.704346,778.036926 752.539429,778.484497 
	C753.024048,780.633362 753.014771,782.301392 752.547119,784.048828 
	C747.046753,784.370789 742.004761,784.613281 736.642700,784.606628 
	C732.238464,784.227966 728.154236,784.098511 723.597351,783.987061 
	C683.423706,783.968628 643.722839,783.932251 603.982605,783.483521 
	C603.969604,781.415344 603.995911,779.759460 604.022156,778.103577 
z"/>
<path fill="#27292D" opacity="1.000000" stroke="none" 
	d="
M753.005432,783.969360 
	C753.014771,782.301392 753.024048,780.633362 753.002197,778.549927 
	C763.772888,778.025024 774.574524,777.893005 785.376648,777.810730 
	C815.291077,777.583008 845.205688,777.375916 875.589172,777.220947 
	C876.057373,779.090820 876.056641,780.900574 875.594482,782.972778 
	C857.521240,783.420532 839.909729,783.674927 822.297424,783.773682 
	C799.200500,783.903137 776.102783,783.909851 753.005432,783.969360 
z"/>
<path fill="#040404" opacity="1.000000" stroke="none" 
	d="
M1206.044678,780.601746 
	C1206.031738,779.020935 1206.018799,777.440063 1205.995972,775.463501 
	C1209.778076,774.835999 1213.615479,774.898621 1217.353760,774.320862 
	C1232.232910,772.021423 1242.457764,760.436157 1242.941162,745.324097 
	C1243.168701,738.208130 1243.008789,731.079773 1243.099854,723.495911 
	C1244.789429,723.032959 1246.403809,723.031128 1248.421387,723.032288 
	C1248.865723,730.803955 1249.187378,738.583740 1248.883789,746.338989 
	C1248.382080,759.154663 1242.368652,768.943298 1230.878662,775.904602 
	C1227.794189,777.639893 1225.402466,779.289124 1222.542480,780.959961 
	C1216.731201,780.854980 1211.387939,780.728333 1206.044678,780.601746 
z"/>
<path fill="#27282B" opacity="1.000000" stroke="none" 
	d="
M603.654297,778.022705 
	C603.995911,779.759460 603.969604,781.415344 603.619080,783.564331 
	C601.785461,784.667236 600.184326,785.115784 598.782043,785.913818 
	C591.274048,790.186768 583.867432,794.640686 576.309265,798.821411 
	C573.965088,800.118164 570.912659,803.478516 568.683350,799.537109 
	C566.621521,795.891846 570.890991,795.140259 573.047363,793.691772 
	C574.836365,792.490112 576.803284,791.555359 578.608398,790.375305 
	C581.792542,788.293579 584.913574,786.115051 588.060974,783.976990 
	C590.029663,783.318665 591.998352,782.660339 593.967041,782.001953 
	C593.988770,781.407959 594.010498,780.813904 594.032227,780.219910 
	C592.268250,779.500122 590.504211,778.780334 588.370300,778.030273 
	C582.520752,774.547424 577.004456,771.150940 571.588257,767.601501 
	C570.285400,766.747742 569.108032,765.514038 568.296997,764.194458 
	C567.988708,763.692810 568.756897,761.766846 569.236511,761.685791 
	C570.711853,761.436462 572.555237,761.274719 573.776367,761.948059 
	C582.030884,766.500061 590.142700,771.310059 598.349854,775.949402 
	C599.881348,776.815186 601.635254,777.287781 603.654297,778.022705 
z"/>
<path fill="#232325" opacity="1.000000" stroke="none" 
	d="
M1223.010620,780.938354 
	C1225.402466,779.289124 1227.794189,777.639893 1230.538574,775.972168 
	C1231.373169,776.770142 1231.652588,777.936462 1232.367920,778.350952 
	C1244.015503,785.101501 1249.056519,795.347229 1249.033691,808.593750 
	C1248.957397,852.700867 1249.001831,896.808228 1249.006714,940.915466 
	C1249.008057,954.055420 1256.944946,961.976379 1270.100952,961.994812 
	C1273.096924,961.998962 1276.092896,961.999939 1279.555908,962.032959 
	C1280.015869,963.742004 1280.008667,965.420532 1279.542725,967.548340 
	C1275.919556,967.999939 1272.755371,968.007751 1269.591187,968.003784 
	C1253.621704,967.983826 1242.998291,957.396301 1242.996826,941.485596 
	C1242.993164,898.352600 1242.727417,855.217041 1243.139160,812.087952 
	C1243.285522,796.752808 1237.869751,786.061523 1223.010620,780.938354 
z"/>
<path fill="#040404" opacity="1.000000" stroke="none" 
	d="
M1059.527222,1346.325073 
	C1058.243164,1345.318970 1057.531982,1343.468262 1056.505371,1343.272461 
	C1055.521851,1343.084839 1054.210449,1344.615601 1052.536621,1345.785034 
	C1001.176086,1343.682007 960.435364,1310.901123 948.459473,1262.604004 
	C947.531433,1258.861328 946.424011,1256.838989 942.275574,1255.873779 
	C933.286255,1253.782593 927.406799,1245.143188 927.649902,1235.750122 
	C927.892334,1226.379150 934.209595,1218.122070 943.302612,1216.321289 
	C946.620728,1215.664307 947.371521,1214.160889 948.091309,1211.322388 
	C957.225220,1175.300537 978.765808,1149.711426 1012.848633,1134.741943 
	C1025.347534,1129.252441 1038.589600,1127.180908 1052.450928,1126.039062 
	C1054.748413,1126.094849 1056.637451,1126.130981 1058.961914,1126.216064 
	C1101.169312,1129.103394 1132.579834,1148.601685 1152.594604,1185.397217 
	C1157.674316,1194.735474 1160.522095,1205.287720 1163.859009,1213.898438 
	C1169.036011,1217.210938 1173.980713,1219.582031 1177.837891,1223.134033 
	C1180.236450,1225.342773 1182.130005,1226.553345 1185.378662,1226.545044 
	C1222.850098,1226.448853 1260.321899,1226.460327 1297.793457,1226.526611 
	C1300.926514,1226.532104 1304.164062,1226.741211 1307.172974,1227.536987 
	C1321.625488,1231.358765 1330.322388,1243.426636 1330.503784,1259.600952 
	C1330.651245,1272.745605 1330.740356,1285.890869 1330.855347,1299.035889 
	C1328.992798,1298.989502 1327.130127,1298.943115 1324.796143,1298.872925 
	C1324.268799,1284.359253 1324.715210,1269.844849 1324.004517,1255.387329 
	C1323.392822,1242.944092 1313.181641,1232.781982 1300.900879,1232.668579 
	C1261.757935,1232.306641 1222.609619,1232.534546 1183.089355,1232.534546 
	C1183.189453,1246.086426 1177.260132,1254.812988 1163.556885,1257.124390 
	C1151.841675,1311.775635 1106.712769,1344.273315 1059.527222,1346.325073 
M978.473145,1306.003174 
	C978.825867,1306.357056 979.182495,1306.707153 979.530762,1307.065430 
	C1006.430542,1334.728271 1039.047974,1345.139282 1076.726074,1337.686646 
	C1101.146851,1332.856445 1121.346069,1320.051636 1136.805542,1300.315918 
	C1146.890869,1287.441040 1153.647827,1272.982544 1156.727417,1256.914795 
	C1135.740479,1246.008301 1135.744507,1229.537598 1156.675171,1215.157104 
	C1153.288574,1197.316772 1145.428467,1181.429810 1133.339966,1168.031006 
	C1107.219727,1139.079590 1074.078857,1127.196777 1036.098999,1134.540405 
	C993.736938,1142.731323 966.408997,1169.040894 954.726440,1211.003906 
	C953.823608,1214.246582 954.076904,1215.857178 957.491699,1217.583008 
	C965.218811,1221.488159 969.344604,1228.036743 968.988037,1236.988525 
	C968.650757,1245.453247 964.232666,1251.330078 956.959961,1255.041870 
	C954.329285,1256.384399 953.609619,1257.853271 954.294373,1260.525146 
	C958.619141,1277.401001 966.247681,1292.526245 978.473145,1306.003174 
M1168.087402,1222.966064 
	C1158.962891,1219.927002 1150.437256,1223.908203 1148.107056,1232.296143 
	C1145.856201,1240.398071 1150.865234,1248.626465 1159.235229,1250.576294 
	C1165.685547,1252.078857 1172.815552,1248.355713 1175.594849,1242.033569 
	C1178.638184,1235.110352 1176.163330,1228.253540 1168.087402,1222.966064 
M934.300232,1240.620483 
	C936.693115,1247.079468 941.402222,1250.767456 948.202332,1250.859619 
	C954.347900,1250.942871 958.996582,1247.751465 961.558960,1242.081177 
	C964.063477,1236.538940 963.031189,1231.330444 959.201111,1226.736084 
	C955.142151,1221.867065 948.128845,1220.366089 942.415344,1222.950073 
	C935.882629,1225.904419 933.190063,1231.348511 934.300232,1240.620483 
z"/>
<path fill="#E7E9EC" opacity="1.000000" stroke="none" 
	d="
M1331.306152,1299.036621 
	C1330.740356,1285.890869 1330.651245,1272.745605 1330.503784,1259.600952 
	C1330.322388,1243.426636 1321.625488,1231.358765 1307.172974,1227.536987 
	C1304.164062,1226.741211 1300.926514,1226.532104 1297.793457,1226.526611 
	C1260.321899,1226.460327 1222.850098,1226.448853 1185.378662,1226.545044 
	C1182.130005,1226.553345 1180.236450,1225.342773 1177.837891,1223.134033 
	C1173.980713,1219.582031 1169.036011,1217.210938 1163.859009,1213.898438 
	C1160.522095,1205.287720 1157.674316,1194.735474 1152.594604,1185.397217 
	C1132.579834,1148.601685 1101.169312,1129.103394 1058.819580,1125.754028 
	C1058.226807,1107.256348 1058.238281,1089.269287 1058.189453,1071.282593 
	C1058.142456,1054.027222 1049.083740,1043.149292 1032.055054,1040.095337 
	C1028.147949,1039.394653 1024.124146,1039.012695 1020.156616,1039.031372 
	C979.034607,1039.224243 937.913330,1039.574463 896.791382,1039.791748 
	C846.674194,1040.056519 796.556763,1040.264526 746.439148,1040.436890 
	C728.659485,1040.497925 718.198792,1029.973877 718.197937,1012.236755 
	C718.194885,946.284241 718.338562,880.331116 718.085022,814.379578 
	C718.029846,800.038635 723.406860,790.056519 736.962708,784.855835 
	C742.004761,784.613281 747.046753,784.370789 752.547119,784.048828 
	C776.102783,783.909851 799.200500,783.903137 822.297424,783.773682 
	C839.909729,783.674927 857.521240,783.420532 875.590881,783.359802 
	C877.958435,786.535767 879.383545,790.066406 881.853394,792.564026 
	C904.568359,815.533691 927.458008,838.330750 950.311157,861.163696 
	C957.623657,868.469666 965.626099,868.509521 972.962952,861.188171 
	C995.947998,838.251709 1018.956177,815.337341 1041.760132,792.221802 
	C1044.176636,789.772339 1045.303833,786.051025 1047.063477,782.545837 
	C1063.543457,781.963867 1079.988525,781.690247 1096.434692,781.561035 
	C1132.664429,781.276306 1168.894775,781.064392 1205.584717,780.712280 
	C1211.387939,780.728333 1216.731201,780.854980 1222.542480,780.959961 
	C1237.869751,786.061523 1243.285522,796.752808 1243.139160,812.087952 
	C1242.727417,855.217041 1242.993164,898.352600 1242.996826,941.485596 
	C1242.998291,957.396301 1253.621704,967.983826 1269.591187,968.003784 
	C1272.755371,968.007751 1275.919556,967.999939 1279.552124,967.967773 
	C1282.636719,977.021423 1287.686279,983.575378 1297.540405,985.637329 
	C1298.568115,985.852356 1299.539185,988.401184 1299.785278,989.983948 
	C1304.887695,1022.802429 1318.525757,1051.605835 1341.130127,1075.860474 
	C1373.666260,1110.772095 1414.040771,1128.620850 1461.806396,1128.823486 
	C1523.124634,1129.083618 1584.444824,1128.886963 1645.764160,1128.886963 
	C1647.583008,1128.886963 1649.401733,1128.886841 1651.551514,1128.886841 
	C1651.551514,1173.010620 1651.551514,1216.867798 1651.551514,1261.353760 
	C1644.492188,1256.351807 1644.966064,1245.404907 1635.777832,1242.367676 
	C1633.506958,1248.871582 1638.117676,1252.315430 1640.183472,1256.391846 
	C1643.518188,1262.972290 1647.758789,1269.089111 1651.445435,1275.500122 
	C1652.044189,1276.541260 1651.867310,1278.090088 1651.867920,1279.404297 
	C1651.886353,1326.726807 1651.952271,1374.049438 1651.841309,1421.371704 
	C1651.808228,1435.513916 1639.254150,1447.276123 1625.988525,1447.255981 
	C1566.002319,1447.165161 1506.015991,1447.217896 1446.029663,1447.207520 
	C1444.895630,1447.207275 1443.761597,1447.067139 1442.116333,1446.958618 
	C1442.116333,1435.663330 1442.382324,1424.540771 1442.069336,1413.434448 
	C1440.840942,1369.832764 1421.384155,1336.670044 1384.107544,1314.189453 
	C1370.329468,1305.880371 1355.334595,1300.666870 1339.014648,1300.001831 
	C1336.586426,1299.902954 1334.175781,1299.369629 1331.306152,1299.036621 
z"/>
<path fill="#FAB700" opacity="1.000000" stroke="none" 
	d="
M1286.823975,961.891968 
	C1289.713013,953.982727 1294.766602,950.220276 1301.642822,950.543152 
	C1307.986816,950.841003 1313.496582,955.302307 1315.001343,961.359619 
	C1316.612549,967.845764 1313.969238,974.344666 1308.248901,977.604980 
	C1303.205811,980.479370 1298.052490,980.528564 1293.208008,977.265930 
	C1287.932739,973.713135 1285.565552,968.707031 1286.823975,961.891968 
z"/>
<path fill="#B4B6B9" opacity="1.000000" stroke="none" 
	d="
M1651.031372,1262.227417 
	C1651.067139,1261.641113 1651.333618,1261.351440 1651.600098,1261.061646 
	C1651.487427,1261.549072 1651.374756,1262.036621 1651.031372,1262.227417 
z"/>
<path fill="#E7E9EC" opacity="1.000000" stroke="none" 
	d="
M1052.042603,1126.019409 
	C1038.589600,1127.180908 1025.347534,1129.252441 1012.848633,1134.741943 
	C978.765808,1149.711426 957.225220,1175.300537 948.091309,1211.322388 
	C947.371521,1214.160889 946.620728,1215.664307 943.302612,1216.321289 
	C934.209595,1218.122070 927.892334,1226.379150 927.649902,1235.750122 
	C927.406799,1245.143188 933.286255,1253.782593 942.275574,1255.873779 
	C946.424011,1256.838989 947.531433,1258.861328 948.459473,1262.604004 
	C960.435364,1310.901123 1001.176086,1343.682007 1052.488037,1346.188477 
	C1053.007935,1352.857666 1053.314819,1359.526245 1053.078857,1366.175537 
	C1052.636353,1378.654785 1041.430176,1389.250366 1028.786743,1389.430664 
	C1025.124146,1389.482788 1021.459595,1389.412598 1017.406738,1389.553955 
	C1015.689636,1389.644043 1014.361877,1389.525146 1013.033875,1389.521606 
	C945.071228,1389.341675 877.108521,1389.163330 809.145874,1389.006348 
	C792.339722,1388.967529 775.533508,1389.000488 757.999390,1389.000488 
	C757.999390,1384.358643 758.317810,1380.078857 757.939514,1375.861572 
	C756.814697,1363.321045 755.417114,1350.805176 754.123535,1338.279785 
	C751.845703,1316.224609 744.969788,1295.387451 737.091858,1274.850220 
	C726.960144,1248.437622 713.285706,1223.906372 696.037720,1201.526733 
	C687.025940,1189.833862 677.482544,1178.405762 667.055054,1167.982666 
	C651.173645,1152.107788 633.753906,1137.975220 614.673767,1125.899780 
	C590.934204,1110.875244 566.074890,1098.403564 538.896057,1091.023193 
	C524.231079,1087.040771 509.469177,1083.312622 494.587311,1080.270630 
	C485.818237,1078.478271 476.728851,1078.253174 467.372833,1077.221558 
	C464.612091,1067.532593 459.252350,1060.809448 449.043213,1058.749390 
	C449.043213,1056.850220 449.043274,1055.193726 449.043274,1053.537231 
	C449.043243,972.946350 449.042236,892.355408 449.044037,811.764526 
	C449.044434,794.652893 459.598663,784.058655 476.721069,784.048950 
	C513.519836,784.028137 550.318604,784.039246 587.589172,784.007141 
	C584.913574,786.115051 581.792542,788.293579 578.608398,790.375305 
	C576.803284,791.555359 574.836365,792.490112 573.047363,793.691772 
	C570.890991,795.140259 566.621521,795.891846 568.683350,799.537109 
	C570.912659,803.478516 573.965088,800.118164 576.309265,798.821411 
	C583.867432,794.640686 591.274048,790.186768 598.782043,785.913818 
	C600.184326,785.115784 601.785461,784.667236 603.658386,783.976624 
	C643.722839,783.932251 683.423706,783.968628 723.717407,784.335266 
	C715.680298,791.902344 711.981262,801.188782 712.086182,812.397339 
	C712.279480,833.056091 712.141418,853.717834 712.141418,874.378357 
	C712.141418,920.864502 712.125732,967.350708 712.149109,1013.836853 
	C712.158691,1032.758057 725.458252,1046.262329 744.419617,1046.513550 
	C751.406067,1046.606079 758.397217,1046.236816 765.386780,1046.208862 
	C824.859558,1045.971436 884.332581,1045.789307 943.805298,1045.532349 
	C961.624084,1045.455444 979.442444,1045.039673 997.260376,1045.075928 
	C1008.397461,1045.098511 1019.635254,1044.850830 1030.644653,1046.209229 
	C1045.080322,1047.990234 1052.101074,1056.988770 1052.125977,1071.539551 
	C1052.157104,1089.699341 1052.075562,1107.859497 1052.042603,1126.019409 
z"/>
<path fill="#FAB700" opacity="1.000000" stroke="none" 
	d="
M460.034058,1082.945435 
	C457.729431,1089.794800 453.217163,1093.600708 446.387451,1093.887329 
	C440.193787,1094.147095 435.580048,1091.121338 432.868683,1085.498901 
	C430.118927,1079.797119 431.125885,1074.505859 435.127838,1069.790405 
	C438.906311,1065.338257 445.058228,1063.739380 450.491150,1065.645752 
	C456.393890,1067.716919 459.691132,1071.948975 460.400146,1078.120605 
	C460.567017,1079.572998 460.221283,1081.084351 460.034058,1082.945435 
z"/>
<path fill="#FAB700" opacity="1.000000" stroke="none" 
	d="
M1718.157104,589.148315 
	C1709.208740,587.662598 1704.057373,581.710144 1704.501221,573.855347 
	C1704.915771,566.518311 1711.039185,560.438782 1718.411255,560.044739 
	C1725.764282,559.651733 1732.439331,565.437073 1733.523804,573.143127 
	C1734.716187,581.615845 1728.132935,588.670593 1718.157104,589.148315 
z"/>
<path fill="#E4E6E9" opacity="1.000000" stroke="none" 
	d="
M578.796265,302.192902 
	C571.269348,292.713135 570.159119,282.504150 575.591431,273.166656 
	C579.878906,265.796967 586.381226,261.656494 594.930481,262.321503 
	C603.990845,263.026215 609.792236,268.571106 612.535889,277.068665 
	C618.217285,294.664551 605.748840,311.423309 589.474243,307.873840 
	C585.782043,307.068512 582.515808,304.309540 578.796265,302.192902 
z"/>
<path fill="#E4E6E9" opacity="1.000000" stroke="none" 
	d="
M1633.985962,262.839172 
	C1645.825928,271.890869 1648.527588,287.302673 1640.606812,298.989746 
	C1632.314941,311.224335 1614.786865,311.502228 1606.326172,299.373566 
	C1600.760986,291.395691 1600.167358,282.550232 1603.664551,273.689850 
	C1608.624023,261.124542 1621.286499,256.639557 1633.985962,262.839172 
z"/>
<path fill="#E4E6E9" opacity="1.000000" stroke="none" 
	d="
M1434.842651,290.838959 
	C1433.179565,283.860138 1433.779175,277.487793 1437.027954,271.563507 
	C1441.295044,263.781921 1447.844849,259.423218 1456.915649,259.954132 
	C1465.984985,260.485016 1472.092407,265.573761 1475.376099,273.777435 
	C1478.339844,281.181824 1478.118652,288.793518 1474.698486,296.061035 
	C1470.769043,304.410675 1462.883179,308.800415 1453.628296,308.148224 
	C1444.894897,307.532776 1438.151611,301.438110 1434.842651,290.838959 
z"/>
<path fill="#E4E6E9" opacity="1.000000" stroke="none" 
	d="
M1541.987061,258.839539 
	C1553.166748,259.665710 1559.037109,264.630859 1560.885986,274.779480 
	C1547.969238,274.779480 1535.114746,274.779480 1522.262817,274.779480 
	C1523.905762,265.344330 1530.918335,259.533630 1541.987061,258.839539 
z"/>
<path fill="#E4E6E9" opacity="1.000000" stroke="none" 
	d="
M1311.409180,272.757294 
	C1310.772095,273.815430 1310.011719,275.069336 1309.238525,275.077332 
	C1297.255493,275.201569 1285.270996,275.164185 1273.273682,275.164185 
	C1273.706055,267.296112 1280.912109,260.074402 1289.114624,259.028015 
	C1299.995483,257.640015 1308.047607,262.488129 1311.409180,272.757294 
z"/>
<path fill="#E4E6E9" opacity="1.000000" stroke="none" 
	d="
M430.726074,307.915863 
	C416.745239,309.854950 406.607025,302.375885 404.370300,288.829742 
	C402.339783,276.532562 410.330811,264.900635 422.445709,262.518616 
	C433.881409,260.270142 445.483429,269.368774 446.965546,281.747742 
	C448.454376,294.182800 442.950378,303.245148 430.726074,307.915863 
z"/>
<path fill="#E4E6E9" opacity="1.000000" stroke="none" 
	d="
M494.185638,269.216370 
	C503.198608,260.940552 513.251465,259.973236 522.044983,266.298920 
	C530.442749,272.339905 533.593140,284.740326 529.342163,295.021240 
	C525.332092,304.719666 515.839050,309.935059 505.629272,308.048828 
	C490.968109,305.340271 483.355896,286.764191 491.346588,273.133423 
	C492.099030,271.849884 493.067413,270.692902 494.185638,269.216370 
z"/>
<path fill="#E3E5E8" opacity="1.000000" stroke="none" 
	d="
M702.067871,261.995575 
	C708.299438,262.182617 713.090210,264.144592 716.236755,269.887543 
	C704.892334,274.589142 693.777649,279.195526 682.498230,283.870178 
	C682.506653,271.598633 689.662964,263.595520 702.067871,261.995575 
z"/>
<path fill="#E3E5E8" opacity="1.000000" stroke="none" 
	d="
M1038.800293,775.436584 
	C1042.121094,781.026062 1041.914917,783.445923 1037.745850,787.621460 
	C1014.548218,810.854431 991.334351,834.071106 968.100708,857.268066 
	C963.740051,861.621887 959.438660,861.768311 955.057739,857.406982 
	C931.790344,834.243958 908.577820,811.025696 885.412781,787.760376 
	C880.731812,783.059143 880.823425,779.064087 885.508301,774.368652 
	C908.462463,751.362549 931.451843,728.391418 954.442139,705.421387 
	C959.649719,700.218262 963.622681,700.236816 968.902527,705.510620 
	C992.131897,728.713196 1015.342407,751.934692 1038.800293,775.436584 
z"/>
<path fill="#27292D" opacity="1.000000" stroke="none" 
	d="
M1052.450928,1126.039062 
	C1052.075562,1107.859497 1052.157104,1089.699341 1052.125977,1071.539551 
	C1052.101074,1056.988770 1045.080322,1047.990234 1030.644653,1046.209229 
	C1019.635254,1044.850830 1008.397461,1045.098511 997.260376,1045.075928 
	C979.442444,1045.039673 961.624084,1045.455444 943.805298,1045.532349 
	C884.332581,1045.789307 824.859558,1045.971436 765.386780,1046.208862 
	C758.397217,1046.236816 751.406067,1046.606079 744.419617,1046.513550 
	C725.458252,1046.262329 712.158691,1032.758057 712.149109,1013.836853 
	C712.125732,967.350708 712.141418,920.864502 712.141418,874.378357 
	C712.141418,853.717834 712.279480,833.056091 712.086182,812.397339 
	C711.981262,801.188782 715.680298,791.902344 724.190125,784.317322 
	C728.154236,784.098511 732.238464,784.227966 736.642700,784.606628 
	C723.406860,790.056519 718.029846,800.038635 718.085022,814.379578 
	C718.338562,880.331116 718.194885,946.284241 718.197937,1012.236755 
	C718.198792,1029.973877 728.659485,1040.497925 746.439148,1040.436890 
	C796.556763,1040.264526 846.674194,1040.056519 896.791382,1039.791748 
	C937.913330,1039.574463 979.034607,1039.224243 1020.156616,1039.031372 
	C1024.124146,1039.012695 1028.147949,1039.394653 1032.055054,1040.095337 
	C1049.083740,1043.149292 1058.142456,1054.027222 1058.189453,1071.282593 
	C1058.238281,1089.269287 1058.226807,1107.256348 1058.384155,1125.705200 
	C1056.637451,1126.130981 1054.748413,1126.094849 1052.450928,1126.039062 
z"/>
<path fill="#202124" opacity="1.000000" stroke="none" 
	d="
M978.222900,1305.751953 
	C966.247681,1292.526245 958.619141,1277.401001 954.294373,1260.525146 
	C953.609619,1257.853271 954.329285,1256.384399 956.959961,1255.041870 
	C964.232666,1251.330078 968.650757,1245.453247 968.988037,1236.988525 
	C969.344604,1228.036743 965.218811,1221.488159 957.491699,1217.583008 
	C954.076904,1215.857178 953.823608,1214.246582 954.726440,1211.003906 
	C966.408997,1169.040894 993.736938,1142.731323 1036.098999,1134.540405 
	C1074.078857,1127.196777 1107.219727,1139.079590 1133.339966,1168.031006 
	C1145.428467,1181.429810 1153.288574,1197.316772 1156.675171,1215.157104 
	C1135.744507,1229.537598 1135.740479,1246.008301 1156.727417,1256.914795 
	C1153.647827,1272.982544 1146.890869,1287.441040 1136.805542,1300.315918 
	C1121.346069,1320.051636 1101.146851,1332.856445 1076.726074,1337.686646 
	C1039.047974,1345.139282 1006.430542,1334.728271 979.530762,1307.065430 
	C979.182495,1306.707153 978.825867,1306.357056 978.222900,1305.751953 
z"/>
<path fill="#FAB700" opacity="1.000000" stroke="none" 
	d="
M1168.453979,1223.115479 
	C1176.163330,1228.253540 1178.638184,1235.110352 1175.594849,1242.033569 
	C1172.815552,1248.355713 1165.685547,1252.078857 1159.235229,1250.576294 
	C1150.865234,1248.626465 1145.856201,1240.398071 1148.107056,1232.296143 
	C1150.437256,1223.908203 1158.962891,1219.927002 1168.453979,1223.115479 
z"/>
<path fill="#FAB700" opacity="1.000000" stroke="none" 
	d="
M934.186401,1240.219727 
	C933.190063,1231.348511 935.882629,1225.904419 942.415344,1222.950073 
	C948.128845,1220.366089 955.142151,1221.867065 959.201111,1226.736084 
	C963.031189,1231.330444 964.063477,1236.538940 961.558960,1242.081177 
	C958.996582,1247.751465 954.347900,1250.942871 948.202332,1250.859619 
	C941.402222,1250.767456 936.693115,1247.079468 934.186401,1240.219727 
z"/>
</svg>