<svg version="1.1" id="Layer_1" xmlns="http://www.w3.org/2000/svg" xmlns:xlink="http://www.w3.org/1999/xlink" x="0px" y="0px"
	 width="100%" viewBox="0 0 1200 430" enable-background="new 0 0 1200 430" xml:space="preserve">
<path fill="#000000" opacity="1.000000" stroke="none" 
	d="
M922.000000,431.000000 
	C614.666748,431.000000 307.833435,431.000000 1.000124,431.000000 
	C1.000082,287.666748 1.000082,144.333496 1.000041,1.000181 
	C400.999847,1.000121 800.999695,1.000121 1200.999634,1.000060 
	C1200.999756,144.333160 1200.999756,287.666321 1200.999878,430.999756 
	C1108.166626,431.000000 1015.333313,431.000000 922.000000,431.000000 
M600.500000,418.977356 
	C787.655945,418.977295 974.811951,418.979706 1161.967896,418.972626 
	C1177.771240,418.972015 1190.968872,405.883209 1190.970459,390.187042 
	C1190.982056,274.360321 1190.983887,158.533615 1190.969116,42.706898 
	C1190.966919,26.173269 1177.716064,13.029835 1161.083374,13.029535 
	C788.771362,13.022832 416.459320,13.023701 44.147274,13.042431 
	C42.162800,13.042531 40.125008,13.074970 38.202293,13.500130 
	C22.402546,16.993849 13.046121,28.817842 13.036496,45.390453 
	C13.004751,100.053970 13.024354,154.717529 13.024337,209.381073 
	C13.024319,268.711029 13.077314,328.041016 12.993986,387.370880 
	C12.967038,406.558685 27.725710,419.176544 44.032013,419.152252 
	C229.187683,418.876648 414.343903,418.977325 600.500000,418.977356 
z"/>
<path fill="#282727" opacity="1.000000" stroke="none" 
	d="
M600.000000,418.977325 
	C414.343903,418.977325 229.187683,418.876648 44.032013,419.152252 
	C27.725710,419.176544 12.967038,406.558685 12.993986,387.370880 
	C13.077314,328.041016 13.024319,268.711029 13.024337,209.381073 
	C13.024354,154.717529 13.004751,100.053970 13.036496,45.390453 
	C13.046121,28.817842 22.402546,16.993849 38.202293,13.500130 
	C40.125008,13.074970 42.162800,13.042531 44.147274,13.042431 
	C416.459320,13.023701 788.771362,13.022832 1161.083374,13.029535 
	C1177.716064,13.029835 1190.966919,26.173269 1190.969116,42.706898 
	C1190.983887,158.533615 1190.982056,274.360321 1190.970459,390.187042 
	C1190.968872,405.883209 1177.771240,418.972015 1161.967896,418.972626 
	C974.811951,418.979706 787.655945,418.977295 600.000000,418.977325 
M281.500092,16.180666 
	C203.008667,16.180666 124.517242,16.180122 46.025818,16.181072 
	C27.792564,16.181293 16.526546,27.470127 16.525723,45.778446 
	C16.520605,159.431793 16.519979,273.085144 16.526409,386.738495 
	C16.527431,404.805573 27.767447,416.131897 45.710220,416.147644 
	C68.374214,416.167542 91.038765,416.224945 113.701591,416.061310 
	C116.552933,416.040741 119.660484,415.300903 122.203362,414.013458 
	C203.597565,372.804291 284.929443,331.472076 366.286194,290.188873 
	C456.683838,244.317963 547.095642,198.474960 637.503113,152.623352 
	C720.053650,110.756500 802.607605,68.896408 885.156494,27.026196 
	C891.584167,23.765926 897.983582,20.449654 904.396118,17.159430 
	C904.307251,16.833176 904.218384,16.506920 904.129456,16.180666 
	C696.919678,16.180666 489.709900,16.180666 281.500092,16.180666 
M955.500000,16.185310 
	C942.835999,16.185307 930.170105,16.067783 917.509460,16.274904 
	C914.646606,16.321741 911.525635,16.950796 908.989502,18.233316 
	C835.954651,55.166920 762.977112,92.213837 689.994751,129.251251 
	C588.531311,180.742325 487.076965,232.251343 385.608398,283.732330 
	C302.830994,325.730133 220.037766,367.696716 137.254974,409.683929 
	C133.660599,411.506989 130.100449,413.397552 126.524361,415.256683 
	C126.630074,415.553192 126.735786,415.849670 126.841499,416.146179 
	C128.131882,416.146179 129.422272,416.146210 130.712662,416.146210 
	C224.697403,416.146179 318.682159,416.166473 412.666718,416.039703 
	C415.255402,416.036194 418.237030,415.017242 420.373199,413.524261 
	C607.892639,282.464447 795.347168,151.311676 982.801514,20.158825 
	C984.237000,19.154427 985.609802,18.060526 988.108704,16.185350 
	C976.662231,16.185350 966.581116,16.185350 955.500000,16.185310 
M782.500000,416.110291 
	C845.487549,416.110260 908.475159,416.074310 971.462463,416.193756 
	C975.509338,416.201416 977.557861,415.104401 979.240356,411.197266 
	C999.455750,364.252014 1019.902283,317.406281 1040.273438,270.528107 
	C1076.305420,187.611664 1112.328491,104.691345 1148.342163,21.766968 
	C1149.031494,20.179741 1149.559570,18.522558 1150.286621,16.565016 
	C1148.592285,16.377779 1147.623901,16.178072 1146.655396,16.177315 
	C1123.326782,16.159094 1099.997192,16.078897 1076.670776,16.303043 
	C1074.569946,16.323229 1071.997803,17.871298 1070.471680,19.489754 
	C1049.564087,41.662022 1028.834595,64.001945 1007.997864,86.241272 
	C961.424194,135.950134 914.805054,185.616440 868.223083,235.317520 
	C818.795349,288.054779 769.388184,340.811249 719.974792,393.561920 
	C713.207581,400.786255 706.456665,408.025970 698.902222,416.110474 
	C727.273865,416.110474 754.386902,416.110474 782.500000,416.110291 
M796.536743,154.012741 
	C672.139832,241.050491 547.742859,328.088257 422.398987,415.788574 
	C424.399811,416.017181 424.893646,416.122986 425.387512,416.123047 
	C514.029724,416.132294 602.671997,416.158844 691.313904,415.994385 
	C693.557129,415.990234 696.343079,414.394226 697.957947,412.677216 
	C744.046814,363.672394 790.014954,314.554169 836.008423,265.459595 
	C908.643066,187.927505 981.283447,110.400780 1053.915405,32.866180 
	C1058.839478,27.609835 1063.713989,22.307213 1069.392456,16.184074 
	C1066.608765,16.184074 1065.152954,16.184074 1063.697021,16.184074 
	C1041.869751,16.184086 1020.041321,16.079523 998.216431,16.309240 
	C995.309509,16.339836 991.978882,17.432411 989.587402,19.099049 
	C925.374573,63.849812 861.259033,108.740150 796.536743,154.012741 
M1187.988281,252.500000 
	C1187.988281,183.169998 1188.004028,113.839996 1187.976440,44.510006 
	C1187.969849,27.954517 1176.139282,16.472017 1159.622559,16.019785 
	C1154.739624,15.886089 1153.090698,17.950836 1151.403931,21.839100 
	C1095.190063,151.419373 1038.882812,280.959137 982.597229,410.508331 
	C981.892212,412.130981 981.291504,413.798889 980.365417,416.147339 
	C982.911865,416.147339 984.695190,416.147339 986.478577,416.147339 
	C1043.809326,416.147339 1101.140137,416.153046 1158.470825,416.144043 
	C1176.739014,416.141174 1187.982910,404.839417 1187.985840,386.494019 
	C1187.993042,342.162689 1187.988281,297.831329 1187.988281,252.500000 
z"/>
<path fill="#F5F5F5" opacity="1.000000" stroke="none" 
	d="
M282.000122,16.180666 
	C489.709900,16.180666 696.919678,16.180666 904.129456,16.180666 
	C904.218384,16.506920 904.307251,16.833176 904.396118,17.159430 
	C897.983582,20.449654 891.584167,23.765926 885.156494,27.026196 
	C802.607605,68.896408 720.053650,110.756500 637.503113,152.623352 
	C547.095642,198.474960 456.683838,244.317963 366.286194,290.188873 
	C284.929443,331.472076 203.597565,372.804291 122.203362,414.013458 
	C119.660484,415.300903 116.552933,416.040741 113.701591,416.061310 
	C91.038765,416.224945 68.374214,416.167542 45.710220,416.147644 
	C27.767447,416.131897 16.527431,404.805573 16.526409,386.738495 
	C16.519979,273.085144 16.520605,159.431793 16.525723,45.778446 
	C16.526546,27.470127 27.792564,16.181293 46.025818,16.181072 
	C124.517242,16.180122 203.008667,16.180666 282.000122,16.180666 
M343.028961,94.435799 
	C343.748779,93.319382 344.561798,92.251625 345.173737,91.078926 
	C350.459167,80.949577 347.575867,68.753700 338.372131,62.160114 
	C329.391602,55.726437 316.849579,56.788300 309.099335,64.638481 
	C301.270020,72.568764 300.483582,85.379753 307.301941,94.381645 
	C315.566193,105.292458 333.057220,106.484459 343.028961,94.435799 
M262.393585,82.499245 
	C262.395081,87.992371 262.258026,93.491737 262.504761,98.973831 
	C262.559875,100.198441 263.918945,102.360405 264.750793,102.396286 
	C271.336884,102.680405 277.940643,102.554344 284.443909,102.554344 
	C284.443909,87.587494 284.443909,73.373070 284.443909,59.216728 
	C276.958923,59.216728 269.901520,59.216728 262.989044,59.216728 
	C262.737427,59.917480 262.532898,60.224354 262.530304,60.532921 
	C262.471558,67.521698 262.434937,74.510658 262.393585,82.499245 
M99.709839,61.863796 
	C89.988419,55.208248 78.464066,55.591038 70.279701,62.841347 
	C61.995152,70.180405 59.860798,81.400322 64.940117,90.910706 
	C70.425713,101.181778 83.027153,105.945129 94.083672,101.927002 
	C103.706779,98.429802 108.745026,88.843933 106.494308,78.262726 
	C99.600792,78.262726 92.702545,78.262726 85.837646,78.262726 
	C85.837646,80.440056 85.837646,82.324997 85.837646,84.545456 
	C88.519829,84.545456 90.825455,84.545456 93.131081,84.545456 
	C95.387825,84.545456 97.644562,84.545456 99.977119,84.545456 
	C99.066772,91.609428 95.165245,95.361458 88.086342,96.573563 
	C81.501938,97.701004 74.217491,93.871498 71.132202,87.660614 
	C67.908905,81.171906 69.434517,72.814583 74.726738,67.969757 
	C80.628258,62.567135 88.005707,62.495644 97.981155,68.266785 
	C98.771416,66.227142 99.523827,64.285172 99.709839,61.863796 
M177.701080,106.339500 
	C175.637543,106.985970 174.645050,107.794991 176.166092,110.157326 
	C179.057068,114.647285 184.856079,117.202103 190.946640,116.259743 
	C196.807022,115.352997 201.404434,111.863441 201.724030,106.133965 
	C202.312851,95.577911 201.892181,84.965546 201.892181,74.180984 
	C198.810349,74.386040 195.766220,75.450005 193.429688,74.590446 
	C184.711823,71.383331 175.262421,76.595001 173.987961,85.872231 
	C173.207428,91.553879 174.776871,96.420013 179.353729,100.086891 
	C184.556351,104.255112 190.083771,104.100670 196.394394,101.371048 
	C195.088715,104.618301 193.716415,108.087936 191.179184,109.590607 
	C187.762054,111.614410 184.203094,110.062187 181.617859,106.709167 
	C181.107330,106.047020 179.464508,106.257889 177.701080,106.339500 
M372.645447,79.950310 
	C368.277649,79.527176 367.763000,77.837669 369.651215,69.455620 
	C374.984070,69.455620 380.407684,69.455620 385.972778,69.455620 
	C385.972778,67.321915 385.972778,65.571808 385.972778,63.824203 
	C378.027069,63.824203 370.345154,63.824203 362.833282,63.824203 
	C362.833282,76.952187 362.833282,89.651543 362.833282,102.262665 
	C370.829102,102.262665 378.386749,102.262665 385.845703,102.262665 
	C385.845703,100.026520 385.845703,98.134315 385.845703,95.880295 
	C380.039825,95.880295 374.615997,95.880295 369.197388,95.880295 
	C369.197388,92.445679 369.197388,89.388840 369.197388,85.915909 
	C374.397308,85.915909 379.310364,85.915909 384.296326,85.915909 
	C384.296326,83.749107 384.296326,82.014763 384.296326,79.950401 
	C380.538422,79.950401 377.069946,79.950401 372.645447,79.950310 
M498.255737,85.152840 
	C497.025085,99.606232 505.146332,105.849068 518.588806,100.806450 
	C519.020325,100.644592 519.617859,100.664238 520.055298,100.824677 
	C521.889771,101.497536 523.692688,102.256317 525.854492,103.122833 
	C525.854492,89.207321 525.854492,76.505928 525.854492,63.759094 
	C523.770935,63.759094 522.026001,63.759094 519.891296,63.759094 
	C519.891296,68.215225 519.891296,72.392143 519.891296,76.768723 
	C509.987427,71.011383 501.979340,74.001961 498.255737,85.152840 
M583.172852,64.153961 
	C583.172852,68.334808 583.172852,72.515656 583.172852,77.214264 
	C575.409424,72.412651 568.893372,72.977043 564.394653,78.214348 
	C559.636902,83.753212 559.712769,93.532387 564.555725,98.972168 
	C569.182251,104.168831 575.809082,104.568703 581.386902,100.796989 
	C584.313660,101.615051 586.411438,102.201401 589.015259,102.929192 
	C589.015259,95.555862 589.015259,89.241394 589.015259,82.926926 
	C589.015259,76.509415 589.015259,70.091904 589.015259,63.596256 
	C586.809082,63.596256 585.326050,63.596256 583.172852,64.153961 
M116.221458,75.535919 
	C110.463440,79.322586 108.194565,84.741241 109.438896,91.385071 
	C110.578667,97.470581 114.405762,101.513062 120.500763,102.814827 
	C126.634354,104.124817 132.029022,102.539825 136.049713,97.427216 
	C139.939407,92.481171 140.080078,84.875961 136.419693,79.753006 
	C132.047638,73.634003 125.100266,71.993584 116.221458,75.535919 
M160.694885,102.701073 
	C169.517075,99.000008 173.378860,91.391991 170.557175,83.271561 
	C167.928329,75.706093 159.470261,71.657509 151.514404,74.156448 
	C144.014832,76.512070 139.945419,84.360367 141.994217,92.517159 
	C143.873306,99.998322 150.286530,103.725037 160.694885,102.701073 
M463.350342,81.346313 
	C459.698273,74.833366 453.832703,72.254044 447.079681,74.191490 
	C441.058655,75.918915 436.842377,82.318336 437.143890,89.271973 
	C437.439423,96.087662 441.953796,101.730087 448.103973,102.970772 
	C455.092651,104.380608 460.863708,101.653801 463.689575,95.510155 
	C462.215393,94.843552 460.742828,94.177658 459.099792,93.434692 
	C456.113312,96.961594 452.456604,99.055084 448.164856,96.706787 
	C446.084503,95.568497 444.771820,93.027313 443.111572,91.121262 
	C443.466888,90.676254 443.822205,90.231239 444.177521,89.786232 
	C450.920197,89.786232 457.662872,89.786232 464.984741,89.786232 
	C464.503967,86.846939 464.110016,84.438637 463.350342,81.346313 
M218.320511,80.012550 
	C217.677963,81.712753 216.811218,83.364555 216.431946,85.121590 
	C214.850449,92.447922 218.549469,99.503403 225.246628,102.221619 
	C232.017899,104.969910 238.929382,102.758530 243.094803,96.336594 
	C241.512619,95.288887 239.929108,94.240295 238.432770,93.249435 
	C232.082367,98.566284 228.480026,98.507294 224.318985,92.913010 
	C230.753845,90.174927 237.104248,87.472786 243.532013,84.737724 
	C241.759827,79.116341 238.856339,75.080620 233.191605,73.891449 
	C227.273743,72.649139 222.384628,74.452866 218.320511,80.012550 
M556.863403,95.548225 
	C555.414124,94.837975 553.964783,94.127724 552.632141,93.474640 
	C545.484375,100.012527 539.053650,98.635826 537.138672,89.969040 
	C544.121277,89.969040 551.012085,89.969040 557.862671,89.969040 
	C558.181946,80.886101 554.513000,75.290924 547.748596,74.015160 
	C540.349426,72.619675 533.827515,76.269051 531.456604,83.131439 
	C528.851685,90.671120 531.865417,98.718620 538.489258,101.910896 
	C545.353271,105.218910 552.696289,102.997887 556.863403,95.548225 
M468.982178,82.597176 
	C468.982178,89.168701 468.982178,95.740227 468.982178,102.187988 
	C471.450439,102.187988 473.192993,102.187988 475.193054,102.187988 
	C475.193054,97.034370 475.066803,92.216026 475.228058,87.407318 
	C475.394135,82.456161 478.412262,79.228378 482.410828,79.608368 
	C487.321625,80.075043 487.863739,83.639114 487.823242,87.589157 
	C487.772980,92.489456 487.811188,97.390648 487.811188,102.192108 
	C490.348938,102.192108 492.086426,102.192108 493.993073,102.192108 
	C493.993073,95.872688 494.193237,89.883492 493.941132,83.913383 
	C493.643585,76.867310 489.360809,73.101639 482.529205,73.938042 
	C480.030701,74.243935 477.666779,75.648949 475.241425,76.552551 
	C475.366150,76.222336 475.490845,75.892128 475.615570,75.561920 
	C473.537201,75.141228 471.458862,74.720543 468.982178,74.219231 
	C468.982178,77.329979 468.982178,79.482903 468.982178,82.597176 
M408.420074,91.748016 
	C407.674255,90.531845 406.928436,89.315674 406.247101,88.204613 
	C409.404358,83.603249 412.327454,79.343124 415.220093,75.127434 
	C406.795868,71.799355 405.985321,79.345360 402.429993,82.973984 
	C398.638123,79.678185 397.731140,71.742760 389.405975,75.212883 
	C391.866516,78.741692 394.104126,82.192490 396.601532,85.443710 
	C398.154266,87.465096 398.270813,89.031944 396.665314,91.128113 
	C394.008209,94.597252 391.665649,98.307327 389.190643,101.915802 
	C397.882446,105.296814 398.493164,97.067970 402.356995,93.800812 
	C406.134705,97.383003 406.934509,105.246178 415.360229,101.783821 
	C413.152283,98.551292 411.028503,95.442001 408.420074,91.748016 
M428.580658,86.504463 
	C428.580658,84.422577 428.580658,82.340691 428.580658,80.217171 
	C431.180511,80.070496 433.088867,79.962830 435.265686,79.840019 
	C435.147369,77.844887 435.053436,76.261086 434.960449,74.693153 
	C432.683044,74.455238 430.773376,74.255745 428.808777,74.050514 
	C428.628601,71.483177 428.471771,69.248772 428.326447,67.178200 
	C426.016144,67.178200 424.135925,67.178200 422.241608,67.178200 
	C422.130829,69.705338 422.037292,71.838699 421.933289,74.210556 
	C417.663483,73.965668 416.474701,75.907913 417.894745,79.736557 
	C419.262665,79.956490 420.633026,80.176811 422.115662,80.415192 
	C422.115662,84.913704 422.028595,89.059502 422.133881,93.200417 
	C422.349030,101.662086 426.533783,104.638374 434.966492,102.342148 
	C434.966492,100.602745 434.966492,98.843178 434.966492,96.724113 
	C429.636780,98.525543 428.407166,95.777504 428.573700,91.465721 
	C428.624939,90.138466 428.580963,88.807526 428.580658,86.504463 
M206.431488,67.620758 
	C206.431488,79.047554 206.431488,90.474350 206.431488,101.984428 
	C208.983887,101.984428 210.913651,101.984428 212.945297,101.984428 
	C212.945297,87.507057 212.945297,73.256279 212.945297,59.045334 
	C210.731079,59.045334 208.784515,59.045334 206.431549,59.045334 
	C206.431549,61.751850 206.431549,64.209793 206.431488,67.620758 
M298.918610,56.314442 
	C295.104645,73.065819 291.290710,89.817200 287.476776,106.568581 
	C287.951965,106.936600 288.427155,107.304619 288.902374,107.672638 
	C290.141571,106.554146 292.179932,105.626007 292.498566,104.288261 
	C296.445007,87.719162 300.140961,71.090401 304.216827,53.083607 
	C301.847748,54.191982 300.449310,54.846252 298.918610,56.314442 
z"/>
<path fill="#FEBA00" opacity="1.000000" stroke="none" 
	d="
M956.000000,16.185329 
	C966.581116,16.185350 976.662231,16.185350 988.108704,16.185350 
	C985.609802,18.060526 984.237000,19.154427 982.801514,20.158825 
	C795.347168,151.311676 607.892639,282.464447 420.373199,413.524261 
	C418.237030,415.017242 415.255402,416.036194 412.666718,416.039703 
	C318.682159,416.166473 224.697403,416.146179 130.712662,416.146210 
	C129.422272,416.146210 128.131882,416.146179 126.841499,416.146179 
	C126.735786,415.849670 126.630074,415.553192 126.524361,415.256683 
	C130.100449,413.397552 133.660599,411.506989 137.254974,409.683929 
	C220.037766,367.696716 302.830994,325.730133 385.608398,283.732330 
	C487.076965,232.251343 588.531311,180.742325 689.994751,129.251251 
	C762.977112,92.213837 835.954651,55.166920 908.989502,18.233316 
	C911.525635,16.950796 914.646606,16.321741 917.509460,16.274904 
	C930.170105,16.067783 942.835999,16.185307 956.000000,16.185329 
z"/>
<path fill="#3EBC5C" opacity="1.000000" stroke="none" 
	d="
M782.000000,416.110382 
	C754.386902,416.110474 727.273865,416.110474 698.902222,416.110474 
	C706.456665,408.025970 713.207581,400.786255 719.974792,393.561920 
	C769.388184,340.811249 818.795349,288.054779 868.223083,235.317520 
	C914.805054,185.616440 961.424194,135.950134 1007.997864,86.241272 
	C1028.834595,64.001945 1049.564087,41.662022 1070.471680,19.489754 
	C1071.997803,17.871298 1074.569946,16.323229 1076.670776,16.303043 
	C1099.997192,16.078897 1123.326782,16.159094 1146.655396,16.177315 
	C1147.623901,16.178072 1148.592285,16.377779 1150.286621,16.565016 
	C1149.559570,18.522558 1149.031494,20.179741 1148.342163,21.766968 
	C1112.328491,104.691345 1076.305420,187.611664 1040.273438,270.528107 
	C1019.902283,317.406281 999.455750,364.252014 979.240356,411.197266 
	C977.557861,415.104401 975.509338,416.201416 971.462463,416.193756 
	C908.475159,416.074310 845.487549,416.110260 782.000000,416.110382 
z"/>
<path fill="#FE5145" opacity="1.000000" stroke="none" 
	d="
M796.831909,153.809814 
	C861.259033,108.740150 925.374573,63.849812 989.587402,19.099049 
	C991.978882,17.432411 995.309509,16.339836 998.216431,16.309240 
	C1020.041321,16.079523 1041.869751,16.184086 1063.697021,16.184074 
	C1065.152954,16.184074 1066.608765,16.184074 1069.392456,16.184074 
	C1063.713989,22.307213 1058.839478,27.609835 1053.915405,32.866180 
	C981.283447,110.400780 908.643066,187.927505 836.008423,265.459595 
	C790.014954,314.554169 744.046814,363.672394 697.957947,412.677216 
	C696.343079,414.394226 693.557129,415.990234 691.313904,415.994385 
	C602.671997,416.158844 514.029724,416.132294 425.387512,416.123047 
	C424.893646,416.122986 424.399811,416.017181 422.398987,415.788574 
	C547.742859,328.088257 672.139832,241.050491 796.831909,153.809814 
z"/>
<path fill="#428EFF" opacity="1.000000" stroke="none" 
	d="
M1187.988281,253.000000 
	C1187.988281,297.831329 1187.993042,342.162689 1187.985840,386.494019 
	C1187.982910,404.839417 1176.739014,416.141174 1158.470825,416.144043 
	C1101.140137,416.153046 1043.809326,416.147339 986.478577,416.147339 
	C984.695190,416.147339 982.911865,416.147339 980.365417,416.147339 
	C981.291504,413.798889 981.892212,412.130981 982.597229,410.508331 
	C1038.882812,280.959137 1095.190063,151.419373 1151.403931,21.839100 
	C1153.090698,17.950836 1154.739624,15.886089 1159.622559,16.019785 
	C1176.139282,16.472017 1187.969849,27.954517 1187.976440,44.510006 
	C1188.004028,113.839996 1187.988281,183.169998 1187.988281,253.000000 
z"/>
<path fill="#3989FF" opacity="1.000000" stroke="none" 
	d="
M342.802979,94.717934 
	C333.057220,106.484459 315.566193,105.292458 307.301941,94.381645 
	C300.483582,85.379753 301.270020,72.568764 309.099335,64.638481 
	C316.849579,56.788300 329.391602,55.726437 338.372131,62.160114 
	C347.575867,68.753700 350.459167,80.949577 345.173737,91.078926 
	C344.561798,92.251625 343.748779,93.319382 342.802979,94.717934 
z"/>
<path fill="#3F8DFF" opacity="1.000000" stroke="none" 
	d="
M262.393890,81.999420 
	C262.434937,74.510658 262.471558,67.521698 262.530304,60.532921 
	C262.532898,60.224354 262.737427,59.917480 262.989044,59.216728 
	C269.901520,59.216728 276.958923,59.216728 284.443909,59.216728 
	C284.443909,73.373070 284.443909,87.587494 284.443909,102.554344 
	C277.940643,102.554344 271.336884,102.680405 264.750793,102.396286 
	C263.918945,102.360405 262.559875,100.198441 262.504761,98.973831 
	C262.258026,93.491737 262.395081,87.992371 262.393890,81.999420 
z"/>
<path fill="#2A2B2E" opacity="1.000000" stroke="none" 
	d="
M99.993042,62.103500 
	C99.523827,64.285172 98.771416,66.227142 97.981155,68.266785 
	C88.005707,62.495644 80.628258,62.567135 74.726738,67.969757 
	C69.434517,72.814583 67.908905,81.171906 71.132202,87.660614 
	C74.217491,93.871498 81.501938,97.701004 88.086342,96.573563 
	C95.165245,95.361458 99.066772,91.609428 99.977119,84.545456 
	C97.644562,84.545456 95.387825,84.545456 93.131081,84.545456 
	C90.825455,84.545456 88.519829,84.545456 85.837646,84.545456 
	C85.837646,82.324997 85.837646,80.440056 85.837646,78.262726 
	C92.702545,78.262726 99.600792,78.262726 106.494308,78.262726 
	C108.745026,88.843933 103.706779,98.429802 94.083672,101.927002 
	C83.027153,105.945129 70.425713,101.181778 64.940117,90.910706 
	C59.860798,81.400322 61.995152,70.180405 70.279701,62.841347 
	C78.464066,55.591038 89.988419,55.208248 99.993042,62.103500 
z"/>
<path fill="#28292C" opacity="1.000000" stroke="none" 
	d="
M178.022461,106.202820 
	C179.464508,106.257889 181.107330,106.047020 181.617859,106.709167 
	C184.203094,110.062187 187.762054,111.614410 191.179184,109.590607 
	C193.716415,108.087936 195.088715,104.618301 196.394394,101.371048 
	C190.083771,104.100670 184.556351,104.255112 179.353729,100.086891 
	C174.776871,96.420013 173.207428,91.553879 173.987961,85.872231 
	C175.262421,76.595001 184.711823,71.383331 193.429688,74.590446 
	C195.766220,75.450005 198.810349,74.386040 201.892181,74.180984 
	C201.892181,84.965546 202.312851,95.577911 201.724030,106.133965 
	C201.404434,111.863441 196.807022,115.352997 190.946640,116.259743 
	C184.856079,117.202103 179.057068,114.647285 176.166092,110.157326 
	C174.645050,107.794991 175.637543,106.985970 178.022461,106.202820 
M192.995041,95.632614 
	C193.811050,94.607933 194.962326,93.704010 195.382736,92.536835 
	C196.882736,88.372421 196.775604,84.301826 193.072571,81.251091 
	C190.164154,78.854988 186.875412,78.984718 183.985504,81.302444 
	C180.479813,84.114021 179.723236,87.905945 181.310181,92.017189 
	C183.048477,96.520546 187.067642,97.907394 192.995041,95.632614 
z"/>
<path fill="#36373A" opacity="1.000000" stroke="none" 
	d="
M373.123444,79.950356 
	C377.069946,79.950401 380.538422,79.950401 384.296326,79.950401 
	C384.296326,82.014763 384.296326,83.749107 384.296326,85.915909 
	C379.310364,85.915909 374.397308,85.915909 369.197388,85.915909 
	C369.197388,89.388840 369.197388,92.445679 369.197388,95.880295 
	C374.615997,95.880295 380.039825,95.880295 385.845703,95.880295 
	C385.845703,98.134315 385.845703,100.026520 385.845703,102.262665 
	C378.386749,102.262665 370.829102,102.262665 362.833282,102.262665 
	C362.833282,89.651543 362.833282,76.952187 362.833282,63.824203 
	C370.345154,63.824203 378.027069,63.824203 385.972778,63.824203 
	C385.972778,65.571808 385.972778,67.321915 385.972778,69.455620 
	C380.407684,69.455620 374.984070,69.455620 369.651215,69.455620 
	C367.763000,77.837669 368.277649,79.527176 373.123444,79.950356 
z"/>
<path fill="#292A2D" opacity="1.000000" stroke="none" 
	d="
M498.390503,84.762451 
	C501.979340,74.001961 509.987427,71.011383 519.891296,76.768723 
	C519.891296,72.392143 519.891296,68.215225 519.891296,63.759094 
	C522.026001,63.759094 523.770935,63.759094 525.854492,63.759094 
	C525.854492,76.505928 525.854492,89.207321 525.854492,103.122833 
	C523.692688,102.256317 521.889771,101.497536 520.055298,100.824677 
	C519.617859,100.664238 519.020325,100.644592 518.588806,100.806450 
	C505.146332,105.849068 497.025085,99.606232 498.390503,84.762451 
M518.168518,82.418343 
	C514.944885,78.973564 511.300842,78.580582 507.523499,81.291130 
	C504.051941,83.782227 503.227936,89.436478 505.584961,93.440559 
	C507.602478,96.867905 510.631104,98.132576 514.462830,97.076691 
	C518.525024,95.957291 520.837036,91.686424 520.058105,86.726814 
	C519.858887,85.458084 519.165771,84.266899 518.168518,82.418343 
z"/>
<path fill="#27282B" opacity="1.000000" stroke="none" 
	d="
M583.507935,63.875107 
	C585.326050,63.596256 586.809082,63.596256 589.015259,63.596256 
	C589.015259,70.091904 589.015259,76.509415 589.015259,82.926926 
	C589.015259,89.241394 589.015259,95.555862 589.015259,102.929192 
	C586.411438,102.201401 584.313660,101.615051 581.386902,100.796989 
	C575.809082,104.568703 569.182251,104.168831 564.555725,98.972168 
	C559.712769,93.532387 559.636902,83.753212 564.394653,78.214348 
	C568.893372,72.977043 575.409424,72.412651 583.172852,77.214264 
	C583.172852,72.515656 583.172852,68.334808 583.507935,63.875107 
M571.522705,80.501961 
	C570.333618,81.838005 568.811890,83.002983 568.019836,84.543205 
	C565.919739,88.627419 567.209961,93.672211 570.820618,96.048897 
	C574.124084,98.223389 577.419556,98.030525 580.351990,95.308685 
	C583.613464,92.281441 584.129578,86.542427 581.460876,82.996490 
	C579.113342,79.877174 576.024536,78.797623 571.522705,80.501961 
z"/>
<path fill="#28292C" opacity="1.000000" stroke="none" 
	d="
M116.544144,75.336037 
	C125.100266,71.993584 132.047638,73.634003 136.419693,79.753006 
	C140.080078,84.875961 139.939407,92.481171 136.049713,97.427216 
	C132.029022,102.539825 126.634354,104.124817 120.500763,102.814827 
	C114.405762,101.513062 110.578667,97.470581 109.438896,91.385071 
	C108.194565,84.741241 110.463440,79.322586 116.544144,75.336037 
M122.834251,97.021141 
	C127.792313,97.474747 130.875214,95.079948 131.926453,90.419487 
	C132.901031,86.098831 131.515625,82.361961 127.351738,80.374771 
	C123.796822,78.678207 120.378723,79.555115 117.949020,82.633217 
	C115.173485,86.149422 115.100410,90.092278 117.734398,93.706467 
	C118.738937,95.084846 120.588013,95.847733 122.834251,97.021141 
z"/>
<path fill="#292A2C" opacity="1.000000" stroke="none" 
	d="
M160.288208,102.806259 
	C150.286530,103.725037 143.873306,99.998322 141.994217,92.517159 
	C139.945419,84.360367 144.014832,76.512070 151.514404,74.156448 
	C159.470261,71.657509 167.928329,75.706093 170.557175,83.271561 
	C173.378860,91.391991 169.517075,99.000008 160.288208,102.806259 
M148.519424,90.761246 
	C149.973785,94.963394 152.863098,98.060944 157.300751,96.795303 
	C159.948959,96.040024 163.260666,93.143471 163.805527,90.666466 
	C164.419983,87.873161 163.048508,83.744347 161.046417,81.576462 
	C159.608597,80.019547 155.406509,79.811737 152.991287,80.632133 
	C148.969498,81.998230 147.842972,85.854752 148.519424,90.761246 
z"/>
<path fill="#292A2D" opacity="1.000000" stroke="none" 
	d="
M463.533203,81.688324 
	C464.110016,84.438637 464.503967,86.846939 464.984741,89.786232 
	C457.662872,89.786232 450.920197,89.786232 444.177521,89.786232 
	C443.822205,90.231239 443.466888,90.676254 443.111572,91.121262 
	C444.771820,93.027313 446.084503,95.568497 448.164856,96.706787 
	C452.456604,99.055084 456.113312,96.961594 459.099792,93.434692 
	C460.742828,94.177658 462.215393,94.843552 463.689575,95.510155 
	C460.863708,101.653801 455.092651,104.380608 448.103973,102.970772 
	C441.953796,101.730087 437.439423,96.087662 437.143890,89.271973 
	C436.842377,82.318336 441.058655,75.918915 447.079681,74.191490 
	C453.832703,72.254044 459.698273,74.833366 463.533203,81.688324 
M452.390991,85.168442 
	C454.246368,85.168442 456.101746,85.168442 458.546967,85.168442 
	C456.699249,80.692177 454.241791,78.813911 450.462219,79.200813 
	C447.087799,79.546249 444.774231,81.269363 444.189240,85.168449 
	C446.828491,85.168449 449.152740,85.168449 452.390991,85.168442 
z"/>
<path fill="#292A2D" opacity="1.000000" stroke="none" 
	d="
M218.547501,79.713608 
	C222.384628,74.452866 227.273743,72.649139 233.191605,73.891449 
	C238.856339,75.080620 241.759827,79.116341 243.532013,84.737724 
	C237.104248,87.472786 230.753845,90.174927 224.318985,92.913010 
	C228.480026,98.507294 232.082367,98.566284 238.432770,93.249435 
	C239.929108,94.240295 241.512619,95.288887 243.094803,96.336594 
	C238.929382,102.758530 232.017899,104.969910 225.246628,102.221619 
	C218.549469,99.503403 214.850449,92.447922 216.431946,85.121590 
	C216.811218,83.364555 217.677963,81.712753 218.547501,79.713608 
M224.213577,82.928162 
	C223.745636,84.214897 223.277695,85.501633 222.400955,87.912460 
	C227.512527,85.724068 231.429352,84.047173 235.870911,82.145630 
	C231.341736,78.309250 227.931427,79.029755 224.213577,82.928162 
z"/>
<path fill="#28292C" opacity="1.000000" stroke="none" 
	d="
M556.955811,95.922844 
	C552.696289,102.997887 545.353271,105.218910 538.489258,101.910896 
	C531.865417,98.718620 528.851685,90.671120 531.456604,83.131439 
	C533.827515,76.269051 540.349426,72.619675 547.748596,74.015160 
	C554.513000,75.290924 558.181946,80.886101 557.862671,89.969040 
	C551.012085,89.969040 544.121277,89.969040 537.138672,89.969040 
	C539.053650,98.635826 545.484375,100.012527 552.632141,93.474640 
	C553.964783,94.127724 555.414124,94.837975 556.955811,95.922844 
M544.502625,85.175415 
	C546.725586,85.175415 548.948486,85.175415 551.619568,85.175415 
	C550.570679,80.864288 548.133667,79.234337 544.746582,79.154785 
	C541.113342,79.069466 538.678589,80.912392 537.319519,85.175415 
	C539.749817,85.175415 541.649536,85.175415 544.502625,85.175415 
z"/>
<path fill="#28292C" opacity="1.000000" stroke="none" 
	d="
M468.982178,82.116501 
	C468.982178,79.482903 468.982178,77.329979 468.982178,74.219231 
	C471.458862,74.720543 473.537201,75.141228 475.615570,75.561920 
	C475.490845,75.892128 475.366150,76.222336 475.241425,76.552551 
	C477.666779,75.648949 480.030701,74.243935 482.529205,73.938042 
	C489.360809,73.101639 493.643585,76.867310 493.941132,83.913383 
	C494.193237,89.883492 493.993073,95.872688 493.993073,102.192108 
	C492.086426,102.192108 490.348938,102.192108 487.811188,102.192108 
	C487.811188,97.390648 487.772980,92.489456 487.823242,87.589157 
	C487.863739,83.639114 487.321625,80.075043 482.410828,79.608368 
	C478.412262,79.228378 475.394135,82.456161 475.228058,87.407318 
	C475.066803,92.216026 475.193054,97.034370 475.193054,102.187988 
	C473.192993,102.187988 471.450439,102.187988 468.982178,102.187988 
	C468.982178,95.740227 468.982178,89.168701 468.982178,82.116501 
z"/>
<path fill="#2F3033" opacity="1.000000" stroke="none" 
	d="
M408.662415,92.040359 
	C411.028503,95.442001 413.152283,98.551292 415.360229,101.783821 
	C406.934509,105.246178 406.134705,97.383003 402.356995,93.800812 
	C398.493164,97.067970 397.882446,105.296814 389.190643,101.915802 
	C391.665649,98.307327 394.008209,94.597252 396.665314,91.128113 
	C398.270813,89.031944 398.154266,87.465096 396.601532,85.443710 
	C394.104126,82.192490 391.866516,78.741692 389.405975,75.212883 
	C397.731140,71.742760 398.638123,79.678185 402.429993,82.973984 
	C405.985321,79.345360 406.795868,71.799355 415.220093,75.127434 
	C412.327454,79.343124 409.404358,83.603249 406.247101,88.204613 
	C406.928436,89.315674 407.674255,90.531845 408.662415,92.040359 
z"/>
<path fill="#323336" opacity="1.000000" stroke="none" 
	d="
M428.580627,86.991364 
	C428.580963,88.807526 428.624939,90.138466 428.573700,91.465721 
	C428.407166,95.777504 429.636780,98.525543 434.966492,96.724113 
	C434.966492,98.843178 434.966492,100.602745 434.966492,102.342148 
	C426.533783,104.638374 422.349030,101.662086 422.133881,93.200417 
	C422.028595,89.059502 422.115662,84.913704 422.115662,80.415192 
	C420.633026,80.176811 419.262665,79.956490 417.894745,79.736557 
	C416.474701,75.907913 417.663483,73.965668 421.933289,74.210556 
	C422.037292,71.838699 422.130829,69.705338 422.241608,67.178200 
	C424.135925,67.178200 426.016144,67.178200 428.326447,67.178200 
	C428.471771,69.248772 428.628601,71.483177 428.808777,74.050514 
	C430.773376,74.255745 432.683044,74.455238 434.960449,74.693153 
	C435.053436,76.261086 435.147369,77.844887 435.265686,79.840019 
	C433.088867,79.962830 431.180511,80.070496 428.580658,80.217171 
	C428.580658,82.340691 428.580658,84.422577 428.580627,86.991364 
z"/>
<path fill="#2F3033" opacity="1.000000" stroke="none" 
	d="
M206.431519,67.144249 
	C206.431549,64.209793 206.431549,61.751850 206.431549,59.045334 
	C208.784515,59.045334 210.731079,59.045334 212.945297,59.045334 
	C212.945297,73.256279 212.945297,87.507057 212.945297,101.984428 
	C210.913651,101.984428 208.983887,101.984428 206.431488,101.984428 
	C206.431488,90.474350 206.431488,79.047554 206.431519,67.144249 
z"/>
<path fill="#2E2F32" opacity="1.000000" stroke="none" 
	d="
M298.984741,55.907482 
	C300.449310,54.846252 301.847748,54.191982 304.216827,53.083607 
	C300.140961,71.090401 296.445007,87.719162 292.498566,104.288261 
	C292.179932,105.626007 290.141571,106.554146 288.902374,107.672638 
	C288.427155,107.304619 287.951965,106.936600 287.476776,106.568581 
	C291.290710,89.817200 295.104645,73.065819 298.984741,55.907482 
z"/>
<path fill="#F0F0F0" opacity="1.000000" stroke="none" 
	d="
M192.655914,95.844177 
	C187.067642,97.907394 183.048477,96.520546 181.310181,92.017189 
	C179.723236,87.905945 180.479813,84.114021 183.985504,81.302444 
	C186.875412,78.984718 190.164154,78.854988 193.072571,81.251091 
	C196.775604,84.301826 196.882736,88.372421 195.382736,92.536835 
	C194.962326,93.704010 193.811050,94.607933 192.655914,95.844177 
z"/>
<path fill="#EFEFEF" opacity="1.000000" stroke="none" 
	d="
M518.434021,82.729218 
	C519.165771,84.266899 519.858887,85.458084 520.058105,86.726814 
	C520.837036,91.686424 518.525024,95.957291 514.462830,97.076691 
	C510.631104,98.132576 507.602478,96.867905 505.584961,93.440559 
	C503.227936,89.436478 504.051941,83.782227 507.523499,81.291130 
	C511.300842,78.580582 514.944885,78.973564 518.434021,82.729218 
z"/>
<path fill="#EFEFEF" opacity="1.000000" stroke="none" 
	d="
M571.880859,80.309227 
	C576.024536,78.797623 579.113342,79.877174 581.460876,82.996490 
	C584.129578,86.542427 583.613464,92.281441 580.351990,95.308685 
	C577.419556,98.030525 574.124084,98.223389 570.820618,96.048897 
	C567.209961,93.672211 565.919739,88.627419 568.019836,84.543205 
	C568.811890,83.002983 570.333618,81.838005 571.880859,80.309227 
z"/>
<path fill="#F0F0F0" opacity="1.000000" stroke="none" 
	d="
M122.443230,96.956131 
	C120.588013,95.847733 118.738937,95.084846 117.734398,93.706467 
	C115.100410,90.092278 115.173485,86.149422 117.949020,82.633217 
	C120.378723,79.555115 123.796822,78.678207 127.351738,80.374771 
	C131.515625,82.361961 132.901031,86.098831 131.926453,90.419487 
	C130.875214,95.079948 127.792313,97.474747 122.443230,96.956131 
z"/>
<path fill="#EFEFEF" opacity="1.000000" stroke="none" 
	d="
M148.405975,90.386749 
	C147.842972,85.854752 148.969498,81.998230 152.991287,80.632133 
	C155.406509,79.811737 159.608597,80.019547 161.046417,81.576462 
	C163.048508,83.744347 164.419983,87.873161 163.805527,90.666466 
	C163.260666,93.143471 159.948959,96.040024 157.300751,96.795303 
	C152.863098,98.060944 149.973785,94.963394 148.405975,90.386749 
z"/>
<path fill="#EDEDED" opacity="1.000000" stroke="none" 
	d="
M451.933990,85.168442 
	C449.152740,85.168449 446.828491,85.168449 444.189240,85.168449 
	C444.774231,81.269363 447.087799,79.546249 450.462219,79.200813 
	C454.241791,78.813911 456.699249,80.692177 458.546967,85.168442 
	C456.101746,85.168442 454.246368,85.168442 451.933990,85.168442 
z"/>
<path fill="#E4E4E4" opacity="1.000000" stroke="none" 
	d="
M224.453705,82.635231 
	C227.931427,79.029755 231.341736,78.309250 235.870911,82.145630 
	C231.429352,84.047173 227.512527,85.724068 222.400955,87.912460 
	C223.277695,85.501633 223.745636,84.214897 224.453705,82.635231 
z"/>
<path fill="#EBEBEC" opacity="1.000000" stroke="none" 
	d="
M544.026001,85.175415 
	C541.649536,85.175415 539.749817,85.175415 537.319519,85.175415 
	C538.678589,80.912392 541.113342,79.069466 544.746582,79.154785 
	C548.133667,79.234337 550.570679,80.864288 551.619568,85.175415 
	C548.948486,85.175415 546.725586,85.175415 544.026001,85.175415 
z"/>
</svg>