<svg version="1.1" id="Layer_1" xmlns="http://www.w3.org/2000/svg" xmlns:xlink="http://www.w3.org/1999/xlink" x="0px" y="0px"
	 width="100%" viewBox="0 0 1825 280" enable-background="new 0 0 1825 280" xml:space="preserve">
<path fill="#030303" opacity="1.000000" stroke="none" 
	d="
M545.000000,281.000000 
	C363.707458,281.000000 182.414932,281.000000 1.061202,281.000000 
	C1.061202,187.728500 1.061202,94.456955 1.061202,1.000000 
	C351.692474,1.000000 702.385010,1.000000 1053.557617,1.423077 
	C1053.944336,3.004027 1053.996216,4.195657 1053.735840,5.314689 
	C1049.890625,21.842783 1045.865356,38.330173 1042.158936,54.889023 
	C1036.210693,81.463135 1030.522827,108.095398 1024.619385,134.679611 
	C1020.007019,155.449600 1015.278748,176.194153 1010.516724,196.930405 
	C1007.609131,209.591568 1004.548828,222.217728 1001.538879,234.855270 
	C1000.359802,239.806137 1001.144409,240.926590 1006.053528,240.982712 
	C1009.884338,241.026505 1013.732117,240.772537 1017.542969,241.052353 
	C1021.447693,241.339081 1023.210693,239.766144 1024.062988,235.993103 
	C1028.233887,217.530212 1032.678711,199.129303 1036.882080,180.673553 
	C1040.984985,162.658997 1044.880493,144.597305 1048.926880,126.569748 
	C1053.260864,107.261627 1057.628052,87.960838 1062.047974,68.672226 
	C1066.619751,48.720490 1071.296265,28.792761 1075.859741,8.839162 
	C1076.446533,6.273370 1076.629883,3.615317 1077.000000,1.000002 
	C1142.025879,1.000000 1207.051636,1.000000 1272.541016,1.467849 
	C1272.972046,36.600853 1272.939453,71.266014 1272.545410,105.762665 
	C1271.421875,95.939880 1268.257690,86.997169 1264.050171,78.378227 
	C1261.494751,73.143715 1259.542847,67.425995 1256.088623,62.856136 
	C1247.521973,51.523006 1237.690918,41.510025 1225.463257,33.717285 
	C1212.512939,25.464056 1198.504028,20.654762 1183.574829,19.263784 
	C1173.111084,18.288864 1162.301270,18.793291 1151.882080,20.285902 
	C1143.600952,21.472235 1135.633057,25.027189 1127.618774,27.798687 
	C1124.693237,28.810404 1121.949707,30.453472 1119.273926,32.059628 
	C1114.822632,34.731567 1109.818481,36.937733 1106.253174,40.535339 
	C1098.922485,47.932674 1092.240967,55.996616 1085.564087,64.012619 
	C1076.682373,74.675430 1074.041138,88.171700 1070.301392,100.925957 
	C1068.270874,107.850243 1069.448608,115.689537 1068.983398,123.103798 
	C1068.010620,138.605194 1073.151978,152.784760 1079.333252,166.404037 
	C1085.857422,180.778687 1096.142334,192.702835 1108.845581,202.090164 
	C1118.325562,209.095566 1128.719360,214.539154 1140.141479,218.213333 
	C1152.861938,222.305130 1165.768799,221.969086 1178.762939,222.007660 
	C1193.657715,222.051865 1207.230591,217.398224 1220.089478,210.367859 
	C1227.016479,206.580582 1233.156128,201.736023 1239.347290,196.749954 
	C1246.414429,191.058350 1252.111206,184.207092 1256.534912,177.025757 
	C1262.716553,166.990463 1266.344971,155.358978 1270.817017,144.309769 
	C1271.986328,141.420792 1272.235107,138.159271 1272.952393,135.530273 
	C1272.998657,184.327805 1272.999390,232.663910 1273.000000,281.000000 
	C1041.974121,281.000000 810.948303,281.000000 579.507446,280.633728 
	C581.557556,279.159088 583.934998,277.754395 586.503113,276.993164 
	C598.195923,273.527344 607.366516,265.948425 613.501526,256.231018 
	C620.706482,244.818878 624.992859,231.735886 624.994263,217.776779 
	C624.998230,178.294464 624.995667,138.812149 624.994141,99.329842 
	C624.994080,97.997223 625.357727,96.500374 624.870361,95.375336 
	C624.314148,94.091354 623.019958,92.215889 622.000854,92.186630 
	C613.224426,91.934685 604.437744,92.041832 595.322327,92.041832 
	C595.123657,95.112007 594.959839,97.643860 594.799683,100.118515 
	C594.277771,100.146782 594.072876,100.223457 593.972412,100.152397 
	C593.432312,99.770210 592.911133,99.359955 592.396057,98.943840 
	C576.737122,86.293320 559.088257,85.254234 540.817993,91.071358 
	C529.360413,94.719360 519.439514,101.717758 511.833160,110.960190 
	C502.787689,121.951286 497.085541,134.787292 496.031311,149.252380 
	C494.365356,172.110794 501.941986,191.492310 519.204712,206.529541 
	C529.902222,215.847870 542.369568,221.635559 557.051758,222.076660 
	C571.382324,222.507202 584.299377,219.559219 594.695129,208.505051 
	C595.619812,219.322891 594.102905,226.501129 589.379395,236.326645 
	C581.267700,253.199860 557.987549,255.697311 545.844299,248.306259 
	C539.174438,244.246674 534.220947,238.632828 530.320374,231.913925 
	C529.616150,230.700928 527.279541,229.189056 526.359192,229.542191 
	C517.802979,232.825226 509.391937,236.486374 500.762390,240.111938 
	C508.497223,258.300385 520.280640,271.103455 538.711365,277.177124 
	C540.981018,277.925018 542.912048,279.700623 545.000000,281.000000 
M990.942627,23.162405 
	C989.346252,22.777073 987.750549,22.059059 986.153320,22.055618 
	C955.324341,21.989168 924.495056,22.003786 893.665894,22.014572 
	C892.220032,22.015079 890.774170,22.135033 889.311157,22.200121 
	C889.311157,87.928658 889.311157,153.316940 889.311157,218.993927 
	C902.901306,218.993927 916.207275,218.993912 929.513184,218.993927 
	C948.677246,218.993942 967.841614,219.032578 987.004883,218.907303 
	C988.285339,218.898926 989.557617,217.647797 990.971619,216.049545 
	C990.978882,159.688309 990.992493,103.327065 990.985779,46.965824 
	C990.984924,39.321781 990.881897,31.677750 990.942627,23.162405 
M487.011383,150.721954 
	C486.567047,146.948685 486.532349,143.072113 485.611237,139.419067 
	C480.068054,117.434723 466.947662,101.663704 445.970703,92.922066 
	C432.293640,87.222504 418.138275,86.430931 403.587189,89.823242 
	C382.046844,94.844963 366.804565,107.383469 357.830017,127.380905 
	C351.081177,142.418945 350.308746,158.187286 354.572784,174.008011 
	C359.751129,193.221085 371.882629,206.986252 389.563354,215.740265 
	C403.101471,222.443207 417.519379,223.303009 432.291382,221.058548 
	C449.230591,218.484787 462.651337,210.052994 473.110107,196.747726 
	C483.493134,183.538895 487.794769,168.365891 487.011383,150.721954 
M782.435730,98.975098 
	C776.681641,96.045357 771.215576,92.080368 765.118347,90.383919 
	C748.198730,85.676277 731.787231,87.361191 716.237732,96.276649 
	C705.184875,102.613876 696.797485,111.479095 691.365295,122.696121 
	C683.966553,137.973892 683.413330,154.421570 686.102356,170.897858 
	C688.247559,184.042252 694.809753,195.386871 704.222595,204.426636 
	C712.468567,212.345749 722.512085,218.254837 734.048462,220.472366 
	C748.929382,223.332779 763.656799,223.156509 777.926147,217.057220 
	C788.645264,212.475403 797.250305,205.188171 804.682068,196.444916 
	C806.306152,194.534164 809.021301,191.775696 805.365540,189.241028 
	C798.969666,184.806564 792.331482,180.721512 785.939087,176.282227 
	C783.558350,174.628860 782.373413,174.962952 780.749817,177.307632 
	C778.691223,180.280594 776.456909,183.391312 773.606628,185.513565 
	C758.089172,197.067642 732.913635,196.702423 722.037842,176.442368 
	C723.118591,175.665817 724.154480,174.582428 725.421570,174.060989 
	C751.603210,163.287369 777.795288,152.538879 804.031616,141.899460 
	C807.729675,140.399811 808.928711,138.323303 807.298584,134.602020 
	C801.473572,121.303909 794.852600,108.570717 782.435730,98.975098 
M301.210083,217.814163 
	C311.194366,213.845535 319.587585,207.760727 326.843292,199.773560 
	C335.378784,190.377640 341.143860,179.224274 342.556763,167.143921 
	C344.151611,153.508209 343.779053,139.700150 337.261017,126.326630 
	C329.126587,109.636581 316.790802,98.213181 299.909027,92.052437 
	C280.891541,85.112305 261.995880,86.207413 243.770309,96.027901 
	C224.641617,106.335022 213.127686,121.779236 209.939697,143.353455 
	C207.115005,162.469193 209.990372,180.084259 221.870148,196.053497 
	C228.758179,205.312637 237.613876,212.006790 247.626114,216.531586 
	C264.736267,224.264099 282.652527,223.996185 301.210083,217.814163 
M641.004883,126.500000 
	C641.004944,155.165283 641.064453,183.830841 640.937378,212.495560 
	C640.919495,216.536133 642.064758,218.231216 646.326355,218.066742 
	C653.315674,217.797043 660.340515,217.691803 667.316406,218.099274 
	C672.041992,218.375290 673.098633,216.719498 673.088379,212.218430 
	C672.948120,150.721634 672.996399,89.224411 672.982971,27.727295 
	C672.982605,25.962233 672.815613,24.197206 672.703735,21.985527 
	C663.893677,21.985527 655.575867,22.281693 647.292175,21.878031 
	C642.052673,21.622713 640.877502,23.601654 640.906372,28.505125 
	C641.096985,60.835823 641.004883,93.168182 641.004883,126.500000 
z"/>
<path fill="#FFFFFF" opacity="1.000000" stroke="none" 
	d="
M1273.467773,281.000000 
	C1272.999390,232.663910 1272.998657,184.327805 1273.015137,135.061401 
	C1272.990356,124.731117 1272.948486,115.331139 1272.906738,105.931168 
	C1272.939453,71.266014 1272.972046,36.600853 1273.002319,1.467849 
	C1457.275391,1.000000 1641.550659,1.000000 1825.913086,1.000000 
	C1825.913086,94.245888 1825.913086,187.491882 1825.913086,281.000000 
	C1641.978638,281.000000 1457.957153,281.000000 1273.467773,281.000000 
z"/>
<path fill="#212123" opacity="1.000000" stroke="none" 
	d="
M545.468628,281.000000 
	C542.912048,279.700623 540.981018,277.925018 538.711365,277.177124 
	C520.280640,271.103455 508.497223,258.300385 500.762390,240.111938 
	C509.391937,236.486374 517.802979,232.825226 526.359192,229.542191 
	C527.279541,229.189056 529.616150,230.700928 530.320374,231.913925 
	C534.220947,238.632828 539.174438,244.246674 545.844299,248.306259 
	C557.987549,255.697311 581.267700,253.199860 589.379395,236.326645 
	C594.102905,226.501129 595.619812,219.322891 594.695129,208.505051 
	C584.299377,219.559219 571.382324,222.507202 557.051758,222.076660 
	C542.369568,221.635559 529.902222,215.847870 519.204712,206.529541 
	C501.941986,191.492310 494.365356,172.110794 496.031311,149.252380 
	C497.085541,134.787292 502.787689,121.951286 511.833160,110.960190 
	C519.439514,101.717758 529.360413,94.719360 540.817993,91.071358 
	C559.088257,85.254234 576.737122,86.293320 592.396057,98.943840 
	C592.911133,99.359955 593.432312,99.770210 593.972412,100.152397 
	C594.072876,100.223457 594.277771,100.146782 594.799683,100.118515 
	C594.959839,97.643860 595.123657,95.112007 595.322327,92.041832 
	C604.437744,92.041832 613.224426,91.934685 622.000854,92.186630 
	C623.019958,92.215889 624.314148,94.091354 624.870361,95.375336 
	C625.357727,96.500374 624.994080,97.997223 624.994141,99.329842 
	C624.995667,138.812149 624.998230,178.294464 624.994263,217.776779 
	C624.992859,231.735886 620.706482,244.818878 613.501526,256.231018 
	C607.366516,265.948425 598.195923,273.527344 586.503113,276.993164 
	C583.934998,277.754395 581.557556,279.159088 579.046143,280.633728 
	C567.979126,281.000000 556.958191,281.000000 545.468628,281.000000 
M527.999634,157.382965 
	C527.596313,168.935226 533.267517,178.192795 541.258179,185.157181 
	C550.606934,193.305267 562.264648,195.443909 574.390930,191.000259 
	C585.629578,186.881897 591.086853,177.601929 594.939148,167.112228 
	C597.717834,159.545944 597.079773,151.847717 594.977661,144.239502 
	C589.300232,123.691559 570.747986,110.220413 549.291931,120.153938 
	C534.554871,126.976768 527.685425,139.982056 527.999634,157.382965 
z"/>
<path fill="#232529" opacity="1.000000" stroke="none" 
	d="
M1076.531372,1.000002 
	C1076.629883,3.615317 1076.446533,6.273370 1075.859741,8.839162 
	C1071.296265,28.792761 1066.619751,48.720490 1062.047974,68.672226 
	C1057.628052,87.960838 1053.260864,107.261627 1048.926880,126.569748 
	C1044.880493,144.597305 1040.984985,162.658997 1036.882080,180.673553 
	C1032.678711,199.129303 1028.233887,217.530212 1024.062988,235.993103 
	C1023.210693,239.766144 1021.447693,241.339081 1017.542969,241.052353 
	C1013.732117,240.772537 1009.884338,241.026505 1006.053528,240.982712 
	C1001.144409,240.926590 1000.359802,239.806137 1001.538879,234.855270 
	C1004.548828,222.217728 1007.609131,209.591568 1010.516724,196.930405 
	C1015.278748,176.194153 1020.007019,155.449600 1024.619385,134.679611 
	C1030.522827,108.095398 1036.210693,81.463135 1042.158936,54.889023 
	C1045.865356,38.330173 1049.890625,21.842783 1053.735840,5.314689 
	C1053.996216,4.195657 1053.944336,3.004027 1054.018799,1.423077 
	C1061.354248,1.000000 1068.708496,1.000000 1076.531372,1.000002 
z"/>
<path fill="#3D8BFF" opacity="1.000000" stroke="none" 
	d="
M1272.545410,105.762665 
	C1272.948486,115.331139 1272.990356,124.731117 1272.969360,134.599945 
	C1272.235107,138.159271 1271.986328,141.420792 1270.817017,144.309769 
	C1266.344971,155.358978 1262.716553,166.990463 1256.534912,177.025757 
	C1252.111206,184.207092 1246.414429,191.058350 1239.347290,196.749954 
	C1233.156128,201.736023 1227.016479,206.580582 1220.089478,210.367859 
	C1207.230591,217.398224 1193.657715,222.051865 1178.762939,222.007660 
	C1165.768799,221.969086 1152.861938,222.305130 1140.141479,218.213333 
	C1128.719360,214.539154 1118.325562,209.095566 1108.845581,202.090164 
	C1096.142334,192.702835 1085.857422,180.778687 1079.333252,166.404037 
	C1073.151978,152.784760 1068.010620,138.605194 1068.983398,123.103798 
	C1069.448608,115.689537 1068.270874,107.850243 1070.301392,100.925957 
	C1074.041138,88.171700 1076.682373,74.675430 1085.564087,64.012619 
	C1092.240967,55.996616 1098.922485,47.932674 1106.253174,40.535339 
	C1109.818481,36.937733 1114.822632,34.731567 1119.273926,32.059628 
	C1121.949707,30.453472 1124.693237,28.810404 1127.618774,27.798687 
	C1135.633057,25.027189 1143.600952,21.472235 1151.882080,20.285902 
	C1162.301270,18.793291 1173.111084,18.288864 1183.574829,19.263784 
	C1198.504028,20.654762 1212.512939,25.464056 1225.463257,33.717285 
	C1237.690918,41.510025 1247.521973,51.523006 1256.088623,62.856136 
	C1259.542847,67.425995 1261.494751,73.143715 1264.050171,78.378227 
	C1268.257690,86.997169 1271.421875,95.939880 1272.545410,105.762665 
z"/>
<path fill="#3D8AFF" opacity="1.000000" stroke="none" 
	d="
M990.833679,216.974686 
	C989.557617,217.647797 988.285339,218.898926 987.004883,218.907303 
	C967.841614,219.032578 948.677246,218.993942 929.513184,218.993927 
	C916.207275,218.993912 902.901306,218.993927 889.311157,218.993927 
	C889.311157,153.316940 889.311157,87.928658 889.311157,22.200121 
	C890.774170,22.135033 892.220032,22.015079 893.665894,22.014572 
	C924.495056,22.003786 955.324341,21.989168 986.153320,22.055618 
	C987.750549,22.059059 989.346252,22.777073 990.626099,23.917946 
	C990.206421,25.657429 990.013184,26.641350 990.013000,27.625319 
	C989.998596,89.320656 989.994446,151.016006 990.034851,212.711334 
	C990.035767,214.132614 990.555786,215.553558 990.833679,216.974686 
z"/>
<path fill="#171719" opacity="1.000000" stroke="none" 
	d="
M487.011749,151.195435 
	C487.794769,168.365891 483.493134,183.538895 473.110107,196.747726 
	C462.651337,210.052994 449.230591,218.484787 432.291382,221.058548 
	C417.519379,223.303009 403.101471,222.443207 389.563354,215.740265 
	C371.882629,206.986252 359.751129,193.221085 354.572784,174.008011 
	C350.308746,158.187286 351.081177,142.418945 357.830017,127.380905 
	C366.804565,107.383469 382.046844,94.844963 403.587189,89.823242 
	C418.138275,86.430931 432.293640,87.222504 445.970703,92.922066 
	C466.947662,101.663704 480.068054,117.434723 485.611237,139.419067 
	C486.532349,143.072113 486.567047,146.948685 487.011749,151.195435 
z"/>
<path fill="#212123" opacity="1.000000" stroke="none" 
	d="
M782.699585,99.227539 
	C794.852600,108.570717 801.473572,121.303909 807.298584,134.602020 
	C808.928711,138.323303 807.729675,140.399811 804.031616,141.899460 
	C777.795288,152.538879 751.603210,163.287369 725.421570,174.060989 
	C724.154480,174.582428 723.118591,175.665817 722.037842,176.442368 
	C732.913635,196.702423 758.089172,197.067642 773.606628,185.513565 
	C776.456909,183.391312 778.691223,180.280594 780.749817,177.307632 
	C782.373413,174.962952 783.558350,174.628860 785.939087,176.282227 
	C792.331482,180.721512 798.969666,184.806564 805.365540,189.241028 
	C809.021301,191.775696 806.306152,194.534164 804.682068,196.444916 
	C797.250305,205.188171 788.645264,212.475403 777.926147,217.057220 
	C763.656799,223.156509 748.929382,223.332779 734.048462,220.472366 
	C722.512085,218.254837 712.468567,212.345749 704.222595,204.426636 
	C694.809753,195.386871 688.247559,184.042252 686.102356,170.897858 
	C683.413330,154.421570 683.966553,137.973892 691.365295,122.696121 
	C696.797485,111.479095 705.184875,102.613876 716.237732,96.276649 
	C731.787231,87.361191 748.198730,85.676277 765.118347,90.383919 
	C771.215576,92.080368 776.681641,96.045357 782.699585,99.227539 
M720.380920,134.040405 
	C718.025635,138.995575 716.025940,144.025986 716.389160,150.645126 
	C734.857910,142.846771 752.411072,135.435028 770.242554,127.905739 
	C767.333435,122.412537 763.429688,119.270103 758.210693,118.051109 
	C742.930664,114.482185 730.521057,118.638382 720.380920,134.040405 
z"/>
<path fill="#212123" opacity="1.000000" stroke="none" 
	d="
M300.826721,217.909088 
	C282.652527,223.996185 264.736267,224.264099 247.626114,216.531586 
	C237.613876,212.006790 228.758179,205.312637 221.870148,196.053497 
	C209.990372,180.084259 207.115005,162.469193 209.939697,143.353455 
	C213.127686,121.779236 224.641617,106.335022 243.770309,96.027901 
	C261.995880,86.207413 280.891541,85.112305 299.909027,92.052437 
	C316.790802,98.213181 329.126587,109.636581 337.261017,126.326630 
	C343.779053,139.700150 344.151611,153.508209 342.556763,167.143921 
	C341.143860,179.224274 335.378784,190.377640 326.843292,199.773560 
	C319.587585,207.760727 311.194366,213.845535 300.826721,217.909088 
M291.562500,120.809799 
	C281.760590,115.717140 271.637726,115.497635 261.849335,120.183525 
	C245.285400,128.112976 238.199951,145.725708 241.437378,162.920242 
	C243.380524,173.240570 248.294556,181.602341 256.998291,187.287796 
	C270.963501,196.410202 289.805939,194.700836 299.968201,183.404968 
	C306.463928,176.184647 310.616608,168.086426 311.297455,157.718552 
	C312.239960,143.366318 304.446533,127.674042 291.562500,120.809799 
z"/>
<path fill="#212123" opacity="1.000000" stroke="none" 
	d="
M641.004883,126.000000 
	C641.004883,93.168182 641.096985,60.835823 640.906372,28.505125 
	C640.877502,23.601654 642.052673,21.622713 647.292175,21.878031 
	C655.575867,22.281693 663.893677,21.985527 672.703735,21.985527 
	C672.815613,24.197206 672.982605,25.962233 672.982971,27.727295 
	C672.996399,89.224411 672.948120,150.721634 673.088379,212.218430 
	C673.098633,216.719498 672.041992,218.375290 667.316406,218.099274 
	C660.340515,217.691803 653.315674,217.797043 646.326355,218.066742 
	C642.064758,218.231216 640.919495,216.536133 640.937378,212.495560 
	C641.064453,183.830841 641.004944,155.165283 641.004883,126.000000 
z"/>
<path fill="#4D80FF" opacity="1.000000" stroke="none" 
	d="
M990.902649,216.512115 
	C990.555786,215.553558 990.035767,214.132614 990.034851,212.711334 
	C989.994446,151.016006 989.998596,89.320656 990.013000,27.625319 
	C990.013184,26.641350 990.206421,25.657429 990.567871,24.353600 
	C990.881897,31.677750 990.984924,39.321781 990.985779,46.965824 
	C990.992493,103.327065 990.978882,159.688309 990.902649,216.512115 
z"/>
<path fill="#000000" opacity="1.000000" stroke="none" 
	d="
M527.999451,156.907425 
	C527.685425,139.982056 534.554871,126.976768 549.291931,120.153938 
	C570.747986,110.220413 589.300232,123.691559 594.977661,144.239502 
	C597.079773,151.847717 597.717834,159.545944 594.939148,167.112228 
	C591.086853,177.601929 585.629578,186.881897 574.390930,191.000259 
	C562.264648,195.443909 550.606934,193.305267 541.258179,185.157181 
	C533.267517,178.192795 527.596313,168.935226 527.999451,156.907425 
z"/>
<path fill="#000000" opacity="1.000000" stroke="none" 
	d="
M720.589783,133.727737 
	C730.521057,118.638382 742.930664,114.482185 758.210693,118.051109 
	C763.429688,119.270103 767.333435,122.412537 770.242554,127.905739 
	C752.411072,135.435028 734.857910,142.846771 716.389160,150.645126 
	C716.025940,144.025986 718.025635,138.995575 720.589783,133.727737 
z"/>
<path fill="#000000" opacity="1.000000" stroke="none" 
	d="
M291.907471,120.956909 
	C304.446533,127.674042 312.239960,143.366318 311.297455,157.718552 
	C310.616608,168.086426 306.463928,176.184647 299.968201,183.404968 
	C289.805939,194.700836 270.963501,196.410202 256.998291,187.287796 
	C248.294556,181.602341 243.380524,173.240570 241.437378,162.920242 
	C238.199951,145.725708 245.285400,128.112976 261.849335,120.183525 
	C271.637726,115.497635 281.760590,115.717140 291.907471,120.956909 
z"/>
</svg>