<svg version="1.1" id="Layer_1" xmlns="http://www.w3.org/2000/svg" xmlns:xlink="http://www.w3.org/1999/xlink" x="0px" y="0px"
	 width="100%" viewBox="0 0 1825 280" enable-background="new 0 0 1825 280" xml:space="preserve">
<path fill="#020202" opacity="1.000000" stroke="none" 
	d="
M545.000000,281.000000 
	C363.707489,281.000000 182.415009,281.000000 1.061251,281.000000 
	C1.061251,187.728546 1.061251,94.457054 1.061251,1.000000 
	C351.692474,1.000000 702.385010,1.000000 1053.561401,1.419937 
	C1050.107300,19.451294 1046.138428,37.055885 1042.238281,54.675694 
	C1036.322510,81.401115 1030.504028,108.148102 1024.550659,134.865097 
	C1019.899536,155.737991 1015.144104,176.587891 1010.362549,197.431381 
	C1007.512817,209.853958 1004.511169,222.241638 1001.601868,234.650650 
	C1000.400024,239.776932 1001.288025,240.902618 1006.578125,240.975784 
	C1010.075256,241.024155 1013.591064,240.766373 1017.067078,241.041794 
	C1021.397583,241.384888 1023.280457,239.543350 1024.205200,235.365997 
	C1028.321289,216.771530 1032.744629,198.245270 1036.968506,179.674240 
	C1040.979126,162.040451 1044.856812,144.376434 1048.835205,126.735222 
	C1053.541138,105.868172 1058.316406,85.016747 1063.014526,64.147919 
	C1065.639160,52.488808 1068.161255,40.806675 1070.742798,29.137821 
	C1072.818359,19.756296 1074.913574,10.379107 1077.000000,1.000003 
	C1326.666626,1.000000 1576.333374,1.000000 1826.000000,1.000000 
	C1826.000000,5.747759 1826.000000,10.411833 1825.586670,15.482668 
	C1822.720337,15.588351 1820.270874,15.066092 1817.813843,15.027103 
	C1810.022583,14.903471 1810.014038,14.973211 1810.002563,22.563305 
	C1809.992188,29.432074 1810.000366,36.300873 1810.000366,43.298096 
	C1800.521606,34.353260 1780.639648,37.223518 1773.051392,45.223232 
	C1762.100098,56.768017 1759.587524,75.125412 1769.364502,89.112213 
	C1772.849487,94.097878 1778.742676,98.363358 1784.459106,100.601639 
	C1793.166260,104.011002 1802.286499,103.077766 1810.747070,94.820015 
	C1810.400757,101.710564 1814.270996,101.017601 1817.619019,100.894356 
	C1820.419800,100.791245 1823.206909,100.312454 1826.000000,100.000008 
	C1826.000000,160.315475 1826.000000,220.630936 1826.000000,281.000000 
	C1410.640869,281.000000 995.281677,281.000000 579.562988,280.661987 
	C579.866272,279.880829 580.475220,279.301178 581.200073,279.015137 
	C591.053162,275.126923 600.405029,271.032043 608.057495,262.829010 
	C618.836914,251.274078 624.084534,237.121552 624.524475,222.667725 
	C625.796570,180.873459 624.954895,139.015594 625.028564,97.182861 
	C625.035461,93.235252 623.347107,91.868401 619.585754,91.976364 
	C614.090393,92.134109 608.586975,92.011185 603.087036,92.012383 
	C595.544617,92.014030 595.550354,92.016441 594.781189,99.189438 
	C594.756409,99.420128 594.347046,99.609566 593.939880,99.978867 
	C593.321899,99.561981 592.636658,99.142746 591.997681,98.662071 
	C584.582214,93.084106 576.522400,88.908798 567.141541,88.061867 
	C544.775635,86.042603 526.363770,94.550674 511.922424,110.938576 
	C502.693115,121.411896 497.452454,134.316727 496.068176,148.461807 
	C492.553223,184.377594 517.506836,216.559631 551.189087,221.401657 
	C565.444092,223.450882 579.546265,222.498596 590.973083,211.709686 
	C591.992188,210.747467 593.307007,210.098328 594.766479,209.113480 
	C595.704834,218.814575 593.575012,227.337814 589.749695,235.661346 
	C581.493347,253.626541 557.053894,255.591858 545.472412,248.068527 
	C539.181396,243.981918 534.436035,238.645874 530.534058,232.324799 
	C529.706482,230.984161 527.177124,229.309250 526.148682,229.695770 
	C517.688477,232.875305 509.397552,236.505402 501.129578,239.967728 
	C507.029266,257.503143 521.622009,271.483154 537.942444,277.079254 
	C540.448425,277.938568 542.654968,279.671265 545.000000,281.000000 
M1692.818848,17.264864 
	C1689.463989,12.842912 1684.817749,14.933993 1680.985107,15.683907 
	C1679.592896,15.956310 1678.287354,20.166796 1678.143066,22.650246 
	C1677.753540,29.351793 1678.009766,36.090878 1678.009766,43.414810 
	C1665.465576,33.760830 1648.832275,36.695019 1639.500244,46.836063 
	C1629.723755,57.459984 1628.683716,76.984070 1636.161133,88.226570 
	C1640.154907,94.231369 1645.544556,99.554253 1653.239014,101.206337 
	C1661.821777,103.049149 1670.015747,102.524887 1676.961670,96.475227 
	C1681.001709,102.139893 1689.945557,102.723450 1693.648682,97.434433 
	C1693.755615,96.782028 1693.955322,96.129715 1693.955933,95.477226 
	C1693.977905,70.875984 1693.995605,46.274704 1693.945557,21.673546 
	C1693.943115,20.456495 1693.330078,19.240686 1692.818848,17.264864 
M990.942566,23.148424 
	C989.341858,22.767002 987.741882,22.056290 986.140320,22.052870 
	C955.314087,21.987041 924.487671,22.001394 893.661255,22.012781 
	C892.216003,22.013315 890.770752,22.139889 889.307861,22.208593 
	C889.307861,87.929314 889.307861,153.312805 889.307861,218.996201 
	C901.893616,218.996201 914.197571,218.996185 926.501465,218.996185 
	C946.663574,218.996185 966.825989,219.032852 986.987305,218.910324 
	C988.273804,218.902512 989.552856,217.660782 990.973389,216.065140 
	C990.980774,159.362534 990.994202,102.659935 990.987976,45.957333 
	C990.987183,38.644669 990.883606,31.332014 990.942566,23.148424 
M1255.570190,62.023315 
	C1248.858887,54.951317 1242.677368,47.261253 1235.314697,40.948898 
	C1223.604614,30.909328 1210.009888,23.995781 1194.688721,21.056973 
	C1179.536255,18.150568 1164.422729,18.168156 1149.127319,20.777739 
	C1137.854980,22.700941 1127.755981,27.036955 1118.019043,32.575012 
	C1113.930420,34.900455 1109.516968,37.133564 1106.312866,40.438148 
	C1099.062622,47.916107 1092.344482,55.926830 1085.645020,63.918022 
	C1076.727295,74.555237 1074.058716,88.034790 1070.306641,100.778221 
	C1068.270020,107.695290 1069.410400,115.530434 1068.989502,122.944199 
	C1068.092041,138.759796 1073.277588,153.192551 1079.733765,167.100906 
	C1086.325806,181.301819 1096.516479,193.034058 1109.051880,202.290070 
	C1118.650757,209.377686 1129.194092,215.017960 1140.837036,218.499680 
	C1152.403687,221.958572 1164.156738,221.897125 1176.017334,222.086945 
	C1191.625366,222.336746 1205.926025,218.019470 1219.462280,210.800781 
	C1231.060303,204.615570 1240.795654,196.241974 1249.539551,186.266800 
	C1258.681519,175.837494 1264.066650,163.652145 1268.878662,151.124283 
	C1273.745972,138.452988 1273.692017,124.952179 1272.831665,111.651398 
	C1272.332275,103.930084 1271.173950,95.969559 1268.582153,88.736626 
	C1265.337769,79.682404 1260.317383,71.264641 1255.570190,62.023315 
M353.078674,143.758224 
	C353.058441,151.015396 352.387970,158.341019 353.143311,165.516541 
	C355.180511,184.868317 365.109833,199.557358 380.917236,210.685089 
	C395.018250,220.611572 410.806671,223.159897 427.436920,221.891602 
	C440.533386,220.892822 452.576111,216.233994 462.535675,207.746231 
	C484.186035,189.295456 491.235077,165.423401 485.107758,138.129074 
	C480.239288,116.442467 466.522186,100.917824 445.892944,92.972466 
	C418.326721,82.355316 392.821228,87.146530 371.144135,107.534615 
	C361.116486,116.965973 355.407806,129.193069 353.078674,143.758224 
M792.278320,208.861191 
	C796.489624,204.657928 800.857300,200.595795 804.838196,196.184586 
	C806.518738,194.322311 808.533813,191.565002 805.315552,189.304077 
	C798.928101,184.816742 792.430298,180.469208 785.770447,176.404312 
	C784.709106,175.756516 782.122681,176.345642 781.003662,177.277939 
	C776.723389,180.843735 773.222656,185.531204 768.578491,188.438065 
	C756.292542,196.128082 734.289978,195.455215 724.018188,179.819824 
	C721.867371,176.545868 722.515137,175.251251 725.725159,173.937576 
	C751.856079,163.243698 777.954590,152.470490 804.097107,141.805023 
	C807.852966,140.272751 808.895081,137.934753 807.146667,134.375565 
	C804.217407,128.412552 801.531616,122.298935 798.171814,116.584755 
	C790.627991,103.754662 779.480347,94.769356 765.403625,90.510300 
	C748.322083,85.342155 731.597534,87.278557 715.943726,96.479210 
	C704.385925,103.272415 695.955933,112.735413 690.454651,124.935555 
	C685.386780,136.174591 684.634277,148.024246 684.992249,160.096146 
	C685.572571,179.669495 693.497925,195.708817 708.583435,207.985611 
	C724.544617,220.975021 743.097229,223.941711 763.077820,221.299805 
	C773.823669,219.878952 782.872437,214.997314 792.278320,208.861191 
M240.374924,97.857986 
	C229.245056,103.791504 220.758530,112.812263 215.846634,123.974220 
	C204.898972,148.852036 205.544556,173.255798 222.049713,196.177322 
	C228.800934,205.553101 237.793747,212.239685 247.920578,216.670441 
	C271.723663,227.084900 305.813293,223.635284 326.119202,200.587524 
	C341.304657,183.351593 345.736542,163.527252 342.212524,141.743683 
	C339.850067,127.140282 332.604523,114.617523 321.246094,104.753540 
	C309.713898,94.738686 296.413971,88.946388 281.122437,88.026588 
	C266.827026,87.166702 253.307281,89.764282 240.374924,97.857986 
M672.990295,212.302475 
	C672.990662,164.153625 672.991333,116.004776 672.991150,67.855927 
	C672.991150,54.194305 672.900330,40.531738 673.045837,26.871681 
	C673.085205,23.176491 671.735657,21.827440 668.086609,21.923132 
	C661.427063,22.097765 654.759460,21.954973 648.095337,21.971241 
	C641.254089,21.987940 641.015442,22.198084 641.012390,28.924744 
	C640.997681,61.912560 641.004883,94.900383 641.005127,127.888206 
	C641.005249,155.877869 641.071289,183.867844 640.940491,211.856903 
	C640.919678,216.302475 642.278992,218.240463 646.951172,218.059555 
	C653.938110,217.789017 660.946045,217.870361 667.939514,218.037552 
	C671.461487,218.121750 673.416138,217.070755 672.990295,212.302475 
M1367.500244,14.985211 
	C1362.172485,14.986621 1356.838745,15.141720 1351.518677,14.939723 
	C1347.427734,14.784393 1345.934814,16.399986 1345.953979,20.503624 
	C1346.070557,45.477264 1346.065430,70.451942 1345.958008,95.425667 
	C1345.940796,99.433052 1347.213501,101.067940 1351.426758,101.008347 
	C1365.076660,100.815277 1378.732056,100.839821 1392.382935,100.989128 
	C1397.027100,101.039917 1399.285889,99.293762 1398.969116,94.540924 
	C1398.869629,93.049072 1398.858276,91.538010 1398.970093,90.048027 
	C1399.241577,86.435486 1397.684448,84.894615 1394.022461,84.977936 
	C1387.865356,85.118027 1381.699951,85.129448 1375.542969,84.984833 
	C1359.410278,84.605904 1362.341187,88.263832 1361.971924,70.301575 
	C1361.904419,67.018486 1363.323730,65.892540 1366.462891,65.966393 
	C1371.954102,66.095604 1377.452881,66.095657 1382.944458,65.974541 
	C1395.372803,65.700439 1393.925903,68.761086 1393.991211,53.790958 
	C1394.003418,50.992065 1392.665894,49.949848 1390.001221,49.984310 
	C1385.173828,50.046749 1380.344849,49.987968 1375.516602,49.987202 
	C1361.482056,49.984974 1361.598145,49.989033 1361.919312,35.761520 
	C1362.004395,31.988340 1363.432007,30.853577 1366.994385,30.934725 
	C1374.482788,31.105310 1381.977661,30.984179 1389.469971,30.983101 
	C1399.357178,30.981678 1399.249634,30.984472 1399.001221,20.962597 
	C1398.897705,16.781271 1397.225098,14.893076 1392.974365,14.956135 
	C1384.817993,15.077132 1376.658325,14.987438 1367.500244,14.985211 
M1561.356934,84.269836 
	C1557.716797,82.162300 1554.076782,80.054764 1550.246094,77.836945 
	C1544.264404,85.897446 1537.581299,90.391335 1528.027832,86.006615 
	C1523.195435,83.788696 1520.130981,80.236977 1519.873535,73.988441 
	C1522.025879,73.988441 1523.813965,73.988640 1525.602173,73.988411 
	C1536.419312,73.987007 1547.237793,73.889168 1558.052856,74.038071 
	C1561.671997,74.087906 1563.445312,72.855453 1562.978394,69.141220 
	C1562.427612,64.760918 1562.377808,60.217403 1561.119873,56.043388 
	C1555.328369,36.829235 1537.066650,34.102859 1521.888794,40.003304 
	C1505.521729,46.366096 1499.456177,63.500324 1504.823242,80.773865 
	C1508.411987,92.324234 1516.634766,99.296631 1528.109619,101.594788 
	C1540.112915,103.998772 1550.886475,100.641235 1559.089233,91.094414 
	C1560.472046,89.485199 1560.840698,87.004570 1561.356934,84.269836 
M1751.379639,73.988815 
	C1754.397583,73.282318 1759.168579,76.019638 1759.829590,70.558762 
	C1761.150879,59.643513 1758.068970,50.007973 1749.197876,43.136448 
	C1739.324219,35.488377 1727.616577,35.023090 1717.255005,40.292439 
	C1701.021118,48.547947 1695.935181,66.320183 1702.111206,82.499657 
	C1711.026978,105.856567 1742.239258,109.035316 1756.931763,89.509438 
	C1759.280762,86.387787 1759.207275,84.189644 1755.565186,82.449905 
	C1754.519043,81.950256 1753.396729,81.562561 1752.444336,80.922745 
	C1748.910522,78.548828 1745.964233,77.888321 1743.469360,82.520012 
	C1742.624878,84.087875 1740.476929,85.117294 1738.728638,86.007629 
	C1729.254883,90.831909 1717.064697,84.619904 1716.677734,73.988770 
	C1727.934448,73.988770 1739.173096,73.988770 1751.379639,73.988815 
M1610.712769,38.184200 
	C1602.181152,38.156071 1593.240112,36.026722 1585.869751,43.977779 
	C1584.630005,37.233913 1579.983032,39.394268 1576.330933,38.986813 
	C1571.586060,38.457413 1569.856812,40.379967 1569.927979,45.210468 
	C1570.151611,60.368412 1569.956543,75.531998 1570.025635,90.692932 
	C1570.078003,102.151314 1568.535400,100.763321 1580.564209,100.989189 
	C1584.209229,101.057625 1585.100952,99.467354 1585.034424,96.185989 
	C1584.885742,88.858315 1584.769531,81.516327 1585.073730,74.198204 
	C1585.258423,69.757629 1585.823730,65.233459 1586.992188,60.958424 
	C1588.446899,55.635643 1594.493164,51.728313 1599.533203,52.050995 
	C1605.277466,52.418774 1608.413940,54.963280 1609.077881,62.078373 
	C1609.955688,71.487541 1609.866577,80.996544 1609.977661,90.465157 
	C1610.108765,101.626778 1610.003784,101.525330 1620.984619,100.993523 
	C1624.036255,100.845726 1625.036255,99.688049 1625.016113,96.769737 
	C1624.929688,84.274849 1625.229736,71.771996 1624.885498,59.285919 
	C1624.625732,49.864166 1621.003540,42.135292 1610.712769,38.184200 
M1449.009888,81.466339 
	C1447.058838,78.568184 1445.397095,75.407928 1443.075562,72.845268 
	C1440.723267,70.248566 1441.223389,68.260826 1443.049805,65.860153 
	C1446.356201,61.513767 1449.689941,57.177074 1452.756348,52.662415 
	C1455.457153,48.685928 1457.808350,44.472000 1460.313843,40.362938 
	C1459.950073,39.910690 1459.586182,39.458439 1459.222290,39.006191 
	C1455.771729,39.006191 1452.292114,39.288822 1448.877930,38.936581 
	C1444.334961,38.467892 1441.380859,40.074890 1439.174805,44.083485 
	C1436.927612,48.167141 1434.134277,51.950302 1431.341919,56.229805 
	C1427.208618,50.430603 1423.721802,45.398617 1420.075073,40.485313 
	C1418.423584,38.260178 1406.608032,38.343964 1402.369141,40.579430 
	C1402.835327,41.570690 1403.179077,42.663788 1403.800293,43.565689 
	C1408.795898,50.818184 1413.540161,58.275436 1419.003174,65.160782 
	C1421.747437,68.619789 1421.074707,70.736847 1418.794434,73.768562 
	C1413.430054,80.900917 1408.254028,88.182182 1403.217041,95.550262 
	C1401.010010,98.778656 1402.253784,100.757965 1406.295410,100.903404 
	C1409.455566,101.017128 1412.634644,101.079338 1415.781860,100.846169 
	C1417.125244,100.746628 1418.910400,100.207802 1419.632202,99.231163 
	C1422.681641,95.104584 1425.386841,90.724869 1428.261230,86.466835 
	C1429.195923,85.082130 1430.262573,83.786377 1431.657227,81.934204 
	C1433.913208,85.728531 1435.993164,88.569344 1437.394775,91.712624 
	C1441.001465,99.801300 1447.173706,102.223808 1455.544189,100.982292 
	C1459.851562,100.343414 1460.869507,98.904442 1458.475098,95.170235 
	C1455.608032,90.699226 1452.489502,86.389496 1449.009888,81.466339 
M1509.407471,173.006729 
	C1499.297363,165.846832 1489.386475,166.055801 1479.336060,174.729614 
	C1479.113403,168.360504 1474.946167,169.983871 1471.932495,170.264374 
	C1470.860596,170.364151 1469.160278,172.606598 1469.149536,173.882874 
	C1468.975708,194.337830 1468.995239,214.794937 1469.117676,235.250656 
	C1469.124756,236.435028 1470.111572,238.262543 1471.109741,238.683853 
	C1476.509033,240.962921 1479.969360,238.512863 1479.987183,232.667160 
	C1480.005005,226.818665 1479.991089,220.970062 1479.991089,214.556396 
	C1492.121094,221.952835 1502.186523,221.215256 1510.233887,214.448517 
	C1521.760010,204.756531 1521.037231,183.026215 1509.407471,173.006729 
M1479.625854,99.066566 
	C1485.142090,102.913124 1491.352783,102.419922 1497.436279,101.461647 
	C1499.085327,101.201897 1501.355591,99.206337 1501.712280,97.637306 
	C1502.396240,94.627914 1502.045288,91.346306 1501.872314,88.191422 
	C1501.746460,85.897911 1500.761108,85.197556 1498.196289,86.082153 
	C1491.224976,88.486496 1488.136719,86.248306 1487.977051,78.852036 
	C1487.822510,71.690857 1488.021606,64.522461 1487.903320,57.359905 
	C1487.849854,54.123966 1489.203125,52.807392 1492.379272,52.977886 
	C1494.537598,53.093739 1496.728638,53.124477 1498.866211,52.869087 
	C1499.852051,52.751297 1501.195435,52.087666 1501.608765,51.279057 
	C1504.797607,45.040710 1501.165894,39.061028 1494.286865,39.005314 
	C1487.943237,38.953945 1487.943359,38.953941 1487.927734,31.059361 
	C1487.911743,23.016409 1487.911621,23.016409 1479.952759,23.009747 
	C1472.013428,23.003098 1472.013672,23.003098 1472.005005,30.829412 
	C1472.003662,31.995728 1471.912964,33.169933 1472.016357,34.326859 
	C1472.320190,37.730408 1470.909790,39.326519 1467.416016,39.013805 
	C1460.717407,38.414249 1462.299927,43.330238 1461.974243,47.105808 
	C1461.624390,51.163197 1462.675415,53.629372 1467.380005,53.015881 
	C1470.820435,52.567238 1472.113892,54.200794 1472.047241,57.641254 
	C1471.895630,65.469261 1471.877075,73.305046 1472.046021,81.132454 
	C1472.189331,87.768463 1473.464966,94.075569 1479.625854,99.066566 
M1553.176636,219.983246 
	C1561.949463,219.367126 1567.637451,214.480759 1571.768066,207.187759 
	C1565.862427,202.535873 1564.549316,202.526077 1559.337646,206.766830 
	C1552.347656,212.454636 1541.802124,210.803772 1537.712158,203.381409 
	C1534.963257,198.392761 1535.756470,197.027435 1541.540649,197.001953 
	C1550.523926,196.962387 1559.508301,196.919769 1568.490601,197.018982 
	C1571.589966,197.053223 1573.238037,196.031281 1572.987671,192.716019 
	C1572.504150,186.314423 1571.273804,180.157059 1566.717529,175.266434 
	C1559.907227,167.956360 1547.791626,165.643845 1538.671875,170.247513 
	C1527.426392,175.924164 1523.918823,185.386353 1524.656982,196.065277 
	C1525.717896,211.412170 1535.689575,221.298218 1553.176636,219.983246 
M1400.139771,189.439590 
	C1391.845825,192.384323 1389.919678,201.087006 1391.319580,207.967926 
	C1392.687012,214.690048 1399.745972,220.291779 1407.219482,219.820587 
	C1412.739014,219.472580 1418.162598,217.602814 1423.767456,216.380844 
	C1424.436035,220.958954 1428.937622,218.915146 1432.187988,218.806488 
	C1436.042725,218.677643 1434.914551,215.263412 1434.944824,213.006302 
	C1435.058472,204.521988 1435.025146,196.035004 1434.974243,187.549454 
	C1434.942017,182.154755 1433.037231,177.502045 1429.169434,173.677094 
	C1422.769775,167.348297 1409.473633,165.959671 1400.220093,171.074448 
	C1397.596558,172.524643 1394.181763,174.868408 1393.771484,177.256317 
	C1393.447754,179.139618 1397.177979,181.719528 1399.056885,183.930313 
	C1407.717041,177.346497 1413.703003,176.291351 1419.719360,179.899902 
	C1422.835938,181.769211 1424.519531,184.288132 1423.851685,186.827179 
	C1415.690674,187.633224 1408.263550,188.366776 1400.139771,189.439590 
M1347.831787,160.972427 
	C1350.826904,160.978851 1353.846313,161.230133 1356.811646,160.935822 
	C1361.568848,160.463638 1363.189697,162.224274 1363.105835,167.091553 
	C1362.839233,182.561844 1362.950928,198.040161 1363.090210,213.513840 
	C1363.105957,215.255493 1363.728394,217.909348 1364.927979,218.561874 
	C1369.806030,221.215408 1373.977539,218.429825 1373.984253,212.892746 
	C1374.003662,197.251480 1374.063721,181.609634 1373.942749,165.969299 
	C1373.915039,162.383636 1375.052246,160.715469 1378.810181,160.954071 
	C1381.958740,161.153961 1385.144897,160.797836 1388.288696,161.031891 
	C1392.679932,161.358810 1393.010010,158.826248 1393.061890,155.410980 
	C1393.116699,151.795074 1392.306152,149.878983 1388.112183,149.941681 
	C1375.136230,150.135635 1362.153809,149.916351 1349.178345,150.127518 
	C1347.477295,150.155212 1344.410767,151.702728 1344.374390,152.639572 
	C1344.263550,155.488739 1341.922241,159.536942 1347.831787,160.972427 
M1446.007324,197.499847 
	C1446.010254,203.154465 1446.176636,208.815323 1445.960815,214.461578 
	C1445.805908,218.512115 1447.962769,219.085175 1451.258057,219.039780 
	C1454.515625,218.994888 1457.115112,218.987045 1457.051270,214.449127 
	C1456.864380,201.146790 1456.884644,187.838928 1457.045166,174.535904 
	C1457.094116,170.491653 1455.039062,169.912781 1451.743408,169.959320 
	C1448.488281,170.005310 1445.808228,170.003159 1445.952637,174.548737 
	C1446.184814,181.859009 1446.010132,189.182205 1446.007324,197.499847 
M1583.133789,218.418823 
	C1585.102783,218.603867 1587.069092,218.824966 1589.041260,218.965164 
	C1591.738159,219.156891 1593.001099,217.921219 1592.992432,215.154617 
	C1592.948975,201.337189 1592.936768,187.519440 1592.987915,173.702072 
	C1593.001953,169.941589 1590.517212,169.893723 1587.901245,170.031799 
	C1585.420898,170.162704 1582.043335,169.116455 1582.072266,173.401215 
	C1582.171997,188.194534 1582.369019,202.987198 1583.133789,218.418823 
M1458.889160,154.801941 
	C1456.762573,148.976776 1451.087646,146.918686 1447.023438,150.602249 
	C1444.527954,152.863968 1443.400513,155.469696 1444.951538,158.988312 
	C1446.641357,162.821655 1449.657593,163.312256 1453.106445,162.860809 
	C1457.242920,162.319382 1458.982056,159.621811 1458.889160,154.801941 
M1589.242920,162.961502 
	C1594.327881,162.354279 1595.270142,158.721390 1594.781738,154.646225 
	C1594.242310,150.144241 1590.905396,148.799179 1586.809204,149.063400 
	C1582.500488,149.341309 1580.768066,152.319183 1580.508179,156.068771 
	C1580.230591,160.073990 1583.370483,162.596283 1589.242920,162.961502 
z"/>
<path fill="#212123" opacity="1.000000" stroke="none" 
	d="
M545.468628,281.000000 
	C542.654968,279.671265 540.448425,277.938568 537.942444,277.079254 
	C521.622009,271.483154 507.029266,257.503143 501.129578,239.967728 
	C509.397552,236.505402 517.688477,232.875305 526.148682,229.695770 
	C527.177124,229.309250 529.706482,230.984161 530.534058,232.324799 
	C534.436035,238.645874 539.181396,243.981918 545.472412,248.068527 
	C557.053894,255.591858 581.493347,253.626541 589.749695,235.661346 
	C593.575012,227.337814 595.704834,218.814575 594.766479,209.113480 
	C593.307007,210.098328 591.992188,210.747467 590.973083,211.709686 
	C579.546265,222.498596 565.444092,223.450882 551.189087,221.401657 
	C517.506836,216.559631 492.553223,184.377594 496.068176,148.461807 
	C497.452454,134.316727 502.693115,121.411896 511.922424,110.938576 
	C526.363770,94.550674 544.775635,86.042603 567.141541,88.061867 
	C576.522400,88.908798 584.582214,93.084106 591.997681,98.662071 
	C592.636658,99.142746 593.321899,99.561981 593.939880,99.978867 
	C594.347046,99.609566 594.756409,99.420128 594.781189,99.189438 
	C595.550354,92.016441 595.544617,92.014030 603.087036,92.012383 
	C608.586975,92.011185 614.090393,92.134109 619.585754,91.976364 
	C623.347107,91.868401 625.035461,93.235252 625.028564,97.182861 
	C624.954895,139.015594 625.796570,180.873459 624.524475,222.667725 
	C624.084534,237.121552 618.836914,251.274078 608.057495,262.829010 
	C600.405029,271.032043 591.053162,275.126923 581.200073,279.015137 
	C580.475220,279.301178 579.866272,279.880829 579.101685,280.661987 
	C567.979126,281.000000 556.958191,281.000000 545.468628,281.000000 
M529.077209,144.838028 
	C528.717651,149.111008 528.337097,153.382355 528.002563,157.657288 
	C527.123169,168.895813 537.879150,185.948425 550.124512,190.530075 
	C561.786621,194.893463 577.772705,192.539597 584.243469,185.095505 
	C594.683228,173.085480 599.665833,159.712906 594.921814,143.805588 
	C588.705322,122.960953 569.969727,110.385452 548.117310,120.551865 
	C538.198669,125.166344 533.000061,134.134766 529.077209,144.838028 
z"/>
<path fill="#232529" opacity="1.000000" stroke="none" 
	d="
M1076.531372,1.000003 
	C1074.913574,10.379107 1072.818359,19.756296 1070.742798,29.137821 
	C1068.161255,40.806675 1065.639160,52.488808 1063.014526,64.147919 
	C1058.316406,85.016747 1053.541138,105.868172 1048.835205,126.735222 
	C1044.856812,144.376434 1040.979126,162.040451 1036.968506,179.674240 
	C1032.744629,198.245270 1028.321289,216.771530 1024.205200,235.365997 
	C1023.280457,239.543350 1021.397583,241.384888 1017.067078,241.041794 
	C1013.591064,240.766373 1010.075256,241.024155 1006.578125,240.975784 
	C1001.288025,240.902618 1000.400024,239.776932 1001.601868,234.650650 
	C1004.511169,222.241638 1007.512817,209.853958 1010.362549,197.431381 
	C1015.144104,176.587891 1019.899536,155.737991 1024.550659,134.865097 
	C1030.504028,108.148102 1036.322510,81.401115 1042.238281,54.675694 
	C1046.138428,37.055885 1050.107300,19.451294 1054.022705,1.419937 
	C1061.354248,1.000000 1068.708496,1.000000 1076.531372,1.000003 
z"/>
<path fill="#232529" opacity="1.000000" stroke="none" 
	d="
M1826.000000,99.531349 
	C1823.206909,100.312454 1820.419800,100.791245 1817.619019,100.894356 
	C1814.270996,101.017601 1810.400757,101.710564 1810.747070,94.820015 
	C1802.286499,103.077766 1793.166260,104.011002 1784.459106,100.601639 
	C1778.742676,98.363358 1772.849487,94.097878 1769.364502,89.112213 
	C1759.587524,75.125412 1762.100098,56.768017 1773.051392,45.223232 
	C1780.639648,37.223518 1800.521606,34.353260 1810.000366,43.298096 
	C1810.000366,36.300873 1809.992188,29.432074 1810.002563,22.563305 
	C1810.014038,14.973211 1810.022583,14.903471 1817.813843,15.027103 
	C1820.270874,15.066092 1822.720337,15.588351 1825.586670,15.944715 
	C1826.000000,43.687561 1826.000000,71.375122 1826.000000,99.531349 
M1808.197266,79.476799 
	C1808.965820,77.286018 1809.868530,75.131973 1810.479980,72.898163 
	C1813.213013,62.914967 1803.243896,50.740242 1793.536865,52.136120 
	C1786.420898,53.159386 1780.011841,60.147476 1779.088379,67.889793 
	C1778.210693,75.250740 1782.644287,83.059456 1789.458862,86.154884 
	C1795.451782,88.877106 1802.550537,86.564934 1808.197266,79.476799 
z"/>
<path fill="#3D8BFF" opacity="1.000000" stroke="none" 
	d="
M1255.816895,62.297722 
	C1260.317383,71.264641 1265.337769,79.682404 1268.582153,88.736626 
	C1271.173950,95.969559 1272.332275,103.930084 1272.831665,111.651398 
	C1273.692017,124.952179 1273.745972,138.452988 1268.878662,151.124283 
	C1264.066650,163.652145 1258.681519,175.837494 1249.539551,186.266800 
	C1240.795654,196.241974 1231.060303,204.615570 1219.462280,210.800781 
	C1205.926025,218.019470 1191.625366,222.336746 1176.017334,222.086945 
	C1164.156738,221.897125 1152.403687,221.958572 1140.837036,218.499680 
	C1129.194092,215.017960 1118.650757,209.377686 1109.051880,202.290070 
	C1096.516479,193.034058 1086.325806,181.301819 1079.733765,167.100906 
	C1073.277588,153.192551 1068.092041,138.759796 1068.989502,122.944199 
	C1069.410400,115.530434 1068.270020,107.695290 1070.306641,100.778221 
	C1074.058716,88.034790 1076.727295,74.555237 1085.645020,63.918022 
	C1092.344482,55.926830 1099.062622,47.916107 1106.312866,40.438148 
	C1109.516968,37.133564 1113.930420,34.900455 1118.019043,32.575012 
	C1127.755981,27.036955 1137.854980,22.700941 1149.127319,20.777739 
	C1164.422729,18.168156 1179.536255,18.150568 1194.688721,21.056973 
	C1210.009888,23.995781 1223.604614,30.909328 1235.314697,40.948898 
	C1242.677368,47.261253 1248.858887,54.951317 1255.816895,62.297722 
z"/>
<path fill="#3D8AFF" opacity="1.000000" stroke="none" 
	d="
M990.835388,216.993088 
	C989.552856,217.660782 988.273804,218.902512 986.987305,218.910324 
	C966.825989,219.032852 946.663574,218.996185 926.501465,218.996185 
	C914.197571,218.996185 901.893616,218.996201 889.307861,218.996201 
	C889.307861,153.312805 889.307861,87.929314 889.307861,22.208593 
	C890.770752,22.139889 892.216003,22.013315 893.661255,22.012781 
	C924.487671,22.001394 955.314087,21.987041 986.140320,22.052870 
	C987.741882,22.056290 989.341858,22.767002 990.700317,23.949810 
	C990.305542,26.232777 990.020264,27.714306 990.019714,29.195946 
	C989.997375,90.010208 989.993469,150.824478 990.035583,211.638718 
	C990.036865,213.423706 990.557129,215.208313 990.835388,216.993088 
z"/>
<path fill="#171719" opacity="1.000000" stroke="none" 
	d="
M353.146851,143.330536 
	C355.407806,129.193069 361.116486,116.965973 371.144135,107.534615 
	C392.821228,87.146530 418.326721,82.355316 445.892944,92.972466 
	C466.522186,100.917824 480.239288,116.442467 485.107758,138.129074 
	C491.235077,165.423401 484.186035,189.295456 462.535675,207.746231 
	C452.576111,216.233994 440.533386,220.892822 427.436920,221.891602 
	C410.806671,223.159897 395.018250,220.611572 380.917236,210.685089 
	C365.109833,199.557358 355.180511,184.868317 353.143311,165.516541 
	C352.387970,158.341019 353.058441,151.015396 353.146851,143.330536 
z"/>
<path fill="#212123" opacity="1.000000" stroke="none" 
	d="
M791.953979,209.016052 
	C782.872437,214.997314 773.823669,219.878952 763.077820,221.299805 
	C743.097229,223.941711 724.544617,220.975021 708.583435,207.985611 
	C693.497925,195.708817 685.572571,179.669495 684.992249,160.096146 
	C684.634277,148.024246 685.386780,136.174591 690.454651,124.935555 
	C695.955933,112.735413 704.385925,103.272415 715.943726,96.479210 
	C731.597534,87.278557 748.322083,85.342155 765.403625,90.510300 
	C779.480347,94.769356 790.627991,103.754662 798.171814,116.584755 
	C801.531616,122.298935 804.217407,128.412552 807.146667,134.375565 
	C808.895081,137.934753 807.852966,140.272751 804.097107,141.805023 
	C777.954590,152.470490 751.856079,163.243698 725.725159,173.937576 
	C722.515137,175.251251 721.867371,176.545868 724.018188,179.819824 
	C734.289978,195.455215 756.292542,196.128082 768.578491,188.438065 
	C773.222656,185.531204 776.723389,180.843735 781.003662,177.277939 
	C782.122681,176.345642 784.709106,175.756516 785.770447,176.404312 
	C792.430298,180.469208 798.928101,184.816742 805.315552,189.304077 
	C808.533813,191.565002 806.518738,194.322311 804.838196,196.184586 
	C800.857300,200.595795 796.489624,204.657928 791.953979,209.016052 
M742.940796,139.468796 
	C751.865723,135.665604 760.790710,131.862396 769.649109,128.087555 
	C766.034485,116.878769 749.384399,114.617416 738.538574,118.503319 
	C725.199707,123.282425 715.361572,137.033356 716.908508,149.411331 
	C717.375977,149.474472 717.938904,149.735474 718.331116,149.576141 
	C726.309265,146.335236 734.267883,143.046219 742.940796,139.468796 
z"/>
<path fill="#212123" opacity="1.000000" stroke="none" 
	d="
M240.702179,97.687355 
	C253.307281,89.764282 266.827026,87.166702 281.122437,88.026588 
	C296.413971,88.946388 309.713898,94.738686 321.246094,104.753540 
	C332.604523,114.617523 339.850067,127.140282 342.212524,141.743683 
	C345.736542,163.527252 341.304657,183.351593 326.119202,200.587524 
	C305.813293,223.635284 271.723663,227.084900 247.920578,216.670441 
	C237.793747,212.239685 228.800934,205.553101 222.049713,196.177322 
	C205.544556,173.255798 204.898972,148.852036 215.846634,123.974220 
	C220.758530,112.812263 229.245056,103.791504 240.702179,97.687355 
M240.620285,153.828323 
	C240.659485,169.817734 247.849152,183.900986 262.601501,190.227737 
	C276.313080,196.108109 292.534607,192.403366 301.002289,182.324936 
	C313.331085,167.650986 314.969727,151.627884 305.829559,134.778641 
	C299.821259,123.702713 290.137543,117.756729 277.644745,117.072205 
	C258.951447,116.047928 241.581055,131.209183 240.620285,153.828323 
z"/>
<path fill="#212123" opacity="1.000000" stroke="none" 
	d="
M672.988403,212.773010 
	C673.416138,217.070755 671.461487,218.121750 667.939514,218.037552 
	C660.946045,217.870361 653.938110,217.789017 646.951172,218.059555 
	C642.278992,218.240463 640.919678,216.302475 640.940491,211.856903 
	C641.071289,183.867844 641.005249,155.877869 641.005127,127.888206 
	C641.004883,94.900383 640.997681,61.912560 641.012390,28.924744 
	C641.015442,22.198084 641.254089,21.987940 648.095337,21.971241 
	C654.759460,21.954973 661.427063,22.097765 668.086609,21.923132 
	C671.735657,21.827440 673.085205,23.176491 673.045837,26.871681 
	C672.900330,40.531738 672.991150,54.194305 672.991150,67.855927 
	C672.991333,116.004776 672.990662,164.153625 672.988403,212.773010 
z"/>
<path fill="#232529" opacity="1.000000" stroke="none" 
	d="
M1368.000244,14.985182 
	C1376.658325,14.987438 1384.817993,15.077132 1392.974365,14.956135 
	C1397.225098,14.893076 1398.897705,16.781271 1399.001221,20.962597 
	C1399.249634,30.984472 1399.357178,30.981678 1389.469971,30.983101 
	C1381.977661,30.984179 1374.482788,31.105310 1366.994385,30.934725 
	C1363.432007,30.853577 1362.004395,31.988340 1361.919312,35.761520 
	C1361.598145,49.989033 1361.482056,49.984974 1375.516602,49.987202 
	C1380.344849,49.987968 1385.173828,50.046749 1390.001221,49.984310 
	C1392.665894,49.949848 1394.003418,50.992065 1393.991211,53.790958 
	C1393.925903,68.761086 1395.372803,65.700439 1382.944458,65.974541 
	C1377.452881,66.095657 1371.954102,66.095604 1366.462891,65.966393 
	C1363.323730,65.892540 1361.904419,67.018486 1361.971924,70.301575 
	C1362.341187,88.263832 1359.410278,84.605904 1375.542969,84.984833 
	C1381.699951,85.129448 1387.865356,85.118027 1394.022461,84.977936 
	C1397.684448,84.894615 1399.241577,86.435486 1398.970093,90.048027 
	C1398.858276,91.538010 1398.869629,93.049072 1398.969116,94.540924 
	C1399.285889,99.293762 1397.027100,101.039917 1392.382935,100.989128 
	C1378.732056,100.839821 1365.076660,100.815277 1351.426758,101.008347 
	C1347.213501,101.067940 1345.940796,99.433052 1345.958008,95.425667 
	C1346.065430,70.451942 1346.070557,45.477264 1345.953979,20.503624 
	C1345.934814,16.399986 1347.427734,14.784393 1351.518677,14.939723 
	C1356.838745,15.141720 1362.172485,14.986621 1368.000244,14.985182 
z"/>
<path fill="#232529" opacity="1.000000" stroke="none" 
	d="
M1693.000854,97.976540 
	C1689.945557,102.723450 1681.001709,102.139893 1676.961670,96.475227 
	C1670.015747,102.524887 1661.821777,103.049149 1653.239014,101.206337 
	C1645.544556,99.554253 1640.154907,94.231369 1636.161133,88.226570 
	C1628.683716,76.984070 1629.723755,57.459984 1639.500244,46.836063 
	C1648.832275,36.695019 1665.465576,33.760830 1678.009766,43.414810 
	C1678.009766,36.090878 1677.753540,29.351793 1678.143066,22.650246 
	C1678.287354,20.166796 1679.592896,15.956310 1680.985107,15.683907 
	C1684.817749,14.933993 1689.463989,12.842912 1692.909058,18.111393 
	C1692.999756,45.297459 1693.000366,71.637001 1693.000854,97.976540 
M1647.222168,66.998016 
	C1646.942505,73.930992 1648.149170,80.517082 1654.335571,84.553314 
	C1662.866699,90.119225 1672.093018,87.045212 1676.677979,77.643677 
	C1680.811035,69.168159 1676.505493,56.575470 1668.348267,53.281830 
	C1659.001587,49.507893 1650.260010,54.907291 1647.222168,66.998016 
z"/>
<path fill="#232529" opacity="1.000000" stroke="none" 
	d="
M1561.517456,84.598198 
	C1560.840698,87.004570 1560.472046,89.485199 1559.089233,91.094414 
	C1550.886475,100.641235 1540.112915,103.998772 1528.109619,101.594788 
	C1516.634766,99.296631 1508.411987,92.324234 1504.823242,80.773865 
	C1499.456177,63.500324 1505.521729,46.366096 1521.888794,40.003304 
	C1537.066650,34.102859 1555.328369,36.829235 1561.119873,56.043388 
	C1562.377808,60.217403 1562.427612,64.760918 1562.978394,69.141220 
	C1563.445312,72.855453 1561.671997,74.087906 1558.052856,74.038071 
	C1547.237793,73.889168 1536.419312,73.987007 1525.602173,73.988411 
	C1523.813965,73.988640 1522.025879,73.988441 1519.873535,73.988441 
	C1520.130981,80.236977 1523.195435,83.788696 1528.027832,86.006615 
	C1537.581299,90.391335 1544.264404,85.897446 1550.246094,77.836945 
	C1554.076782,80.054764 1557.716797,82.162300 1561.517456,84.598198 
M1535.997559,51.546127 
	C1527.029175,51.498161 1522.391846,54.347336 1521.359497,60.433502 
	C1529.683594,60.433502 1538.018921,60.433502 1546.807617,60.433502 
	C1544.839111,55.154213 1541.666138,52.433990 1535.997559,51.546127 
z"/>
<path fill="#232529" opacity="1.000000" stroke="none" 
	d="
M1750.895630,73.988792 
	C1739.173096,73.988770 1727.934448,73.988770 1716.677734,73.988770 
	C1717.064697,84.619904 1729.254883,90.831909 1738.728638,86.007629 
	C1740.476929,85.117294 1742.624878,84.087875 1743.469360,82.520012 
	C1745.964233,77.888321 1748.910522,78.548828 1752.444336,80.922745 
	C1753.396729,81.562561 1754.519043,81.950256 1755.565186,82.449905 
	C1759.207275,84.189644 1759.280762,86.387787 1756.931763,89.509438 
	C1742.239258,109.035316 1711.026978,105.856567 1702.111206,82.499657 
	C1695.935181,66.320183 1701.021118,48.547947 1717.255005,40.292439 
	C1727.616577,35.023090 1739.324219,35.488377 1749.197876,43.136448 
	C1758.068970,50.007973 1761.150879,59.643513 1759.829590,70.558762 
	C1759.168579,76.019638 1754.397583,73.282318 1750.895630,73.988792 
M1730.536987,51.241589 
	C1724.858276,52.135483 1720.022217,54.239307 1717.052856,60.416817 
	C1726.320312,60.416817 1734.834106,60.416817 1743.895508,60.416817 
	C1741.429932,54.044041 1736.705688,52.217216 1730.536987,51.241589 
z"/>
<path fill="#232529" opacity="1.000000" stroke="none" 
	d="
M1611.118164,38.284439 
	C1621.003540,42.135292 1624.625732,49.864166 1624.885498,59.285919 
	C1625.229736,71.771996 1624.929688,84.274849 1625.016113,96.769737 
	C1625.036255,99.688049 1624.036255,100.845726 1620.984619,100.993523 
	C1610.003784,101.525330 1610.108765,101.626778 1609.977661,90.465157 
	C1609.866577,80.996544 1609.955688,71.487541 1609.077881,62.078373 
	C1608.413940,54.963280 1605.277466,52.418774 1599.533203,52.050995 
	C1594.493164,51.728313 1588.446899,55.635643 1586.992188,60.958424 
	C1585.823730,65.233459 1585.258423,69.757629 1585.073730,74.198204 
	C1584.769531,81.516327 1584.885742,88.858315 1585.034424,96.185989 
	C1585.100952,99.467354 1584.209229,101.057625 1580.564209,100.989189 
	C1568.535400,100.763321 1570.078003,102.151314 1570.025635,90.692932 
	C1569.956543,75.531998 1570.151611,60.368412 1569.927979,45.210468 
	C1569.856812,40.379967 1571.586060,38.457413 1576.330933,38.986813 
	C1579.983032,39.394268 1584.630005,37.233913 1585.869751,43.977779 
	C1593.240112,36.026722 1602.181152,38.156071 1611.118164,38.284439 
z"/>
<path fill="#232529" opacity="1.000000" stroke="none" 
	d="
M1449.244873,81.738129 
	C1452.489502,86.389496 1455.608032,90.699226 1458.475098,95.170235 
	C1460.869507,98.904442 1459.851562,100.343414 1455.544189,100.982292 
	C1447.173706,102.223808 1441.001465,99.801300 1437.394775,91.712624 
	C1435.993164,88.569344 1433.913208,85.728531 1431.657227,81.934204 
	C1430.262573,83.786377 1429.195923,85.082130 1428.261230,86.466835 
	C1425.386841,90.724869 1422.681641,95.104584 1419.632202,99.231163 
	C1418.910400,100.207802 1417.125244,100.746628 1415.781860,100.846169 
	C1412.634644,101.079338 1409.455566,101.017128 1406.295410,100.903404 
	C1402.253784,100.757965 1401.010010,98.778656 1403.217041,95.550262 
	C1408.254028,88.182182 1413.430054,80.900917 1418.794434,73.768562 
	C1421.074707,70.736847 1421.747437,68.619789 1419.003174,65.160782 
	C1413.540161,58.275436 1408.795898,50.818184 1403.800293,43.565689 
	C1403.179077,42.663788 1402.835327,41.570690 1402.369141,40.579430 
	C1406.608032,38.343964 1418.423584,38.260178 1420.075073,40.485313 
	C1423.721802,45.398617 1427.208618,50.430603 1431.341919,56.229805 
	C1434.134277,51.950302 1436.927612,48.167141 1439.174805,44.083485 
	C1441.380859,40.074890 1444.334961,38.467892 1448.877930,38.936581 
	C1452.292114,39.288822 1455.771729,39.006191 1459.222290,39.006191 
	C1459.586182,39.458439 1459.950073,39.910690 1460.313843,40.362938 
	C1457.808350,44.472000 1455.457153,48.685928 1452.756348,52.662415 
	C1449.689941,57.177074 1446.356201,61.513767 1443.049805,65.860153 
	C1441.223389,68.260826 1440.723267,70.248566 1443.075562,72.845268 
	C1445.397095,75.407928 1447.058838,78.568184 1449.244873,81.738129 
z"/>
<path fill="#202124" opacity="1.000000" stroke="none" 
	d="
M1509.677368,173.248154 
	C1521.037231,183.026215 1521.760010,204.756531 1510.233887,214.448517 
	C1502.186523,221.215256 1492.121094,221.952835 1479.991089,214.556396 
	C1479.991089,220.970062 1480.005005,226.818665 1479.987183,232.667160 
	C1479.969360,238.512863 1476.509033,240.962921 1471.109741,238.683853 
	C1470.111572,238.262543 1469.124756,236.435028 1469.117676,235.250656 
	C1468.995239,214.794937 1468.975708,194.337830 1469.149536,173.882874 
	C1469.160278,172.606598 1470.860596,170.364151 1471.932495,170.264374 
	C1474.946167,169.983871 1479.113403,168.360504 1479.336060,174.729614 
	C1489.386475,166.055801 1499.297363,165.846832 1509.677368,173.248154 
M1498.098755,208.936783 
	C1506.013062,205.241394 1507.782593,198.537476 1506.934570,190.645950 
	C1506.319458,184.923065 1502.833374,181.275024 1497.729980,179.225800 
	C1492.477905,177.116852 1486.630249,178.997009 1483.019165,183.575500 
	C1478.959229,188.723068 1478.162964,197.208603 1481.257446,202.354294 
	C1484.744629,208.153549 1490.869385,210.771896 1498.098755,208.936783 
z"/>
<path fill="#232529" opacity="1.000000" stroke="none" 
	d="
M1479.349609,98.817902 
	C1473.464966,94.075569 1472.189331,87.768463 1472.046021,81.132454 
	C1471.877075,73.305046 1471.895630,65.469261 1472.047241,57.641254 
	C1472.113892,54.200794 1470.820435,52.567238 1467.380005,53.015881 
	C1462.675415,53.629372 1461.624390,51.163197 1461.974243,47.105808 
	C1462.299927,43.330238 1460.717407,38.414249 1467.416016,39.013805 
	C1470.909790,39.326519 1472.320190,37.730408 1472.016357,34.326859 
	C1471.912964,33.169933 1472.003662,31.995728 1472.005005,30.829412 
	C1472.013672,23.003098 1472.013428,23.003098 1479.952759,23.009747 
	C1487.911621,23.016409 1487.911743,23.016409 1487.927734,31.059361 
	C1487.943359,38.953941 1487.943237,38.953945 1494.286865,39.005314 
	C1501.165894,39.061028 1504.797607,45.040710 1501.608765,51.279057 
	C1501.195435,52.087666 1499.852051,52.751297 1498.866211,52.869087 
	C1496.728638,53.124477 1494.537598,53.093739 1492.379272,52.977886 
	C1489.203125,52.807392 1487.849854,54.123966 1487.903320,57.359905 
	C1488.021606,64.522461 1487.822510,71.690857 1487.977051,78.852036 
	C1488.136719,86.248306 1491.224976,88.486496 1498.196289,86.082153 
	C1500.761108,85.197556 1501.746460,85.897911 1501.872314,88.191422 
	C1502.045288,91.346306 1502.396240,94.627914 1501.712280,97.637306 
	C1501.355591,99.206337 1499.085327,101.201897 1497.436279,101.461647 
	C1491.352783,102.419922 1485.142090,102.913124 1479.349609,98.817902 
z"/>
<path fill="#202124" opacity="1.000000" stroke="none" 
	d="
M1552.724365,219.986450 
	C1535.689575,221.298218 1525.717896,211.412170 1524.656982,196.065277 
	C1523.918823,185.386353 1527.426392,175.924164 1538.671875,170.247513 
	C1547.791626,165.643845 1559.907227,167.956360 1566.717529,175.266434 
	C1571.273804,180.157059 1572.504150,186.314423 1572.987671,192.716019 
	C1573.238037,196.031281 1571.589966,197.053223 1568.490601,197.018982 
	C1559.508301,196.919769 1550.523926,196.962387 1541.540649,197.001953 
	C1535.756470,197.027435 1534.963257,198.392761 1537.712158,203.381409 
	C1541.802124,210.803772 1552.347656,212.454636 1559.337646,206.766830 
	C1564.549316,202.526077 1565.862427,202.535873 1571.768066,207.187759 
	C1567.637451,214.480759 1561.949463,219.367126 1552.724365,219.986450 
M1560.920654,185.418137 
	C1556.656738,178.710663 1552.403076,176.503250 1546.061890,178.310364 
	C1541.491699,179.612762 1537.671875,182.031448 1536.992798,187.977737 
	C1544.511108,187.977737 1551.649902,188.034348 1558.784790,187.895462 
	C1559.549072,187.880569 1560.291138,186.726517 1560.920654,185.418137 
z"/>
<path fill="#202124" opacity="1.000000" stroke="none" 
	d="
M1400.488159,189.269958 
	C1408.263550,188.366776 1415.690674,187.633224 1423.851685,186.827179 
	C1424.519531,184.288132 1422.835938,181.769211 1419.719360,179.899902 
	C1413.703003,176.291351 1407.717041,177.346497 1399.056885,183.930313 
	C1397.177979,181.719528 1393.447754,179.139618 1393.771484,177.256317 
	C1394.181763,174.868408 1397.596558,172.524643 1400.220093,171.074448 
	C1409.473633,165.959671 1422.769775,167.348297 1429.169434,173.677094 
	C1433.037231,177.502045 1434.942017,182.154755 1434.974243,187.549454 
	C1435.025146,196.035004 1435.058472,204.521988 1434.944824,213.006302 
	C1434.914551,215.263412 1436.042725,218.677643 1432.187988,218.806488 
	C1428.937622,218.915146 1424.436035,220.958954 1423.767456,216.380844 
	C1418.162598,217.602814 1412.739014,219.472580 1407.219482,219.820587 
	C1399.745972,220.291779 1392.687012,214.690048 1391.319580,207.967926 
	C1389.919678,201.087006 1391.845825,192.384323 1400.488159,189.269958 
M1405.238403,209.482407 
	C1411.691895,212.344711 1418.629517,210.567429 1421.821167,205.234390 
	C1425.044312,199.848648 1424.091064,197.439041 1417.994995,196.324570 
	C1415.583252,195.883667 1412.871948,195.495117 1410.620605,196.167175 
	C1407.857910,196.991882 1404.786133,198.418350 1403.025879,200.555084 
	C1400.750977,203.316330 1402.221924,206.506119 1405.238403,209.482407 
z"/>
<path fill="#202124" opacity="1.000000" stroke="none" 
	d="
M1347.377930,160.948853 
	C1341.922241,159.536942 1344.263550,155.488739 1344.374390,152.639572 
	C1344.410767,151.702728 1347.477295,150.155212 1349.178345,150.127518 
	C1362.153809,149.916351 1375.136230,150.135635 1388.112183,149.941681 
	C1392.306152,149.878983 1393.116699,151.795074 1393.061890,155.410980 
	C1393.010010,158.826248 1392.679932,161.358810 1388.288696,161.031891 
	C1385.144897,160.797836 1381.958740,161.153961 1378.810181,160.954071 
	C1375.052246,160.715469 1373.915039,162.383636 1373.942749,165.969299 
	C1374.063721,181.609634 1374.003662,197.251480 1373.984253,212.892746 
	C1373.977539,218.429825 1369.806030,221.215408 1364.927979,218.561874 
	C1363.728394,217.909348 1363.105957,215.255493 1363.090210,213.513840 
	C1362.950928,198.040161 1362.839233,182.561844 1363.105835,167.091553 
	C1363.189697,162.224274 1361.568848,160.463638 1356.811646,160.935822 
	C1353.846313,161.230133 1350.826904,160.978851 1347.377930,160.948853 
z"/>
<path fill="#202124" opacity="1.000000" stroke="none" 
	d="
M1446.007324,196.999893 
	C1446.010132,189.182205 1446.184814,181.859009 1445.952637,174.548737 
	C1445.808228,170.003159 1448.488281,170.005310 1451.743408,169.959320 
	C1455.039062,169.912781 1457.094116,170.491653 1457.045166,174.535904 
	C1456.884644,187.838928 1456.864380,201.146790 1457.051270,214.449127 
	C1457.115112,218.987045 1454.515625,218.994888 1451.258057,219.039780 
	C1447.962769,219.085175 1445.805908,218.512115 1445.960815,214.461578 
	C1446.176636,208.815323 1446.010254,203.154465 1446.007324,196.999893 
z"/>
<path fill="#202124" opacity="1.000000" stroke="none" 
	d="
M1582.831299,218.099472 
	C1582.369019,202.987198 1582.171997,188.194534 1582.072266,173.401215 
	C1582.043335,169.116455 1585.420898,170.162704 1587.901245,170.031799 
	C1590.517212,169.893723 1593.001953,169.941589 1592.987915,173.702072 
	C1592.936768,187.519440 1592.948975,201.337189 1592.992432,215.154617 
	C1593.001099,217.921219 1591.738159,219.156891 1589.041260,218.965164 
	C1587.069092,218.824966 1585.102783,218.603867 1582.831299,218.099472 
z"/>
<path fill="#4D80FF" opacity="1.000000" stroke="none" 
	d="
M990.904419,216.529114 
	C990.557129,215.208313 990.036865,213.423706 990.035583,211.638718 
	C989.993469,150.824478 989.997375,90.010208 990.019714,29.195946 
	C990.020264,27.714306 990.305542,26.232777 990.642822,24.385277 
	C990.883606,31.332014 990.987183,38.644669 990.987976,45.957333 
	C990.994202,102.659935 990.980774,159.362534 990.904419,216.529114 
z"/>
<path fill="#202124" opacity="1.000000" stroke="none" 
	d="
M1458.916504,155.203720 
	C1458.982056,159.621811 1457.242920,162.319382 1453.106445,162.860809 
	C1449.657593,163.312256 1446.641357,162.821655 1444.951538,158.988312 
	C1443.400513,155.469696 1444.527954,152.863968 1447.023438,150.602249 
	C1451.087646,146.918686 1456.762573,148.976776 1458.916504,155.203720 
z"/>
<path fill="#202124" opacity="1.000000" stroke="none" 
	d="
M1588.832275,162.970978 
	C1583.370483,162.596283 1580.230591,160.073990 1580.508179,156.068771 
	C1580.768066,152.319183 1582.500488,149.341309 1586.809204,149.063400 
	C1590.905396,148.799179 1594.242310,150.144241 1594.781738,154.646225 
	C1595.270142,158.721390 1594.327881,162.354279 1588.832275,162.970978 
z"/>
<path fill="#555555" opacity="1.000000" stroke="none" 
	d="
M1693.324707,97.705490 
	C1693.000366,71.637001 1692.999756,45.297459 1693.000244,18.491110 
	C1693.330078,19.240686 1693.943115,20.456495 1693.945557,21.673546 
	C1693.995605,46.274704 1693.977905,70.875984 1693.955933,95.477226 
	C1693.955322,96.129715 1693.755615,96.782028 1693.324707,97.705490 
z"/>
<path fill="#000000" opacity="1.000000" stroke="none" 
	d="
M529.243591,144.463959 
	C533.000061,134.134766 538.198669,125.166344 548.117310,120.551865 
	C569.969727,110.385452 588.705322,122.960953 594.921814,143.805588 
	C599.665833,159.712906 594.683228,173.085480 584.243469,185.095505 
	C577.772705,192.539597 561.786621,194.893463 550.124512,190.530075 
	C537.879150,185.948425 527.123169,168.895813 528.002563,157.657288 
	C528.337097,153.382355 528.717651,149.111008 529.243591,144.463959 
z"/>
<path fill="#000000" opacity="1.000000" stroke="none" 
	d="
M1808.034302,79.817337 
	C1802.550537,86.564934 1795.451782,88.877106 1789.458862,86.154884 
	C1782.644287,83.059456 1778.210693,75.250740 1779.088379,67.889793 
	C1780.011841,60.147476 1786.420898,53.159386 1793.536865,52.136120 
	C1803.243896,50.740242 1813.213013,62.914967 1810.479980,72.898163 
	C1809.868530,75.131973 1808.965820,77.286018 1808.034302,79.817337 
z"/>
<path fill="#000000" opacity="1.000000" stroke="none" 
	d="
M742.585571,139.617798 
	C734.267883,143.046219 726.309265,146.335236 718.331116,149.576141 
	C717.938904,149.735474 717.375977,149.474472 716.908508,149.411331 
	C715.361572,137.033356 725.199707,123.282425 738.538574,118.503319 
	C749.384399,114.617416 766.034485,116.878769 769.649109,128.087555 
	C760.790710,131.862396 751.865723,135.665604 742.585571,139.617798 
z"/>
<path fill="#000000" opacity="1.000000" stroke="none" 
	d="
M240.716370,153.416138 
	C241.581055,131.209183 258.951447,116.047928 277.644745,117.072205 
	C290.137543,117.756729 299.821259,123.702713 305.829559,134.778641 
	C314.969727,151.627884 313.331085,167.650986 301.002289,182.324936 
	C292.534607,192.403366 276.313080,196.108109 262.601501,190.227737 
	C247.849152,183.900986 240.659485,169.817734 240.716370,153.416138 
z"/>
<path fill="#000000" opacity="1.000000" stroke="none" 
	d="
M1647.330811,66.597214 
	C1650.260010,54.907291 1659.001587,49.507893 1668.348267,53.281830 
	C1676.505493,56.575470 1680.811035,69.168159 1676.677979,77.643677 
	C1672.093018,87.045212 1662.866699,90.119225 1654.335571,84.553314 
	C1648.149170,80.517082 1646.942505,73.930992 1647.330811,66.597214 
z"/>
<path fill="#000000" opacity="1.000000" stroke="none" 
	d="
M1536.373535,51.662231 
	C1541.666138,52.433990 1544.839111,55.154213 1546.807617,60.433502 
	C1538.018921,60.433502 1529.683594,60.433502 1521.359497,60.433502 
	C1522.391846,54.347336 1527.029175,51.498161 1536.373535,51.662231 
z"/>
<path fill="#000000" opacity="1.000000" stroke="none" 
	d="
M1730.928955,51.282768 
	C1736.705688,52.217216 1741.429932,54.044041 1743.895508,60.416817 
	C1734.834106,60.416817 1726.320312,60.416817 1717.052856,60.416817 
	C1720.022217,54.239307 1724.858276,52.135483 1730.928955,51.282768 
z"/>
<path fill="#000000" opacity="1.000000" stroke="none" 
	d="
M1497.739990,209.092041 
	C1490.869385,210.771896 1484.744629,208.153549 1481.257446,202.354294 
	C1478.162964,197.208603 1478.959229,188.723068 1483.019165,183.575500 
	C1486.630249,178.997009 1492.477905,177.116852 1497.729980,179.225800 
	C1502.833374,181.275024 1506.319458,184.923065 1506.934570,190.645950 
	C1507.782593,198.537476 1506.013062,205.241394 1497.739990,209.092041 
z"/>
<path fill="#000000" opacity="1.000000" stroke="none" 
	d="
M1560.982178,185.759521 
	C1560.291138,186.726517 1559.549072,187.880569 1558.784790,187.895462 
	C1551.649902,188.034348 1544.511108,187.977737 1536.992798,187.977737 
	C1537.671875,182.031448 1541.491699,179.612762 1546.061890,178.310364 
	C1552.403076,176.503250 1556.656738,178.710663 1560.982178,185.759521 
z"/>
<path fill="#000000" opacity="1.000000" stroke="none" 
	d="
M1404.932617,209.234833 
	C1402.221924,206.506119 1400.750977,203.316330 1403.025879,200.555084 
	C1404.786133,198.418350 1407.857910,196.991882 1410.620605,196.167175 
	C1412.871948,195.495117 1415.583252,195.883667 1417.994995,196.324570 
	C1424.091064,197.439041 1425.044312,199.848648 1421.821167,205.234390 
	C1418.629517,210.567429 1411.691895,212.344711 1404.932617,209.234833 
z"/>
</svg>