<svg version="1.1" id="Layer_1" xmlns="http://www.w3.org/2000/svg" xmlns:xlink="http://www.w3.org/1999/xlink" x="0px" y="0px"
	 width="100%" viewBox="0 0 1200 429" enable-background="new 0 0 1200 429" xml:space="preserve">
<path fill="#F7F7F7" opacity="1.000000" stroke="none" 
	d="
M919.000000,430.000000 
	C612.666748,430.000000 306.833435,430.000000 1.000123,430.000000 
	C1.000082,287.000092 1.000082,144.000168 1.000041,1.000181 
	C400.999847,1.000120 800.999695,1.000120 1200.999634,1.000060 
	C1200.999756,143.999832 1200.999756,286.999664 1200.999878,429.999756 
	C1107.166626,430.000000 1013.333313,430.000000 919.000000,430.000000 
M521.500244,12.635817 
	C362.853333,12.635757 204.206421,12.636134 45.559505,12.635114 
	C24.632530,12.634979 12.616345,24.587046 12.616464,45.406246 
	C12.617108,158.891830 12.616343,272.377411 12.616960,385.863007 
	C12.617071,406.302551 24.760042,418.364594 45.329517,418.364594 
	C415.782471,418.364471 786.235413,418.364502 1156.688354,418.364594 
	C1177.257324,418.364594 1189.383057,406.304901 1189.383179,385.842987 
	C1189.383545,272.357391 1189.382812,158.871826 1189.383423,45.386246 
	C1189.383545,24.580614 1177.358398,12.634990 1156.419800,12.635086 
	C945.113281,12.636053 733.806824,12.635747 521.500244,12.635817 
z"/>
<path fill="#0E0F12" opacity="1.000000" stroke="none" 
	d="
M522.000244,12.635808 
	C733.806824,12.635747 945.113281,12.636053 1156.419800,12.635086 
	C1177.358398,12.634990 1189.383545,24.580614 1189.383423,45.386246 
	C1189.382812,158.871826 1189.383545,272.357391 1189.383179,385.842987 
	C1189.383057,406.304901 1177.257324,418.364594 1156.688354,418.364594 
	C786.235413,418.364502 415.782471,418.364471 45.329517,418.364594 
	C24.760042,418.364594 12.617071,406.302551 12.616960,385.863007 
	C12.616343,272.377411 12.617108,158.891830 12.616464,45.406246 
	C12.616345,24.587046 24.632530,12.634979 45.559505,12.635114 
	C204.206421,12.636134 362.853333,12.635757 522.000244,12.635808 
M1183.997925,30.405487 
	C1183.658203,29.939882 1183.318359,29.474277 1182.903076,28.360022 
	C1181.950928,27.205118 1180.998901,26.050217 1179.837524,24.320150 
	C1178.924683,23.531887 1178.011719,22.743624 1176.796631,21.341167 
	C1170.830688,16.396698 1163.868896,15.020456 1156.281128,15.021508 
	C786.531982,15.072781 416.782837,15.066430 47.033703,15.067192 
	C45.200916,15.067196 43.359409,14.963515 41.536922,15.103231 
	C35.262390,15.584248 29.445644,17.243830 24.323280,22.158779 
	C23.533735,23.071882 22.744190,23.984987 21.336565,25.194077 
	C16.694899,30.876854 15.016068,37.441090 15.023023,44.703266 
	C15.083781,108.162209 15.058619,171.621231 15.058623,235.080231 
	C15.058627,285.547607 15.065025,336.015015 15.050312,386.482391 
	C15.048163,393.850372 16.500284,400.671356 22.161762,406.678467 
	C23.075718,407.466553 23.989674,408.254608 25.197645,409.647919 
	C27.130537,410.774506 29.063429,411.901093 31.507942,413.468903 
	C33.000248,413.930695 34.492550,414.392487 36.588959,415.162598 
	C37.033604,415.167633 37.478245,415.172668 38.674015,415.537872 
	C40.666382,415.648315 42.658745,415.855438 44.651115,415.855530 
	C415.495148,415.869690 786.339172,415.870300 1157.183228,415.840424 
	C1159.481445,415.840240 1161.779541,415.408081 1164.745728,415.293152 
	C1165.168823,415.146851 1165.591919,415.000549 1166.716675,414.859070 
	C1168.809814,413.896973 1170.903076,412.934875 1173.642944,411.897430 
	C1174.794922,410.946442 1175.946899,409.995453 1177.676270,408.840637 
	C1178.465942,407.927734 1179.255615,407.014832 1180.663330,405.806000 
	C1185.174805,400.266357 1186.970215,393.886200 1186.968018,386.791260 
	C1186.932007,272.668640 1186.975586,158.545990 1186.819458,44.423603 
	C1186.813354,39.944309 1185.001221,35.467491 1183.997925,30.405487 
z"/>
<path fill="#F6F6F6" opacity="1.000000" stroke="none" 
	d="
M21.954647,24.898092 
	C22.744190,23.984987 23.533735,23.071882 24.992294,22.064186 
	C31.635782,20.294050 37.609341,17.155712 43.584862,17.151976 
	C415.281860,16.919449 786.979004,16.928003 1158.676025,17.104536 
	C1163.579834,17.106865 1168.484863,19.530640 1173.384277,20.842825 
	C1174.632324,21.177065 1175.861084,21.582609 1177.098755,21.955378 
	C1178.011719,22.743624 1178.924683,23.531887 1179.934570,24.973640 
	C1181.014038,26.754307 1181.996338,27.881481 1182.978638,29.008663 
	C1183.318359,29.474277 1183.658203,29.939882 1183.756226,30.949337 
	C1184.026001,35.881210 1184.981079,40.268913 1184.984253,44.657299 
	C1185.066040,158.653336 1185.105957,272.649597 1184.870728,386.645203 
	C1184.859619,392.028534 1182.249634,397.405853 1180.856079,402.787598 
	C1180.570923,403.888519 1180.314697,404.996948 1180.045288,406.101929 
	C1179.255615,407.014832 1178.465942,407.927734 1177.022461,408.933838 
	C1175.244507,410.008911 1174.120361,410.990814 1172.996216,411.972748 
	C1170.903076,412.934875 1168.809814,413.896973 1166.305664,414.574158 
	C1165.540527,414.037506 1165.186401,413.785767 1164.832153,413.533997 
	C1164.580688,414.081848 1164.329224,414.629730 1164.077759,415.177612 
	C1161.779541,415.408081 1159.481445,415.840240 1157.183228,415.840424 
	C786.339172,415.870300 415.495148,415.869690 44.651115,415.855530 
	C42.658745,415.855438 40.666382,415.648315 38.273384,415.065857 
	C37.607555,414.235931 37.342365,413.878052 37.077183,413.520172 
	C36.713085,413.964874 36.348980,414.409576 35.984863,414.854279 
	C34.492550,414.392487 33.000248,413.930695 31.185085,412.907074 
	C28.876026,411.244385 26.889826,410.143555 24.903625,409.042694 
	C23.989674,408.254608 23.075718,407.466553 22.064678,406.009125 
	C20.294868,398.862549 17.180548,392.389069 17.163679,385.907532 
	C16.867357,272.048828 16.892269,158.189011 17.127674,44.330036 
	C17.138792,38.953815 19.751923,33.583729 21.146391,28.209000 
	C21.431660,27.109476 21.686031,26.001936 21.954647,24.898092 
M759.940552,211.356918 
	C759.303650,210.554642 758.666748,209.752380 757.993469,208.988571 
	C757.993469,208.988571 758.044434,208.975174 757.874084,208.291107 
	C755.106689,201.071274 749.346130,201.383499 742.577393,202.497711 
	C744.177368,204.579315 745.542053,206.354782 746.974182,208.045395 
	C746.974182,208.045395 746.872192,208.082138 747.025024,208.682999 
	C747.674011,209.471100 748.322998,210.259186 749.006104,211.009476 
	C749.006104,211.009476 748.957520,211.023773 749.123840,211.683975 
	C750.721069,213.829453 752.318298,215.974930 753.981506,218.041443 
	C753.981506,218.041443 753.883667,218.073273 754.025513,218.677795 
	C754.673523,219.468811 755.321533,220.259811 756.005920,221.010651 
	C756.005920,221.010651 755.954041,221.025787 756.160706,221.736023 
	C759.093933,225.602402 753.969055,226.997696 753.126038,230.242233 
	C749.662781,235.336578 746.199524,240.430908 742.383850,246.043701 
	C744.564026,246.043701 745.755005,245.877411 746.883667,246.072250 
	C751.973694,246.950974 755.270813,244.996780 757.486755,240.312302 
	C758.946899,237.225616 761.164429,234.497238 763.146851,231.448547 
	C769.126587,237.997971 770.680542,250.279739 783.938171,245.288788 
	C778.972107,238.110947 773.989380,230.908951 769.065063,223.791458 
	C774.125977,216.560928 779.022217,209.565582 783.852295,202.664764 
	C775.658752,200.057663 770.500488,203.079697 767.351196,210.329239 
	C766.631714,211.985580 765.535278,213.522141 764.372864,214.913834 
	C764.049377,215.301102 762.867798,214.971649 761.959534,214.357513 
	C761.319397,213.550583 760.679260,212.743668 759.994080,211.983032 
	C759.994080,211.983032 760.056824,211.967728 759.940552,211.356918 
M733.995972,212.127914 
	C733.670288,211.703232 733.344543,211.278564 732.104614,210.618362 
	C724.430542,210.590088 716.756409,210.561798 708.973938,209.661835 
	C708.970154,204.388870 708.966370,199.115906 709.890747,193.667343 
	C717.552551,193.656906 725.215576,193.708145 732.874878,193.563705 
	C733.919067,193.544022 734.944763,192.547028 736.044250,191.146683 
	C736.026550,189.430069 736.008850,187.713455 736.296265,185.564072 
	C736.114136,185.152603 735.933655,184.381821 735.749573,184.380951 
	C723.661255,184.324188 711.572693,184.329651 699.330566,184.329651 
	C699.330566,205.068710 699.330566,225.312302 699.330566,245.751923 
	C711.767273,245.751923 724.156189,245.751923 736.453979,245.751923 
	C736.453979,242.701263 736.453979,239.921066 736.453979,236.509628 
	C727.132935,236.509628 718.025452,236.509628 708.916199,235.511475 
	C708.938660,230.319290 708.961121,225.127106 709.915649,219.808014 
	C717.803101,219.808014 725.690552,219.808014 733.729431,219.808014 
	C733.729431,217.275314 733.729431,215.003876 733.995972,212.127914 
M899.889099,212.114761 
	C899.889099,212.114761 899.790588,212.142410 900.066772,212.871445 
	C900.701233,215.738754 901.793518,218.591904 901.882874,221.476089 
	C902.133423,229.565125 901.970154,237.666946 901.970154,245.691467 
	C905.409058,245.691467 908.285034,245.691467 911.020264,245.691467 
	C911.020264,235.230606 911.020264,225.110733 911.128235,214.204163 
	C910.373840,208.741287 907.935181,204.272736 902.663696,202.196533 
	C894.695862,199.058319 887.523376,200.838547 881.284790,207.302628 
	C881.147461,205.212494 881.053772,203.785995 880.963562,202.412399 
	C877.854919,202.412399 874.971130,202.412399 872.254272,202.412399 
	C872.254272,217.154510 872.254272,231.531586 872.254272,245.863495 
	C875.061890,245.863495 877.540588,245.863495 880.931824,245.784790 
	C881.189270,236.868576 881.446716,227.952347 882.050354,218.402252 
	C885.667358,210.095169 889.602112,208.234833 898.454163,211.249222 
	C898.920837,211.569794 899.387512,211.890381 899.889099,212.114761 
M963.496765,184.623245 
	C960.465881,184.623245 957.434998,184.623245 953.929565,184.623245 
	C953.929565,192.197922 953.929565,199.535187 953.287292,206.702148 
	C944.570618,197.603043 930.004822,199.234818 923.038147,210.197174 
	C919.044373,216.481369 918.295898,223.271454 919.827332,230.583969 
	C923.115845,246.286774 940.728577,252.509995 952.992615,242.152267 
	C953.278625,241.910706 953.789307,241.935196 954.317200,241.805618 
	C954.529541,243.253494 954.716187,244.526138 954.911499,245.858231 
	C957.407654,245.858231 959.713013,245.858231 962.581421,245.998459 
	C962.966064,245.968018 963.350647,245.937576 964.564575,245.810898 
	C965.040955,244.869843 965.928528,243.930664 965.932800,242.987473 
	C966.016174,224.768478 966.031738,206.548767 965.910034,188.330231 
	C965.902588,187.215149 964.639832,186.108459 963.496765,184.623245 
M796.176636,211.902573 
	C796.170044,219.372192 795.949219,226.850098 796.237854,234.308304 
	C796.408630,238.721832 796.963501,243.330704 802.495667,245.843292 
	C812.870728,249.744049 816.643066,247.823532 816.528015,238.687134 
	C816.524353,238.402344 816.321533,238.120071 816.199524,237.841293 
	C810.415710,240.539108 806.213074,238.873444 805.916626,233.248199 
	C805.525940,225.835907 805.820557,218.387482 805.820557,210.545044 
	C809.471924,210.545044 812.717712,210.545044 816.141602,210.545044 
	C816.141602,207.533325 816.141602,204.941193 816.141602,201.985718 
	C812.661194,201.985718 809.402222,201.985718 805.661499,201.985718 
	C805.661499,197.754929 805.661499,193.862671 805.661499,189.872925 
	C802.237488,189.872925 799.309631,189.872925 795.938538,189.872925 
	C795.938538,194.022949 795.938538,197.935791 795.938538,201.898941 
	C793.233826,202.017334 790.970337,202.116409 788.574463,202.221298 
	C788.574463,205.084625 788.574463,207.636902 788.574463,210.317398 
	C791.301208,210.547501 793.747620,210.753952 796.176636,211.902573 
M535.651611,267.839508 
	C536.950928,263.167328 538.436096,258.537811 539.519226,253.816071 
	C546.243042,224.504181 552.923828,195.182053 559.416626,165.818588 
	C559.784973,164.152847 558.464783,160.537949 557.763184,160.493896 
	C555.207642,160.333466 551.783997,158.068054 549.871765,162.845108 
	C541.850830,198.077896 533.829956,233.310669 525.590393,269.503937 
	C529.259460,268.908356 532.080872,268.450378 535.651611,267.839508 
M830.138306,227.486191 
	C830.138306,227.486191 830.016357,227.003922 830.613220,226.398422 
	C840.745850,226.255295 850.878540,226.112167 861.633667,226.152023 
	C862.422485,225.267883 863.962158,224.296341 863.871155,223.514603 
	C863.461609,219.995743 862.589478,216.530716 861.825500,212.353729 
	C856.578613,202.844040 847.407959,198.795380 837.036621,201.410019 
	C827.446228,203.827759 820.746582,212.942398 820.566467,223.817047 
	C820.384766,234.793579 826.657166,243.784821 836.430115,246.557007 
	C847.148132,249.597260 857.142944,245.587112 863.028625,235.587875 
	C860.416809,234.327820 857.839233,233.084274 855.321289,231.869522 
	C848.622742,241.874313 834.042542,241.142349 830.138306,227.486191 
M418.336823,222.495819 
	C418.268646,222.318924 418.200470,222.142044 418.303131,221.124008 
	C417.148102,209.523834 410.652283,202.218506 400.406830,200.997482 
	C389.281738,199.671631 380.197052,205.166794 376.435028,215.497528 
	C372.140656,227.290192 377.093597,240.543060 387.592255,245.351547 
	C398.885193,250.523834 411.303680,246.536530 417.302979,235.554550 
	C414.808655,234.332382 412.325592,233.115738 409.902588,231.928513 
	C403.264252,238.968430 399.493225,240.346008 393.480927,238.038437 
	C387.865051,235.883026 385.254242,232.297562 385.097168,226.184647 
	C395.057251,226.184647 405.012634,226.146805 414.967346,226.212967 
	C417.270233,226.228256 419.101257,226.121719 418.336823,222.495819 
M1056.336914,241.716934 
	C1056.336914,243.102142 1056.336914,244.487366 1056.336914,245.713928 
	C1059.716309,245.713928 1062.454224,245.713928 1065.041748,245.713928 
	C1065.041748,225.096039 1065.041748,204.771240 1065.041748,183.371277 
	C1061.638916,184.363922 1058.849121,185.177734 1055.883789,186.915359 
	C1055.883789,193.561508 1055.883789,200.207642 1055.883789,205.694824 
	C1051.637573,204.060165 1047.559082,201.467133 1043.260010,201.026627 
	C1030.293823,199.698044 1020.386597,210.573685 1020.776428,224.884628 
	C1021.160583,238.984161 1031.449707,249.093399 1044.292480,247.030472 
	C1048.533691,246.349197 1052.352783,243.040085 1056.336914,241.716934 
M192.996658,213.363602 
	C192.653122,213.200897 192.309586,213.038208 191.066971,212.603973 
	C182.388290,212.691467 173.709610,212.778961 164.496597,212.690552 
	C164.320969,212.756287 164.145355,212.822021 163.160416,213.164444 
	C163.150345,215.447540 163.140259,217.730621 163.123657,220.697693 
	C163.750244,220.802551 164.376846,220.907425 165.919037,221.221756 
	C171.690247,221.221756 177.461441,221.221756 183.284042,221.221756 
	C182.240387,230.334686 176.334793,236.304855 167.428314,237.755234 
	C157.183716,239.423492 147.403168,234.714401 143.042618,226.014145 
	C138.316330,216.584167 140.069183,204.507339 148.113556,198.205093 
	C151.835968,195.288803 156.872726,193.375870 161.583176,192.555130 
	C168.419846,191.363922 174.491180,194.394470 179.134705,198.938065 
	C181.695541,196.625153 183.898026,194.635910 186.092178,192.654190 
	C177.040314,183.031845 162.471558,180.246857 149.981796,185.577652 
	C137.305557,190.988052 129.900650,203.383163 130.805344,217.677200 
	C131.655289,231.105957 140.801926,242.474823 153.705246,246.140747 
	C173.507721,251.766785 192.144318,239.850113 193.222839,220.383743 
	C193.181946,218.906128 193.141052,217.428528 193.274994,215.297958 
	C193.179169,214.864456 193.083359,214.430954 192.996658,213.363602 
M625.133972,254.687943 
	C642.278198,243.775253 650.456848,225.274460 646.507996,206.338715 
	C642.454163,186.899933 626.440247,172.302567 606.857178,170.195358 
	C587.383118,168.099869 568.674255,178.738312 560.567261,196.517227 
	C552.421509,214.381134 556.542053,235.349518 570.832581,248.754532 
	C585.394043,262.413818 606.543579,264.886871 625.133972,254.687943 
M515.271973,259.685364 
	C516.726013,259.599365 518.179993,259.513336 519.748047,259.420563 
	C519.748047,230.000305 519.748047,200.933289 519.748047,171.647202 
	C504.978333,171.647202 490.437653,171.647202 475.718201,171.647202 
	C475.718201,201.031952 475.718201,230.083466 475.718201,259.684753 
	C488.769073,259.684753 501.542816,259.684753 515.271973,259.685364 
M326.361023,266.042969 
	C339.719208,264.952332 346.844543,257.366211 346.930542,243.931458 
	C347.012604,231.109100 346.957123,218.285812 346.929962,205.462982 
	C346.927612,204.366516 346.683167,203.270569 346.554657,202.202942 
	C343.582214,202.202942 340.941132,202.202942 338.087891,202.202942 
	C337.943756,203.817307 337.811615,205.297668 337.650452,207.102997 
	C328.462128,198.961044 317.207123,198.850189 309.462646,206.431793 
	C301.119781,214.599182 300.455414,229.700989 308.033234,238.923935 
	C315.343933,247.821808 326.350830,248.337708 337.613983,240.310440 
	C338.217407,249.186081 335.886261,254.234695 330.139679,256.497620 
	C324.025269,258.905396 318.859131,256.955566 312.908020,249.882965 
	C310.244934,251.011810 307.525543,252.164520 304.822723,253.310196 
	C307.839630,261.732147 314.551453,265.804718 326.361023,266.042969 
M997.562378,239.025360 
	C988.065918,239.966934 982.635254,235.726822 981.750061,226.112366 
	C992.819153,226.112366 1003.849670,226.112366 1014.802429,226.112366 
	C1016.004150,212.780075 1009.621887,203.248718 998.571045,201.178848 
	C986.389282,198.897156 975.949768,205.459183 972.584106,217.513672 
	C969.237671,229.499496 975.051514,241.961395 985.867371,245.985931 
	C997.076172,250.156677 1009.010803,245.777603 1013.993103,235.484879 
	C1011.494812,234.290771 1008.998291,233.097488 1007.160095,232.218857 
	C1003.908936,234.723587 1001.127991,236.866104 997.562378,239.025360 
M202.240341,235.078827 
	C202.649017,235.801712 203.015671,236.552399 203.472687,237.243301 
	C209.587784,246.487534 221.629730,250.043427 232.165344,245.729294 
	C241.893616,241.745728 247.482651,231.007721 245.593109,219.930878 
	C243.699341,208.829147 235.115814,201.254471 223.935715,200.818954 
	C205.969116,200.119080 195.280930,216.430496 202.240341,235.078827 
M296.753082,230.106583 
	C296.894592,227.124496 297.384918,224.110703 297.117218,221.165817 
	C295.953949,208.369614 285.360840,199.792374 272.113617,200.921600 
	C258.480713,202.083694 251.201904,212.169235 251.164673,224.838531 
	C251.130478,236.472046 259.522888,245.587341 270.275208,247.107559 
	C282.912292,248.894272 292.250641,243.116196 296.753082,230.106583 
M357.808228,245.872940 
	C360.739014,245.872940 363.669800,245.872940 366.613159,245.872940 
	C366.613159,225.180145 366.613159,204.816895 366.613159,184.486603 
	C363.344727,184.486603 360.431000,184.486603 357.241791,184.486603 
	C357.241791,204.899536 357.241791,225.011230 357.808228,245.872940 
z"/>
<path fill="#E0E0E0" opacity="1.000000" stroke="none" 
	d="
M1176.947754,21.648281 
	C1175.861084,21.582609 1174.632324,21.177065 1173.384277,20.842825 
	C1168.484863,19.530640 1163.579834,17.106865 1158.676025,17.104536 
	C786.979004,16.928003 415.281860,16.919449 43.584862,17.151976 
	C37.609341,17.155712 31.635782,20.294050 25.281193,21.962557 
	C29.445644,17.243830 35.262390,15.584248 41.536922,15.103231 
	C43.359409,14.963515 45.200916,15.067196 47.033703,15.067192 
	C416.782837,15.066430 786.531982,15.072781 1156.281128,15.021508 
	C1163.868896,15.020456 1170.830688,16.396698 1176.947754,21.648281 
z"/>
<path fill="#E1E1E2" opacity="1.000000" stroke="none" 
	d="
M21.645605,25.046085 
	C21.686031,26.001936 21.431660,27.109476 21.146391,28.209000 
	C19.751923,33.583729 17.138792,38.953815 17.127674,44.330036 
	C16.892269,158.189011 16.867357,272.048828 17.163679,385.907532 
	C17.180548,392.389069 20.294868,398.862549 21.961155,405.720886 
	C16.500284,400.671356 15.048163,393.850372 15.050312,386.482391 
	C15.065025,336.015015 15.058627,285.547607 15.058623,235.080231 
	C15.058619,171.621231 15.083781,108.162209 15.023023,44.703266 
	C15.016068,37.441090 16.694899,30.876854 21.645605,25.046085 
z"/>
<path fill="#E1E1E2" opacity="1.000000" stroke="none" 
	d="
M1180.354248,405.953979 
	C1180.314697,404.996948 1180.570923,403.888519 1180.856079,402.787598 
	C1182.249634,397.405853 1184.859619,392.028534 1184.870728,386.645203 
	C1185.105957,272.649597 1185.066040,158.653336 1184.984253,44.657299 
	C1184.981079,40.268913 1184.026001,35.881210 1183.772583,31.241356 
	C1185.001221,35.467491 1186.813354,39.944309 1186.819458,44.423603 
	C1186.975586,158.545990 1186.932007,272.668640 1186.968018,386.791260 
	C1186.970215,393.886200 1185.174805,400.266357 1180.354248,405.953979 
z"/>
<path fill="#E1E1E2" opacity="1.000000" stroke="none" 
	d="
M25.050634,409.345306 
	C26.889826,410.143555 28.876026,411.244385 30.929274,412.686462 
	C29.063429,411.901093 27.130537,410.774506 25.050634,409.345306 
z"/>
<path fill="#E0E0E0" opacity="1.000000" stroke="none" 
	d="
M1182.940918,28.684338 
	C1181.996338,27.881481 1181.014038,26.754307 1180.039307,25.261223 
	C1180.998901,26.050217 1181.950928,27.205118 1182.940918,28.684338 
z"/>
<path fill="#E0E0E0" opacity="1.000000" stroke="none" 
	d="
M1173.319580,411.935059 
	C1174.120361,410.990814 1175.244507,410.008911 1176.733887,409.035736 
	C1175.946899,409.995453 1174.794922,410.946442 1173.319580,411.935059 
z"/>
<path fill="#E1E1E2" opacity="1.000000" stroke="none" 
	d="
M1164.411743,415.235382 
	C1164.329224,414.629730 1164.580688,414.081848 1164.832153,413.533997 
	C1165.186401,413.785767 1165.540527,414.037506 1165.954834,414.571777 
	C1165.591919,415.000549 1165.168823,415.146851 1164.411743,415.235382 
z"/>
<path fill="#E1E1E2" opacity="1.000000" stroke="none" 
	d="
M36.286919,415.008423 
	C36.348980,414.409576 36.713085,413.964874 37.077183,413.520172 
	C37.342365,413.878052 37.607555,414.235931 37.897820,414.885742 
	C37.478245,415.172668 37.033604,415.167633 36.286919,415.008423 
z"/>
<path fill="#0A86FF" opacity="1.000000" stroke="none" 
	d="
M624.809631,254.858154 
	C606.543579,264.886871 585.394043,262.413818 570.832581,248.754532 
	C556.542053,235.349518 552.421509,214.381134 560.567261,196.517227 
	C568.674255,178.738312 587.383118,168.099869 606.857178,170.195358 
	C626.440247,172.302567 642.454163,186.899933 646.507996,206.338715 
	C650.456848,225.274460 642.278198,243.775253 624.809631,254.858154 
z"/>
<path fill="#0B86FF" opacity="1.000000" stroke="none" 
	d="
M514.794250,259.685059 
	C501.542816,259.684753 488.769073,259.684753 475.718201,259.684753 
	C475.718201,230.083466 475.718201,201.031952 475.718201,171.647202 
	C490.437653,171.647202 504.978333,171.647202 519.748047,171.647202 
	C519.748047,200.933289 519.748047,230.000305 519.748047,259.420563 
	C518.179993,259.513336 516.726013,259.599365 514.794250,259.685059 
z"/>
<path fill="#212225" opacity="1.000000" stroke="none" 
	d="
M165.030914,212.866455 
	C173.709610,212.778961 182.388290,212.691467 191.624969,212.978958 
	C192.451157,213.568451 192.719345,213.782944 192.987549,213.997452 
	C193.083359,214.430954 193.179169,214.864456 192.897552,215.842361 
	C192.685608,217.925903 192.851120,219.465042 193.016617,221.004181 
	C192.144318,239.850113 173.507721,251.766785 153.705246,246.140747 
	C140.801926,242.474823 131.655289,231.105957 130.805344,217.677200 
	C129.900650,203.383163 137.305557,190.988052 149.981796,185.577652 
	C162.471558,180.246857 177.040314,183.031845 186.092178,192.654190 
	C183.898026,194.635910 181.695541,196.625153 179.134705,198.938065 
	C174.491180,194.394470 168.419846,191.363922 161.583176,192.555130 
	C156.872726,193.375870 151.835968,195.288803 148.113556,198.205093 
	C140.069183,204.507339 138.316330,216.584167 143.042618,226.014145 
	C147.403168,234.714401 157.183716,239.423492 167.428314,237.755234 
	C176.334793,236.304855 182.240387,230.334686 183.284042,221.221756 
	C177.461441,221.221756 171.690247,221.221756 165.317108,220.871552 
	C164.186859,220.352142 163.658539,220.182938 163.130188,220.013718 
	C163.140259,217.730621 163.150345,215.447540 163.667328,213.204819 
	C164.459793,213.118942 164.745361,212.992691 165.030914,212.866455 
z"/>
<path fill="#212225" opacity="1.000000" stroke="none" 
	d="
M325.906799,266.044495 
	C314.551453,265.804718 307.839630,261.732147 304.822723,253.310196 
	C307.525543,252.164520 310.244934,251.011810 312.908020,249.882965 
	C318.859131,256.955566 324.025269,258.905396 330.139679,256.497620 
	C335.886261,254.234695 338.217407,249.186081 337.613983,240.310440 
	C326.350830,248.337708 315.343933,247.821808 308.033234,238.923935 
	C300.455414,229.700989 301.119781,214.599182 309.462646,206.431793 
	C317.207123,198.850189 328.462128,198.961044 337.650452,207.102997 
	C337.811615,205.297668 337.943756,203.817307 338.087891,202.202942 
	C340.941132,202.202942 343.582214,202.202942 346.554657,202.202942 
	C346.683167,203.270569 346.927612,204.366516 346.929962,205.462982 
	C346.957123,218.285812 347.012604,231.109100 346.930542,243.931458 
	C346.844543,257.366211 339.719208,264.952332 325.906799,266.044495 
M337.171692,218.672424 
	C334.128784,211.195999 327.927307,207.969009 321.018066,210.266754 
	C314.483826,212.439804 311.068268,219.611923 312.845734,227.427368 
	C314.402344,234.271698 320.406250,238.291672 327.378540,237.157913 
	C334.953888,235.926056 338.850586,229.010635 337.171692,218.672424 
z"/>
<path fill="#212225" opacity="1.000000" stroke="none" 
	d="
M1056.364868,240.932495 
	C1052.352783,243.040085 1048.533691,246.349197 1044.292480,247.030472 
	C1031.449707,249.093399 1021.160583,238.984161 1020.776428,224.884628 
	C1020.386597,210.573685 1030.293823,199.698044 1043.260010,201.026627 
	C1047.559082,201.467133 1051.637573,204.060165 1055.883789,205.694824 
	C1055.883789,200.207642 1055.883789,193.561508 1056.416748,186.464020 
	C1059.183960,186.127548 1061.418213,186.242401 1063.628174,186.356003 
	C1063.628174,205.810898 1063.628174,224.655487 1063.628174,245.359604 
	C1060.469116,243.434113 1058.416992,242.183304 1056.364868,240.932495 
M1031.711060,217.509613 
	C1031.462036,221.243271 1030.352173,225.168564 1031.132446,228.673035 
	C1033.119263,237.595886 1043.187744,241.363998 1050.305298,236.350113 
	C1055.017212,233.030930 1057.381104,226.569489 1055.867676,220.349716 
	C1054.553101,214.946777 1051.339355,211.027298 1045.682007,209.937057 
	C1039.509033,208.747452 1035.104736,211.595642 1031.711060,217.509613 
z"/>
<path fill="#212225" opacity="1.000000" stroke="none" 
	d="
M962.018311,245.858231 
	C959.713013,245.858231 957.407654,245.858231 954.911499,245.858231 
	C954.716187,244.526138 954.529541,243.253494 954.317200,241.805618 
	C953.789307,241.935196 953.278625,241.910706 952.992615,242.152267 
	C940.728577,252.509995 923.115845,246.286774 919.827332,230.583969 
	C918.295898,223.271454 919.044373,216.481369 923.038147,210.197174 
	C930.004822,199.234818 944.570618,197.603043 953.851501,207.041519 
	C954.947083,206.470016 955.906738,205.573334 955.937439,204.645889 
	C956.091003,200.009125 955.978577,195.364166 956.006470,190.722366 
	C956.020020,188.472412 955.407959,185.856567 959.213318,185.998016 
	C962.760071,186.129837 961.967896,188.664688 961.973083,190.652039 
	C962.021240,209.054016 962.011353,227.456146 962.018311,245.858231 
M935.314392,211.465744 
	C934.200562,212.450150 932.940979,213.312607 931.997864,214.439835 
	C927.688721,219.590164 927.605774,228.013657 931.712524,233.444153 
	C935.370728,238.281326 941.537109,239.908722 946.813660,237.429428 
	C953.569702,234.254929 956.585510,225.130188 953.341736,217.677902 
	C950.283081,210.650970 943.710144,208.148651 935.314392,211.465744 
z"/>
<path fill="#202124" opacity="1.000000" stroke="none" 
	d="
M418.166321,223.038345 
	C419.101257,226.121719 417.270233,226.228256 414.967346,226.212967 
	C405.012634,226.146805 395.057251,226.184647 385.097168,226.184647 
	C385.254242,232.297562 387.865051,235.883026 393.480927,238.038437 
	C399.493225,240.346008 403.264252,238.968430 409.902588,231.928513 
	C412.325592,233.115738 414.808655,234.332382 417.302979,235.554550 
	C411.303680,246.536530 398.885193,250.523834 387.592255,245.351547 
	C377.093597,240.543060 372.140656,227.290192 376.435028,215.497528 
	C380.197052,205.166794 389.281738,199.671631 400.406830,200.997482 
	C410.652283,202.218506 417.148102,209.523834 418.036072,221.646729 
	C417.901428,222.459076 418.033875,222.748718 418.166321,223.038345 
M406.766113,213.766876 
	C403.434814,209.521347 399.006622,208.203217 393.939758,209.456482 
	C389.251282,210.616119 386.504883,213.868774 385.235168,218.721786 
	C393.126617,218.721786 400.679779,218.721786 408.820892,218.721786 
	C408.169617,217.055557 407.652496,215.732529 406.766113,213.766876 
z"/>
<path fill="#202124" opacity="1.000000" stroke="none" 
	d="
M997.954712,239.016998 
	C1001.127991,236.866104 1003.908936,234.723587 1007.160095,232.218857 
	C1008.998291,233.097488 1011.494812,234.290771 1013.993103,235.484879 
	C1009.010803,245.777603 997.076172,250.156677 985.867371,245.985931 
	C975.051514,241.961395 969.237671,229.499496 972.584106,217.513672 
	C975.949768,205.459183 986.389282,198.897156 998.571045,201.178848 
	C1009.621887,203.248718 1016.004150,212.780075 1014.802429,226.112366 
	C1003.849670,226.112366 992.819153,226.112366 981.750061,226.112366 
	C982.635254,235.726822 988.065918,239.966934 997.954712,239.016998 
M996.801758,209.342438 
	C988.515015,208.540085 984.166443,211.305359 982.332703,218.641846 
	C989.886719,218.641846 997.409668,218.641846 1005.247803,218.641846 
	C1004.579529,213.694214 1001.801025,211.029327 996.801758,209.342438 
z"/>
<path fill="#202124" opacity="1.000000" stroke="none" 
	d="
M861.011169,225.969025 
	C850.878540,226.112167 840.745850,226.255295 830.150635,226.795288 
	C829.815491,227.454422 829.942932,227.716690 830.070374,227.978973 
	C834.042542,241.142349 848.622742,241.874313 855.321289,231.869522 
	C857.839233,233.084274 860.416809,234.327820 863.028625,235.587875 
	C857.142944,245.587112 847.148132,249.597260 836.430115,246.557007 
	C826.657166,243.784821 820.384766,234.793579 820.566467,223.817047 
	C820.746582,212.942398 827.446228,203.827759 837.036621,201.410019 
	C847.407959,198.795380 856.578613,202.844040 861.597168,212.960327 
	C861.249573,217.700958 861.130371,221.835007 861.011169,225.969025 
M833.956177,218.888199 
	C840.560425,218.888199 847.164673,218.888199 853.807617,218.888199 
	C853.043335,212.793198 849.121887,209.274231 843.175415,209.047638 
	C837.894653,208.846420 832.158569,212.627258 831.267151,217.097931 
	C831.175598,217.557007 832.438477,218.286148 833.956177,218.888199 
z"/>
<path fill="#222326" opacity="1.000000" stroke="none" 
	d="
M202.096939,234.722595 
	C195.280930,216.430496 205.969116,200.119080 223.935715,200.818954 
	C235.115814,201.254471 243.699341,208.829147 245.593109,219.930878 
	C247.482651,231.007721 241.893616,241.745728 232.165344,245.729294 
	C221.629730,250.043427 209.587784,246.487534 203.472687,237.243301 
	C203.015671,236.552399 202.649017,235.801712 202.096939,234.722595 
M211.786469,232.512161 
	C216.810242,238.654602 223.293213,240.260635 229.360184,236.865738 
	C235.174835,233.612030 237.801788,225.947098 235.504837,218.936737 
	C233.462158,212.702377 227.676727,209.004227 221.176941,209.778030 
	C214.588272,210.562439 209.630508,215.956421 209.515198,223.223862 
	C209.469528,226.101746 210.699158,228.999878 211.786469,232.512161 
z"/>
<path fill="#212225" opacity="1.000000" stroke="none" 
	d="
M296.635742,230.488083 
	C292.250641,243.116196 282.912292,248.894272 270.275208,247.107559 
	C259.522888,245.587341 251.130478,236.472046 251.164673,224.838531 
	C251.201904,212.169235 258.480713,202.083694 272.113617,200.921600 
	C285.360840,199.792374 295.953949,208.369614 297.117218,221.165817 
	C297.384918,224.110703 296.894592,227.124496 296.635742,230.488083 
M263.907654,233.450378 
	C270.020386,240.145355 275.692749,239.777588 280.803375,236.864746 
	C287.382080,233.115219 289.693573,224.311035 286.307922,217.242310 
	C283.364105,211.096039 276.353088,208.137085 269.989960,210.355423 
	C263.243317,212.707458 259.489960,220.140991 261.322754,227.844437 
	C261.736298,229.582504 262.722534,231.184311 263.907654,233.450378 
z"/>
<path fill="#222326" opacity="1.000000" stroke="none" 
	d="
M534.902222,267.992401 
	C532.080872,268.450378 529.259460,268.908356 525.590393,269.503937 
	C533.829956,233.310669 541.850830,198.077896 550.413757,162.445099 
	C553.383545,162.045105 555.811340,162.045105 558.675171,162.045105 
	C555.172485,177.492737 551.768982,192.364914 548.432190,207.252075 
	C543.895508,227.492859 539.409790,247.745087 534.902222,267.992401 
z"/>
<path fill="#242528" opacity="1.000000" stroke="none" 
	d="
M735.991211,185.996857 
	C736.008850,187.713455 736.026550,189.430069 735.544617,191.556854 
	C727.829834,191.969131 720.612000,191.867828 713.401855,192.058105 
	C711.907410,192.097534 710.441528,193.219757 708.962524,193.842957 
	C708.966370,199.115906 708.970154,204.388870 709.228699,210.478943 
	C715.729248,211.538513 721.973511,211.841202 728.221558,211.991577 
	C730.477905,212.045868 732.575378,212.391434 731.819763,215.146423 
	C731.497986,216.319687 729.597351,217.775696 728.339294,217.851044 
	C723.211121,218.158249 718.048340,217.850052 712.911316,218.071442 
	C711.577759,218.128922 710.291565,219.283997 708.983582,219.934906 
	C708.961121,225.127106 708.938660,230.319290 709.119507,236.333069 
	C710.893311,237.439880 712.459900,237.943161 714.034912,237.971069 
	C719.698181,238.071442 725.364380,238.034744 731.029236,237.999817 
	C733.178650,237.986542 735.003540,238.028397 734.994385,241.032394 
	C734.985168,244.073853 733.086792,244.014648 730.978516,244.009766 
	C722.480957,243.990112 713.979736,243.856476 705.487671,244.071945 
	C701.957336,244.161499 700.915466,242.966949 700.947571,239.492752 
	C701.098572,223.165558 701.101379,206.835342 700.945801,190.508224 
	C700.912415,187.006775 701.999390,185.888031 705.502014,185.953110 
	C715.661865,186.141846 725.827698,186.005585 735.991211,185.996857 
z"/>
<path fill="#232427" opacity="1.000000" stroke="none" 
	d="
M880.019287,245.863495 
	C877.540588,245.863495 875.061890,245.863495 872.254272,245.863495 
	C872.254272,231.531586 872.254272,217.154510 872.254272,202.412399 
	C874.971130,202.412399 877.854919,202.412399 880.963562,202.412399 
	C881.053772,203.785995 881.147461,205.212494 881.284790,207.302628 
	C887.523376,200.838547 894.695862,199.058319 902.663696,202.196533 
	C907.935181,204.272736 910.373840,208.741287 910.774292,214.890488 
	C910.275757,223.697906 910.119202,231.818817 909.994873,239.940216 
	C909.963379,241.996384 910.151489,243.977081 907.084534,244.013138 
	C904.133484,244.047836 903.979797,242.302109 903.993530,240.112549 
	C904.034119,233.629990 904.210266,227.137802 903.919006,220.668045 
	C903.773071,217.426636 904.138550,213.527466 899.790588,212.142410 
	C899.790588,212.142410 899.889099,212.114761 899.888794,211.865326 
	C899.277954,211.355377 898.667542,211.094849 898.057068,210.834335 
	C889.602112,208.234833 885.667358,210.095169 881.511108,218.849075 
	C880.645447,220.668304 880.052612,222.037704 880.037109,223.413620 
	C879.952637,230.896027 880.010437,238.380035 880.019287,245.863495 
z"/>
<path fill="#202124" opacity="1.000000" stroke="none" 
	d="
M762.079895,214.971008 
	C762.867798,214.971649 764.049377,215.301102 764.372864,214.913834 
	C765.535278,213.522141 766.631714,211.985580 767.351196,210.329239 
	C770.500488,203.079697 775.658752,200.057663 783.852295,202.664764 
	C779.022217,209.565582 774.125977,216.560928 769.065063,223.791458 
	C773.989380,230.908951 778.972107,238.110947 783.938171,245.288788 
	C770.680542,250.279739 769.126587,237.997971 763.146851,231.448547 
	C761.164429,234.497238 758.946899,237.225616 757.486755,240.312302 
	C755.270813,244.996780 751.973694,246.950974 746.883667,246.072250 
	C745.755005,245.877411 744.564026,246.043701 742.383850,246.043701 
	C746.199524,240.430908 749.662781,235.336578 753.760132,230.051193 
	C755.590576,228.572708 757.005188,227.424194 757.933655,225.966125 
	C759.430603,223.615067 759.511292,221.507324 755.954041,221.025787 
	C755.954041,221.025787 756.005920,221.010651 755.989746,220.667877 
	C755.276917,219.574493 754.580261,218.823883 753.883667,218.073273 
	C753.883667,218.073273 753.981506,218.041443 753.967529,217.705719 
	C752.288269,215.254593 750.622864,213.139191 748.957520,211.023773 
	C748.957520,211.023773 749.006104,211.009476 748.990234,210.665115 
	C748.273621,209.574554 747.572876,208.828354 746.872192,208.082153 
	C746.872192,208.082138 746.974182,208.045395 746.962585,207.717651 
	C746.950989,206.323517 746.950989,205.257126 746.950989,204.271042 
	C750.829590,203.466888 753.750916,204.070190 755.543030,207.716949 
	C755.871277,208.384827 757.185364,208.568176 758.044434,208.975174 
	C758.044434,208.975174 757.993469,208.988571 758.009277,209.328735 
	C758.702332,210.435181 759.379578,211.201462 760.056824,211.967743 
	C760.056824,211.967728 759.994080,211.983032 760.011780,212.321945 
	C760.712952,213.430908 761.396423,214.200958 762.079895,214.971008 
z"/>
<path fill="#28292C" opacity="1.000000" stroke="none" 
	d="
M796.194031,210.960419 
	C793.747620,210.753952 791.301208,210.547501 788.574463,210.317398 
	C788.574463,207.636902 788.574463,205.084625 788.574463,202.221298 
	C790.970337,202.116409 793.233826,202.017334 795.938538,201.898941 
	C795.938538,197.935791 795.938538,194.022949 795.938538,189.872925 
	C799.309631,189.872925 802.237488,189.872925 805.661499,189.872925 
	C805.661499,193.862671 805.661499,197.754929 805.661499,201.985718 
	C809.402222,201.985718 812.661194,201.985718 816.141602,201.985718 
	C816.141602,204.941193 816.141602,207.533325 816.141602,210.545044 
	C812.717712,210.545044 809.471924,210.545044 805.820557,210.545044 
	C805.820557,218.387482 805.525940,225.835907 805.916626,233.248199 
	C806.213074,238.873444 810.415710,240.539108 816.205566,237.838959 
	C816.321533,238.120071 816.524353,238.402344 816.528015,238.687134 
	C816.643066,247.823532 812.870728,249.744049 802.256836,245.192810 
	C798.281433,240.294586 797.612732,235.285477 797.952087,229.833694 
	C798.259338,224.899261 798.145325,219.925095 797.933411,214.980621 
	C797.875000,213.618195 796.801636,212.299286 796.194031,210.960419 
z"/>
<path fill="#111215" opacity="1.000000" stroke="none" 
	d="
M736.143738,185.780457 
	C725.827698,186.005585 715.661865,186.141846 705.502014,185.953110 
	C701.999390,185.888031 700.912415,187.006775 700.945801,190.508224 
	C701.101379,206.835342 701.098572,223.165558 700.947571,239.492752 
	C700.915466,242.966949 701.957336,244.161499 705.487671,244.071945 
	C713.979736,243.856476 722.480957,243.990112 730.978516,244.009766 
	C733.086792,244.014648 734.985168,244.073853 734.994385,241.032394 
	C735.003540,238.028397 733.178650,237.986542 731.029236,237.999817 
	C725.364380,238.034744 719.698181,238.071442 714.034912,237.971069 
	C712.459900,237.943161 710.893311,237.439880 709.120361,236.832153 
	C718.025452,236.509628 727.132935,236.509628 736.453979,236.509628 
	C736.453979,239.921066 736.453979,242.701263 736.453979,245.751923 
	C724.156189,245.751923 711.767273,245.751923 699.330566,245.751923 
	C699.330566,225.312302 699.330566,205.068710 699.330566,184.329651 
	C711.572693,184.329651 723.661255,184.324188 735.749573,184.380951 
	C735.933655,184.381821 736.114136,185.152603 736.143738,185.780457 
z"/>
<path fill="#2A2B2D" opacity="1.000000" stroke="none" 
	d="
M357.525024,245.497925 
	C357.241791,225.011230 357.241791,204.899536 357.241791,184.486603 
	C360.431000,184.486603 363.344727,184.486603 366.613159,184.486603 
	C366.613159,204.816895 366.613159,225.180145 366.613159,245.872940 
	C363.669800,245.872940 360.739014,245.872940 357.525024,245.497925 
M365.022339,229.494492 
	C365.022125,216.526398 365.039307,203.558273 365.003784,190.590271 
	C364.998199,188.548004 365.661377,186.060974 362.157654,185.970169 
	C358.345184,185.871353 359.039978,188.535583 358.980713,190.772141 
	C358.936676,192.433563 358.971924,194.097061 358.971924,195.759644 
	C358.971954,210.224045 358.955261,224.688492 358.989868,239.152802 
	C358.995117,241.348083 358.248413,244.086914 362.090302,244.009872 
	C365.991913,243.931595 364.897949,241.072083 364.991089,238.968353 
	C365.115997,236.147507 365.022308,233.316971 365.022339,229.494492 
z"/>
<path fill="#EBEBEC" opacity="1.000000" stroke="none" 
	d="
M535.276917,267.915955 
	C539.409790,247.745087 543.895508,227.492859 548.432190,207.252075 
	C551.768982,192.364914 555.172485,177.492737 558.675171,162.045105 
	C555.811340,162.045105 553.383545,162.045105 550.501709,162.082306 
	C551.783997,158.068054 555.207642,160.333466 557.763184,160.493896 
	C558.464783,160.537949 559.784973,164.152847 559.416626,165.818588 
	C552.923828,195.182053 546.243042,224.504181 539.519226,253.816071 
	C538.436096,258.537811 536.950928,263.167328 535.276917,267.915955 
z"/>
<path fill="#090A0D" opacity="1.000000" stroke="none" 
	d="
M962.299866,245.928345 
	C962.011353,227.456146 962.021240,209.054016 961.973083,190.652039 
	C961.967896,188.664688 962.760071,186.129837 959.213318,185.998016 
	C955.407959,185.856567 956.020020,188.472412 956.006470,190.722366 
	C955.978577,195.364166 956.091003,200.009125 955.937439,204.645889 
	C955.906738,205.573334 954.947083,206.470016 954.172607,207.126678 
	C953.929565,199.535187 953.929565,192.197922 953.929565,184.623245 
	C957.434998,184.623245 960.465881,184.623245 963.674072,185.161774 
	C963.812683,205.769257 963.773987,225.838196 963.735291,245.907135 
	C963.350647,245.937576 962.966064,245.968018 962.299866,245.928345 
z"/>
<path fill="#090A0D" opacity="1.000000" stroke="none" 
	d="
M1056.350830,241.324707 
	C1058.416992,242.183304 1060.469116,243.434113 1063.628174,245.359604 
	C1063.628174,224.655487 1063.628174,205.810898 1063.628174,186.356003 
	C1061.418213,186.242401 1059.183960,186.127548 1056.504639,186.002136 
	C1058.849121,185.177734 1061.638916,184.363922 1065.041748,183.371277 
	C1065.041748,204.771240 1065.041748,225.096039 1065.041748,245.713928 
	C1062.454224,245.713928 1059.716309,245.713928 1056.336914,245.713928 
	C1056.336914,244.487366 1056.336914,243.102142 1056.350830,241.324707 
z"/>
<path fill="#18191C" opacity="1.000000" stroke="none" 
	d="
M899.928711,212.506927 
	C904.138550,213.527466 903.773071,217.426636 903.919006,220.668045 
	C904.210266,227.137802 904.034119,233.629990 903.993530,240.112549 
	C903.979797,242.302109 904.133484,244.047836 907.084534,244.013138 
	C910.151489,243.977081 909.963379,241.996384 909.994873,239.940216 
	C910.119202,231.818817 910.275757,223.697906 910.720337,215.283829 
	C911.020264,225.110733 911.020264,235.230606 911.020264,245.691467 
	C908.285034,245.691467 905.409058,245.691467 901.970154,245.691467 
	C901.970154,237.666946 902.133423,229.565125 901.882874,221.476089 
	C901.793518,218.591904 900.701233,215.738754 899.928711,212.506927 
z"/>
<path fill="#FDFDFD" opacity="1.000000" stroke="none" 
	d="
M964.149902,245.859024 
	C963.773987,225.838196 963.812683,205.769257 963.906250,185.349091 
	C964.639832,186.108459 965.902588,187.215149 965.910034,188.330231 
	C966.031738,206.548767 966.016174,224.768478 965.932800,242.987473 
	C965.928528,243.930664 965.040955,244.869843 964.149902,245.859024 
z"/>
<path fill="#0E0F12" opacity="1.000000" stroke="none" 
	d="
M709.449585,219.871460 
	C710.291565,219.283997 711.577759,218.128922 712.911316,218.071442 
	C718.048340,217.850052 723.211121,218.158249 728.339294,217.851044 
	C729.597351,217.775696 731.497986,216.319687 731.819763,215.146423 
	C732.575378,212.391434 730.477905,212.045868 728.221558,211.991577 
	C721.973511,211.841202 715.729248,211.538513 709.282898,210.914780 
	C716.756409,210.561798 724.430542,210.590088 732.693542,211.223114 
	C733.431458,212.129379 733.580444,212.430908 733.729431,212.732452 
	C733.729431,215.003876 733.729431,217.275314 733.729431,219.808014 
	C725.690552,219.808014 717.803101,219.808014 709.449585,219.871460 
z"/>
<path fill="#0E0F12" opacity="1.000000" stroke="none" 
	d="
M796.185303,211.431488 
	C796.801636,212.299286 797.875000,213.618195 797.933411,214.980621 
	C798.145325,219.925095 798.259338,224.899261 797.952087,229.833694 
	C797.612732,235.285477 798.281433,240.294586 802.045593,244.925293 
	C796.963501,243.330704 796.408630,238.721832 796.237854,234.308304 
	C795.949219,226.850098 796.170044,219.372192 796.185303,211.431488 
z"/>
<path fill="#111215" opacity="1.000000" stroke="none" 
	d="
M709.426636,193.755157 
	C710.441528,193.219757 711.907410,192.097534 713.401855,192.058105 
	C720.612000,191.867828 727.829834,191.969131 735.512024,191.984772 
	C734.944763,192.547028 733.919067,193.544022 732.874878,193.563705 
	C725.215576,193.708145 717.552551,193.656906 709.426636,193.755157 
z"/>
<path fill="#212225" opacity="1.000000" stroke="none" 
	d="
M757.959229,208.633148 
	C757.185364,208.568176 755.871277,208.384827 755.543030,207.716949 
	C753.750916,204.070190 750.829590,203.466888 746.950989,204.271042 
	C746.950989,205.257126 746.950989,206.323517 746.928833,207.760086 
	C745.542053,206.354782 744.177368,204.579315 742.577393,202.497711 
	C749.346130,201.383499 755.106689,201.071274 757.959229,208.633148 
z"/>
<path fill="#090A0D" opacity="1.000000" stroke="none" 
	d="
M880.475586,245.824142 
	C880.010437,238.380035 879.952637,230.896027 880.037109,223.413620 
	C880.052612,222.037704 880.645447,220.668304 881.338013,219.166016 
	C881.446716,227.952347 881.189270,236.868576 880.475586,245.824142 
z"/>
<path fill="#18191C" opacity="1.000000" stroke="none" 
	d="
M861.322388,226.060532 
	C861.130371,221.835007 861.249573,217.700958 861.626465,213.306595 
	C862.589478,216.530716 863.461609,219.995743 863.871155,223.514603 
	C863.962158,224.296341 862.422485,225.267883 861.322388,226.060532 
z"/>
<path fill="#212225" opacity="1.000000" stroke="none" 
	d="
M756.057373,221.380905 
	C759.511292,221.507324 759.430603,223.615067 757.933655,225.966125 
	C757.005188,227.424194 755.590576,228.572708 754.030029,229.865875 
	C753.969055,226.997696 759.093933,225.602402 756.057373,221.380905 
z"/>
<path fill="#212225" opacity="1.000000" stroke="none" 
	d="
M749.040649,211.353882 
	C750.622864,213.139191 752.288269,215.254593 753.934570,217.745209 
	C752.318298,215.974930 750.721069,213.829453 749.040649,211.353882 
z"/>
<path fill="#0E0F12" opacity="1.000000" stroke="none" 
	d="
M193.119720,220.693970 
	C192.851120,219.465042 192.685608,217.925903 192.810135,216.168839 
	C193.141052,217.428528 193.181946,218.906128 193.119720,220.693970 
z"/>
<path fill="#212225" opacity="1.000000" stroke="none" 
	d="
M753.954590,218.375549 
	C754.580261,218.823883 755.276917,219.574493 755.971497,220.687958 
	C755.321533,220.259811 754.673523,219.468811 753.954590,218.375549 
z"/>
<path fill="#212225" opacity="1.000000" stroke="none" 
	d="
M746.948608,208.382568 
	C747.572876,208.828354 748.273621,209.574554 748.973145,210.684021 
	C748.322998,210.259186 747.674011,209.471100 746.948608,208.382568 
z"/>
<path fill="#212225" opacity="1.000000" stroke="none" 
	d="
M762.019714,214.664261 
	C761.396423,214.200958 760.712952,213.430908 760.034302,212.298798 
	C760.679260,212.743668 761.319397,213.550583 762.019714,214.664261 
z"/>
<path fill="#212225" opacity="1.000000" stroke="none" 
	d="
M759.998657,211.662323 
	C759.379578,211.201462 758.702332,210.435181 758.027466,209.309509 
	C758.666748,209.752380 759.303650,210.554642 759.998657,211.662323 
z"/>
<path fill="#18191C" opacity="1.000000" stroke="none" 
	d="
M898.255615,211.041779 
	C898.667542,211.094849 899.277954,211.355377 899.871338,211.913422 
	C899.387512,211.890381 898.920837,211.569794 898.255615,211.041779 
z"/>
<path fill="#0E0F12" opacity="1.000000" stroke="none" 
	d="
M163.126923,220.355713 
	C163.658539,220.182938 164.186859,220.352142 164.859314,220.766815 
	C164.376846,220.907425 163.750244,220.802551 163.126923,220.355713 
z"/>
<path fill="#0E0F12" opacity="1.000000" stroke="none" 
	d="
M418.251587,222.767090 
	C418.033875,222.748718 417.901428,222.459076 417.950653,222.067291 
	C418.200470,222.142044 418.268646,222.318924 418.251587,222.767090 
z"/>
<path fill="#18191C" opacity="1.000000" stroke="none" 
	d="
M830.104370,227.732574 
	C829.942932,227.716690 829.815491,227.454422 829.852173,227.098022 
	C830.016357,227.003922 830.138306,227.486191 830.104370,227.732574 
z"/>
<path fill="#242528" opacity="1.000000" stroke="none" 
	d="
M733.862671,212.430176 
	C733.580444,212.430908 733.431458,212.129379 733.150635,211.340881 
	C733.344543,211.278564 733.670288,211.703232 733.862671,212.430176 
z"/>
<path fill="#0E0F12" opacity="1.000000" stroke="none" 
	d="
M192.992096,213.680527 
	C192.719345,213.782944 192.451157,213.568451 192.074493,213.114716 
	C192.309586,213.038208 192.653122,213.200897 192.992096,213.680527 
z"/>
<path fill="#0E0F12" opacity="1.000000" stroke="none" 
	d="
M164.763763,212.778488 
	C164.745361,212.992691 164.459793,213.118942 164.071991,213.066467 
	C164.145355,212.822021 164.320969,212.756287 164.763763,212.778488 
z"/>
<path fill="#F3F3F3" opacity="1.000000" stroke="none" 
	d="
M337.261597,219.065704 
	C338.850586,229.010635 334.953888,235.926056 327.378540,237.157913 
	C320.406250,238.291672 314.402344,234.271698 312.845734,227.427368 
	C311.068268,219.611923 314.483826,212.439804 321.018066,210.266754 
	C327.927307,207.969009 334.128784,211.195999 337.261597,219.065704 
z"/>
<path fill="#F4F4F4" opacity="1.000000" stroke="none" 
	d="
M1031.864990,217.159912 
	C1035.104736,211.595642 1039.509033,208.747452 1045.682007,209.937057 
	C1051.339355,211.027298 1054.553101,214.946777 1055.867676,220.349716 
	C1057.381104,226.569489 1055.017212,233.030930 1050.305298,236.350113 
	C1043.187744,241.363998 1033.119263,237.595886 1031.132446,228.673035 
	C1030.352173,225.168564 1031.462036,221.243271 1031.864990,217.159912 
z"/>
<path fill="#F4F4F4" opacity="1.000000" stroke="none" 
	d="
M935.657593,211.270935 
	C943.710144,208.148651 950.283081,210.650970 953.341736,217.677902 
	C956.585510,225.130188 953.569702,234.254929 946.813660,237.429428 
	C941.537109,239.908722 935.370728,238.281326 931.712524,233.444153 
	C927.605774,228.013657 927.688721,219.590164 931.997864,214.439835 
	C932.940979,213.312607 934.200562,212.450150 935.657593,211.270935 
z"/>
<path fill="#EEEEEE" opacity="1.000000" stroke="none" 
	d="
M406.950745,214.088196 
	C407.652496,215.732529 408.169617,217.055557 408.820892,218.721786 
	C400.679779,218.721786 393.126617,218.721786 385.235168,218.721786 
	C386.504883,213.868774 389.251282,210.616119 393.939758,209.456482 
	C399.006622,208.203217 403.434814,209.521347 406.950745,214.088196 
z"/>
<path fill="#EEEEEE" opacity="1.000000" stroke="none" 
	d="
M997.181152,209.465393 
	C1001.801025,211.029327 1004.579529,213.694214 1005.247803,218.641846 
	C997.409668,218.641846 989.886719,218.641846 982.332703,218.641846 
	C984.166443,211.305359 988.515015,208.540085 997.181152,209.465393 
z"/>
<path fill="#EEEEEE" opacity="1.000000" stroke="none" 
	d="
M833.514526,218.889084 
	C832.438477,218.286148 831.175598,217.557007 831.267151,217.097931 
	C832.158569,212.627258 837.894653,208.846420 843.175415,209.047638 
	C849.121887,209.274231 853.043335,212.793198 853.807617,218.888199 
	C847.164673,218.888199 840.560425,218.888199 833.514526,218.889084 
z"/>
<path fill="#F4F4F4" opacity="1.000000" stroke="none" 
	d="
M211.567291,232.200470 
	C210.699158,228.999878 209.469528,226.101746 209.515198,223.223862 
	C209.630508,215.956421 214.588272,210.562439 221.176941,209.778030 
	C227.676727,209.004227 233.462158,212.702377 235.504837,218.936737 
	C237.801788,225.947098 235.174835,233.612030 229.360184,236.865738 
	C223.293213,240.260635 216.810242,238.654602 211.567291,232.200470 
z"/>
<path fill="#F3F3F3" opacity="1.000000" stroke="none" 
	d="
M263.676392,233.149612 
	C262.722534,231.184311 261.736298,229.582504 261.322754,227.844437 
	C259.489960,220.140991 263.243317,212.707458 269.989960,210.355423 
	C276.353088,208.137085 283.364105,211.096039 286.307922,217.242310 
	C289.693573,224.311035 287.382080,233.115219 280.803375,236.864746 
	C275.692749,239.777588 270.020386,240.145355 263.676392,233.149612 
z"/>
<path fill="#202124" opacity="1.000000" stroke="none" 
	d="
M365.022400,229.992554 
	C365.022308,233.316971 365.115997,236.147507 364.991089,238.968353 
	C364.897949,241.072083 365.991913,243.931595 362.090302,244.009872 
	C358.248413,244.086914 358.995117,241.348083 358.989868,239.152802 
	C358.955261,224.688492 358.971954,210.224045 358.971924,195.759644 
	C358.971924,194.097061 358.936676,192.433563 358.980713,190.772141 
	C359.039978,188.535583 358.345184,185.871353 362.157654,185.970169 
	C365.661377,186.060974 364.998199,188.548004 365.003784,190.590271 
	C365.039307,203.558273 365.022125,216.526398 365.022400,229.992554 
z"/>
</svg>