<svg version="1.1" id="Layer_1" xmlns="http://www.w3.org/2000/svg" xmlns:xlink="http://www.w3.org/1999/xlink" x="0px" y="0px"
	 width="100%" viewBox="0 0 1920 635" enable-background="new 0 0 1920 635" xml:space="preserve">
<path fill="#FFFFFF" opacity="1.000000" stroke="none" 
	d="
M698.000000,636.000000 
	C465.692200,636.000000 233.384399,636.000000 1.038304,636.000000 
	C1.038304,424.382141 1.038304,212.764267 1.038304,1.073201 
	C640.880859,1.073201 1280.761719,1.073201 1921.000000,1.073201 
	C1921.000000,167.029190 1921.000000,333.058655 1920.548340,499.544189 
	C1917.091797,499.997070 1914.087036,499.993866 1910.963623,499.646179 
	C1910.541382,497.885895 1910.237793,496.470062 1909.961426,494.615784 
	C1908.019287,479.571045 1905.233643,465.013824 1904.352173,450.342194 
	C1903.704468,439.563416 1900.680054,432.663910 1888.980713,431.619873 
	C1888.979004,367.086487 1888.969238,303.027649 1888.970825,238.503418 
	C1888.984863,233.375351 1888.989624,228.712631 1888.989746,224.049927 
	C1888.989746,216.993103 1888.988403,216.990433 1882.107910,216.990402 
	C1730.735107,216.989899 1579.362305,216.989975 1427.989502,216.990219 
	C1426.823853,216.990219 1425.651489,217.073761 1424.493774,216.979080 
	C1421.908081,216.767578 1420.939331,217.891037 1420.990845,220.471542 
	C1421.113647,226.630646 1421.050537,232.793457 1421.044678,239.425934 
	C1421.021118,248.600769 1421.015381,257.304413 1420.786377,266.269653 
	C1413.774414,268.945465 1409.943604,273.538361 1409.511963,280.966248 
	C1401.424561,282.142059 1393.758911,283.252991 1386.111206,284.475739 
	C1374.718140,286.297363 1363.337524,288.197968 1351.658203,289.898010 
	C1347.426880,283.527496 1342.092651,279.673309 1334.474976,281.128601 
	C1331.198975,281.754486 1328.178223,283.716827 1324.726318,284.916901 
	C1311.940674,277.174530 1299.470337,269.587280 1287.005371,261.596863 
	C1289.107056,254.517334 1286.990234,248.824417 1281.876587,244.724548 
	C1276.531860,240.439468 1270.474365,239.999191 1264.271484,243.809540 
	C1256.878296,248.350998 1255.190430,256.447754 1259.694702,266.152771 
	C1254.215454,272.086090 1249.036133,277.868317 1243.852661,283.646820 
	C1236.570068,291.765411 1229.284424,299.881256 1221.617188,307.953064 
	C1213.973145,304.864075 1207.216675,305.894409 1202.893799,310.704498 
	C1198.358643,315.750885 1197.545166,324.902252 1201.207275,329.680206 
	C1206.606445,336.724457 1213.984619,338.722504 1220.914673,335.016937 
	C1227.632202,331.425079 1230.568604,324.238464 1228.411255,316.766052 
	C1227.862305,314.864471 1227.431519,312.928711 1227.257202,310.867096 
	C1239.712036,297.151520 1251.856079,283.577545 1264.385742,270.047485 
	C1271.889526,273.451935 1278.265869,272.212921 1284.197632,267.266296 
	C1296.944580,275.027466 1309.493896,282.513367 1322.039795,290.456177 
	C1322.020508,292.412476 1321.991943,293.911835 1321.990601,295.411194 
	C1321.982544,304.296783 1327.813721,310.813019 1335.933838,311.000610 
	C1345.607056,311.224121 1351.663574,305.609894 1352.490234,296.035156 
	C1360.243774,294.860474 1367.569336,293.706848 1374.893066,292.541168 
	C1386.612671,290.675873 1398.331055,288.802582 1410.343262,287.099731 
	C1414.091064,290.177460 1417.545532,293.088135 1421.002319,296.467529 
	C1420.991455,351.186584 1420.978394,405.436951 1420.504639,459.766907 
	C1412.239258,459.866364 1404.434204,459.856873 1396.629761,459.915100 
	C1390.170776,459.963287 1388.009399,462.137451 1387.960815,468.585327 
	C1387.882080,479.044189 1387.838379,489.503296 1387.325195,499.973145 
	C1352.198853,499.996490 1317.527100,500.008972 1282.748535,499.561035 
	C1282.624634,475.298950 1282.628174,451.497284 1282.578491,427.695679 
	C1282.563599,420.534882 1279.847412,417.227814 1273.519775,417.186890 
	C1255.044922,417.067413 1236.568604,417.110565 1218.093262,417.169250 
	C1213.664062,417.183319 1210.369141,418.992889 1209.272461,424.210022 
	C1209.043213,437.737396 1208.966309,450.802216 1208.452881,463.918274 
	C1205.774658,463.969574 1203.533325,463.969574 1201.381958,463.969574 
	C1200.481323,470.953979 1203.220093,474.935608 1208.951050,477.540039 
	C1208.929321,485.325500 1208.886719,492.647552 1208.385498,499.980042 
	C1194.619507,499.992828 1181.312134,499.995178 1168.002197,499.529175 
	C1167.997925,491.077393 1167.910522,483.092621 1168.040161,475.111359 
	C1168.086792,472.237427 1167.360229,470.938782 1164.162109,470.945953 
	C1126.407593,471.030853 1088.652588,471.029602 1050.898071,470.946655 
	C1047.768799,470.939789 1046.903442,472.101105 1046.952393,475.047882 
	C1047.090454,483.361542 1046.997192,491.679108 1046.526855,499.996735 
	C1032.006714,500.008209 1017.955017,500.018066 1003.861206,499.560089 
	C1003.607910,493.623352 1003.447815,488.151825 1003.168274,482.686401 
	C1002.967651,478.763580 1004.048279,473.187592 1001.943848,471.362335 
	C999.462341,469.210083 994.162354,470.307434 990.083008,469.527496 
	C990.056702,462.908905 990.093750,456.757690 989.994568,450.608673 
	C989.760376,436.091766 977.921692,424.461273 963.412048,424.422302 
	C948.874878,424.383270 937.104309,435.911499 936.849426,450.541290 
	C936.736511,457.022522 936.812500,463.507019 936.358521,469.984009 
	C934.925598,469.999207 933.936890,470.034821 932.948059,470.039307 
	C924.207031,470.078949 924.209595,470.077332 924.205078,478.897858 
	C924.201477,485.951294 924.190491,493.004730 923.703003,500.040649 
	C849.940369,500.015839 776.657532,500.052734 703.375122,499.895782 
	C698.789490,499.885956 697.904785,501.356354 697.918640,505.590240 
	C698.060852,549.059753 698.002441,592.529968 698.000000,636.000000 
M1095.287842,294.013367 
	C1108.613525,307.957123 1124.938599,314.428497 1144.135498,312.900482 
	C1160.777588,311.575806 1174.562134,304.345398 1186.072876,291.227478 
	C1188.638428,291.227478 1191.203857,291.227478 1193.839478,291.227478 
	C1194.411255,285.829102 1190.288574,288.426361 1189.020752,286.644348 
	C1195.737915,276.630188 1199.347656,265.671295 1199.233032,253.005188 
	C1178.393311,253.005188 1157.695312,253.005188 1136.063843,252.915741 
	C1116.478027,252.915741 1096.892090,252.915741 1077.314453,252.915741 
	C1077.314453,271.907501 1077.314453,290.256989 1077.314453,309.257599 
	C1083.459106,303.712402 1089.104736,298.617523 1095.287842,294.013367 
M1055.502930,403.999451 
	C1059.529053,407.160400 1063.555176,410.321320 1068.344971,414.081757 
	C1068.716553,411.583740 1068.978760,410.639282 1068.979736,409.694550 
	C1069.002686,385.368805 1068.943481,361.042786 1069.055298,336.717499 
	C1069.072998,332.853394 1067.390381,331.939209 1063.900757,331.946930 
	C1029.078491,332.023956 994.255615,332.046478 959.433533,331.923584 
	C955.304260,331.909027 953.896362,333.237579 953.936890,337.393951 
	C954.108765,355.053467 953.993835,372.715637 954.017761,390.376801 
	C954.026917,397.145325 954.945618,397.998169 961.906250,397.998871 
	C988.564636,398.001587 1015.224731,398.155884 1041.880127,397.872589 
	C1047.419067,397.813721 1051.517700,399.524628 1055.502930,403.999451 
M1168.000000,443.501740 
	C1167.999146,439.339539 1167.859375,435.171173 1168.044067,431.017242 
	C1168.177734,428.014771 1167.145630,426.943787 1164.058838,426.950378 
	C1126.432617,427.030792 1088.806152,427.036926 1051.180054,426.942200 
	C1047.860718,426.933838 1046.897095,428.059723 1046.941406,431.273834 
	C1047.095093,442.426422 1047.095825,453.583740 1046.940918,464.736328 
	C1046.896118,467.959473 1047.877930,469.068970 1051.187744,469.060699 
	C1088.813843,468.966675 1126.440308,468.972351 1164.066528,469.053131 
	C1167.162842,469.059784 1168.117554,467.967438 1168.047974,464.978180 
	C1167.889282,458.155853 1167.999146,451.327301 1168.000000,443.501740 
z"/>
<path fill="#EFF0F2" opacity="1.000000" stroke="none" 
	d="
M698.468628,636.000000 
	C698.002441,592.529968 698.060852,549.059753 697.918640,505.590240 
	C697.904785,501.356354 698.789490,499.885956 703.375122,499.895782 
	C776.657532,500.052734 849.940369,500.015839 923.713379,500.502991 
	C924.205017,508.312012 924.178894,515.641418 924.219604,522.970337 
	C924.239380,526.525269 925.226379,529.023987 929.634155,529.002258 
	C952.620544,528.888672 975.607971,528.899536 998.594666,528.961182 
	C1002.469666,528.971558 1003.957336,527.281128 1003.906677,523.512573 
	C1003.801636,515.685791 1003.892822,507.856293 1003.903320,500.027893 
	C1017.955017,500.018066 1032.006714,500.008209 1046.528809,500.462677 
	C1046.999390,502.589600 1046.999634,504.252228 1047.000122,505.914825 
	C1047.001831,512.996704 1047.001831,512.999390 1053.846558,512.999573 
	C1087.597412,513.000549 1121.348145,513.000000 1155.098999,513.000000 
	C1167.984741,513.000000 1167.984741,513.000000 1168.004883,499.997559 
	C1181.312134,499.995178 1194.619507,499.992828 1208.438721,500.448212 
	C1209.052002,506.334198 1209.153198,511.762390 1209.192871,517.585266 
	C1209.298096,525.194031 1211.936890,527.844971 1219.154297,527.856689 
	C1236.932861,527.885437 1254.711304,527.884705 1272.489868,527.856323 
	C1279.652832,527.844849 1282.475342,525.056824 1282.611572,517.945007 
	C1282.725830,511.971130 1282.776611,505.996002 1282.855469,500.021454 
	C1317.527100,500.008972 1352.198853,499.996490 1387.392700,500.437195 
	C1387.987305,504.970245 1388.059692,509.050079 1387.783325,513.316589 
	C1382.952515,513.545410 1378.428711,513.219299 1373.998779,513.721741 
	C1368.282104,514.370117 1365.532104,521.028931 1369.479370,524.838928 
	C1371.254272,526.552185 1374.492310,527.441589 1377.091919,527.496216 
	C1393.904419,527.849976 1410.724243,527.859009 1427.541382,528.002197 
	C1450.184937,528.194946 1472.828125,528.444946 1495.471924,528.582947 
	C1500.996460,528.616638 1503.957275,526.081238 1504.066040,521.703064 
	C1504.181152,517.069275 1501.169312,514.538452 1495.377319,514.387878 
	C1491.884277,514.297058 1488.391846,514.190247 1484.890137,513.620361 
	C1484.913208,508.767212 1484.945190,504.384369 1485.447266,500.001160 
	C1601.468384,500.000549 1717.019531,499.999329 1832.570679,500.006927 
	C1834.899780,500.007080 1837.229004,500.110291 1839.549072,500.580078 
	C1839.292480,517.060791 1848.169922,527.274231 1864.065430,528.296692 
	C1872.324951,528.827942 1880.668213,528.439880 1888.954834,528.058044 
	C1898.132812,527.635132 1904.730225,522.634399 1908.229736,514.459106 
	C1910.121704,510.039185 1910.190918,504.838898 1911.082275,499.990662 
	C1914.087036,499.993866 1917.091797,499.997070 1920.548340,500.000153 
	C1921.000000,545.318726 1921.000000,590.637512 1921.000000,636.000000 
	C1513.645752,636.000000 1106.291504,636.000000 698.468628,636.000000 
z"/>
<path fill="#E8F0FE" opacity="1.000000" stroke="none" 
	d="
M1839.558105,500.165436 
	C1837.229004,500.110291 1834.899780,500.007080 1832.570679,500.006927 
	C1717.019531,499.999329 1601.468384,500.000549 1485.411255,499.533417 
	C1484.897339,489.243500 1484.912720,479.420929 1484.873413,469.598541 
	C1484.844971,462.459106 1482.364136,459.957794 1475.388184,459.925964 
	C1457.247192,459.843170 1439.106323,459.766418 1420.965332,459.687256 
	C1420.978394,405.436951 1420.991455,351.186584 1421.448608,296.467224 
	C1422.883789,295.999176 1423.874878,296.004333 1424.866089,296.000549 
	C1431.853394,295.973785 1436.950439,292.522797 1439.365723,286.185577 
	C1441.579468,280.377106 1440.010010,272.626923 1434.506348,269.402039 
	C1430.663818,267.150543 1425.553711,267.062500 1421.009766,266.008087 
	C1421.015381,257.304413 1421.021118,248.600769 1421.506226,239.440659 
	C1577.643555,238.979080 1733.301514,238.973938 1888.959473,238.968796 
	C1888.969238,303.027649 1888.979004,367.086487 1888.529785,431.621887 
	C1876.608765,431.039398 1865.219727,430.987305 1853.940308,433.879303 
	C1849.591064,434.994415 1847.624634,437.631317 1847.096680,441.904785 
	C1844.899536,459.686432 1842.614624,477.457184 1840.276611,495.582733 
	C1839.980103,497.344177 1839.769043,498.754791 1839.558105,500.165436 
M1728.469360,315.807861 
	C1721.424316,318.234283 1714.379272,320.660706 1706.347046,323.039368 
	C1699.911987,323.026215 1693.474243,323.114716 1687.042847,322.953857 
	C1684.147217,322.881439 1682.929565,323.706848 1682.902710,326.837250 
	C1682.874512,330.106445 1683.994873,331.216736 1687.212280,331.064850 
	C1690.658691,330.902069 1694.127197,331.207855 1697.207153,331.886292 
	C1694.659546,335.347321 1692.111938,338.808350 1688.546753,342.108704 
	C1671.259399,342.072479 1653.972046,342.057953 1636.684937,341.977478 
	C1633.984497,341.964905 1631.918701,341.924377 1631.876465,345.744720 
	C1631.834473,349.526978 1633.477661,350.075348 1636.675171,350.053345 
	C1653.131592,349.940094 1669.589233,349.997101 1686.032715,350.780884 
	C1685.289673,354.195801 1684.546631,357.610718 1682.892822,361.009705 
	C1676.396606,361.007599 1669.897461,361.116821 1663.405273,360.955658 
	C1660.239014,360.877106 1659.986572,362.590668 1659.958008,365.047882 
	C1659.928223,367.611816 1660.433960,369.128906 1663.502930,369.043671 
	C1670.160889,368.858734 1676.825928,368.933655 1683.765259,369.643250 
	C1685.297974,390.042236 1695.290771,405.042786 1713.736206,413.494354 
	C1732.116943,421.916290 1750.041626,419.383026 1767.215942,407.683533 
	C1779.672729,420.294037 1792.053467,432.827545 1804.852783,445.784882 
	C1807.547241,442.499420 1810.023926,439.479462 1812.693604,436.224243 
	C1810.845947,434.202515 1809.325317,432.466095 1807.728394,430.803131 
	C1798.264771,420.948456 1788.853271,411.042023 1779.257080,401.318024 
	C1776.986694,399.017395 1776.722900,397.390778 1778.502563,394.562592 
	C1785.926514,382.764008 1788.454590,369.800476 1785.278076,356.247375 
	C1779.768188,332.739441 1764.328369,319.610535 1741.248779,314.761414 
	C1742.760986,314.253937 1744.273193,313.746460 1745.679565,313.274506 
	C1746.419312,305.170990 1746.279297,305.007172 1738.736572,305.005585 
	C1726.427124,305.002991 1714.117798,305.004913 1701.808350,305.004913 
	C1680.516479,305.004944 1659.223511,305.108246 1637.933472,304.913757 
	C1633.905273,304.876953 1632.883789,306.144531 1632.873657,310.011139 
	C1632.862915,314.115509 1635.063721,314.030853 1637.953491,314.026245 
	C1666.398193,313.980713 1694.842896,313.969238 1723.287231,314.063171 
	C1725.250977,314.069641 1727.211426,314.996277 1728.469360,315.807861 
M1462.487793,427.992554 
	C1465.652100,425.290802 1468.986938,422.761139 1471.934570,419.840820 
	C1475.115723,416.689331 1478.632080,415.725006 1483.101562,415.760864 
	C1508.903564,415.968018 1534.708130,415.864716 1560.511841,415.859924 
	C1567.057129,415.858704 1567.065796,415.847565 1567.067261,409.131165 
	C1567.071777,388.987640 1566.945312,368.842834 1567.161255,348.701599 
	C1567.211304,344.043152 1566.031006,342.237640 1561.060791,342.263855 
	C1527.433716,342.441345 1493.805054,342.410461 1460.177490,342.289337 
	C1455.951416,342.274109 1454.254150,343.474182 1454.280273,347.953735 
	C1454.435425,374.588898 1454.342163,401.225433 1454.391968,427.861420 
	C1454.395020,429.497772 1454.906982,431.133179 1455.346313,433.744537 
	C1458.142334,431.509552 1460.048706,429.985687 1462.487793,427.992554 
M1614.606567,287.993958 
	C1612.526733,287.993958 1610.446899,287.993958 1608.430420,287.993958 
	C1608.430420,291.117798 1608.430420,293.343658 1608.430420,296.000000 
	C1610.664185,296.000000 1612.467651,296.000000 1614.271240,296.000000 
	C1636.910522,296.000000 1659.549805,296.000092 1682.189087,295.999969 
	C1693.342285,295.999908 1704.497803,295.866974 1715.647095,296.074585 
	C1719.301758,296.142609 1720.092041,294.732483 1720.083374,291.405670 
	C1720.072510,287.265747 1717.352661,288.006683 1714.963135,288.005493 
	C1681.836548,287.988800 1648.709961,287.994019 1614.606567,287.993958 
M1669.499512,407.000000 
	C1673.824219,407.000000 1678.149170,407.015991 1682.473755,406.994171 
	C1685.206787,406.980377 1688.106567,407.806000 1688.131226,403.088440 
	C1688.154907,398.547791 1685.536621,398.984497 1682.650146,398.987152 
	C1661.192627,399.006775 1639.735107,398.995575 1618.277588,398.999023 
	C1611.349854,399.000122 1611.043701,399.418671 1612.875244,407.000000 
	C1631.323608,407.000000 1649.911621,407.000000 1669.499512,407.000000 
z"/>
<path fill="#D2E3FC" opacity="1.000000" stroke="none" 
	d="
M1888.970825,238.503418 
	C1733.301514,238.973938 1577.643555,238.979080 1421.523926,238.969482 
	C1421.050537,232.793457 1421.113647,226.630646 1420.990845,220.471542 
	C1420.939331,217.891037 1421.908081,216.767578 1424.493774,216.979080 
	C1425.651489,217.073761 1426.823853,216.990219 1427.989502,216.990219 
	C1579.362305,216.989975 1730.735107,216.989899 1882.107910,216.990402 
	C1888.988403,216.990433 1888.989746,216.993103 1888.989746,224.049927 
	C1888.989624,228.712631 1888.984863,233.375351 1888.970825,238.503418 
M1427.990723,227.506836 
	C1427.697021,231.501190 1430.348267,234.079987 1433.489990,233.536041 
	C1435.875610,233.122971 1439.033813,229.946152 1439.424072,227.596558 
	C1439.718262,225.824265 1436.527588,222.255997 1434.256958,221.567017 
	C1431.032837,220.588715 1428.300781,222.776474 1427.990723,227.506836 
z"/>
<path fill="#E8F0FE" opacity="1.000000" stroke="none" 
	d="
M1055.248047,403.745789 
	C1051.517700,399.524628 1047.419067,397.813721 1041.880127,397.872589 
	C1015.224731,398.155884 988.564636,398.001587 961.906250,397.998871 
	C954.945618,397.998169 954.026917,397.145325 954.017761,390.376801 
	C953.993835,372.715637 954.108765,355.053467 953.936890,337.393951 
	C953.896362,333.237579 955.304260,331.909027 959.433533,331.923584 
	C994.255615,332.046478 1029.078491,332.023956 1063.900757,331.946930 
	C1067.390381,331.939209 1069.072998,332.853394 1069.055298,336.717499 
	C1068.943481,361.042786 1069.002686,385.368805 1068.979736,409.694550 
	C1068.978760,410.639282 1068.716553,411.583740 1068.344971,414.081757 
	C1063.555176,410.321320 1059.529053,407.160400 1055.248047,403.745789 
M1027.056274,376.004578 
	C1010.099365,376.003937 993.141357,375.916840 976.187439,376.141876 
	C974.565491,376.163422 972.969299,378.131256 971.361145,379.195557 
	C972.935059,380.126984 974.499939,381.849945 976.084351,381.868164 
	C993.039001,382.063232 1009.997131,382.038055 1026.952759,381.890625 
	C1028.257324,381.879272 1029.549927,380.485138 1030.848022,379.733704 
	C1029.880981,378.497559 1028.913818,377.261444 1027.056274,376.004578 
M1025.500000,362.000000 
	C1016.518127,362.000580 1007.532837,361.877441 998.557739,362.124573 
	C997.077515,362.165375 995.641907,363.828949 994.185669,364.742554 
	C995.638245,365.496490 997.084961,366.893005 998.544250,366.906189 
	C1015.508606,367.059631 1032.475586,367.071716 1049.439331,366.885590 
	C1050.906616,366.869476 1052.355469,365.178375 1053.812866,364.265259 
	C1052.359863,363.510742 1050.924316,362.146515 1049.450806,362.104065 
	C1041.805908,361.883636 1034.151245,362.000580 1025.500000,362.000000 
M1015.495850,353.002441 
	C1019.328064,353.002045 1023.171082,353.165375 1026.986572,352.912445 
	C1028.320435,352.824005 1029.586426,351.710419 1030.883423,351.065002 
	C1029.504272,350.044403 1028.135742,348.152802 1026.744385,348.135803 
	C1009.918518,347.930573 993.088257,347.915771 976.262939,348.138489 
	C974.628052,348.160126 973.018555,350.094452 971.397278,351.140961 
	C972.934631,351.761292 974.466125,352.902435 976.010254,352.919861 
	C988.838074,353.064789 1001.668274,353.002258 1015.495850,353.002441 
M1037.374390,376.458984 
	C1035.336914,378.665314 1035.278076,381.185913 1038.331421,381.702606 
	C1042.363892,382.384949 1046.621216,382.127258 1050.728638,381.727386 
	C1051.870361,381.616241 1052.823975,379.572449 1053.863892,378.415314 
	C1052.616577,377.612183 1051.409912,376.205963 1050.114258,376.118469 
	C1046.152710,375.850891 1042.156982,376.090332 1037.374390,376.458984 
M1036.141846,350.496765 
	C1036.422974,351.075226 1036.678833,352.143127 1036.989014,352.159149 
	C1042.066162,352.421722 1047.150513,352.621185 1052.232666,352.608673 
	C1052.771118,352.607330 1053.604980,351.236206 1053.741333,350.408295 
	C1053.837036,349.826447 1052.949219,348.488953 1052.554688,348.509735 
	C1047.127930,348.795776 1041.710571,349.259308 1036.141846,350.496765 
M975.035706,367.003967 
	C978.667480,367.002258 982.307068,367.131042 985.926025,366.915009 
	C986.942444,366.854340 987.898315,365.779968 988.881897,365.170593 
	C988.051453,364.142090 987.289429,362.302307 986.378723,362.225525 
	C982.446838,361.893951 978.454712,361.877899 974.522278,362.203064 
	C973.403564,362.295563 972.412048,363.927002 971.362244,364.852692 
	C972.299683,365.565735 973.237061,366.278778 975.035706,367.003967 
z"/>
<path fill="#92DDA6" opacity="1.000000" stroke="none" 
	d="
M1420.504639,459.766907 
	C1439.106323,459.766418 1457.247192,459.843170 1475.388184,459.925964 
	C1482.364136,459.957794 1484.844971,462.459106 1484.873413,469.598541 
	C1484.912720,479.420929 1484.897339,489.243500 1484.941162,499.533752 
	C1484.945190,504.384369 1484.913208,508.767212 1484.430176,513.653564 
	C1452.030151,513.814636 1420.081177,513.472290 1388.132080,513.129944 
	C1388.059692,509.050079 1387.987305,504.970245 1387.847412,500.426331 
	C1387.838379,489.503296 1387.882080,479.044189 1387.960815,468.585327 
	C1388.009399,462.137451 1390.170776,459.963287 1396.629761,459.915100 
	C1404.434204,459.856873 1412.239258,459.866364 1420.504639,459.766907 
M1467.450928,486.989441 
	C1457.406128,486.989441 1447.361206,486.989441 1437.434937,486.989441 
	C1436.018555,499.243622 1446.508667,503.219147 1460.652710,500.161957 
	C1460.821045,497.298645 1460.992676,494.378448 1461.199097,490.867554 
	C1465.781372,490.867554 1470.057983,490.988861 1474.317139,490.769318 
	C1475.213013,490.723175 1476.044189,489.425110 1476.905273,488.703857 
	C1476.073486,488.137115 1475.289795,487.194763 1474.399902,487.080383 
	C1472.439453,486.828369 1470.425171,486.994141 1467.450928,486.989441 
M1453.380615,480.079071 
	C1454.970093,482.383728 1456.900269,482.685760 1458.385498,480.282227 
	C1458.862793,479.510071 1458.205566,477.074707 1457.407959,476.655975 
	C1454.939209,475.359833 1453.374146,476.518463 1453.380615,480.079071 
M1470.634277,477.888733 
	C1469.059326,475.586426 1467.128906,475.266876 1465.625122,477.647766 
	C1465.141479,478.413391 1465.781006,480.854248 1466.577515,481.283173 
	C1469.044556,482.611877 1470.597290,481.435516 1470.634277,477.888733 
z"/>
<path fill="#91DCA5" opacity="1.000000" stroke="none" 
	d="
M1209.254517,517.190613 
	C1209.153198,511.762390 1209.052002,506.334198 1208.897461,500.437805 
	C1208.886719,492.647552 1208.929321,485.325500 1209.370117,477.524475 
	C1213.123413,476.134521 1216.478516,475.223480 1220.443481,474.146790 
	C1225.123169,478.241364 1229.114136,479.207031 1233.333496,476.744476 
	C1237.686157,474.204163 1239.312256,469.999359 1237.933472,463.867004 
	C1228.349854,463.867004 1218.619751,463.867004 1208.889526,463.867004 
	C1208.966309,450.802216 1209.043213,437.737396 1209.709961,424.222778 
	C1226.269043,423.794525 1242.238525,423.796112 1258.207764,423.847504 
	C1264.639893,423.868195 1266.869141,426.047913 1266.882080,432.597168 
	C1266.932007,457.882690 1266.933594,483.168396 1266.880615,508.453918 
	C1266.867065,514.977600 1264.619751,517.140991 1258.161987,517.155151 
	C1241.859497,517.190796 1225.557007,517.181763 1209.254517,517.190613 
M1241.069580,483.472534 
	C1240.484375,482.632660 1239.917969,481.078369 1239.311279,481.062592 
	C1232.620972,480.888214 1225.924316,480.952972 1219.469116,480.952972 
	C1217.231689,489.881775 1223.293457,495.511200 1229.223633,495.988312 
	C1235.779785,496.515808 1240.552979,491.859650 1241.069580,483.472534 
z"/>
<path fill="#E6EFFE" opacity="1.000000" stroke="none" 
	d="
M1168.002197,499.529175 
	C1167.984741,513.000000 1167.984741,513.000000 1155.098999,513.000000 
	C1121.348145,513.000000 1087.597412,513.000549 1053.846558,512.999573 
	C1047.001831,512.999390 1047.001831,512.996704 1047.000122,505.914825 
	C1046.999634,504.252228 1046.999390,502.589600 1046.997070,500.461060 
	C1046.997192,491.679108 1047.090454,483.361542 1046.952393,475.047882 
	C1046.903442,472.101105 1047.768799,470.939789 1050.898071,470.946655 
	C1088.652588,471.029602 1126.407593,471.030853 1164.162109,470.945953 
	C1167.360229,470.938782 1168.086792,472.237427 1168.040161,475.111359 
	C1167.910522,483.092621 1167.997925,491.077393 1168.002197,499.529175 
M1140.496826,492.142487 
	C1145.573364,492.142487 1150.649902,492.142487 1155.650146,492.142487 
	C1155.650146,488.987396 1155.650146,486.587555 1155.650146,484.153137 
	C1136.932251,484.153137 1118.564087,484.153137 1099.951172,484.153137 
	C1099.951172,486.832672 1099.951172,489.215546 1099.951172,492.142609 
	C1113.332764,492.142609 1126.415527,492.142609 1140.496826,492.142487 
M1082.259155,484.755554 
	C1082.426392,487.293335 1081.812866,490.354431 1083.038452,492.182861 
	C1083.840698,493.379822 1087.762085,493.643890 1089.439575,492.745087 
	C1090.890137,491.967926 1091.945801,488.886444 1091.763550,486.957092 
	C1091.390259,483.006866 1087.630249,482.022247 1082.259155,484.755554 
M1068.373047,493.010925 
	C1072.097168,488.773193 1071.407349,483.850708 1066.772217,483.164185 
	C1064.974854,482.898010 1062.095459,483.708649 1061.226318,485.028168 
	C1060.206543,486.576599 1059.932861,490.075623 1060.973755,491.168304 
	C1062.409424,492.675507 1065.377930,492.722748 1068.373047,493.010925 
z"/>
<path fill="#E8F0FE" opacity="1.000000" stroke="none" 
	d="
M1168.000000,444.001526 
	C1167.999146,451.327301 1167.889282,458.155853 1168.047974,464.978180 
	C1168.117554,467.967438 1167.162842,469.059784 1164.066528,469.053131 
	C1126.440308,468.972351 1088.813843,468.966675 1051.187744,469.060699 
	C1047.877930,469.068970 1046.896118,467.959473 1046.940918,464.736328 
	C1047.095825,453.583740 1047.095093,442.426422 1046.941406,431.273834 
	C1046.897095,428.059723 1047.860718,426.933838 1051.180054,426.942200 
	C1088.806152,427.036926 1126.432617,427.030792 1164.058838,426.950378 
	C1167.145630,426.943787 1168.177734,428.014771 1168.044067,431.017242 
	C1167.859375,435.171173 1167.999146,439.339539 1168.000000,444.001526 
M1107.583008,448.806335 
	C1123.640381,448.806335 1139.697754,448.806335 1155.631836,448.806335 
	C1155.631836,445.418793 1155.631836,442.859924 1155.631836,440.032104 
	C1145.939087,440.032104 1136.638428,440.032104 1127.337891,440.032104 
	C1118.105713,440.032104 1108.873535,440.032104 1099.739014,440.032104 
	C1099.739014,443.409882 1099.739014,445.964142 1099.739014,448.806122 
	C1102.315430,448.806122 1104.466187,448.806122 1107.583008,448.806335 
M1091.135864,441.596680 
	C1086.841797,437.973633 1081.932983,438.747437 1081.276978,443.388031 
	C1081.024780,445.172791 1081.929443,448.046051 1083.271851,448.891602 
	C1084.865845,449.895782 1088.405884,450.157104 1089.464844,449.099915 
	C1090.953125,447.614136 1090.933716,444.618164 1091.135864,441.596680 
M1065.478271,450.131348 
	C1069.383179,449.897614 1071.573730,447.466278 1070.690186,443.987671 
	C1070.194214,442.034851 1067.417236,439.662415 1065.420166,439.405579 
	C1063.820068,439.199738 1060.895142,441.558289 1060.244141,443.380981 
	C1059.028931,446.782654 1060.765747,449.446228 1065.478271,450.131348 
z"/>
<path fill="#92DDA6" opacity="1.000000" stroke="none" 
	d="
M1003.861206,499.560120 
	C1003.892822,507.856293 1003.801636,515.685791 1003.906677,523.512573 
	C1003.957336,527.281128 1002.469666,528.971558 998.594666,528.961182 
	C975.607971,528.899536 952.620544,528.888672 929.634155,529.002258 
	C925.226379,529.023987 924.239380,526.525269 924.219604,522.970337 
	C924.178894,515.641418 924.205017,508.312012 924.193237,500.520508 
	C924.190491,493.004730 924.201477,485.951294 924.205078,478.897858 
	C924.209595,470.077332 924.207031,470.078949 932.948059,470.039307 
	C933.936890,470.034821 934.925598,469.999207 936.832581,470.007416 
	C941.494019,470.023895 945.237305,470.010956 949.450562,470.000122 
	C959.263794,470.000366 968.606995,469.998535 978.414673,470.017731 
	C982.614197,470.024475 986.349304,470.010193 990.084412,469.995850 
	C994.162354,470.307434 999.462341,469.210083 1001.943848,471.362335 
	C1004.048279,473.187592 1002.967651,478.763580 1003.168274,482.686401 
	C1003.447815,488.151825 1003.607910,493.623352 1003.861206,499.560120 
M967.917114,511.920593 
	C968.620911,516.251038 971.274597,518.301331 975.537964,517.969727 
	C979.457947,517.664917 981.529907,514.878235 981.770203,511.359741 
	C982.149414,505.807922 981.871155,500.211151 981.871155,494.383728 
	C977.038757,494.383728 972.695435,494.383728 968.475952,494.383728 
	C968.234985,495.034180 968.029175,495.334869 968.025330,495.638153 
	C967.960083,500.766144 967.920044,505.894440 967.917114,511.920593 
M983.028381,489.556152 
	C985.260254,486.586517 982.648193,485.681183 980.778442,485.170380 
	C978.056213,484.426697 976.174744,485.615753 975.702209,488.677765 
	C978.166748,489.042847 980.227417,489.348114 983.028381,489.556152 
M971.182129,485.047089 
	C968.642639,484.868591 966.206177,484.839203 966.099182,488.702698 
	C968.743164,488.702698 971.201233,488.702698 974.772583,488.702698 
	C973.432190,487.058502 972.698853,486.158905 971.182129,485.047089 
z"/>
<path fill="#92DDA6" opacity="1.000000" stroke="none" 
	d="
M1840.361938,495.231934 
	C1842.614624,477.457184 1844.899536,459.686432 1847.096680,441.904785 
	C1847.624634,437.631317 1849.591064,434.994415 1853.940308,433.879303 
	C1865.219727,430.987305 1876.608765,431.039398 1888.521973,432.096375 
	C1900.680054,432.663910 1903.704468,439.563416 1904.352173,450.342194 
	C1905.233643,465.013824 1908.019287,479.571045 1909.497681,494.594727 
	C1886.125244,495.085419 1863.243530,495.158691 1840.361938,495.231934 
M1863.562744,472.045868 
	C1867.154419,472.045868 1870.746094,472.045868 1874.280396,472.045868 
	C1874.751709,465.971649 1873.915161,464.981567 1868.724121,464.913849 
	C1866.410522,464.883636 1864.095947,464.893494 1861.781982,464.911041 
	C1856.133423,464.953857 1855.542969,465.612854 1855.800659,472.046295 
	C1858.051880,472.046295 1860.329834,472.046295 1863.562744,472.045868 
z"/>
<path fill="#91DCA5" opacity="1.000000" stroke="none" 
	d="
M1185.203613,291.353607 
	C1174.562134,304.345398 1160.777588,311.575806 1144.135498,312.900482 
	C1124.938599,314.428497 1108.613525,307.957123 1095.148804,293.478210 
	C1101.196899,287.218597 1107.453735,281.567261 1113.553589,275.751343 
	C1121.433716,268.238068 1129.188477,260.593323 1136.997192,253.005188 
	C1157.695312,253.005188 1178.393311,253.005188 1199.233032,253.005188 
	C1199.347656,265.671295 1195.737915,276.630188 1188.387451,286.960815 
	C1176.299683,287.500336 1164.846069,287.830872 1153.390625,287.913422 
	C1143.638306,287.983673 1138.784912,284.121460 1136.033081,274.858398 
	C1135.715210,273.788147 1134.409546,273.011353 1133.561768,272.098511 
	C1133.197510,273.330963 1132.350708,274.645599 1132.544434,275.782959 
	C1134.245117,285.767181 1141.729858,291.754425 1152.852661,291.792419 
	C1163.635742,291.829224 1174.419922,291.514130 1185.203613,291.353607 
M1179.481934,271.855438 
	C1168.187378,271.855591 1156.891846,271.790649 1145.599121,271.935669 
	C1144.133667,271.954468 1142.682129,273.056610 1141.224121,273.656952 
	C1142.634033,274.136932 1144.031250,274.980560 1145.456177,275.030121 
	C1150.113037,275.192108 1154.848999,273.987213 1156.788574,280.716583 
	C1157.378174,282.761780 1162.053955,284.492310 1164.993286,284.735870 
	C1167.545166,284.947357 1170.287964,282.854156 1173.091309,281.720917 
	C1178.237793,286.301514 1182.202026,287.162506 1186.651001,284.502869 
	C1190.532837,282.182343 1191.775024,278.079071 1190.206665,271.855133 
	C1187.055054,271.855133 1183.764893,271.855133 1179.481934,271.855438 
z"/>
<path fill="#39AA57" opacity="1.000000" stroke="none" 
	d="
M1209.192871,517.585266 
	C1225.557007,517.181763 1241.859497,517.190796 1258.161987,517.155151 
	C1264.619751,517.140991 1266.867065,514.977600 1266.880615,508.453918 
	C1266.933594,483.168396 1266.932007,457.882690 1266.882080,432.597168 
	C1266.869141,426.047913 1264.639893,423.868195 1258.207764,423.847504 
	C1242.238525,423.796112 1226.269043,423.794525 1209.862305,423.760193 
	C1210.369141,418.992889 1213.664062,417.183319 1218.093262,417.169250 
	C1236.568604,417.110565 1255.044922,417.067413 1273.519775,417.186890 
	C1279.847412,417.227814 1282.563599,420.534882 1282.578491,427.695679 
	C1282.628174,451.497284 1282.624634,475.298950 1282.748413,499.561035 
	C1282.776611,505.996002 1282.725830,511.971130 1282.611572,517.945007 
	C1282.475342,525.056824 1279.652832,527.844849 1272.489868,527.856323 
	C1254.711304,527.884705 1236.932861,527.885437 1219.154297,527.856689 
	C1211.936890,527.844971 1209.298096,525.194031 1209.192871,517.585266 
z"/>
<path fill="#36A954" opacity="1.000000" stroke="none" 
	d="
M1840.276611,495.582764 
	C1863.243530,495.158691 1886.125244,495.085419 1909.470459,495.033203 
	C1910.237793,496.470062 1910.541382,497.885895 1910.963623,499.646179 
	C1910.190918,504.838898 1910.121704,510.039185 1908.229736,514.459106 
	C1904.730225,522.634399 1898.132812,527.635132 1888.954834,528.058044 
	C1880.668213,528.439880 1872.324951,528.827942 1864.065430,528.296692 
	C1848.169922,527.274231 1839.292480,517.060791 1839.549072,500.580078 
	C1839.769043,498.754791 1839.980103,497.344177 1840.276611,495.582764 
z"/>
<path fill="#36A954" opacity="1.000000" stroke="none" 
	d="
M1136.530518,252.960464 
	C1129.188477,260.593323 1121.433716,268.238068 1113.553589,275.751343 
	C1107.453735,281.567261 1101.196899,287.218597 1094.880127,293.232849 
	C1089.104736,298.617523 1083.459106,303.712402 1077.314453,309.257599 
	C1077.314453,290.256989 1077.314453,271.907501 1077.314453,252.915741 
	C1096.892090,252.915741 1116.478027,252.915741 1136.530518,252.960464 
z"/>
<path fill="#37A956" opacity="1.000000" stroke="none" 
	d="
M948.980530,469.998016 
	C945.237305,470.010956 941.494019,470.023895 937.276733,470.013428 
	C936.812500,463.507019 936.736511,457.022522 936.849426,450.541290 
	C937.104309,435.911499 948.874878,424.383270 963.412048,424.422302 
	C977.921692,424.461273 989.760376,436.091766 989.994568,450.608673 
	C990.093750,456.757690 990.056702,462.908905 990.083008,469.527527 
	C986.349304,470.010193 982.614197,470.024475 978.433533,469.549805 
	C977.962585,462.904938 978.116089,456.741821 977.867432,450.595001 
	C977.541260,442.532806 971.135132,436.650024 963.163940,436.742493 
	C955.165405,436.835266 949.097351,442.857880 948.964233,451.031311 
	C948.861328,457.351776 948.967407,463.675659 948.980530,469.998016 
z"/>
<path fill="#D2E3FC" opacity="1.000000" stroke="none" 
	d="
M1284.000000,266.991089 
	C1278.265869,272.212921 1271.889526,273.451935 1264.250610,269.758057 
	C1262.484131,268.283112 1261.238403,267.141571 1259.992798,266.000000 
	C1255.190430,256.447754 1256.878296,248.350998 1264.271484,243.809540 
	C1270.474365,239.999191 1276.531860,240.439468 1281.876587,244.724548 
	C1286.990234,248.824417 1289.107056,254.517334 1286.863770,261.888489 
	C1285.811279,264.052582 1284.905640,265.521820 1284.000000,266.991089 
z"/>
<path fill="#D2E3FC" opacity="1.000000" stroke="none" 
	d="
M1226.946533,311.008667 
	C1227.431519,312.928711 1227.862305,314.864471 1228.411255,316.766052 
	C1230.568604,324.238464 1227.632202,331.425079 1220.914673,335.016937 
	C1213.984619,338.722504 1206.606445,336.724457 1201.207275,329.680206 
	C1197.545166,324.902252 1198.358643,315.750885 1202.893799,310.704498 
	C1207.216675,305.894409 1213.973145,304.864075 1221.804932,308.221527 
	C1223.899170,309.359741 1225.422852,310.184204 1226.946533,311.008667 
z"/>
<path fill="#D2E3FC" opacity="1.000000" stroke="none" 
	d="
M1352.061401,296.050781 
	C1351.663574,305.609894 1345.607056,311.224121 1335.933838,311.000610 
	C1327.813721,310.813019 1321.982544,304.296783 1321.990601,295.411194 
	C1321.991943,293.911835 1322.020508,292.412476 1322.333130,290.303711 
	C1323.433716,288.153564 1324.237549,286.612793 1325.041504,285.071991 
	C1328.178223,283.716827 1331.198975,281.754486 1334.474976,281.128601 
	C1342.092651,279.673309 1347.426880,283.527496 1351.672974,290.321228 
	C1352.008057,292.624542 1352.034668,294.337646 1352.061401,296.050781 
z"/>
<path fill="#D2E3FC" opacity="1.000000" stroke="none" 
	d="
M1420.786377,266.269653 
	C1425.553711,267.062500 1430.663818,267.150543 1434.506348,269.402039 
	C1440.010010,272.626923 1441.579468,280.377106 1439.365723,286.185577 
	C1436.950439,292.522797 1431.853394,295.973785 1424.866089,296.000549 
	C1423.874878,296.004333 1422.883789,295.999176 1421.446289,295.998474 
	C1417.545532,293.088135 1414.091064,290.177460 1410.328369,286.676910 
	C1409.994141,284.375153 1409.968018,282.663269 1409.941895,280.951416 
	C1409.943604,273.538361 1413.774414,268.945465 1420.786377,266.269653 
z"/>
<path fill="#39AA57" opacity="1.000000" stroke="none" 
	d="
M1208.452881,463.918274 
	C1218.619751,463.867004 1228.349854,463.867004 1237.933472,463.867004 
	C1239.312256,469.999359 1237.686157,474.204163 1233.333496,476.744476 
	C1229.114136,479.207031 1225.123169,478.241364 1220.443481,474.146790 
	C1216.478516,475.223480 1213.123413,476.134521 1209.349365,477.061127 
	C1203.220093,474.935608 1200.481323,470.953979 1201.381958,463.969574 
	C1203.533325,463.969574 1205.774658,463.969574 1208.452881,463.918274 
M1231.331543,467.940247 
	C1228.891602,469.118042 1226.451782,470.295807 1223.346436,471.794739 
	C1227.393066,474.525909 1230.324463,474.858948 1232.860596,471.979828 
	C1233.985718,470.702393 1235.331787,468.779388 1231.331543,467.940247 
z"/>
<path fill="#E8F0FE" opacity="1.000000" stroke="none" 
	d="
M1409.511963,280.966248 
	C1409.968018,282.663269 1409.994141,284.375153 1410.035034,286.509827 
	C1398.331055,288.802582 1386.612671,290.675873 1374.893066,292.541168 
	C1367.569336,293.706848 1360.243774,294.860474 1352.490234,296.035156 
	C1352.034668,294.337646 1352.008057,292.624542 1351.966553,290.488190 
	C1363.337524,288.197968 1374.718140,286.297363 1386.111206,284.475739 
	C1393.758911,283.252991 1401.424561,282.142059 1409.511963,280.966248 
z"/>
<path fill="#E8F0FE" opacity="1.000000" stroke="none" 
	d="
M1227.257324,310.867065 
	C1225.422852,310.184204 1223.899170,309.359741 1222.187744,308.266785 
	C1229.284424,299.881256 1236.570068,291.765411 1243.852661,283.646820 
	C1249.036133,277.868317 1254.215454,272.086090 1259.694702,266.152771 
	C1261.238403,267.141571 1262.484131,268.283112 1263.864868,269.714111 
	C1251.856079,283.577545 1239.712036,297.151520 1227.257324,310.867065 
z"/>
<path fill="#39AA57" opacity="1.000000" stroke="none" 
	d="
M1185.638184,291.290527 
	C1174.419922,291.514130 1163.635742,291.829224 1152.852661,291.792419 
	C1141.729858,291.754425 1134.245117,285.767181 1132.544434,275.782959 
	C1132.350708,274.645599 1133.197510,273.330963 1133.561768,272.098511 
	C1134.409546,273.011353 1135.715210,273.788147 1136.033081,274.858398 
	C1138.784912,284.121460 1143.638306,287.983673 1153.390625,287.913422 
	C1164.846069,287.830872 1176.299683,287.500336 1188.179932,287.267151 
	C1190.288574,288.426361 1194.411255,285.829102 1193.839478,291.227478 
	C1191.203857,291.227478 1188.638428,291.227478 1185.638184,291.290527 
z"/>
<path fill="#E8F0FE" opacity="1.000000" stroke="none" 
	d="
M1324.726318,284.916901 
	C1324.237549,286.612793 1323.433716,288.153564 1322.336548,289.846802 
	C1309.493896,282.513367 1296.944580,275.027466 1284.197632,267.266327 
	C1284.905640,265.521820 1285.811279,264.052582 1286.858398,262.291687 
	C1299.470337,269.587280 1311.940674,277.174530 1324.726318,284.916901 
z"/>
<path fill="#37A956" opacity="1.000000" stroke="none" 
	d="
M1387.783325,513.316589 
	C1420.081177,513.472290 1452.030151,513.814636 1484.439209,514.123779 
	C1488.391846,514.190247 1491.884277,514.297058 1495.377319,514.387878 
	C1501.169312,514.538452 1504.181152,517.069275 1504.066040,521.703064 
	C1503.957275,526.081238 1500.996460,528.616638 1495.471924,528.582947 
	C1472.828125,528.444946 1450.184937,528.194946 1427.541382,528.002197 
	C1410.724243,527.859009 1393.904419,527.849976 1377.091919,527.496216 
	C1374.492310,527.441589 1371.254272,526.552185 1369.479370,524.838928 
	C1365.532104,521.028931 1368.282104,514.370117 1373.998779,513.721741 
	C1378.428711,513.219299 1382.952515,513.545410 1387.783325,513.316589 
z"/>
<path fill="#2785FC" opacity="1.000000" stroke="none" 
	d="
M1462.221436,428.227173 
	C1460.048706,429.985687 1458.142334,431.509552 1455.346313,433.744537 
	C1454.906982,431.133179 1454.395020,429.497772 1454.391968,427.861420 
	C1454.342163,401.225433 1454.435425,374.588898 1454.280273,347.953735 
	C1454.254150,343.474182 1455.951416,342.274109 1460.177490,342.289337 
	C1493.805054,342.410461 1527.433716,342.441345 1561.060791,342.263855 
	C1566.031006,342.237640 1567.211304,344.043152 1567.161255,348.701599 
	C1566.945312,368.842834 1567.071777,388.987640 1567.067261,409.131165 
	C1567.065796,415.847565 1567.057129,415.858704 1560.511841,415.859924 
	C1534.708130,415.864716 1508.903564,415.968018 1483.101562,415.760864 
	C1478.632080,415.725006 1475.115723,416.689331 1471.934570,419.840820 
	C1468.986938,422.761139 1465.652100,425.290802 1462.221436,428.227173 
M1534.301880,370.214417 
	C1532.720093,369.009918 1531.061401,367.892853 1529.573975,366.581329 
	C1527.066040,364.369965 1525.565796,365.075714 1524.510864,368.302429 
	C1528.927612,371.808411 1533.380859,375.343353 1538.189819,379.160675 
	C1533.743164,382.615234 1529.886963,385.472382 1526.235596,388.570862 
	C1525.547119,389.155090 1525.364624,390.763733 1525.571045,391.772278 
	C1525.658569,392.199188 1527.752075,392.835480 1528.258667,392.461639 
	C1534.037231,388.197693 1539.685181,383.756866 1545.724854,379.087372 
	C1541.632812,375.921631 1538.240356,373.297150 1534.301880,370.214417 
M1494.636841,368.310028 
	C1493.963867,367.148499 1493.290894,365.986969 1492.447998,364.532013 
	C1485.915039,369.575073 1479.934448,374.191650 1473.523193,379.140717 
	C1480.041138,384.137604 1486.045044,388.740479 1492.275635,393.517059 
	C1493.303711,392.284149 1494.091309,391.339630 1495.106812,390.121887 
	C1490.398315,386.426147 1485.929565,382.918396 1481.053223,379.090820 
	C1485.901001,375.336151 1490.074463,372.103729 1494.636841,368.310028 
M1504.110229,391.656738 
	C1504.722046,392.753021 1505.333862,393.849274 1505.945557,394.945557 
	C1506.876221,394.057098 1508.345947,393.323212 1508.652100,392.255615 
	C1511.069092,383.830261 1513.375122,375.367523 1515.399048,366.841309 
	C1515.679810,365.658447 1514.229858,364.064728 1513.581177,362.661224 
	C1512.993530,362.844116 1512.406006,363.027008 1511.818481,363.209900 
	C1509.316040,372.426819 1506.813477,381.643707 1504.110229,391.656738 
z"/>
<path fill="#2A86FC" opacity="1.000000" stroke="none" 
	d="
M1689.564453,342.269409 
	C1692.111938,338.808350 1694.659546,335.347321 1697.664307,331.438446 
	C1701.192261,328.356079 1704.263184,325.721558 1707.334229,323.087097 
	C1714.379272,320.660706 1721.424316,318.234283 1729.267578,315.635986 
	C1733.653564,315.474579 1737.241455,315.485016 1740.829224,315.495483 
	C1764.328369,319.610535 1779.768188,332.739441 1785.278076,356.247375 
	C1788.454590,369.800476 1785.926514,382.764008 1778.502563,394.562592 
	C1776.722900,397.390778 1776.986694,399.017395 1779.257080,401.318024 
	C1788.853271,411.042023 1798.264771,420.948456 1807.728394,430.803131 
	C1809.325317,432.466095 1810.845947,434.202515 1812.693604,436.224243 
	C1810.023926,439.479462 1807.547241,442.499420 1804.852783,445.784882 
	C1792.053467,432.827545 1779.672729,420.294037 1767.215942,407.683533 
	C1750.041626,419.383026 1732.116943,421.916290 1713.736206,413.494354 
	C1695.290771,405.042786 1685.297974,390.042236 1683.660889,368.872681 
	C1683.638794,365.743286 1683.721069,363.384460 1683.803467,361.025635 
	C1684.546631,357.610718 1685.289673,354.195801 1686.261719,350.114746 
	C1687.515259,347.055573 1688.539795,344.662476 1689.564453,342.269409 
M1694.427368,361.658051 
	C1694.369263,364.094727 1694.311279,366.531372 1694.133789,369.765533 
	C1696.466187,396.689209 1722.383667,413.616333 1747.298584,405.880646 
	C1764.138550,400.652161 1775.861084,384.808380 1775.992188,367.288849 
	C1776.126709,349.313599 1764.765503,333.481201 1747.744141,327.923737 
	C1730.959473,322.443604 1712.852783,328.108551 1702.274170,342.303375 
	C1700.849487,344.868927 1699.424927,347.434479 1697.528687,350.566986 
	C1696.622192,354.030762 1695.715576,357.494537 1694.427368,361.658051 
z"/>
<path fill="#FDFEFF" opacity="1.000000" stroke="none" 
	d="
M1741.039062,315.128418 
	C1737.241455,315.485016 1733.653564,315.474579 1729.619629,315.479553 
	C1727.211426,314.996277 1725.250977,314.069641 1723.287231,314.063171 
	C1694.842896,313.969238 1666.398193,313.980713 1637.953491,314.026245 
	C1635.063721,314.030853 1632.862915,314.115509 1632.873657,310.011139 
	C1632.883789,306.144531 1633.905273,304.876953 1637.933472,304.913757 
	C1659.223511,305.108246 1680.516479,305.004944 1701.808350,305.004913 
	C1714.117798,305.004913 1726.427124,305.002991 1738.736572,305.005585 
	C1746.279297,305.007172 1746.419312,305.170990 1745.679565,313.274506 
	C1744.273193,313.746460 1742.760986,314.253937 1741.039062,315.128418 
z"/>
<path fill="#D2E3FC" opacity="1.000000" stroke="none" 
	d="
M1615.094971,287.993927 
	C1648.709961,287.994019 1681.836548,287.988800 1714.963135,288.005493 
	C1717.352661,288.006683 1720.072510,287.265747 1720.083374,291.405670 
	C1720.092041,294.732483 1719.301758,296.142609 1715.647095,296.074585 
	C1704.497803,295.866974 1693.342285,295.999908 1682.189087,295.999969 
	C1659.549805,296.000092 1636.910522,296.000000 1614.271240,296.000000 
	C1612.467651,296.000000 1610.664185,296.000000 1608.430420,296.000000 
	C1608.430420,293.343658 1608.430420,291.117798 1608.430420,287.993958 
	C1610.446899,287.993958 1612.526733,287.993958 1615.094971,287.993927 
z"/>
<path fill="#D2E3FC" opacity="1.000000" stroke="none" 
	d="
M1668.999512,407.000000 
	C1649.911621,407.000000 1631.323608,407.000000 1612.875244,407.000000 
	C1611.043701,399.418671 1611.349854,399.000122 1618.277588,398.999023 
	C1639.735107,398.995575 1661.192627,399.006775 1682.650146,398.987152 
	C1685.536621,398.984497 1688.154907,398.547791 1688.131226,403.088440 
	C1688.106567,407.806000 1685.206787,406.980377 1682.473755,406.994171 
	C1678.149170,407.015991 1673.824219,407.000000 1668.999512,407.000000 
z"/>
<path fill="#D2E3FC" opacity="1.000000" stroke="none" 
	d="
M1689.055664,342.189056 
	C1688.539795,344.662476 1687.515259,347.055573 1686.268555,349.721680 
	C1669.589233,349.997101 1653.131592,349.940094 1636.675171,350.053345 
	C1633.477661,350.075348 1631.834473,349.526978 1631.876465,345.744720 
	C1631.918701,341.924377 1633.984497,341.964905 1636.684937,341.977478 
	C1653.972046,342.057953 1671.259399,342.072479 1689.055664,342.189056 
z"/>
<path fill="#FFFFFF" opacity="1.000000" stroke="none" 
	d="
M1683.348145,361.017639 
	C1683.721069,363.384460 1683.638794,365.743286 1683.522339,368.502228 
	C1676.825928,368.933655 1670.160889,368.858734 1663.502930,369.043671 
	C1660.433960,369.128906 1659.928223,367.611816 1659.958008,365.047882 
	C1659.986572,362.590668 1660.239014,360.877106 1663.405273,360.955658 
	C1669.897461,361.116821 1676.396606,361.007599 1683.348145,361.017639 
z"/>
<path fill="#FDFEFF" opacity="1.000000" stroke="none" 
	d="
M1706.840576,323.063232 
	C1704.263184,325.721558 1701.192261,328.356079 1697.853760,331.149841 
	C1694.127197,331.207855 1690.658691,330.902069 1687.212280,331.064850 
	C1683.994873,331.216736 1682.874512,330.106445 1682.902710,326.837250 
	C1682.929565,323.706848 1684.147217,322.881439 1687.042847,322.953857 
	C1693.474243,323.114716 1699.911987,323.026215 1706.840576,323.063232 
z"/>
<path fill="#FDFEFF" opacity="1.000000" stroke="none" 
	d="
M1427.993896,227.105042 
	C1428.300781,222.776474 1431.032837,220.588715 1434.256958,221.567017 
	C1436.527588,222.255997 1439.718262,225.824265 1439.424072,227.596558 
	C1439.033813,229.946152 1435.875610,233.122971 1433.489990,233.536041 
	C1430.348267,234.079987 1427.697021,231.501190 1427.993896,227.105042 
M1434.895874,230.473663 
	C1435.357544,228.942032 1436.260498,227.355362 1436.079590,225.903885 
	C1435.998779,225.256165 1433.632690,224.332275 1432.500122,224.551086 
	C1431.562500,224.732224 1430.082031,227.069687 1430.273804,227.310303 
	C1431.352417,228.663406 1432.864258,229.670975 1434.895874,230.473663 
z"/>
<path fill="#D2E3FC" opacity="1.000000" stroke="none" 
	d="
M1027.501465,376.014954 
	C1028.913818,377.261444 1029.880981,378.497559 1030.848022,379.733704 
	C1029.549927,380.485138 1028.257324,381.879272 1026.952759,381.890625 
	C1009.997131,382.038055 993.039001,382.063232 976.084351,381.868164 
	C974.499939,381.849945 972.935059,380.126984 971.361145,379.195557 
	C972.969299,378.131256 974.565491,376.163422 976.187439,376.141876 
	C993.141357,375.916840 1010.099365,376.003937 1027.501465,376.014954 
z"/>
<path fill="#D2E3FC" opacity="1.000000" stroke="none" 
	d="
M1026.000000,362.000000 
	C1034.151245,362.000580 1041.805908,361.883636 1049.450806,362.104065 
	C1050.924316,362.146515 1052.359863,363.510742 1053.812866,364.265289 
	C1052.355469,365.178375 1050.906616,366.869476 1049.439331,366.885590 
	C1032.475586,367.071716 1015.508606,367.059631 998.544250,366.906189 
	C997.084961,366.893005 995.638245,365.496490 994.185669,364.742554 
	C995.641907,363.828949 997.077515,362.165375 998.557739,362.124573 
	C1007.532837,361.877441 1016.518127,362.000580 1026.000000,362.000000 
z"/>
<path fill="#D2E3FC" opacity="1.000000" stroke="none" 
	d="
M1014.996826,353.002441 
	C1001.668274,353.002258 988.838074,353.064789 976.010254,352.919861 
	C974.466125,352.902435 972.934631,351.761292 971.397278,351.140961 
	C973.018555,350.094452 974.628052,348.160126 976.262939,348.138489 
	C993.088257,347.915771 1009.918518,347.930573 1026.744385,348.135803 
	C1028.135742,348.152802 1029.504272,350.044403 1030.883423,351.065002 
	C1029.586426,351.710419 1028.320435,352.824005 1026.986572,352.912445 
	C1023.171082,353.165375 1019.328064,353.002045 1014.996826,353.002441 
z"/>
<path fill="#D2E3FC" opacity="1.000000" stroke="none" 
	d="
M1037.774414,376.295776 
	C1042.156982,376.090332 1046.152710,375.850891 1050.114258,376.118469 
	C1051.409912,376.205963 1052.616577,377.612183 1053.863892,378.415344 
	C1052.823975,379.572449 1051.870361,381.616241 1050.728638,381.727386 
	C1046.621216,382.127258 1042.363892,382.384949 1038.331421,381.702606 
	C1035.278076,381.185913 1035.336914,378.665314 1037.774414,376.295776 
z"/>
<path fill="#D2E3FC" opacity="1.000000" stroke="none" 
	d="
M1036.216309,350.088013 
	C1041.710571,349.259308 1047.127930,348.795776 1052.554688,348.509735 
	C1052.949219,348.488953 1053.837036,349.826447 1053.741333,350.408295 
	C1053.604980,351.236206 1052.771118,352.607330 1052.232666,352.608673 
	C1047.150513,352.621185 1042.066162,352.421722 1036.989014,352.159149 
	C1036.678833,352.143127 1036.422974,351.075226 1036.216309,350.088013 
z"/>
<path fill="#D2E3FC" opacity="1.000000" stroke="none" 
	d="
M974.605103,366.997864 
	C973.237061,366.278778 972.299683,365.565735 971.362244,364.852692 
	C972.412048,363.927002 973.403564,362.295563 974.522278,362.203064 
	C978.454712,361.877899 982.446838,361.893951 986.378723,362.225525 
	C987.289429,362.302307 988.051453,364.142090 988.881958,365.170593 
	C987.898315,365.779968 986.942444,366.854340 985.926025,366.915009 
	C982.307068,367.131042 978.667480,367.002258 974.605103,366.997864 
z"/>
<path fill="#37A956" opacity="1.000000" stroke="none" 
	d="
M1467.941895,486.989441 
	C1470.425171,486.994141 1472.439453,486.828369 1474.399902,487.080383 
	C1475.289795,487.194763 1476.073486,488.137115 1476.905273,488.703857 
	C1476.044189,489.425110 1475.213013,490.723175 1474.317139,490.769318 
	C1470.057983,490.988861 1465.781372,490.867554 1461.199097,490.867554 
	C1460.992676,494.378448 1460.821045,497.298645 1460.652710,500.161957 
	C1446.508667,503.219147 1436.018555,499.243622 1437.434937,486.989441 
	C1447.361206,486.989441 1457.406128,486.989441 1467.941895,486.989441 
z"/>
<path fill="#39AA57" opacity="1.000000" stroke="none" 
	d="
M1453.285889,479.714691 
	C1453.374146,476.518463 1454.939209,475.359833 1457.407959,476.655975 
	C1458.205566,477.074707 1458.862793,479.510071 1458.385498,480.282227 
	C1456.900269,482.685760 1454.970093,482.383728 1453.285889,479.714691 
z"/>
<path fill="#39AA57" opacity="1.000000" stroke="none" 
	d="
M1470.722656,478.255402 
	C1470.597290,481.435516 1469.044556,482.611877 1466.577515,481.283173 
	C1465.781006,480.854248 1465.141479,478.413391 1465.625122,477.647766 
	C1467.128906,475.266876 1469.059326,475.586426 1470.722656,478.255402 
z"/>
<path fill="#36A954" opacity="1.000000" stroke="none" 
	d="
M1241.074707,483.914551 
	C1240.552979,491.859650 1235.779785,496.515808 1229.223633,495.988312 
	C1223.293457,495.511200 1217.231689,489.881775 1219.469116,480.952972 
	C1225.924316,480.952972 1232.620972,480.888214 1239.311279,481.062592 
	C1239.917969,481.078369 1240.484375,482.632660 1241.074707,483.914551 
z"/>
<path fill="#2785FC" opacity="1.000000" stroke="none" 
	d="
M1139.997559,492.142548 
	C1126.415527,492.142609 1113.332764,492.142609 1099.951172,492.142609 
	C1099.951172,489.215546 1099.951172,486.832672 1099.951172,484.153137 
	C1118.564087,484.153137 1136.932251,484.153137 1155.650146,484.153137 
	C1155.650146,486.587555 1155.650146,488.987396 1155.650146,492.142487 
	C1150.649902,492.142487 1145.573364,492.142487 1139.997559,492.142548 
z"/>
<path fill="#2A86FC" opacity="1.000000" stroke="none" 
	d="
M1082.532959,484.465363 
	C1087.630249,482.022247 1091.390259,483.006866 1091.763550,486.957092 
	C1091.945801,488.886444 1090.890137,491.967926 1089.439575,492.745087 
	C1087.762085,493.643890 1083.840698,493.379822 1083.038452,492.182861 
	C1081.812866,490.354431 1082.426392,487.293335 1082.532959,484.465363 
z"/>
<path fill="#2A86FC" opacity="1.000000" stroke="none" 
	d="
M1068.031494,493.203125 
	C1065.377930,492.722748 1062.409424,492.675507 1060.973755,491.168304 
	C1059.932861,490.075623 1060.206543,486.576599 1061.226318,485.028168 
	C1062.095459,483.708649 1064.974854,482.898010 1066.772217,483.164185 
	C1071.407349,483.850708 1072.097168,488.773193 1068.031494,493.203125 
z"/>
<path fill="#328BFC" opacity="1.000000" stroke="none" 
	d="
M1107.099976,448.806213 
	C1104.466187,448.806122 1102.315430,448.806122 1099.739014,448.806122 
	C1099.739014,445.964142 1099.739014,443.409882 1099.739014,440.032104 
	C1108.873535,440.032104 1118.105713,440.032104 1127.337891,440.032104 
	C1136.638428,440.032104 1145.939087,440.032104 1155.631836,440.032104 
	C1155.631836,442.859924 1155.631836,445.418793 1155.631836,448.806335 
	C1139.697754,448.806335 1123.640381,448.806335 1107.099976,448.806213 
z"/>
<path fill="#2A86FC" opacity="1.000000" stroke="none" 
	d="
M1091.347412,441.932373 
	C1090.933716,444.618164 1090.953125,447.614136 1089.464844,449.099915 
	C1088.405884,450.157104 1084.865845,449.895782 1083.271851,448.891602 
	C1081.929443,448.046051 1081.024780,445.172791 1081.276978,443.388031 
	C1081.932983,438.747437 1086.841797,437.973633 1091.347412,441.932373 
z"/>
<path fill="#2A86FC" opacity="1.000000" stroke="none" 
	d="
M1065.072876,450.119019 
	C1060.765747,449.446228 1059.028931,446.782654 1060.244141,443.380981 
	C1060.895142,441.558289 1063.820068,439.199738 1065.420166,439.405579 
	C1067.417236,439.662415 1070.194214,442.034851 1070.690186,443.987671 
	C1071.573730,447.466278 1069.383179,449.897614 1065.072876,450.119019 
z"/>
<path fill="#FDFEFF" opacity="1.000000" stroke="none" 
	d="
M949.450562,470.000122 
	C948.967407,463.675659 948.861328,457.351776 948.964233,451.031311 
	C949.097351,442.857880 955.165405,436.835266 963.163940,436.742493 
	C971.135132,436.650024 977.541260,442.532806 977.867432,450.595001 
	C978.116089,456.741821 977.962585,462.904938 977.969116,469.528748 
	C968.606995,469.998535 959.263794,470.000366 949.450562,470.000122 
z"/>
<path fill="#36A954" opacity="1.000000" stroke="none" 
	d="
M967.895752,511.471619 
	C967.920044,505.894440 967.960083,500.766144 968.025330,495.638153 
	C968.029175,495.334869 968.234985,495.034180 968.475952,494.383728 
	C972.695435,494.383728 977.038757,494.383728 981.871155,494.383728 
	C981.871155,500.211151 982.149414,505.807922 981.770203,511.359741 
	C981.529907,514.878235 979.457947,517.664917 975.537964,517.969727 
	C971.274597,518.301331 968.620911,516.251038 967.895752,511.471619 
z"/>
<path fill="#37A956" opacity="1.000000" stroke="none" 
	d="
M982.658203,489.604767 
	C980.227417,489.348114 978.166748,489.042847 975.702209,488.677765 
	C976.174744,485.615753 978.056213,484.426697 980.778442,485.170380 
	C982.648193,485.681183 985.260254,486.586517 982.658203,489.604767 
z"/>
<path fill="#39AA57" opacity="1.000000" stroke="none" 
	d="
M971.573792,485.153198 
	C972.698853,486.158905 973.432190,487.058502 974.772583,488.702698 
	C971.201233,488.702698 968.743164,488.702698 966.099182,488.702698 
	C966.206177,484.839203 968.642639,484.868591 971.573792,485.153198 
z"/>
<path fill="#36A954" opacity="1.000000" stroke="none" 
	d="
M1863.085327,472.046082 
	C1860.329834,472.046295 1858.051880,472.046295 1855.800659,472.046295 
	C1855.542969,465.612854 1856.133423,464.953857 1861.781982,464.911041 
	C1864.095947,464.893494 1866.410522,464.883636 1868.724121,464.913849 
	C1873.915161,464.981567 1874.751709,465.971649 1874.280396,472.045868 
	C1870.746094,472.045868 1867.154419,472.045868 1863.085327,472.046082 
z"/>
<path fill="#39AA57" opacity="1.000000" stroke="none" 
	d="
M1179.978394,271.855286 
	C1183.764893,271.855133 1187.055054,271.855133 1190.206665,271.855133 
	C1191.775024,278.079071 1190.532837,282.182343 1186.651001,284.502869 
	C1182.202026,287.162506 1178.237793,286.301514 1173.091309,281.720917 
	C1170.287964,282.854156 1167.545166,284.947357 1164.993286,284.735870 
	C1162.053955,284.492310 1157.378174,282.761780 1156.788574,280.716583 
	C1154.848999,273.987213 1150.113037,275.192108 1145.456177,275.030121 
	C1144.031250,274.980560 1142.634033,274.136932 1141.224121,273.656952 
	C1142.682129,273.056610 1144.133667,271.954468 1145.599121,271.935669 
	C1156.891846,271.790649 1168.187378,271.855591 1179.978394,271.855286 
M1176.905273,280.072662 
	C1177.752686,280.457581 1178.599976,280.842468 1179.447388,281.227386 
	C1180.444824,276.433716 1183.888672,276.939209 1188.424805,278.464142 
	C1185.492920,275.916931 1177.576660,275.139832 1176.396606,276.680878 
	C1175.957764,277.254059 1176.415894,278.513947 1176.905273,280.072662 
z"/>
<path fill="#91DCA5" opacity="1.000000" stroke="none" 
	d="
M1231.746338,467.953857 
	C1235.331787,468.779388 1233.985718,470.702393 1232.860596,471.979828 
	C1230.324463,474.858948 1227.393066,474.525909 1223.346436,471.794739 
	C1226.451782,470.295807 1228.891602,469.118042 1231.746338,467.953857 
z"/>
<path fill="#DDEAFE" opacity="1.000000" stroke="none" 
	d="
M1534.574951,370.443542 
	C1538.240356,373.297150 1541.632812,375.921631 1545.724854,379.087372 
	C1539.685181,383.756866 1534.037231,388.197693 1528.258667,392.461639 
	C1527.752075,392.835480 1525.658569,392.199188 1525.571045,391.772278 
	C1525.364624,390.763733 1525.547119,389.155090 1526.235596,388.570862 
	C1529.886963,385.472382 1533.743164,382.615234 1538.189819,379.160675 
	C1533.380859,375.343353 1528.927612,371.808411 1524.510864,368.302429 
	C1525.565796,365.075714 1527.066040,364.369965 1529.573975,366.581329 
	C1531.061401,367.892853 1532.720093,369.009918 1534.574951,370.443542 
z"/>
<path fill="#DDEAFE" opacity="1.000000" stroke="none" 
	d="
M1494.442383,368.590668 
	C1490.074463,372.103729 1485.901001,375.336151 1481.053223,379.090820 
	C1485.929565,382.918396 1490.398315,386.426147 1495.106812,390.121887 
	C1494.091309,391.339630 1493.303711,392.284149 1492.275635,393.517059 
	C1486.045044,388.740479 1480.041138,384.137604 1473.523193,379.140717 
	C1479.934448,374.191650 1485.915039,369.575073 1492.447998,364.532013 
	C1493.290894,365.986969 1493.963867,367.148499 1494.442383,368.590668 
z"/>
<path fill="#DDEAFE" opacity="1.000000" stroke="none" 
	d="
M1504.210693,391.258667 
	C1506.813477,381.643707 1509.316040,372.426819 1511.818481,363.209900 
	C1512.406006,363.027008 1512.993530,362.844116 1513.581177,362.661224 
	C1514.229858,364.064728 1515.679810,365.658447 1515.399048,366.841309 
	C1513.375122,375.367523 1511.069092,383.830261 1508.652100,392.255615 
	C1508.345947,393.323212 1506.876221,394.057098 1505.945557,394.945557 
	C1505.333862,393.849274 1504.722046,392.753021 1504.210693,391.258667 
z"/>
<path fill="#E7EFFE" opacity="1.000000" stroke="none" 
	d="
M1702.848389,341.970093 
	C1712.852783,328.108551 1730.959473,322.443604 1747.744141,327.923737 
	C1764.765503,333.481201 1776.126709,349.313599 1775.992188,367.288849 
	C1775.861084,384.808380 1764.138550,400.652161 1747.298584,405.880646 
	C1722.383667,413.616333 1696.466187,396.689209 1694.644775,369.373779 
	C1710.434326,368.988403 1725.713013,368.970551 1740.991333,369.023041 
	C1743.813721,369.032745 1746.121338,369.235352 1746.117920,365.075317 
	C1746.114624,361.098724 1744.140137,360.944550 1741.142456,360.958160 
	C1725.698242,361.028320 1710.253540,360.971069 1694.808960,360.958282 
	C1695.715576,357.494537 1696.622192,354.030762 1698.233032,350.284241 
	C1704.910889,349.998505 1710.885742,349.915619 1716.857178,350.027161 
	C1719.730225,350.080841 1720.054199,348.474670 1720.025024,346.212891 
	C1719.995239,343.921051 1720.084717,341.871124 1716.785156,341.969696 
	C1712.143677,342.108337 1707.494385,341.982727 1702.848389,341.970093 
z"/>
<path fill="#FFFFFF" opacity="1.000000" stroke="none" 
	d="
M1694.618164,361.308167 
	C1710.253540,360.971069 1725.698242,361.028320 1741.142456,360.958160 
	C1744.140137,360.944550 1746.114624,361.098724 1746.117920,365.075317 
	C1746.121338,369.235352 1743.813721,369.032745 1740.991333,369.023041 
	C1725.713013,368.970551 1710.434326,368.988403 1694.704590,368.975037 
	C1694.311279,366.531372 1694.369263,364.094727 1694.618164,361.308167 
z"/>
<path fill="#D2E3FC" opacity="1.000000" stroke="none" 
	d="
M1702.561279,342.136749 
	C1707.494385,341.982727 1712.143677,342.108337 1716.785156,341.969696 
	C1720.084717,341.871124 1719.995239,343.921051 1720.025024,346.212891 
	C1720.054199,348.474670 1719.730225,350.080841 1716.857178,350.027161 
	C1710.885742,349.915619 1704.910889,349.998505 1698.468872,350.000732 
	C1699.424927,347.434479 1700.849487,344.868927 1702.561279,342.136749 
z"/>
<path fill="#D2E3FC" opacity="1.000000" stroke="none" 
	d="
M1434.562134,230.635025 
	C1432.864258,229.670975 1431.352417,228.663406 1430.273804,227.310303 
	C1430.082031,227.069687 1431.562500,224.732224 1432.500122,224.551086 
	C1433.632690,224.332275 1435.998779,225.256165 1436.079590,225.903885 
	C1436.260498,227.355362 1435.357544,228.942032 1434.562134,230.635025 
z"/>
<path fill="#91DCA5" opacity="1.000000" stroke="none" 
	d="
M1176.685059,279.766663 
	C1176.415894,278.513947 1175.957764,277.254059 1176.396606,276.680878 
	C1177.576660,275.139832 1185.492920,275.916931 1188.424805,278.464142 
	C1183.888672,276.939209 1180.444824,276.433716 1179.447388,281.227386 
	C1178.599976,280.842468 1177.752686,280.457581 1176.685059,279.766663 
z"/>
</svg>