<svg version="1.1" id="Layer_1" xmlns="http://www.w3.org/2000/svg" xmlns:xlink="http://www.w3.org/1999/xlink" x="0px" y="0px"
	 width="100%" viewBox="0 0 798 150" enable-background="new 0 0 798 150" xml:space="preserve">
<path fill="#FFFFFF" opacity="1.000000" stroke="none" 
	d="
M755.000000,151.000000 
	C503.666656,151.000000 252.333328,151.000000 1.000000,151.000000 
	C1.000000,127.579277 1.000000,104.258293 1.344827,80.546570 
	C5.080632,89.205666 11.832086,94.363884 21.015501,96.453575 
	C33.386837,99.268700 46.236614,91.532890 48.305695,80.207405 
	C49.925426,71.341499 46.533787,63.693611 38.216354,59.402771 
	C32.044373,56.218731 25.363516,54.036800 19.036745,51.131069 
	C15.391502,49.456890 12.547975,46.699543 13.097686,42.231365 
	C13.677262,37.520439 16.977678,35.050533 21.312546,33.932220 
	C29.216270,31.893200 34.790146,35.215336 38.603542,42.102982 
	C41.319622,40.915848 43.716537,39.868210 46.651127,38.585567 
	C45.348919,36.379555 44.486824,34.413448 43.185863,32.801548 
	C37.106258,25.268858 27.181799,22.539377 17.473562,25.570667 
	C10.022502,27.897179 4.597752,34.034641 3.870190,40.610672 
	C2.925286,49.151154 6.585672,55.124493 13.978300,58.907654 
	C17.209284,60.561104 20.765408,61.566418 24.105093,63.023705 
	C27.738401,64.609116 31.637339,65.895004 34.808861,68.165718 
	C41.611027,73.035866 40.589603,82.375099 33.169910,86.183662 
	C26.623432,89.543999 19.464062,88.506271 14.485141,83.062157 
	C12.318247,80.692810 10.782137,77.746574 8.821979,74.859741 
	C6.203479,75.910980 3.601740,76.955490 1.000001,78.000000 
	C1.000000,52.352150 1.000000,26.704302 1.000000,1.000000 
	C174.020889,1.000000 347.041779,1.000000 520.308228,1.262067 
	C515.617310,2.869676 513.012573,6.460418 510.956512,10.890995 
	C496.274902,42.528866 481.482758,74.115417 466.744873,105.727219 
	C464.174805,111.239906 461.695099,116.794731 458.823090,123.099640 
	C475.020691,123.099640 490.448273,123.099640 505.926270,123.553551 
	C505.976685,127.893173 505.976685,131.778885 505.976685,136.910843 
	C508.278259,134.828079 509.646820,133.519760 511.088898,132.298233 
	C514.949280,129.028336 518.841248,125.795593 523.190552,122.704185 
	C545.351685,122.860268 567.042847,122.860268 589.799622,122.860268 
	C582.437561,107.499771 575.564941,93.160370 568.821289,78.506470 
	C572.760925,74.272255 576.571533,70.352531 581.128601,65.665016 
	C574.251831,65.665016 568.217407,65.665016 562.136841,65.308624 
	C553.979614,47.487907 545.777649,30.064875 537.813660,12.533767 
	C535.462463,7.358206 532.538086,3.036237 527.000000,1.000000 
	C617.579041,1.000000 708.158142,1.000000 798.868591,1.000000 
	C798.868591,50.999763 798.868591,100.999832 798.868591,151.000000 
	C788.917969,151.000000 778.927612,151.000000 768.631958,150.659439 
	C786.615723,146.737015 798.682007,131.607239 798.141479,113.023384 
	C797.786743,100.824776 791.679382,91.755829 782.765991,83.737747 
	C782.876892,67.771812 783.187378,52.278629 782.868958,36.798382 
	C782.345642,11.356023 755.415588,-5.112828 732.441284,5.708107 
	C721.860596,10.691615 715.814880,19.375610 712.500427,30.899929 
	C711.819580,28.836319 711.399170,27.409678 710.882324,26.018862 
	C704.672302,9.308727 689.730042,0.984984 674.844238,2.299506 
	C655.340454,4.021822 642.105164,19.464760 642.075012,39.105904 
	C642.035339,64.919556 642.060791,90.733315 642.076172,116.547020 
	C642.077148,118.167007 642.233093,119.786896 642.350464,122.055054 
	C670.425232,122.055054 698.183228,122.055054 726.096069,122.386536 
	C730.111572,136.727249 738.922852,145.867142 752.944580,149.912567 
	C753.673584,150.122894 754.316833,150.630661 755.000000,151.000000 
M396.685486,96.362808 
	C396.742981,73.878731 397.369843,51.376835 396.666870,28.916565 
	C396.160065,12.724847 384.251160,3.984093 371.174744,4.447268 
	C356.655487,4.961551 347.092773,16.265196 347.066711,31.037470 
	C347.027924,53.024307 347.019531,75.011200 346.066589,97.110100 
	C333.082977,97.119164 320.096832,97.277794 307.117218,97.054192 
	C302.717804,96.978386 300.359650,97.700348 301.809784,102.762764 
	C302.856873,106.418076 303.203217,110.298798 304.471649,113.862000 
	C312.245941,135.700867 335.013916,148.345596 358.427521,144.006073 
	C380.215240,139.967880 397.079987,119.250252 396.685486,96.362808 
M181.014359,51.891953 
	C170.777374,43.910854 159.308624,44.375381 150.983047,53.108337 
	C141.995377,62.535778 141.132736,79.144859 150.096085,88.642021 
	C153.621246,92.377129 158.950790,95.225143 163.966415,96.539619 
	C170.872299,98.349480 177.213989,95.235756 182.589218,89.786446 
	C182.936951,91.958412 183.179428,93.472900 183.388397,94.778198 
	C186.373001,94.778198 188.941437,94.778198 191.525116,94.778198 
	C191.525116,71.695297 191.525116,48.998287 191.525116,26.242136 
	C188.400620,26.242136 185.637131,26.242136 182.346909,26.242136 
	C182.346909,33.605324 182.380219,40.722034 182.319427,47.837933 
	C182.306931,49.298702 181.942535,50.756470 181.014359,51.891953 
M125.099083,90.393272 
	C125.643837,91.930840 126.188583,93.468407 126.640045,94.742638 
	C129.441925,94.742638 132.000366,94.742638 134.508606,94.742638 
	C134.508606,78.937714 134.508606,63.552269 134.508606,48.127613 
	C131.544067,48.127613 128.949051,48.127613 125.840195,48.127613 
	C125.840195,55.681908 126.008995,62.966766 125.766258,70.237885 
	C125.651451,73.676849 125.226700,77.256607 124.100174,80.478058 
	C121.988441,86.516830 116.887299,89.155067 110.667503,88.131729 
	C105.208839,87.233604 102.389900,83.702301 101.979317,77.083603 
	C101.835297,74.761887 101.883011,72.427002 101.879593,70.098076 
	C101.868935,62.826920 101.875679,55.555733 101.875679,48.250195 
	C98.532417,48.250195 95.828972,48.250195 92.840660,48.250195 
	C92.840660,58.126102 92.871460,67.595505 92.831085,77.064613 
	C92.797737,84.887451 94.791542,91.855133 102.515839,95.228210 
	C110.618172,98.766365 118.121384,97.079842 125.099083,90.393272 
M206.539368,65.037315 
	C209.742035,72.339478 212.749985,79.736153 216.229156,86.904106 
	C217.980453,90.512169 218.199722,93.480713 216.257095,97.145302 
	C213.115051,103.072487 210.599075,109.331558 207.736771,115.630836 
	C216.922729,116.531952 216.855743,116.503059 220.092026,108.999763 
	C226.342743,94.507469 232.685638,80.054955 238.972534,65.578239 
	C241.440338,59.895679 243.860474,54.192417 246.388489,48.297672 
	C236.970871,47.247086 236.955353,47.240715 233.715958,55.135204 
	C230.287415,63.490643 226.892441,71.859863 222.998123,81.411896 
	C218.984940,71.827621 215.432495,63.492840 212.001923,55.108192 
	C208.670395,46.965633 208.725311,46.943161 199.214493,48.364887 
	C201.568985,53.753212 203.885315,59.054245 206.539368,65.037315 
M71.676880,38.703014 
	C71.597145,37.087543 71.517410,35.472073 71.430519,33.711517 
	C68.192406,33.711517 65.320045,33.711517 61.873211,33.711517 
	C61.873211,38.485893 61.873211,42.877575 61.873211,47.356174 
	C59.012810,47.556438 56.721111,47.716885 54.212082,47.892548 
	C54.212082,50.681839 54.212082,53.282177 54.212082,56.048576 
	C56.780743,56.279900 59.204033,56.498131 62.114353,56.760220 
	C62.114353,58.793236 62.112148,60.594013 62.114754,62.394783 
	C62.124130,68.880363 61.881161,75.378479 62.200581,81.848808 
	C62.790028,93.789017 74.543869,100.182877 84.774666,94.144173 
	C83.830673,91.887077 82.877472,89.607971 81.890236,87.247498 
	C77.622871,87.492783 72.415649,88.701576 72.008522,82.701263 
	C71.428177,74.148079 71.860924,65.526146 71.860924,56.410988 
	C75.793488,56.410988 79.216667,56.410988 82.784332,56.410988 
	C82.784332,53.274723 82.784332,50.674580 82.784332,47.524345 
	C79.144516,47.524345 75.730415,47.524345 71.676437,47.524345 
	C71.676437,44.543785 71.676437,42.091572 71.676880,38.703014 
z"/>
<path fill="#A0C1F9" opacity="1.000000" stroke="none" 
	d="
M505.875824,123.099640 
	C490.448273,123.099640 475.020691,123.099640 458.823090,123.099640 
	C461.695099,116.794731 464.174805,111.239906 466.744873,105.727219 
	C481.482758,74.115417 496.274902,42.528866 510.956512,10.890995 
	C513.012573,6.460418 515.617310,2.869676 520.776855,1.262067 
	C522.714355,1.000000 524.428711,1.000000 526.571533,1.000000 
	C532.538086,3.036237 535.462463,7.358206 537.813660,12.533767 
	C545.777649,30.064875 553.979614,47.487907 561.666016,65.424881 
	C542.981567,65.897530 524.721802,65.897530 505.875824,65.897530 
	C505.875824,85.514008 505.875824,104.306824 505.875824,123.099640 
z"/>
<path fill="#4386F4" opacity="1.000000" stroke="none" 
	d="
M782.682983,84.216316 
	C791.679382,91.755829 797.786743,100.824776 798.141479,113.023384 
	C798.682007,131.607239 786.615723,146.737015 768.163330,150.659439 
	C763.975464,151.000000 759.950928,151.000000 755.463196,151.000000 
	C754.316833,150.630661 753.673584,150.122894 752.944580,149.912567 
	C738.922852,145.867142 730.111572,136.727249 726.112061,121.961700 
	C722.177124,101.173256 735.848755,83.690636 752.119446,79.342659 
	C763.206421,76.379921 773.081421,78.929688 782.682983,84.216316 
z"/>
<path fill="#4889F4" opacity="1.000000" stroke="none" 
	d="
M1.000001,78.333336 
	C3.601740,76.955490 6.203479,75.910980 8.821979,74.859741 
	C10.782137,77.746574 12.318247,80.692810 14.485141,83.062157 
	C19.464062,88.506271 26.623432,89.543999 33.169910,86.183662 
	C40.589603,82.375099 41.611027,73.035866 34.808861,68.165718 
	C31.637339,65.895004 27.738401,64.609116 24.105093,63.023705 
	C20.765408,61.566418 17.209284,60.561104 13.978300,58.907654 
	C6.585672,55.124493 2.925286,49.151154 3.870190,40.610672 
	C4.597752,34.034641 10.022502,27.897179 17.473562,25.570667 
	C27.181799,22.539377 37.106258,25.268858 43.185863,32.801548 
	C44.486824,34.413448 45.348919,36.379555 46.651127,38.585567 
	C43.716537,39.868210 41.319622,40.915848 38.603542,42.102982 
	C34.790146,35.215336 29.216270,31.893200 21.312546,33.932220 
	C16.977678,35.050533 13.677262,37.520439 13.097686,42.231365 
	C12.547975,46.699543 15.391502,49.456890 19.036745,51.131069 
	C25.363516,54.036800 32.044373,56.218731 38.216354,59.402771 
	C46.533787,63.693611 49.925426,71.341499 48.305695,80.207405 
	C46.236614,91.532890 33.386837,99.268700 21.015501,96.453575 
	C11.832086,94.363884 5.080632,89.205666 1.344827,80.077911 
	C1.000000,79.555557 1.000000,79.111107 1.000001,78.333336 
z"/>
<path fill="#9FC1F9" opacity="1.000000" stroke="none" 
	d="
M782.765991,83.737747 
	C773.081421,78.929688 763.206421,76.379921 752.119446,79.342659 
	C735.848755,83.690636 722.177124,101.173256 725.957275,121.630219 
	C698.183228,122.055054 670.425232,122.055054 642.350464,122.055054 
	C642.233093,119.786896 642.077148,118.167007 642.076172,116.547020 
	C642.060791,90.733315 642.035339,64.919556 642.075012,39.105904 
	C642.105164,19.464760 655.340454,4.021822 674.844238,2.299506 
	C689.730042,0.984984 704.672302,9.308727 710.882324,26.018862 
	C711.399170,27.409678 711.819580,28.836319 712.500427,30.899929 
	C715.814880,19.375610 721.860596,10.691615 732.441284,5.708107 
	C755.415588,-5.112828 782.345642,11.356023 782.868958,36.798382 
	C783.187378,52.278629 782.876892,67.771812 782.765991,83.737747 
z"/>
<path fill="#A0C2F9" opacity="1.000000" stroke="none" 
	d="
M346.998169,96.998070 
	C347.019531,75.011200 347.027924,53.024307 347.066711,31.037470 
	C347.092773,16.265196 356.655487,4.961551 371.174744,4.447268 
	C384.251160,3.984093 396.160065,12.724847 396.666870,28.916565 
	C397.369843,51.376835 396.742981,73.878731 396.145599,96.759491 
	C379.403198,97.103470 363.200684,97.050766 346.998169,96.998070 
z"/>
<path fill="#4486F4" opacity="1.000000" stroke="none" 
	d="
M346.532379,97.054085 
	C363.200684,97.050766 379.403198,97.103470 396.023254,97.232254 
	C397.079987,119.250252 380.215240,139.967880 358.427521,144.006073 
	C335.013916,148.345596 312.245941,135.700867 304.471649,113.862000 
	C303.203217,110.298798 302.856873,106.418076 301.809784,102.762764 
	C300.359650,97.700348 302.717804,96.978386 307.117218,97.054192 
	C320.096832,97.277794 333.082977,97.119164 346.532379,97.054085 
z"/>
<path fill="#4385F4" opacity="1.000000" stroke="none" 
	d="
M505.926270,123.553551 
	C505.875824,104.306824 505.875824,85.514008 505.875824,65.897530 
	C524.721802,65.897530 542.981567,65.897530 561.712158,65.781273 
	C568.217407,65.665016 574.251831,65.665016 581.128601,65.665016 
	C576.571533,70.352531 572.760925,74.272255 568.507202,78.599365 
	C556.200195,90.036247 544.284668,101.011055 532.504456,112.129128 
	C529.046021,115.393204 525.971313,119.063820 522.720703,122.548111 
	C518.841248,125.795593 514.949280,129.028336 511.088898,132.298233 
	C509.646820,133.519760 508.278259,134.828079 505.976685,136.910843 
	C505.976685,131.778885 505.976685,127.893173 505.926270,123.553551 
z"/>
<path fill="#9FC1F9" opacity="1.000000" stroke="none" 
	d="
M523.190552,122.704193 
	C525.971313,119.063820 529.046021,115.393204 532.504456,112.129128 
	C544.284668,101.011055 556.200195,90.036247 568.378174,78.913857 
	C575.564941,93.160370 582.437561,107.499771 589.799622,122.860268 
	C567.042847,122.860268 545.351685,122.860268 523.190552,122.704193 
z"/>
<path fill="#498AF4" opacity="1.000000" stroke="none" 
	d="
M181.377350,52.053787 
	C181.942535,50.756470 182.306931,49.298702 182.319427,47.837933 
	C182.380219,40.722034 182.346909,33.605324 182.346909,26.242136 
	C185.637131,26.242136 188.400620,26.242136 191.525116,26.242136 
	C191.525116,48.998287 191.525116,71.695297 191.525116,94.778198 
	C188.941437,94.778198 186.373001,94.778198 183.388397,94.778198 
	C183.179428,93.472900 182.936951,91.958412 182.589218,89.786446 
	C177.213989,95.235756 170.872299,98.349480 163.966415,96.539619 
	C158.950790,95.225143 153.621246,92.377129 150.096085,88.642021 
	C141.132736,79.144859 141.995377,62.535778 150.983047,53.108337 
	C159.308624,44.375381 170.777374,43.910854 181.377350,52.053787 
M154.122726,77.990799 
	C156.281540,83.440392 159.824631,87.329872 165.921616,88.165039 
	C172.923355,89.124146 178.881226,85.643379 181.460938,79.205353 
	C184.693359,71.138397 182.589249,61.973629 176.481339,57.516071 
	C170.083130,52.846657 161.319916,54.184841 156.599686,60.610897 
	C152.883774,65.669685 152.393494,71.283722 154.122726,77.990799 
z"/>
<path fill="#4889F4" opacity="1.000000" stroke="none" 
	d="
M124.788956,90.601730 
	C118.121384,97.079842 110.618172,98.766365 102.515839,95.228210 
	C94.791542,91.855133 92.797737,84.887451 92.831085,77.064613 
	C92.871460,67.595505 92.840660,58.126102 92.840660,48.250195 
	C95.828972,48.250195 98.532417,48.250195 101.875679,48.250195 
	C101.875679,55.555733 101.868935,62.826920 101.879593,70.098076 
	C101.883011,72.427002 101.835297,74.761887 101.979317,77.083603 
	C102.389900,83.702301 105.208839,87.233604 110.667503,88.131729 
	C116.887299,89.155067 121.988441,86.516830 124.100174,80.478058 
	C125.226700,77.256607 125.651451,73.676849 125.766258,70.237885 
	C126.008995,62.966766 125.840195,55.681908 125.840195,48.127613 
	C128.949051,48.127613 131.544067,48.127613 134.508606,48.127613 
	C134.508606,63.552269 134.508606,78.937714 134.508606,94.742638 
	C132.000366,94.742638 129.441925,94.742638 126.640045,94.742638 
	C126.188583,93.468407 125.643837,91.930840 124.788956,90.601730 
z"/>
<path fill="#4889F4" opacity="1.000000" stroke="none" 
	d="
M206.370514,64.696297 
	C203.885315,59.054245 201.568985,53.753212 199.214493,48.364887 
	C208.725311,46.943161 208.670395,46.965633 212.001923,55.108192 
	C215.432495,63.492840 218.984940,71.827621 222.998123,81.411896 
	C226.892441,71.859863 230.287415,63.490643 233.715958,55.135204 
	C236.955353,47.240715 236.970871,47.247086 246.388489,48.297672 
	C243.860474,54.192417 241.440338,59.895679 238.972534,65.578239 
	C232.685638,80.054955 226.342743,94.507469 220.092026,108.999763 
	C216.855743,116.503059 216.922729,116.531952 207.736771,115.630836 
	C210.599075,109.331558 213.115051,103.072487 216.257095,97.145302 
	C218.199722,93.480713 217.980453,90.512169 216.229156,86.904106 
	C212.749985,79.736153 209.742035,72.339478 206.370514,64.696297 
z"/>
<path fill="#4B8BF5" opacity="1.000000" stroke="none" 
	d="
M71.676659,39.171188 
	C71.676437,42.091572 71.676437,44.543785 71.676437,47.524345 
	C75.730415,47.524345 79.144516,47.524345 82.784332,47.524345 
	C82.784332,50.674580 82.784332,53.274723 82.784332,56.410988 
	C79.216667,56.410988 75.793488,56.410988 71.860924,56.410988 
	C71.860924,65.526146 71.428177,74.148079 72.008522,82.701263 
	C72.415649,88.701576 77.622871,87.492783 81.890236,87.247498 
	C82.877472,89.607971 83.830673,91.887077 84.774666,94.144173 
	C74.543869,100.182877 62.790028,93.789017 62.200581,81.848808 
	C61.881161,75.378479 62.124130,68.880363 62.114754,62.394783 
	C62.112148,60.594013 62.114353,58.793236 62.114353,56.760220 
	C59.204033,56.498131 56.780743,56.279900 54.212082,56.048576 
	C54.212082,53.282177 54.212082,50.681839 54.212082,47.892548 
	C56.721111,47.716885 59.012810,47.556438 61.873211,47.356174 
	C61.873211,42.877575 61.873211,38.485893 61.873211,33.711517 
	C65.320045,33.711517 68.192406,33.711517 71.430519,33.711517 
	C71.517410,35.472073 71.597145,37.087543 71.676659,39.171188 
z"/>
<path fill="#FCFDFF" opacity="1.000000" stroke="none" 
	d="
M154.036499,77.597809 
	C152.393494,71.283722 152.883774,65.669685 156.599686,60.610897 
	C161.319916,54.184841 170.083130,52.846657 176.481339,57.516071 
	C182.589249,61.973629 184.693359,71.138397 181.460938,79.205353 
	C178.881226,85.643379 172.923355,89.124146 165.921616,88.165039 
	C159.824631,87.329872 156.281540,83.440392 154.036499,77.597809 
z"/>
</svg>