<svg version="1.1" id="Layer_1" xmlns="http://www.w3.org/2000/svg" xmlns:xlink="http://www.w3.org/1999/xlink" x="0px" y="0px"
	 width="100%" viewBox="0 0 7681 1951" enable-background="new 0 0 7681 1951" xml:space="preserve">
<path fill="#202124" opacity="1.000000" stroke="none" 
	d="
M2.000000,1952.000000 
	C2.000000,1302.050903 2.000000,652.101807 2.000000,2.000000 
	C2561.415283,2.000000 5120.830566,2.000000 7681.123047,2.901810 
	C7682.000000,572.830078 7682.001465,1141.856567 7681.983887,1710.883057 
	C7681.983398,1715.539185 7681.731445,1720.195190 7680.914062,1724.628174 
	C7612.707031,1691.024902 7544.222656,1688.767090 7476.534668,1722.043945 
	C7405.625977,1756.903931 7364.550293,1815.001343 7351.675781,1893.011597 
	C7348.450195,1912.555664 7349.878418,1932.164795 7349.365234,1951.851562 
	C7344.091309,1951.954712 7339.763184,1951.997314 7335.434570,1951.997314 
	C7052.072266,1952.000488 6768.710449,1951.997192 6485.348145,1952.028320 
	C6480.707031,1952.028809 6476.065918,1952.444702 6471.359375,1952.644775 
	C6471.293945,1952.622559 6471.227051,1952.501465 6471.333496,1951.708252 
	C6471.354980,1950.388184 6471.270508,1949.861328 6471.191895,1948.514526 
	C6478.197266,1886.673340 6485.197266,1825.652344 6492.243164,1764.231201 
	C6488.399414,1763.176025 6485.409668,1762.355347 6481.896973,1761.391113 
	C6479.226562,1783.997070 6476.674805,1805.456055 6474.159668,1826.919434 
	C6469.283203,1868.540771 6464.427734,1910.164673 6458.653320,1951.813477 
	C6453.088379,1951.892944 6448.433594,1951.993164 6443.778320,1951.993408 
	C6304.083984,1952.001831 6164.390137,1951.982056 6024.695801,1952.084595 
	C6020.233398,1952.087891 6015.772461,1953.332275 6011.075195,1953.150635 
	C6013.082031,1950.437622 6015.149902,1948.296143 6017.594727,1946.751221 
	C6033.898438,1936.447876 6050.293945,1926.288208 6066.640625,1916.052002 
	C6176.300293,1847.385132 6285.956543,1778.712524 6395.608398,1710.033447 
	C6399.479492,1707.608887 6403.295410,1705.097168 6407.679199,1702.277344 
	C6405.400391,1698.980103 6403.621094,1696.405640 6401.645996,1693.547852 
	C6397.914062,1695.860474 6394.830078,1697.754028 6391.762207,1699.674927 
	C6328.331055,1739.391235 6264.895020,1779.100220 6201.474121,1818.833130 
	C6130.448730,1863.330322 6059.437012,1907.850220 5987.460938,1952.243530 
	C5951.002930,1952.147705 5915.502441,1952.168579 5879.699219,1952.016357 
	C5879.395508,1951.843140 5878.714844,1951.688477 5878.563477,1950.984619 
	C5859.417969,1917.518799 5836.476074,1887.745361 5809.165527,1861.567139 
	C5695.693848,1752.799438 5561.021484,1710.796631 5406.517578,1738.915649 
	C5297.494141,1758.757568 5208.488770,1814.628052 5139.408691,1901.375610 
	C5126.828613,1917.173462 5116.633789,1934.870972 5105.000000,1951.773926 
	C5104.661621,1951.856201 5104.065430,1952.215576 5103.128906,1952.141846 
	C4956.034180,1952.045410 4809.876953,1952.017334 4663.719238,1952.006592 
	C4643.078125,1952.005005 4622.437012,1952.087280 4601.706055,1951.359253 
	C4618.492188,1898.656860 4635.368164,1846.725830 4652.314453,1794.579468 
	C4648.440918,1793.560547 4645.627930,1792.820435 4642.487793,1791.994263 
	C4641.544434,1794.273804 4640.685059,1796.024048 4640.081055,1797.858276 
	C4624.730469,1844.515015 4609.370605,1891.169067 4594.125000,1937.860352 
	C4592.405762,1943.127686 4591.358887,1948.614746 4590.000000,1954.000000 
	C4590.000000,1954.000000 4589.000000,1954.000000 4587.977539,1953.340210 
	C4583.651855,1952.453857 4580.348633,1952.030518 4577.045410,1952.029419 
	C4472.798828,1951.994873 4368.551758,1951.995361 4264.305176,1952.026367 
	C4260.655762,1952.027344 4257.006836,1952.392700 4252.836914,1952.179199 
	C4223.713379,1922.771240 4195.110840,1893.772217 4165.973633,1864.231201 
	C4163.096680,1867.457031 4161.040527,1869.762817 4157.393066,1873.853027 
	C4174.125977,1889.751953 4190.458008,1904.862305 4206.301270,1920.468506 
	C4216.637207,1930.649780 4226.263672,1941.551392 4235.307617,1952.058594 
	C4231.074219,1951.991333 4227.741699,1951.999634 4224.408691,1951.999634 
	C2816.939209,1952.000122 1409.469604,1952.000122 2.000000,1952.000000 
M4583.307129,891.695190 
	C4659.609863,1012.345154 4802.786621,1077.588257 4944.532227,1055.492798 
	C5023.256348,1043.221069 5091.712891,1009.413818 5147.375977,952.099060 
	C5228.904297,868.151489 5263.989746,767.475769 5250.203125,651.038025 
	C5239.593262,561.435059 5200.171875,485.571594 5132.619629,425.913544 
	C5042.552734,346.371765 4937.330566,317.435364 4819.016602,339.640350 
	C4745.204102,353.493347 4682.023926,388.265594 4629.722656,442.135040 
	C4566.108398,507.655670 4531.482910,586.458740 4526.579102,677.490479 
	C4522.449707,754.141418 4541.697754,825.310364 4583.307129,891.695190 
M6139.083008,306.102478 
	C6096.584473,359.662659 6076.352539,420.441650 6079.645020,488.911041 
	C6081.731934,532.315857 6093.842285,572.741089 6115.685059,610.215149 
	C6169.224609,702.068054 6272.654785,754.863037 6380.107422,741.393188 
	C6445.689941,733.171936 6501.594727,704.758057 6545.802246,655.453796 
	C6600.930664,593.970032 6623.856445,521.483826 6613.329590,439.568481 
	C6605.049316,375.138153 6576.338867,320.320496 6527.928711,276.773407 
	C6467.650879,222.550781 6396.433594,199.491714 6316.025391,208.731857 
	C6244.799805,216.916702 6185.989746,249.723984 6139.083008,306.102478 
M7498.012695,842.991516 
	C7488.928223,833.271851 7480.398926,822.954895 7470.673828,813.925476 
	C7384.693359,734.097717 7256.828125,718.807190 7155.767090,778.003601 
	C7072.086426,827.019226 7027.022949,901.473450 7020.642090,998.166504 
	C7017.443359,1046.639404 7028.609863,1092.765137 7051.318848,1135.875366 
	C7102.050781,1232.181519 7207.159668,1290.206543 7318.795410,1277.398193 
	C7383.698730,1269.951782 7439.186035,1242.334717 7483.961426,1194.503052 
	C7531.505371,1143.713989 7556.113281,1083.162109 7556.892090,1013.627869 
	C7557.598633,950.506653 7537.958008,893.859863 7498.012695,842.991516 
M4730.404785,1779.622681 
	C4733.502930,1778.408936 4736.627441,1777.257812 4739.695312,1775.971802 
	C4797.947754,1751.551147 4834.303711,1691.282837 4827.589844,1628.546631 
	C4818.177246,1540.593140 4738.604980,1488.798584 4663.941895,1499.521362 
	C4578.882324,1511.737305 4522.799316,1594.413330 4543.462402,1677.773926 
	C4562.745605,1755.565308 4645.823730,1807.268799 4730.404785,1779.622681 
M6679.802246,1597.434937 
	C6679.180664,1593.828979 6678.656738,1590.203125 6677.923828,1586.619995 
	C6663.502441,1516.165771 6596.605957,1461.036743 6515.499512,1472.838135 
	C6434.639160,1484.604004 6381.372559,1558.484009 6393.761719,1639.181152 
	C6402.562012,1696.502197 6446.954102,1743.545532 6504.807129,1756.857666 
	C6561.304688,1769.858032 6622.062012,1746.234375 6654.792480,1698.530884 
	C6675.388184,1668.513428 6683.918457,1635.431396 6679.802246,1597.434937 
M5915.482910,1084.108887 
	C5916.632324,1070.085449 5915.809082,1056.188232 5912.934082,1042.404907 
	C5896.324219,962.764771 5820.963379,916.342651 5748.924316,928.127441 
	C5717.366211,933.289917 5689.784668,946.860596 5667.874023,970.075623 
	C5636.497559,1003.320068 5622.229492,1042.863647 5627.878418,1088.872803 
	C5631.969238,1122.191040 5645.923828,1150.955566 5669.974121,1174.010986 
	C5703.589355,1206.236328 5743.892090,1220.377197 5790.600098,1214.119263 
	C5824.547852,1209.571167 5853.332520,1194.676514 5876.701660,1169.756714 
	C5898.815918,1146.174194 5911.288086,1117.948120 5915.482910,1084.108887 
M3959.342041,1867.696045 
	C3961.687744,1869.562378 3963.961426,1871.528687 3966.390137,1873.280029 
	C4008.358398,1903.537720 4054.120117,1910.754395 4102.742676,1893.418213 
	C4168.894043,1869.832397 4206.087402,1801.790527 4196.266602,1736.508423 
	C4185.469238,1664.732788 4120.356934,1608.842773 4045.255127,1613.618896 
	C4006.073975,1616.110718 3973.213623,1631.533203 3946.744873,1660.227295 
	C3919.951416,1689.273682 3907.032227,1724.152832 3908.672363,1763.391479 
	C3910.391357,1804.509277 3927.238281,1839.262207 3959.342041,1867.696045 
M5699.401855,336.430206 
	C5739.425293,301.172119 5757.115723,256.800018 5749.335449,204.181992 
	C5737.839844,126.434059 5668.169922,76.350693 5597.193848,81.676399 
	C5557.377441,84.664055 5523.629883,100.340355 5497.966797,130.825668 
	C5458.419434,177.804550 5450.229004,230.797058 5475.689453,286.571014 
	C5515.140137,372.994751 5623.924316,397.118256 5699.401855,336.430206 
M5430.680664,1219.929199 
	C5225.124512,1332.145020 5019.568848,1444.360718 4813.500977,1556.855835 
	C4815.471680,1560.165649 4817.110840,1562.918945 4819.050293,1566.176270 
	C5088.244629,1419.193481 5357.033691,1272.431763 5626.167969,1125.481567 
	C5624.550293,1121.659668 5623.337891,1118.796997 5621.923340,1115.455811 
	C5558.037598,1150.355347 5495.007812,1184.787354 5430.680664,1219.929199 
M6006.290527,576.015320 
	C5982.807129,578.665710 5959.323242,581.311829 5935.840332,583.967529 
	C5903.428223,587.632996 5871.017578,591.312561 5838.604980,594.973938 
	C5806.189453,598.635559 5773.771484,602.272217 5741.356445,605.937988 
	C5708.617676,609.640320 5675.883789,613.384949 5643.143555,617.074646 
	C5610.723633,620.728210 5578.296387,624.320312 5545.875977,627.968994 
	C5513.462402,631.616943 5481.054199,635.312073 5448.641602,638.967041 
	C5415.895996,642.659607 5383.145996,646.307617 5350.401855,650.013794 
	C5321.956055,653.233582 5293.516113,656.499023 5265.079102,659.796265 
	C5264.187988,659.899475 5263.363770,660.577576 5262.055176,661.205139 
	C5262.455078,664.065186 5262.846191,666.861206 5263.368164,670.593811 
	C5538.483887,639.563782 5812.872559,608.615723 6088.010742,577.583191 
	C6086.492188,573.730103 6085.314941,570.742981 6083.953125,567.288147 
	C6058.306152,570.192993 6033.202148,573.036316 6006.290527,576.015320 
M4143.354004,1631.663574 
	C4145.443848,1633.175415 4147.533691,1634.687256 4150.274902,1636.669922 
	C4309.905762,1412.491699 4469.148926,1188.858398 4629.108887,964.218872 
	C4626.493652,961.802368 4624.116211,959.605225 4621.260742,956.966797 
	C4618.606934,960.506042 4616.377441,963.349915 4614.283691,966.290527 
	C4581.457031,1012.395569 4548.662598,1058.523438 4515.831543,1104.625488 
	C4392.813477,1277.370850 4269.781250,1450.106323 4146.793457,1622.873657 
	C4145.113770,1625.233643 4143.944824,1627.957153 4143.354004,1631.663574 
M6423.885254,763.881531 
	C6426.100098,777.687561 6428.238770,791.506348 6430.541992,805.297546 
	C6441.559570,871.259216 6452.705078,937.199646 6463.645508,1003.174011 
	C6476.008301,1077.724854 6488.152832,1152.311768 6500.481445,1226.868286 
	C6511.664062,1294.489746 6522.959473,1362.092529 6534.224121,1429.700562 
	C6535.908203,1439.807617 6537.694824,1449.897461 6539.432129,1459.986816 
	C6543.370605,1459.986816 6546.513672,1459.986816 6550.223633,1459.986816 
	C6510.438965,1220.159424 6470.767090,981.011780 6430.930176,740.867188 
	C6426.665527,742.443909 6423.744629,743.523682 6420.738281,744.635193 
	C6421.816406,751.033020 6422.755371,756.605469 6423.885254,763.881531 
M7066.021973,1753.581665 
	C7065.387207,1753.379028 7064.759277,1753.151245 7064.116699,1752.977417 
	C6941.812988,1719.853882 6819.508789,1686.732178 6697.200684,1653.625000 
	C6694.107910,1652.787842 6690.972656,1652.109619 6687.021484,1651.155640 
	C6686.374512,1655.290527 6685.895508,1658.349854 6685.409180,1661.454834 
	C6908.620117,1721.953613 7130.913086,1782.203857 7353.423340,1842.512817 
	C7354.750977,1838.646851 7355.691406,1835.908325 7356.919922,1832.331665 
	C7260.085938,1806.087402 7163.852539,1780.005859 7066.021973,1753.581665 
M6078.921387,1299.900146 
	C6191.488770,1372.030273 6304.056641,1444.160522 6416.881348,1516.455688 
	C6419.480469,1513.343262 6421.464844,1510.966309 6423.851074,1508.108398 
	C6246.465332,1394.368896 6069.960449,1281.193970 5893.077637,1167.776855 
	C5890.718750,1170.407349 5888.581055,1172.791382 5885.757812,1175.939697 
	C5950.089844,1217.192261 6013.918945,1258.122437 6078.921387,1299.900146 
M5673.769531,1499.386230 
	C5695.865723,1407.399292 5717.961914,1315.412476 5740.187012,1222.888794 
	C5735.949219,1222.261841 5733.107910,1221.841553 5729.540039,1221.313721 
	C5688.350586,1392.368652 5647.278809,1562.934448 5606.051758,1734.145386 
	C5609.882812,1735.035156 5612.923340,1735.741333 5616.516602,1736.575928 
	C5635.624512,1657.383789 5654.492676,1579.185303 5673.769531,1499.386230 
M6789.937988,708.800476 
	C6876.609375,760.855469 6963.281250,812.910400 7050.381348,865.222656 
	C7052.576172,861.785034 7054.248047,859.167175 7056.214355,856.088013 
	C6905.169922,765.420105 6754.946289,675.244751 6603.993652,584.632202 
	C6602.286621,588.652527 6601.055176,591.551941 6599.709961,594.719055 
	C6663.126953,632.764832 6725.896484,670.422607 6789.937988,708.800476 
M7347.828613,1323.719116 
	C7387.553223,1453.611938 7427.277832,1583.504883 7467.197266,1714.035645 
	C7471.018555,1712.063721 7473.596191,1710.733521 7476.926270,1709.015137 
	C7433.525879,1567.137817 7390.194336,1425.486084 7346.693359,1283.279907 
	C7342.693359,1284.286133 7339.682129,1285.043579 7336.216309,1285.915405 
	C7340.167969,1298.682861 7343.800293,1310.418945 7347.828613,1323.719116 
M4764.048828,1173.842896 
	C4770.380371,1134.191528 4776.711914,1094.540161 4783.053711,1054.825317 
	C4779.010254,1053.704956 4776.189941,1052.923340 4772.682129,1051.951416 
	C4749.407715,1197.496948 4726.212891,1342.542480 4702.884766,1488.419800 
	C4707.133789,1488.988647 4710.199219,1489.399048 4713.523926,1489.844116 
	C4714.694824,1482.322510 4715.686523,1475.767578 4716.739258,1469.222534 
	C4724.453613,1421.271729 4732.198242,1373.325806 4739.897461,1325.372681 
	C4747.914062,1275.445679 4755.889160,1225.511841 4764.048828,1173.842896 
M6080.767578,765.768555 
	C6107.812012,738.393372 6134.856445,711.018188 6162.228516,683.311340 
	C6158.991699,680.615112 6156.759766,678.755981 6153.911133,676.382751 
	C6061.409180,769.947632 5969.208984,863.208008 5876.140625,957.346191 
	C5878.861816,959.878357 5881.208496,962.061462 5884.090332,964.742981 
	C5949.699707,898.363647 6014.733398,832.566528 6080.767578,765.768555 
M5041.443848,1865.737549 
	C4966.819336,1817.806274 4892.195312,1769.875000 4817.134277,1721.663086 
	C4815.027344,1725.194824 4813.401367,1727.919434 4811.573730,1730.982910 
	C4911.421875,1795.083618 5010.663574,1858.794922 5110.383789,1922.813599 
	C5112.562988,1919.415405 5114.258789,1916.770996 5116.209473,1913.729248 
	C5091.307617,1897.721436 5067.000488,1882.095581 5041.443848,1865.737549 
M6006.719727,324.688293 
	C5924.604492,300.380829 5842.489258,276.073364 5759.568359,251.527390 
	C5758.848145,255.577103 5758.299805,258.657349 5757.680176,262.139404 
	C5869.877930,295.423523 5981.211914,328.451477 6092.687500,361.521362 
	C6094.332520,357.532562 6095.414062,354.910767 6096.805664,351.536469 
	C6066.714844,342.639404 6037.455078,333.988068 6006.719727,324.688293 
M4344.178711,1703.811523 
	C4298.091797,1711.493530 4252.004395,1719.175415 4205.224609,1726.972900 
	C4206.066895,1731.102295 4206.686523,1734.140137 4207.376465,1737.522705 
	C4316.773438,1719.171021 4425.094238,1700.999878 4534.109375,1682.712280 
	C4532.855957,1678.554077 4532.029785,1675.812134 4531.106934,1672.752197 
	C4529.425293,1672.932251 4528.141602,1673.005859 4526.880371,1673.213989 
	C4500.974121,1677.489746 4475.062988,1681.733887 4449.168457,1686.081055 
	C4414.739258,1691.860962 4380.323242,1697.723267 4344.178711,1703.811523 
M5272.646484,443.766571 
	C5250.749023,461.469666 5228.852051,479.172760 5206.575195,497.182648 
	C5209.021973,500.720215 5210.812012,503.308044 5212.726074,506.075195 
	C5298.540039,436.734589 5383.662109,367.953552 5469.112793,298.906555 
	C5467.581543,295.555664 5466.259766,292.662689 5464.464355,288.732971 
	C5400.426758,340.487701 5337.089844,391.675873 5272.646484,443.766571 
z"/>
<path fill="#6A6B6D" opacity="1.000000" stroke="none" 
	d="
M2.000000,1953.000000 
	C1409.469604,1952.000122 2816.939209,1952.000122 4224.408691,1951.999634 
	C4227.741699,1951.999634 4231.074219,1951.991333 4235.644531,1952.569336 
	C4236.587891,1953.434448 4236.293945,1953.717163 4236.000000,1954.000000 
	C2824.666748,1954.000000 1413.333374,1954.000000 2.000000,1953.000000 
z"/>
<path fill="#F1F4F4" opacity="1.000000" stroke="none" 
	d="
M5988.419434,1952.360352 
	C6059.437012,1907.850220 6130.448730,1863.330322 6201.474121,1818.833130 
	C6264.895020,1779.100220 6328.331055,1739.391235 6391.762207,1699.674927 
	C6394.830078,1697.754028 6397.914062,1695.860474 6401.645996,1693.547852 
	C6403.621094,1696.405640 6405.400391,1698.980103 6407.679199,1702.277344 
	C6403.295410,1705.097168 6399.479492,1707.608887 6395.608398,1710.033447 
	C6285.956543,1778.712524 6176.300293,1847.385132 6066.640625,1916.052002 
	C6050.293945,1926.288208 6033.898438,1936.447876 6017.594727,1946.751221 
	C6015.149902,1948.296143 6013.082031,1950.437622 6011.242676,1953.150635 
	C6011.645508,1953.998047 6012.000000,1954.000000 6012.000000,1954.000000 
	C6004.614258,1954.000000 5997.228516,1954.000000 5989.152344,1953.622314 
	C5988.462402,1953.244751 5988.419434,1952.360352 5988.419434,1952.360352 
z"/>
<path fill="#6A6B6D" opacity="1.000000" stroke="none" 
	d="
M7681.597168,1724.851318 
	C7681.731445,1720.195190 7681.983398,1715.539185 7681.983887,1710.883057 
	C7682.001465,1141.856567 7682.000000,572.830078 7682.000000,2.901752 
	C7682.666504,2.332751 7683.887207,2.630833 7683.910645,3.004088 
	C7684.077637,5.659150 7684.000000,8.329451 7684.000000,10.994875 
	C7684.000000,582.062073 7684.000000,1153.129272 7683.537598,1725.208740 
	C7683.075195,1726.221069 7682.138672,1726.388184 7681.965820,1726.017212 
	C7681.792969,1725.646240 7681.597168,1724.851318 7681.597168,1724.851318 
z"/>
<path fill="#F1F1F1" opacity="1.000000" stroke="none" 
	d="
M6459.563477,1951.787476 
	C6464.427734,1910.164673 6469.283203,1868.540771 6474.159668,1826.919434 
	C6476.674805,1805.456055 6479.226562,1783.997070 6481.896973,1761.391113 
	C6485.409668,1762.355347 6488.399414,1763.176025 6492.243164,1764.231201 
	C6485.197266,1825.652344 6478.197266,1886.673340 6470.796875,1948.833008 
	C6470.673828,1950.814941 6470.950684,1951.658203 6471.227051,1952.501465 
	C6471.227051,1952.501465 6471.293945,1952.622559 6471.264648,1953.080566 
	C6471.234863,1953.538696 6472.000000,1954.000000 6472.000000,1954.000000 
	C6468.571289,1954.000000 6465.142578,1954.000000 6460.789062,1953.438721 
	C6459.764160,1952.514160 6459.663574,1952.150879 6459.563477,1951.787476 
z"/>
<path fill="#F2F3F3" opacity="1.000000" stroke="none" 
	d="
M4590.856934,1954.000000 
	C4591.358887,1948.614746 4592.405762,1943.127686 4594.125000,1937.860352 
	C4609.370605,1891.169067 4624.730469,1844.515015 4640.081055,1797.858276 
	C4640.685059,1796.024048 4641.544434,1794.273804 4642.487793,1791.994263 
	C4645.627930,1792.820435 4648.440918,1793.560547 4652.314453,1794.579468 
	C4635.368164,1846.725830 4618.492188,1898.656860 4601.487793,1951.855957 
	C4601.572754,1953.416016 4601.786621,1953.708008 4602.000000,1954.000000 
	C4598.571289,1954.000000 4595.142578,1954.000000 4590.856934,1954.000000 
z"/>
<path fill="#6A6B6D" opacity="1.000000" stroke="none" 
	d="
M6472.925293,1954.000000 
	C6472.000000,1954.000000 6471.234863,1953.538696 6471.330078,1953.102783 
	C6476.065918,1952.444702 6480.707031,1952.028809 6485.348145,1952.028320 
	C6768.710449,1951.997192 7052.072266,1952.000488 7335.434570,1951.997314 
	C7339.763184,1951.997314 7344.091309,1951.954712 7349.760254,1951.951416 
	C7351.100586,1951.970947 7351.854980,1952.282104 7351.775391,1952.721436 
	C7351.695312,1953.160767 7352.000000,1954.000000 7352.000000,1954.000000 
	C7059.283691,1954.000000 6766.566895,1954.000000 6472.925293,1954.000000 
z"/>
<path fill="#7DB1FF" opacity="1.000000" stroke="none" 
	d="
M5104.065430,1952.215576 
	C5104.065430,1952.215576 5104.661621,1951.856201 5105.979492,1951.859375 
	C5110.294922,1951.908203 5113.291992,1951.993530 5116.289062,1951.993530 
	C5366.770508,1951.999756 5617.251465,1952.000854 5867.732910,1951.986450 
	C5871.393555,1951.986328 5875.054199,1951.792114 5878.714844,1951.688477 
	C5878.714844,1951.688477 5879.395508,1951.843140 5879.644531,1952.468506 
	C5879.893066,1953.093872 5880.000000,1954.000000 5880.000000,1954.000000 
	C5621.954590,1954.000000 5363.909668,1954.000000 5105.024414,1953.556641 
	C5104.184570,1953.113403 5104.065430,1952.215576 5104.065430,1952.215576 
z"/>
<path fill="#F1F4F4" opacity="1.000000" stroke="none" 
	d="
M4236.899902,1954.000000 
	C4236.293945,1953.717163 4236.587891,1953.434448 4236.544922,1952.640991 
	C4226.263672,1941.551392 4216.637207,1930.649780 4206.301270,1920.468506 
	C4190.458008,1904.862305 4174.125977,1889.751953 4157.393066,1873.853027 
	C4161.040527,1869.762817 4163.096680,1867.457031 4165.973633,1864.231201 
	C4195.110840,1893.772217 4223.713379,1922.771240 4252.756836,1952.641602 
	C4253.198242,1953.512817 4254.000000,1954.000000 4254.000000,1954.000000 
	C4248.600098,1954.000000 4243.199707,1954.000000 4236.899902,1954.000000 
z"/>
<path fill="#FF8A7F" opacity="1.000000" stroke="none" 
	d="
M7352.937500,1954.000000 
	C7352.000000,1954.000000 7351.695312,1953.160767 7352.723633,1952.629150 
	C7358.082520,1952.066406 7362.413574,1952.008179 7366.744629,1952.007935 
	C7467.369141,1952.002808 7567.993164,1952.012329 7668.617676,1951.973999 
	C7672.792480,1951.972412 7676.967773,1951.532837 7682.000000,1951.248779 
	C7682.000000,1945.856445 7681.997559,1941.576416 7682.000488,1937.296387 
	C7682.046387,1866.993652 7682.092285,1796.690918 7682.138672,1726.388184 
	C7682.138672,1726.388184 7683.075195,1726.221069 7683.537598,1726.110596 
	C7684.000000,1801.880981 7684.000000,1877.762085 7684.000000,1954.000000 
	C7573.958496,1954.000000 7463.916992,1954.000000 7352.937500,1954.000000 
z"/>
<path fill="#6A6B6D" opacity="1.000000" stroke="none" 
	d="
M5103.128906,1952.141846 
	C5104.065430,1952.215576 5104.184570,1953.113403 5104.092285,1953.556641 
	C4937.291504,1954.000000 4770.583496,1954.000000 4602.937500,1954.000000 
	C4601.786621,1953.708008 4601.572754,1953.416016 4601.577637,1952.627441 
	C4622.437012,1952.087280 4643.078125,1952.005005 4663.719238,1952.006592 
	C4809.876953,1952.017334 4956.034180,1952.045410 5103.128906,1952.141846 
z"/>
<path fill="#6A6B6D" opacity="1.000000" stroke="none" 
	d="
M6458.653320,1951.813477 
	C6459.663574,1952.150879 6459.764160,1952.514160 6459.932129,1953.438721 
	C6311.291504,1954.000000 6162.583496,1954.000000 6012.937500,1954.000000 
	C6012.000000,1954.000000 6011.645508,1953.998047 6011.478027,1953.998047 
	C6015.772461,1953.332275 6020.233398,1952.087891 6024.695801,1952.084595 
	C6164.390137,1951.982056 6304.083984,1952.001831 6443.778320,1951.993408 
	C6448.433594,1951.993164 6453.088379,1951.892944 6458.653320,1951.813477 
z"/>
<path fill="#6A6B6D" opacity="1.000000" stroke="none" 
	d="
M4254.937500,1954.000000 
	C4254.000000,1954.000000 4253.198242,1953.512817 4253.277832,1953.050537 
	C4257.006836,1952.392700 4260.655762,1952.027344 4264.305176,1952.026367 
	C4368.551758,1951.995361 4472.798828,1951.994873 4577.045410,1952.029419 
	C4580.348633,1952.030518 4583.651855,1952.453857 4587.477539,1953.340210 
	C4477.291504,1954.000000 4366.583496,1954.000000 4254.937500,1954.000000 
z"/>
<path fill="#6A6B6D" opacity="1.000000" stroke="none" 
	d="
M5880.937500,1954.000000 
	C5880.000000,1954.000000 5879.893066,1953.093872 5879.947754,1952.641602 
	C5915.502441,1952.168579 5951.002930,1952.147705 5987.460938,1952.243530 
	C5988.419434,1952.360352 5988.462402,1953.244751 5988.231445,1953.622314 
	C5952.625000,1954.000000 5917.250000,1954.000000 5880.937500,1954.000000 
z"/>
<path fill="#3D8AFF" opacity="1.000000" stroke="none" 
	d="
M4582.888672,891.101074 
	C4541.697754,825.310364 4522.449707,754.141418 4526.579102,677.490479 
	C4531.482910,586.458740 4566.108398,507.655670 4629.722656,442.135040 
	C4682.023926,388.265594 4745.204102,353.493347 4819.016602,339.640350 
	C4937.330566,317.435364 5042.552734,346.371765 5132.619629,425.913544 
	C5200.171875,485.571594 5239.593262,561.435059 5250.203125,651.038025 
	C5263.989746,767.475769 5228.904297,868.151489 5147.375977,952.099060 
	C5091.712891,1009.413818 5023.256348,1043.221069 4944.532227,1055.492798 
	C4802.786621,1077.588257 4659.609863,1012.345154 4582.888672,891.101074 
z"/>
<path fill="#FEBB00" opacity="1.000000" stroke="none" 
	d="
M6139.545410,305.561829 
	C6185.989746,249.723984 6244.799805,216.916702 6316.025391,208.731857 
	C6396.433594,199.491714 6467.650879,222.550781 6527.928711,276.773407 
	C6576.338867,320.320496 6605.049316,375.138153 6613.329590,439.568481 
	C6623.856445,521.483826 6600.930664,593.970032 6545.802246,655.453796 
	C6501.594727,704.758057 6445.689941,733.171936 6380.107422,741.393188 
	C6272.654785,754.863037 6169.224609,702.068054 6115.685059,610.215149 
	C6093.842285,572.741089 6081.731934,532.315857 6079.645020,488.911041 
	C6076.352539,420.441650 6096.584473,359.662659 6139.545410,305.561829 
z"/>
<path fill="#FEBB00" opacity="1.000000" stroke="none" 
	d="
M7498.463379,843.540649 
	C7537.958008,893.859863 7557.598633,950.506653 7556.892090,1013.627869 
	C7556.113281,1083.162109 7531.505371,1143.713989 7483.961426,1194.503052 
	C7439.186035,1242.334717 7383.698730,1269.951782 7318.795410,1277.398193 
	C7207.159668,1290.206543 7102.050781,1232.181519 7051.318848,1135.875366 
	C7028.609863,1092.765137 7017.443359,1046.639404 7020.642090,998.166504 
	C7027.022949,901.473450 7072.086426,827.019226 7155.767090,778.003601 
	C7256.828125,718.807190 7384.693359,734.097717 7470.673828,813.925476 
	C7480.398926,822.954895 7488.928223,833.271851 7498.463379,843.540649 
z"/>
<path fill="#3D8AFF" opacity="1.000000" stroke="none" 
	d="
M5878.563477,1950.984619 
	C5875.054199,1951.792114 5871.393555,1951.986328 5867.732910,1951.986450 
	C5617.251465,1952.000854 5366.770508,1951.999756 5116.289062,1951.993530 
	C5113.291992,1951.993530 5110.294922,1951.908203 5106.317871,1951.777100 
	C5116.633789,1934.870972 5126.828613,1917.173462 5139.408691,1901.375610 
	C5208.488770,1814.628052 5297.494141,1758.757568 5406.517578,1738.915649 
	C5561.021484,1710.796631 5695.693848,1752.799438 5809.165527,1861.567139 
	C5836.476074,1887.745361 5859.417969,1917.518799 5878.563477,1950.984619 
z"/>
<path fill="#FE4F3E" opacity="1.000000" stroke="none" 
	d="
M7681.965820,1726.017212 
	C7682.092285,1796.690918 7682.046387,1866.993652 7682.000488,1937.296387 
	C7681.997559,1941.576416 7682.000000,1945.856445 7682.000000,1951.248779 
	C7676.967773,1951.532837 7672.792480,1951.972412 7668.617676,1951.973999 
	C7567.993164,1952.012329 7467.369141,1952.002808 7366.744629,1952.007935 
	C7362.413574,1952.008179 7358.082520,1952.066406 7352.803223,1952.189819 
	C7351.854980,1952.282104 7351.100586,1951.970947 7350.706055,1951.871094 
	C7349.878418,1932.164795 7348.450195,1912.555664 7351.675781,1893.011597 
	C7364.550293,1815.001343 7405.625977,1756.903931 7476.534668,1722.043945 
	C7544.222656,1688.767090 7612.707031,1691.024902 7680.914062,1724.628174 
	C7681.597168,1724.851318 7681.792969,1725.646240 7681.965820,1726.017212 
z"/>
<path fill="#FE4F3E" opacity="1.000000" stroke="none" 
	d="
M4729.641602,1779.829346 
	C4645.823730,1807.268799 4562.745605,1755.565308 4543.462402,1677.773926 
	C4522.799316,1594.413330 4578.882324,1511.737305 4663.941895,1499.521362 
	C4738.604980,1488.798584 4818.177246,1540.593140 4827.589844,1628.546631 
	C4834.303711,1691.282837 4797.947754,1751.551147 4739.695312,1775.971802 
	C4736.627441,1777.257812 4733.502930,1778.408936 4729.641602,1779.829346 
z"/>
<path fill="#FE4F3E" opacity="1.000000" stroke="none" 
	d="
M6679.893555,1598.312988 
	C6683.918457,1635.431396 6675.388184,1668.513428 6654.792480,1698.530884 
	C6622.062012,1746.234375 6561.304688,1769.858032 6504.807129,1756.857666 
	C6446.954102,1743.545532 6402.562012,1696.502197 6393.761719,1639.181152 
	C6381.372559,1558.484009 6434.639160,1484.604004 6515.499512,1472.838135 
	C6596.605957,1461.036743 6663.502441,1516.165771 6677.923828,1586.619995 
	C6678.656738,1590.203125 6679.180664,1593.828979 6679.893555,1598.312988 
z"/>
<path fill="#36BC57" opacity="1.000000" stroke="none" 
	d="
M5915.345703,1085.005615 
	C5911.288086,1117.948120 5898.815918,1146.174194 5876.701660,1169.756714 
	C5853.332520,1194.676514 5824.547852,1209.571167 5790.600098,1214.119263 
	C5743.892090,1220.377197 5703.589355,1206.236328 5669.974121,1174.010986 
	C5645.923828,1150.955566 5631.969238,1122.191040 5627.878418,1088.872803 
	C5622.229492,1042.863647 5636.497559,1003.320068 5667.874023,970.075623 
	C5689.784668,946.860596 5717.366211,933.289917 5748.924316,928.127441 
	C5820.963379,916.342651 5896.324219,962.764771 5912.934082,1042.404907 
	C5915.809082,1056.188232 5916.632324,1070.085449 5915.345703,1085.005615 
z"/>
<path fill="#36BC57" opacity="1.000000" stroke="none" 
	d="
M3958.812012,1867.225586 
	C3927.238281,1839.262207 3910.391357,1804.509277 3908.672363,1763.391479 
	C3907.032227,1724.152832 3919.951416,1689.273682 3946.744873,1660.227295 
	C3973.213623,1631.533203 4006.073975,1616.110718 4045.255127,1613.618896 
	C4120.356934,1608.842773 4185.469238,1664.732788 4196.266602,1736.508423 
	C4206.087402,1801.790527 4168.894043,1869.832397 4102.742676,1893.418213 
	C4054.120117,1910.754395 4008.358398,1903.537720 3966.390137,1873.280029 
	C3963.961426,1871.528687 3961.687744,1869.562378 3958.812012,1867.225586 
z"/>
<path fill="#36BC57" opacity="1.000000" stroke="none" 
	d="
M5698.847656,336.874664 
	C5623.924316,397.118256 5515.140137,372.994751 5475.689453,286.571014 
	C5450.229004,230.797058 5458.419434,177.804550 5497.966797,130.825668 
	C5523.629883,100.340355 5557.377441,84.664055 5597.193848,81.676399 
	C5668.169922,76.350693 5737.839844,126.434059 5749.335449,204.181992 
	C5757.115723,256.800018 5739.425293,301.172119 5698.847656,336.874664 
z"/>
<path fill="#F1F4F4" opacity="1.000000" stroke="none" 
	d="
M5431.329102,1219.574219 
	C5495.007812,1184.787354 5558.037598,1150.355347 5621.923340,1115.455811 
	C5623.337891,1118.796997 5624.550293,1121.659668 5626.167969,1125.481567 
	C5357.033691,1272.431763 5088.244629,1419.193481 4819.050293,1566.176270 
	C4817.110840,1562.918945 4815.471680,1560.165649 4813.500977,1556.855835 
	C5019.568848,1444.360718 5225.124512,1332.145020 5431.329102,1219.574219 
z"/>
<path fill="#F1F4F4" opacity="1.000000" stroke="none" 
	d="
M6007.194336,575.947449 
	C6033.202148,573.036316 6058.306152,570.192993 6083.953125,567.288147 
	C6085.314941,570.742981 6086.492188,573.730103 6088.010742,577.583191 
	C5812.872559,608.615723 5538.483887,639.563782 5263.368164,670.593811 
	C5262.846191,666.861206 5262.455078,664.065186 5262.055176,661.205139 
	C5263.363770,660.577576 5264.187988,659.899475 5265.079102,659.796265 
	C5293.516113,656.499023 5321.956055,653.233582 5350.401855,650.013794 
	C5383.145996,646.307617 5415.895996,642.659607 5448.641602,638.967041 
	C5481.054199,635.312073 5513.462402,631.616943 5545.875977,627.968994 
	C5578.296387,624.320312 5610.723633,620.728210 5643.143555,617.074646 
	C5675.883789,613.384949 5708.617676,609.640320 5741.356445,605.937988 
	C5773.771484,602.272217 5806.189453,598.635559 5838.604980,594.973938 
	C5871.017578,591.312561 5903.428223,587.632996 5935.840332,583.967529 
	C5959.323242,581.311829 5982.807129,578.665710 6007.194336,575.947449 
z"/>
<path fill="#F2F3F3" opacity="1.000000" stroke="none" 
	d="
M4142.945801,1631.087280 
	C4143.944824,1627.957153 4145.113770,1625.233643 4146.793457,1622.873657 
	C4269.781250,1450.106323 4392.813477,1277.370850 4515.831543,1104.625488 
	C4548.662598,1058.523438 4581.457031,1012.395569 4614.283691,966.290527 
	C4616.377441,963.349915 4618.606934,960.506042 4621.260742,956.966797 
	C4624.116211,959.605225 4626.493652,961.802368 4629.108887,964.218872 
	C4469.148926,1188.858398 4309.905762,1412.491699 4150.274902,1636.669922 
	C4147.533691,1634.687256 4145.443848,1633.175415 4142.945801,1631.087280 
z"/>
<path fill="#F1F1F1" opacity="1.000000" stroke="none" 
	d="
M6423.790039,763.029785 
	C6422.755371,756.605469 6421.816406,751.033020 6420.738281,744.635193 
	C6423.744629,743.523682 6426.665527,742.443909 6430.930176,740.867188 
	C6470.767090,981.011780 6510.438965,1220.159424 6550.223633,1459.986816 
	C6546.513672,1459.986816 6543.370605,1459.986816 6539.432129,1459.986816 
	C6537.694824,1449.897461 6535.908203,1439.807617 6534.224121,1429.700562 
	C6522.959473,1362.092529 6511.664062,1294.489746 6500.481445,1226.868286 
	C6488.152832,1152.311768 6476.008301,1077.724854 6463.645508,1003.174011 
	C6452.705078,937.199646 6441.559570,871.259216 6430.541992,805.297546 
	C6428.238770,791.506348 6426.100098,777.687561 6423.790039,763.029785 
z"/>
<path fill="#F1F4F4" opacity="1.000000" stroke="none" 
	d="
M7066.820312,1753.753052 
	C7163.852539,1780.005859 7260.085938,1806.087402 7356.919922,1832.331665 
	C7355.691406,1835.908325 7354.750977,1838.646851 7353.423340,1842.512817 
	C7130.913086,1782.203857 6908.620117,1721.953613 6685.409180,1661.454834 
	C6685.895508,1658.349854 6686.374512,1655.290527 6687.021484,1651.155640 
	C6690.972656,1652.109619 6694.107910,1652.787842 6697.200684,1653.625000 
	C6819.508789,1686.732178 6941.812988,1719.853882 7064.116699,1752.977417 
	C7064.759277,1753.151245 7065.387207,1753.379028 7066.820312,1753.753052 
z"/>
<path fill="#F1F4F4" opacity="1.000000" stroke="none" 
	d="
M6078.334961,1299.476318 
	C6013.918945,1258.122437 5950.089844,1217.192261 5885.757812,1175.939697 
	C5888.581055,1172.791382 5890.718750,1170.407349 5893.077637,1167.776855 
	C6069.960449,1281.193970 6246.465332,1394.368896 6423.851074,1508.108398 
	C6421.464844,1510.966309 6419.480469,1513.343262 6416.881348,1516.455688 
	C6304.056641,1444.160522 6191.488770,1372.030273 6078.334961,1299.476318 
z"/>
<path fill="#F1F1F1" opacity="1.000000" stroke="none" 
	d="
M5673.565430,1500.186523 
	C5654.492676,1579.185303 5635.624512,1657.383789 5616.516602,1736.575928 
	C5612.923340,1735.741333 5609.882812,1735.035156 5606.051758,1734.145386 
	C5647.278809,1562.934448 5688.350586,1392.368652 5729.540039,1221.313721 
	C5733.107910,1221.841553 5735.949219,1222.261841 5740.187012,1222.888794 
	C5717.961914,1315.412476 5695.865723,1407.399292 5673.565430,1500.186523 
z"/>
<path fill="#F1F4F4" opacity="1.000000" stroke="none" 
	d="
M6789.302246,708.440430 
	C6725.896484,670.422607 6663.126953,632.764832 6599.709961,594.719055 
	C6601.055176,591.551941 6602.286621,588.652527 6603.993652,584.632202 
	C6754.946289,675.244751 6905.169922,765.420105 7056.214355,856.088013 
	C7054.248047,859.167175 7052.576172,861.785034 7050.381348,865.222656 
	C6963.281250,812.910400 6876.609375,760.855469 6789.302246,708.440430 
z"/>
<path fill="#F2F3F3" opacity="1.000000" stroke="none" 
	d="
M7347.630859,1322.937134 
	C7343.800293,1310.418945 7340.167969,1298.682861 7336.216309,1285.915405 
	C7339.682129,1285.043579 7342.693359,1284.286133 7346.693359,1283.279907 
	C7390.194336,1425.486084 7433.525879,1567.137817 7476.926270,1709.015137 
	C7473.596191,1710.733521 7471.018555,1712.063721 7467.197266,1714.035645 
	C7427.277832,1583.504883 7387.553223,1453.611938 7347.630859,1322.937134 
z"/>
<path fill="#F1F1F1" opacity="1.000000" stroke="none" 
	d="
M4763.965820,1174.711914 
	C4755.889160,1225.511841 4747.914062,1275.445679 4739.897461,1325.372681 
	C4732.198242,1373.325806 4724.453613,1421.271729 4716.739258,1469.222534 
	C4715.686523,1475.767578 4714.694824,1482.322510 4713.523926,1489.844116 
	C4710.199219,1489.399048 4707.133789,1488.988647 4702.884766,1488.419800 
	C4726.212891,1342.542480 4749.407715,1197.496948 4772.682129,1051.951416 
	C4776.189941,1052.923340 4779.010254,1053.704956 4783.053711,1054.825317 
	C4776.711914,1094.540161 4770.380371,1134.191528 4763.965820,1174.711914 
z"/>
<path fill="#F1F4F4" opacity="1.000000" stroke="none" 
	d="
M6080.267090,766.268982 
	C6014.733398,832.566528 5949.699707,898.363647 5884.090332,964.742981 
	C5881.208496,962.061462 5878.861816,959.878357 5876.140625,957.346191 
	C5969.208984,863.208008 6061.409180,769.947632 6153.911133,676.382751 
	C6156.759766,678.755981 6158.991699,680.615112 6162.228516,683.311340 
	C6134.856445,711.018188 6107.812012,738.393372 6080.267090,766.268982 
z"/>
<path fill="#F1F4F4" opacity="1.000000" stroke="none" 
	d="
M5042.068359,1866.103760 
	C5067.000488,1882.095581 5091.307617,1897.721436 5116.209473,1913.729248 
	C5114.258789,1916.770996 5112.562988,1919.415405 5110.383789,1922.813599 
	C5010.663574,1858.794922 4911.421875,1795.083618 4811.573730,1730.982910 
	C4813.401367,1727.919434 4815.027344,1725.194824 4817.134277,1721.663086 
	C4892.195312,1769.875000 4966.819336,1817.806274 5042.068359,1866.103760 
z"/>
<path fill="#F1F4F4" opacity="1.000000" stroke="none" 
	d="
M6007.457520,325.012512 
	C6037.455078,333.988068 6066.714844,342.639404 6096.805664,351.536469 
	C6095.414062,354.910767 6094.332520,357.532562 6092.687500,361.521362 
	C5981.211914,328.451477 5869.877930,295.423523 5757.680176,262.139404 
	C5758.299805,258.657349 5758.848145,255.577103 5759.568359,251.527390 
	C5842.489258,276.073364 5924.604492,300.380829 6007.457520,325.012512 
z"/>
<path fill="#F1F4F4" opacity="1.000000" stroke="none" 
	d="
M4345.040039,1703.680908 
	C4380.323242,1697.723267 4414.739258,1691.860962 4449.168457,1686.081055 
	C4475.062988,1681.733887 4500.974121,1677.489746 4526.880371,1673.213989 
	C4528.141602,1673.005859 4529.425293,1672.932251 4531.106934,1672.752197 
	C4532.029785,1675.812134 4532.855957,1678.554077 4534.109375,1682.712280 
	C4425.094238,1700.999878 4316.773438,1719.171021 4207.376465,1737.522705 
	C4206.686523,1734.140137 4206.066895,1731.102295 4205.224609,1726.972900 
	C4252.004395,1719.175415 4298.091797,1711.493530 4345.040039,1703.680908 
z"/>
<path fill="#F1F4F4" opacity="1.000000" stroke="none" 
	d="
M5273.200195,443.315308 
	C5337.089844,391.675873 5400.426758,340.487701 5464.464355,288.732971 
	C5466.259766,292.662689 5467.581543,295.555664 5469.112793,298.906555 
	C5383.662109,367.953552 5298.540039,436.734589 5212.726074,506.075195 
	C5210.812012,503.308044 5209.021973,500.720215 5206.575195,497.182648 
	C5228.852051,479.172760 5250.749023,461.469666 5273.200195,443.315308 
z"/>
<path fill="#6A6B6D" opacity="1.000000" stroke="none" 
	d="
M6471.333496,1951.708252 
	C6470.950684,1951.658203 6470.673828,1950.814941 6470.791992,1949.653076 
	C6471.270508,1949.861328 6471.354980,1950.388184 6471.333496,1951.708252 
z"/>
</svg>